<?xml version="1.0" encoding="UTF-8" standalone="no"?>
<!-- Created with Inkscape (http://www.inkscape.org/) -->

<svg
   width="20200.002mm"
   height="14300.002mm"
   viewBox="0 0 20200.002 14300.002"
   version="1.1"
   id="svg56597"
   inkscape:version="1.2.2 (732a01da63, 2022-12-09, custom)"
   sodipodi:docname="bivy.svg"
   xml:space="preserve"
   xmlns:inkscape="http://www.inkscape.org/namespaces/inkscape"
   xmlns:sodipodi="http://sodipodi.sourceforge.net/DTD/sodipodi-0.dtd"
   xmlns:xlink="http://www.w3.org/1999/xlink"
   xmlns="http://www.w3.org/2000/svg"
   xmlns:svg="http://www.w3.org/2000/svg"><sodipodi:namedview
     id="namedview56599"
     pagecolor="#ffffff"
     bordercolor="#000000"
     borderopacity="0.25"
     inkscape:showpageshadow="2"
     inkscape:pageopacity="0.0"
     inkscape:pagecheckerboard="0"
     inkscape:deskcolor="#d1d1d1"
     inkscape:document-units="mm"
     showgrid="true"
     inkscape:zoom="0.027122094"
     inkscape:cx="42880.169"
     inkscape:cy="53590.994"
     inkscape:window-width="1850"
     inkscape:window-height="1016"
     inkscape:window-x="0"
     inkscape:window-y="0"
     inkscape:window-maximized="1"
     inkscape:current-layer="layer1"><inkscape:grid
       type="xygrid"
       id="grid57915"
       units="cm"
       spacingx="10"
       spacingy="10"
       empspacing="10"
       originx="8500.0014"
       originy="-1800.0002" /><inkscape:grid
       type="xygrid"
       id="grid57918"
       units="cm"
       spacingx="500"
       spacingy="500"
       empspacing="1"
       originx="8500.0014"
       originy="-1800.0002" /></sodipodi:namedview><defs
     id="defs56594"><inkscape:path-effect
       effect="offset"
       id="path-effect792"
       is_visible="true"
       lpeversion="1.2"
       linejoin_type="miter"
       unit="cm"
       offset="10"
       miter_limit="4"
       attempt_force_join="false"
       update_on_knot_move="true" /><inkscape:path-effect
       effect="offset"
       id="path-effect630"
       is_visible="true"
       lpeversion="1.2"
       linejoin_type="miter"
       unit="cm"
       offset="10"
       miter_limit="4"
       attempt_force_join="false"
       update_on_knot_move="true" /></defs><g
     inkscape:label="Layer 1"
     inkscape:groupmode="layer"
     id="layer1"
     transform="translate(8500,-1800.0002)"><path
       id="rect58742"
       style="vector-effect:non-scaling-stroke;fill:#806600;fill-opacity:0.543543;stroke:#000000;stroke-width:0.13081;-inkscape-stroke:hairline"
       d="m -6599.9995,4500.0003 299.9999,1499.9999 H -5700 l 300.0005,-1499.9999 z"
       sodipodi:nodetypes="ccccc" /><rect
       style="vector-effect:non-scaling-stroke;fill:#806600;fill-opacity:0.543543;stroke:#000000;stroke-width:0.139369;-inkscape-stroke:hairline"
       id="rect57889"
       width="1500.001"
       height="4200.0005"
       x="-8500"
       y="1800.0002" /><path
       id="rect57891"
       style="vector-effect:non-scaling-stroke;fill:#806600;fill-opacity:0.543543;stroke:#000000;stroke-width:0.0755232;-inkscape-stroke:hairline"
       d="m -4969.9995,3530.0003 -30,70 v 900 h 1000 v -900 l -30,-70 -70,-30 h -800 z"
       sodipodi:nodetypes="ccccccccc" /><use
       x="0"
       y="0"
       xlink:href="#rect57891"
       id="use57909"
       transform="rotate(90,-5149.9998,1650.0002)" /><path
       id="rect57911"
       style="vector-effect:non-scaling-stroke;fill:#806600;fill-opacity:0.543543;stroke:#000000;stroke-width:0.0616644;-inkscape-stroke:hairline"
       d="m -4999.9995,4500.0003 199.9998,1499.9999 h 600.0001 l 200.0001,-1499.9999 z"
       sodipodi:nodetypes="ccccc" /><use
       x="0"
       y="0"
       xlink:href="#rect57911"
       id="use57913"
       transform="rotate(-90,-6499.9997,6500.0003)" /><path
       id="rect58737"
       style="vector-effect:non-scaling-stroke;fill:#806600;fill-opacity:0.543543;stroke:#000000;stroke-width:0.0924966;-inkscape-stroke:hairline"
       d="m -6599.9999,3500.0003 4e-4,1000 h 1200 l -3e-4,-1000 z"
       sodipodi:nodetypes="ccccc" /><use
       x="0"
       y="0"
       xlink:href="#rect58742"
       id="use58745"
       transform="rotate(90,-6949.9996,4450)" /><use
       x="0"
       y="0"
       xlink:href="#rect58737"
       id="use58747"
       transform="rotate(-90,-7049.9997,4450.0004)" /><rect
       style="vector-effect:non-scaling-stroke;fill:#806600;fill-opacity:0.543543;stroke:#000000;stroke-width:0.0242213;-inkscape-stroke:hairline"
       id="rect64563"
       width="120"
       height="1500"
       x="-5022.439"
       y="4668.0352"
       transform="rotate(7.6622558)" /><use
       x="0"
       y="0"
       xlink:href="#rect64563"
       id="use64565"
       transform="rotate(-7.6622549,-18149.777,22616.299)" /><rect
       style="vector-effect:non-scaling-stroke;fill:#806600;fill-opacity:0.543543;stroke:#000000;stroke-width:0.0216642;-inkscape-stroke:hairline"
       id="rect64567"
       width="120"
       height="1200"
       x="3780.0002"
       y="5399.9995"
       transform="rotate(90)" /><use
       x="0"
       y="0"
       xlink:href="#rect64567"
       id="use64569"
       transform="rotate(-90,-7385,4715.0003)" /><rect
       style="vector-effect:non-scaling-stroke;fill:#806600;fill-opacity:0.543543;stroke:#000000;stroke-width:0.0176887;-inkscape-stroke:hairline"
       id="rect64571"
       width="80"
       height="1200"
       x="3760.0002"
       y="5399.9995"
       transform="rotate(90)" /><use
       x="0"
       y="0"
       xlink:href="#rect64571"
       id="use64573"
       transform="rotate(-90,-7415,4745.0003)" /><rect
       style="vector-effect:non-scaling-stroke;fill:#806600;fill-opacity:0.543543;stroke:#000000;stroke-width:0.0242213;-inkscape-stroke:hairline"
       id="rect64575"
       width="80"
       height="1500"
       x="-5003.3315"
       y="4654.7017"
       transform="rotate(7.6622558)" /><path
       id="path346"
       style="vector-effect:non-scaling-stroke;fill:#806600;fill-opacity:0.543543;stroke:#000000;stroke-width:0.0616644;-inkscape-stroke:hairline"
       d="m -6499.999,19450 v 499.999 L -6349.9984,21450 h 349.9998 350.0004 l 149.9996,-1500.001 V 19450 Z" /><g
       id="g466"
       transform="rotate(-3.8120834,-7152.704,19489)"><rect
         style="vector-effect:non-scaling-stroke;fill:#806600;fill-opacity:0.543543;stroke:#000000;stroke-width:0.0242213;-inkscape-stroke:hairline"
         id="rect64563-3"
         width="120"
         height="1500"
         x="-2962.8904"
         y="20118.688"
         transform="rotate(7.6622558)" /><rect
         style="vector-effect:non-scaling-stroke;fill:#806600;fill-opacity:0.543543;stroke:#000000;stroke-width:0.0242213;-inkscape-stroke:hairline"
         id="rect64575-6"
         width="80"
         height="1500"
         x="-2922.8904"
         y="20118.688"
         transform="rotate(7.6622558)" /></g><use
       x="0"
       y="0"
       xlink:href="#rect64575"
       id="use64577"
       transform="rotate(-7.7031782,-17940.367,21778.143)" /><use
       x="0"
       y="0"
       xlink:href="#path64673"
       id="use64705"
       transform="rotate(90,-1499.9997,4499.9999)" /><rect
       style="vector-effect:non-scaling-stroke;fill:#806600;fill-opacity:0.543543;stroke:#000000;stroke-width:0.139369;-inkscape-stroke:hairline"
       id="rect64667"
       width="1500.001"
       height="3700.001"
       x="-3000"
       y="2300.0002" /><path
       id="path64669"
       style="vector-effect:non-scaling-stroke;fill:#806600;fill-opacity:0.543543;stroke:#000000;stroke-width:0.0755232;-inkscape-stroke:hairline"
       d="m -899.99994,3600.0001 -100,200 v 700 H 5.585937e-5 v -700 l -99.99999985937,-200 -199.999996,-100 h -400 z"
       sodipodi:nodetypes="ccccccccc" /><path
       id="path64673"
       style="vector-effect:non-scaling-stroke;fill:#806600;fill-opacity:0.543543;stroke:#000000;stroke-width:0.0616644;-inkscape-stroke:hairline"
       d="M -999.99954,4500.0001 -799.99974,6000 h 600.0001 L 4.5585938e-4,4500.0001 Z"
       sodipodi:nodetypes="ccccc" /><use
       x="0"
       y="0"
       xlink:href="#path64669"
       id="use64701"
       transform="rotate(-90,-1849.9999,4150.0001)" /><use
       x="0"
       y="0"
       xlink:href="#path64673"
       id="use64707"
       transform="rotate(-90,-1649.9997,5850.0003)" /><use
       x="0"
       y="0"
       xlink:href="#path64669"
       id="use64709"
       transform="rotate(-90,-1349.9999,4650.0001)" /><rect
       style="vector-effect:non-scaling-stroke;fill:#806600;fill-opacity:0.543543;stroke:#000000;stroke-width:0.139369;-inkscape-stroke:hairline"
       id="rect64713"
       width="1500.0049"
       height="3700.001"
       x="2000.0006"
       y="2300.0002" /><path
       id="path64717"
       style="vector-effect:non-scaling-stroke;fill:#806600;fill-opacity:0.543543;stroke:#000000;stroke-width:0.0616644;-inkscape-stroke:hairline"
       d="m 4060.0006,5000.0001 140,1000 h 600 l 140,-1000 z"
       sodipodi:nodetypes="ccccc" /><path
       id="path64725"
       style="vector-effect:non-scaling-stroke;fill:#806600;fill-opacity:0.543543;stroke:#000000;stroke-width:0.0755232;-inkscape-stroke:hairline"
       d="m 4100.0006,3600.0001 -100,200 v 700 l 60,500 h 880 l 60,-500 v -700 l -100,-200 -200,-100 h -400 z"
       sodipodi:nodetypes="ccccccccccc" /><use
       x="0"
       y="0"
       xlink:href="#path64725"
       id="use64727"
       transform="rotate(90,3000.0006,4000.0001)" /><use
       x="0"
       y="0"
       xlink:href="#path64725"
       id="use64729"
       transform="rotate(90,3500.0007,3500.0001)" /><path
       id="path64731"
       style="vector-effect:non-scaling-stroke;fill:#806600;fill-opacity:0.543543;stroke:#000000;stroke-width:0.0616644;-inkscape-stroke:hairline"
       d="m 2500.0006,3270.0001 1000,-140 v -600 l -1000,-140 z"
       sodipodi:nodetypes="ccccc" /><path
       id="path64733"
       style="vector-effect:non-scaling-stroke;fill:#806600;fill-opacity:0.543543;stroke:#000000;stroke-width:0.0616644;-inkscape-stroke:hairline"
       d="m 3500.0006,3130.0001 -1000,140 v 600 l 1000,140 z"
       sodipodi:nodetypes="ccccc" /><rect
       style="vector-effect:non-scaling-stroke;fill:#806600;fill-opacity:0.543543;stroke:#000000;stroke-width:0.0224492;-inkscape-stroke:hairline"
       id="rect64846"
       width="119.99995"
       height="1400"
       x="4380.0005"
       y="3500.0002" /><use
       x="0"
       y="0"
       xlink:href="#rect64846"
       id="use64848"
       transform="translate(-2379.9999,-1000)" /><use
       x="0"
       y="0"
       xlink:href="#rect64846"
       id="use64852"
       transform="translate(-2239.9999,-1000)" /><rect
       style="vector-effect:non-scaling-stroke;fill:#806600;fill-opacity:0.543543;stroke:#000000;stroke-width:0.0183297;-inkscape-stroke:hairline"
       id="rect64854"
       width="79.999947"
       height="1400"
       x="4400.0005"
       y="3500.0002" /><use
       x="0"
       y="0"
       xlink:href="#rect64854"
       id="use64856"
       transform="translate(-2100,-1000)" /><use
       x="0"
       y="0"
       xlink:href="#rect64854"
       id="use64858"
       transform="translate(-1999.9999,-1000)" /><rect
       style="vector-effect:non-scaling-stroke;fill:#806600;fill-opacity:0.543543;stroke:#000000;stroke-width:0.139369;-inkscape-stroke:hairline"
       id="rect64927"
       width="1500.0049"
       height="4000"
       x="7000.0005"
       y="2000.0001" /><path
       id="path64929"
       style="vector-effect:non-scaling-stroke;fill:#806600;fill-opacity:0.543543;stroke:#000000;stroke-width:0.0616644;-inkscape-stroke:hairline"
       d="m 9500.0012,5000.0002 v 1000 l 350.0001,-1e-4 89.9999,-999.9999 z"
       sodipodi:nodetypes="ccccc" /><path
       id="path65048"
       style="vector-effect:non-scaling-stroke;fill:#806600;fill-opacity:0.543543;stroke:#000000;stroke-width:0.0616644;-inkscape-stroke:hairline"
       d="m 9060.0011,5000.0002 90.0002,999.9999 349.9999,1e-4 v -1000 z"
       sodipodi:nodetypes="ccccc" /><path
       id="path64931"
       style="vector-effect:non-scaling-stroke;fill:#806600;fill-opacity:0.543543;stroke:#000000;stroke-width:0.0755232;-inkscape-stroke:hairline"
       d="m 9100.0012,3600.0002 -100,200 v 700 l 60,500 h 880 l 59.9998,-500 v -700 l -99.9998,-200 -200,-100 h -400 z"
       sodipodi:nodetypes="ccccccccccc" /><rect
       style="vector-effect:non-scaling-stroke;fill:#806600;fill-opacity:0.543543;stroke:#000000;stroke-width:0.0224492;-inkscape-stroke:hairline"
       id="rect64957"
       width="119.99995"
       height="1400"
       x="9441.3857"
       y="3530.7002" /><use
       x="0"
       y="0"
       xlink:href="#rect64846"
       id="use64959"
       transform="rotate(90,7190.0007,4810.0004)" /><use
       x="0"
       y="0"
       xlink:href="#rect64846"
       id="use64961"
       transform="rotate(90,7120.0007,4880.0004)" /><rect
       style="vector-effect:non-scaling-stroke;fill:#806600;fill-opacity:0.543543;stroke:#000000;stroke-width:0.0183297;-inkscape-stroke:hairline"
       id="rect64963"
       width="79.999947"
       height="1400"
       x="9461.3857"
       y="3530.7002" /><use
       x="0"
       y="0"
       xlink:href="#rect64854"
       id="use64965"
       transform="rotate(90,7050.0007,4950.0004)" /><use
       x="0"
       y="0"
       xlink:href="#rect64854"
       id="use64967"
       transform="rotate(90,7000.0007,5000.0004)" /><path
       id="path64971"
       style="vector-effect:non-scaling-stroke;fill:#806600;fill-opacity:0.543543;stroke:#000000;stroke-width:0.0616644;-inkscape-stroke:hairline"
       d="m 10800.001,3500.0002 -199.999,100 -100.001,200 v 700 l 60.001,500 90,1000 h 700 l 90,-1000 60,-500 v -700 l -100,-200 -200,-100 z"
       sodipodi:nodetypes="ccccccccccccc" /><use
       x="0"
       y="0"
       xlink:href="#path64971"
       id="use64976"
       transform="rotate(180,9500.0013,4750)" /><use
       x="0"
       y="0"
       xlink:href="#path65048"
       id="use65051"
       transform="translate(-1999.9999,-9.99863e-5)" /><use
       x="0"
       y="0"
       xlink:href="#path64929"
       id="use65053"
       transform="translate(-2350,-999.99996)" /><use
       x="0"
       y="0"
       xlink:href="#path64931"
       id="use65055"
       transform="rotate(90,9250.0012,2750.0002)" /><text
       xml:space="preserve"
       style="font-size:100px;fill:#445500;stroke-width:0.264583"
       x="10231.984"
       y="3175.9766"
       id="text484"><tspan
         sodipodi:role="line"
         id="tspan482"
         style="font-size:100px;stroke-width:0.264583"
         x="10231.984"
         y="3175.9766">No seam in the bottom fabric </tspan></text><rect
       style="vector-effect:non-scaling-stroke;fill:#806600;fill-opacity:0.543543;stroke:#000000;stroke-width:0.139369;-inkscape-stroke:hairline"
       id="rect166"
       width="1500.0049"
       height="4000"
       x="-8500"
       y="7500" /><path
       id="path168"
       style="vector-effect:non-scaling-stroke;fill:#806600;fill-opacity:0.543543;stroke:#000000;stroke-width:0.0616644;-inkscape-stroke:hairline"
       d="m -5999.9996,10000 3e-4,1500.001 h 350.0001 L -5499.9996,10000 Z"
       sodipodi:nodetypes="ccccc" /><path
       id="path170"
       style="vector-effect:non-scaling-stroke;fill:#806600;fill-opacity:0.543543;stroke:#000000;stroke-width:0.0616644;-inkscape-stroke:hairline"
       d="m -6499.9996,10000 150.0004,1500.001 h 349.9999 l -3e-4,-1500.001 z"
       sodipodi:nodetypes="ccccc" /><rect
       style="vector-effect:non-scaling-stroke;fill:#806600;fill-opacity:0.543543;stroke:#000000;stroke-width:0.0224492;-inkscape-stroke:hairline"
       id="rect174"
       width="119.99995"
       height="1400"
       x="-9654.1777"
       y="-6699.9995"
       transform="rotate(-90)" /><use
       x="0"
       y="0"
       xlink:href="#rect64846"
       id="use176"
       transform="rotate(90,-3309.9994,-189.99989)" /><use
       x="0"
       y="0"
       xlink:href="#rect64846"
       id="use178"
       transform="rotate(90,-3379.9994,-119.99989)" /><rect
       style="vector-effect:non-scaling-stroke;fill:#806600;fill-opacity:0.543543;stroke:#000000;stroke-width:0.0183297;-inkscape-stroke:hairline"
       id="rect180"
       width="79.999947"
       height="1400"
       x="-9634.1777"
       y="-6699.9995"
       transform="rotate(-90)" /><use
       x="0"
       y="0"
       xlink:href="#rect64854"
       id="use182"
       transform="rotate(90,-3449.9994,-49.99989)" /><use
       x="0"
       y="0"
       xlink:href="#rect64854"
       id="use184"
       transform="rotate(90,-3499.9994,1.1000025e-4)" /><path
       id="path186"
       style="vector-effect:non-scaling-stroke;fill:#806600;fill-opacity:0.543543;stroke:#000000;stroke-width:0.0616644;-inkscape-stroke:hairline"
       d="m -4699.9996,9000.0002 -199.9997,100 -100.0001,200 V 10000 l 60,500 90.0002,1000.001 h 700 l 89.9997,-1000.001 59.9999,-500 v -699.9998 l -100,-200 -199.9997,-100 z"
       sodipodi:nodetypes="ccccccccccccc" /><use
       x="0"
       y="0"
       xlink:href="#path64971"
       id="use188"
       transform="rotate(180,1750.001,7500)" /><use
       x="0"
       y="0"
       xlink:href="#path170"
       id="use504"
       transform="rotate(180,-7249.9996,10000)" /><use
       x="0"
       y="0"
       xlink:href="#path168"
       id="use506"
       transform="translate(-2500)" /><rect
       style="vector-effect:non-scaling-stroke;fill:#806600;fill-opacity:0.543543;stroke:#000000;stroke-width:0.139369;-inkscape-stroke:hairline"
       id="rect585"
       width="1500.0049"
       height="4000"
       x="-3000.0002"
       y="7499.999" /><path
       id="path587"
       style="vector-effect:non-scaling-stroke;fill:#806600;fill-opacity:0.543543;stroke:#000000;stroke-width:0.0616644;-inkscape-stroke:hairline"
       d="m -499.99992,9999.9993 3e-4,1500.0007 h 350.0001 L 8.4143552e-5,9999.9993 Z"
       sodipodi:nodetypes="ccccc" /><path
       id="path589"
       style="vector-effect:non-scaling-stroke;fill:#806600;fill-opacity:0.543543;stroke:#000000;stroke-width:0.0616644;-inkscape-stroke:hairline"
       d="M -999.99992,9999.9993 -849.99952,11500 h 349.9999 l -3e-4,-1500.0007 z"
       sodipodi:nodetypes="ccccc" /><path
       id="path591"
       style="vector-effect:non-scaling-stroke;fill:#806600;fill-opacity:0.543543;stroke:#000000;stroke-width:0.0755232;-inkscape-stroke:hairline"
       d="m -999.9996,9000.0002 -2e-5,299.9991 v 700 H 3.8414355e-4 v -700 L 4.000023e-4,9000.0002 -299.99962,8999.9993 h -400 z"
       sodipodi:nodetypes="ccccccccc" /><rect
       style="vector-effect:non-scaling-stroke;fill:#806600;fill-opacity:0.543543;stroke:#000000;stroke-width:0.0224492;-inkscape-stroke:hairline"
       id="rect593"
       width="119.99995"
       height="1400"
       x="-9654.1768"
       y="-1199.9998"
       transform="rotate(-90)" /><use
       x="0"
       y="0"
       xlink:href="#rect64846"
       id="use595"
       transform="rotate(90,-559.99916,2559.9995)" /><use
       x="0"
       y="0"
       xlink:href="#rect64846"
       id="use597"
       transform="rotate(90,-629.99916,2629.9995)" /><rect
       style="vector-effect:non-scaling-stroke;fill:#806600;fill-opacity:0.543543;stroke:#000000;stroke-width:0.0183297;-inkscape-stroke:hairline"
       id="rect599"
       width="79.999947"
       height="1400"
       x="-9634.1768"
       y="-1199.9998"
       transform="rotate(-90)" /><use
       x="0"
       y="0"
       xlink:href="#rect64854"
       id="use601"
       transform="rotate(90,-699.99916,2699.9995)" /><use
       x="0"
       y="0"
       xlink:href="#rect64854"
       id="use603"
       transform="rotate(90,-749.99916,2749.9995)" /><path
       id="path623"
       style="vector-effect:non-scaling-stroke;fill:#806600;fill-opacity:0.543543;stroke:#000000;stroke-width:0.0616644;-inkscape-stroke:hairline"
       d="M 400,8800 V 9904.9883 L 559.50195,11500.002 H 1000 1440.498 L 1600,9904.9883 V 9200 8800 H 1200 800 Z"
       sodipodi:nodetypes="cccccccccccc"
       inkscape:path-effect="#path-effect630"
       inkscape:original-d="M 800.00069,8900.0002 H 500.00034 l 5.8e-4,1000 h -5.2e-4 l 150.00015,1500.0008 h 350.00025 349.9999 l 149.9996,-1500.0008 5e-4,-699.9997 -5e-4,-300.0003 h -299.9998 z" /><path
       id="path605"
       style="vector-effect:non-scaling-stroke;fill:#806600;fill-opacity:0.543543;stroke:#000000;stroke-width:0.0616644;-inkscape-stroke:hairline"
       d="m 500.0001,8804.9893 v 100 h -100 L 400,9204.9884 v 700 L 550.0004,11400 h 100 v 100 h 700 v -100 h 100 l 149.9992,-1490.023 3e-4,-704.9886 3e-4,-299.9992 -100.0003,-9e-4 v -100 z"
       sodipodi:nodetypes="ccccccccccccccccc" /><use
       x="0"
       y="0"
       xlink:href="#path605"
       id="use615"
       transform="translate(-3100,9.9998523e-5)" /><use
       x="0"
       y="0"
       xlink:href="#path587"
       id="use617"
       transform="translate(-2499.9998,-1549.9995)" /><use
       x="0"
       y="0"
       xlink:href="#path589"
       id="use619"
       transform="rotate(180,-1749.9998,10750)" /><use
       x="0"
       y="0"
       xlink:href="#path591"
       id="use621"
       transform="translate(-1500,-999.9991)" /><text
       xml:space="preserve"
       style="font-size:3.175px;fill:#445500;stroke-width:0.264583"
       x="600.00049"
       y="8500"
       id="text686"><tspan
         sodipodi:role="line"
         id="tspan684"
         style="stroke-width:0.264583"
         x="600.00049"
         y="8500">asd§</tspan></text><text
       xml:space="preserve"
       style="font-size:100px;fill:#445500;stroke-width:0.264583"
       x="-404.88242"
       y="7975.9766"
       id="text690"><tspan
         sodipodi:role="line"
         id="tspan688"
         style="font-size:100px;stroke-width:0.264583"
         x="-404.88242"
         y="7975.9766">- No seam in the bottom fabric </tspan><tspan
         sodipodi:role="line"
         style="font-size:100px;stroke-width:0.264583"
         x="-404.88242"
         y="8100.9766"
         id="tspan692">- bath tub floor</tspan><tspan
         sodipodi:role="line"
         style="font-size:100px;stroke-width:0.264583"
         x="-404.88242"
         y="8225.9766"
         id="tspan694">- 10 cm walls</tspan><tspan
         sodipodi:role="line"
         style="font-size:100px;stroke-width:0.264583"
         x="-404.88242"
         y="8350.9766"
         id="tspan1114">- needs more fabric</tspan></text><rect
       style="vector-effect:non-scaling-stroke;fill:#806600;fill-opacity:0.543543;stroke:#000000;stroke-width:0.139369;-inkscape-stroke:hairline"
       id="rect746"
       width="1500.0045"
       height="4699.999"
       x="2000.0006"
       y="6800" /><rect
       style="vector-effect:non-scaling-stroke;fill:#806600;fill-opacity:0.543543;stroke:#000000;stroke-width:0.018973;-inkscape-stroke:hairline"
       id="rect754"
       width="119.99995"
       height="999.99994"
       x="-9560"
       y="4000.0005"
       transform="rotate(-90)" /><rect
       style="vector-effect:non-scaling-stroke;fill:#806600;fill-opacity:0.543543;stroke:#000000;stroke-width:0.0154914;-inkscape-stroke:hairline"
       id="rect760"
       width="79.999947"
       height="999.99994"
       x="-9540"
       y="4000.0005"
       transform="rotate(-90)" /><path
       id="path766"
       style="vector-effect:non-scaling-stroke;fill:#806600;fill-opacity:0.543543;stroke:#000000;stroke-width:0.0616644;-inkscape-stroke:hairline"
       d="m 5400,8800 0,1000 h -10.5 l 170,1700.002 H 6000 6440.498 L 6600,9904.9883 V 9200 8800 h -400 -400 z"
       sodipodi:nodetypes="cccccccccccc"
       inkscape:path-effect="#path-effect792"
       inkscape:original-d="m 5800.0008,8900 h -300.0003 l 5e-4,1000 h -5e-4 l 150.0002,1500.001 h 350.0002 349.9999 L 6500.0004,9900 l 5e-4,-699.9997 -5e-4,-300.0003 h -299.9998 z" /><path
       id="path768"
       style="vector-effect:non-scaling-stroke;fill:#806600;fill-opacity:0.543543;stroke:#000000;stroke-width:0.0616644;-inkscape-stroke:hairline"
       d="m 5500.0002,8804.9891 v 100 h -100 l -1e-4,299.9991 v 700 L 5550.0005,11400 h 100 v 100 h 700 v -100 h 100 l 149.9992,-1490.0232 3e-4,-704.9886 3e-4,-299.9992 -100.0003,-9e-4 v -100 z"
       sodipodi:nodetypes="ccccccccccccccccc" /><use
       x="0"
       y="0"
       xlink:href="#path605"
       id="use770"
       transform="translate(1900.0001,-1.1000032e-4)" /><text
       xml:space="preserve"
       style="font-size:3.175px;fill:#445500;stroke-width:0.264583"
       x="5600.0005"
       y="8500"
       id="text780"><tspan
         sodipodi:role="line"
         id="tspan778"
         style="stroke-width:0.264583"
         x="5600.0005"
         y="8500">asd§</tspan></text><text
       xml:space="preserve"
       style="font-size:100px;fill:#445500;stroke-width:0.264583"
       x="5400.0005"
       y="8300"
       id="text788"><tspan
         sodipodi:role="line"
         id="tspan782"
         style="font-size:100px;stroke-width:0.264583"
         x="5400.0005"
         y="8300">- No seam in the bottom fabric </tspan><tspan
         sodipodi:role="line"
         style="font-size:100px;stroke-width:0.264583"
         x="5400.0005"
         y="8425"
         id="tspan784">- bath tub floor</tspan><tspan
         sodipodi:role="line"
         style="font-size:100px;stroke-width:0.264583"
         x="5400.0005"
         y="8550"
         id="tspan786">- 10 cm walls</tspan></text><path
       id="path915"
       style="vector-effect:non-scaling-stroke;fill:#806600;fill-opacity:0.543543;stroke:#000000;stroke-width:0.0616644;-inkscape-stroke:hairline"
       d="m 5000.0003,9500 h -999.9999 v 499.9999 l 150.0001,1500.0021 h 349.9999 350.0003 l 149.9996,-1500.001 z" /><path
       id="path980"
       style="vector-effect:non-scaling-stroke;fill:#806600;fill-opacity:0.543543;stroke:#000000;stroke-width:0.0616644;-inkscape-stroke:hairline"
       d="M 4000.0004,9000.0015 V 9300.0008 9500 h 999.9999 v -199.9982 -299.9992 h -299.9997 -399.9999 z" /><use
       x="0"
       y="0"
       xlink:href="#path915"
       id="use983"
       transform="translate(-1499.9998,-2700.0009)" /><use
       x="0"
       y="0"
       xlink:href="#path980"
       id="use985"
       transform="rotate(90,3850.0017,7650.001)" /><use
       x="0"
       y="0"
       xlink:href="#rect754"
       id="use987"
       transform="rotate(90,2640.0006,9140)" /><use
       x="0"
       y="0"
       xlink:href="#rect760"
       id="use989"
       transform="rotate(90,3100.0006,8500)" /><use
       x="0"
       y="0"
       xlink:href="#rect754"
       id="use991"
       transform="rotate(90,2580.0006,9080)" /><use
       x="0"
       y="0"
       xlink:href="#rect760"
       id="use993"
       transform="rotate(90,3140.0006,8540)" /><path
       id="path1236"
       style="vector-effect:non-scaling-stroke;fill:#806600;fill-opacity:0.543543;stroke:#000000;stroke-width:0.0755232;-inkscape-stroke:hairline"
       d="m 200.0006,3600.0001 -100,200 v 700 h 1000 v -700 l -100,-200 -200,-100 h -400 z"
       sodipodi:nodetypes="ccccccccc" /><path
       id="path1238"
       style="vector-effect:non-scaling-stroke;fill:#806600;fill-opacity:0.543543;stroke:#000000;stroke-width:0.0616644;-inkscape-stroke:hairline"
       d="M 100.001,4500.0001 300.0008,6000 H 900.0009 L 1100.001,4500.0001 Z"
       sodipodi:nodetypes="ccccc" /><path
       id="path1240"
       style="vector-effect:non-scaling-stroke;fill:#806600;fill-opacity:0.543543;stroke:#000000;stroke-width:0.0616644;-inkscape-stroke:hairline"
       d="m 5260.0006,5000.0001 140,1000 h 600 l 140,-1000 z"
       sodipodi:nodetypes="ccccc" /><path
       id="path1242"
       style="vector-effect:non-scaling-stroke;fill:#806600;fill-opacity:0.543543;stroke:#000000;stroke-width:0.0755232;-inkscape-stroke:hairline"
       d="m 5300.0006,3600.0001 -100,200 v 700 l 60,500 h 880 l 60,-500 v -700 l -100,-200 -200,-100 h -400 z"
       sodipodi:nodetypes="ccccccccccc" /><rect
       style="vector-effect:non-scaling-stroke;fill:#806600;fill-opacity:0.543543;stroke:#000000;stroke-width:0.139369;-inkscape-stroke:hairline"
       id="rect1620"
       width="1499.998"
       height="3809.9998"
       x="-8500"
       y="12290" /><path
       id="path1622"
       style="vector-effect:non-scaling-stroke;fill:#806600;fill-opacity:0.543543;stroke:#000000;stroke-width:0.0616644;-inkscape-stroke:hairline"
       d="M -6499.9991,14599.999 -6349.9989,16100 h 349.9998 350.0004 l 149.9996,-1500.001 h -500 z" /><path
       id="path1626"
       style="vector-effect:non-scaling-stroke;fill:#806600;fill-opacity:0.543543;stroke:#000000;stroke-width:0.0755232;-inkscape-stroke:hairline"
       d="m -5499.9991,14100 h -1000 v 499.999 h 1000 z" /><path
       id="path1670"
       style="vector-effect:non-scaling-stroke;fill:#806600;fill-opacity:0.543543;stroke:#000000;stroke-width:0.0755232;-inkscape-stroke:hairline"
       d="m -6199.9988,13599.999 -200.0002,100 -100.0001,200 V 14100 h 1000 v -200.001 l -100.0001,-200 -199.9997,-100 z" /><path
       id="path1640"
       style="vector-effect:non-scaling-stroke;fill:#806600;fill-opacity:0.543543;stroke:#000000;stroke-width:0.0616644;-inkscape-stroke:hairline"
       d="m -4699.9993,13600 -199.9997,100 -100.0001,200 v 700 l 60,500 90.0002,1000.001 h 700 l 89.9997,-1000.001 59.9999,-500 v -700 l -100,-200 -199.9997,-100 z"
       sodipodi:nodetypes="ccccccccccccc" /><use
       x="0"
       y="0"
       xlink:href="#path64971"
       id="use1642"
       transform="rotate(180,1750.0016,9800.0011)" /><rect
       style="vector-effect:non-scaling-stroke;fill:#806600;fill-opacity:0.543543;stroke:#000000;stroke-width:0.018973;-inkscape-stroke:hairline"
       id="rect1652"
       width="119.99995"
       height="999.99994"
       x="-14160"
       y="-6499.999"
       transform="rotate(-90)" /><rect
       style="vector-effect:non-scaling-stroke;fill:#806600;fill-opacity:0.543543;stroke:#000000;stroke-width:0.0154914;-inkscape-stroke:hairline"
       id="rect1654"
       width="79.999947"
       height="999.99994"
       x="-14140"
       y="-6499.999"
       transform="rotate(-90)" /><use
       x="0"
       y="0"
       xlink:href="#path1622"
       id="use1666"
       transform="rotate(-90,-7974.9985,15125)" /><use
       x="0"
       y="0"
       xlink:href="#path1670"
       id="use1673"
       transform="rotate(-90,-6749.999,15350)" /><use
       x="0"
       y="0"
       xlink:href="#path1626"
       id="use1675"
       transform="rotate(-90,-6499.999,16100)" /><use
       x="0"
       y="0"
       xlink:href="#rect1652"
       id="use1679"
       transform="translate(-1500.0001,-1589.9999)" /><use
       x="0"
       y="0"
       xlink:href="#rect1654"
       id="use1681"
       transform="translate(-1500,-1689.9999)" /><use
       x="0"
       y="0"
       xlink:href="#rect1652"
       id="use1683"
       transform="translate(-1500,-1469.9999)" /><use
       x="0"
       y="0"
       xlink:href="#rect1654"
       id="use1685"
       transform="translate(-1500,-1769.9999)" /><path
       id="path1687"
       style="vector-effect:non-scaling-stroke;fill:#806600;fill-opacity:0.543543;stroke:#000000;stroke-width:0.0755232;-inkscape-stroke:hairline"
       d="m -6399.999,9100.0001 -100,200 V 10000 h 1000 v -699.9999 l -100,-200 -200,-100 h -400 z"
       sodipodi:nodetypes="ccccccccc" /><use
       x="0"
       y="0"
       xlink:href="#path1687"
       id="use1689"
       transform="translate(-1500,-999.99986)" /><text
       xml:space="preserve"
       style="font-size:200px;fill:#445500;stroke-width:0.264583"
       x="-6299.999"
       y="2300"
       id="text1693"><tspan
         sodipodi:role="line"
         id="tspan1691"
         style="font-size:200px;stroke-width:0.264583"
         x="-6299.999"
         y="2300" /></text><text
       xml:space="preserve"
       style="font-size:500px;fill:#445500;stroke-width:0.264583"
       x="-6499.999"
       y="2500.0002"
       id="text1697"><tspan
         sodipodi:role="line"
         id="tspan1695"
         style="font-size:500px;stroke-width:0.264583"
         x="-6499.999"
         y="2500.0002">1</tspan></text><text
       xml:space="preserve"
       style="font-size:500px;fill:#445500;stroke-width:0.264583"
       x="-999.99902"
       y="2500.0002"
       id="text1808"><tspan
         sodipodi:role="line"
         id="tspan1806"
         style="font-size:500px;stroke-width:0.264583"
         x="-999.99902"
         y="2500.0002">2</tspan></text><text
       xml:space="preserve"
       style="font-size:500px;fill:#445500;stroke-width:0.264583"
       x="4000.001"
       y="2500.0002"
       id="text1808-3"><tspan
         sodipodi:role="line"
         id="tspan1806-6"
         style="font-size:500px;stroke-width:0.264583"
         x="4000.001"
         y="2500.0002">3</tspan></text><text
       xml:space="preserve"
       style="font-size:499.999px;fill:#445500;stroke-width:0.264583"
       x="9000"
       y="2500"
       id="text1845"><tspan
         sodipodi:role="line"
         id="tspan1843"
         style="stroke-width:0.264583"
         x="9000"
         y="2500">4</tspan></text><text
       xml:space="preserve"
       style="font-size:499.999px;fill:#445500;stroke-width:0.264583"
       x="-6499.999"
       y="8000"
       id="text1849"><tspan
         sodipodi:role="line"
         id="tspan1847"
         style="stroke-width:0.264583"
         x="-6499.999"
         y="8000">5</tspan></text><text
       xml:space="preserve"
       style="font-size:499.999px;fill:#445500;stroke-width:0.264583"
       x="-999.99896"
       y="8000"
       id="text1853"><tspan
         sodipodi:role="line"
         id="tspan1851"
         style="stroke-width:0.264583"
         x="-999.99896"
         y="8000">6</tspan></text><text
       xml:space="preserve"
       style="font-size:499.999px;fill:#445500;stroke-width:0.264583"
       x="4000.0007"
       y="8000"
       id="text1857"><tspan
         sodipodi:role="line"
         id="tspan1855"
         style="stroke-width:0.264583"
         x="4000.0007"
         y="8000">7</tspan></text><text
       xml:space="preserve"
       style="font-size:499.999px;fill:#445500;stroke-width:0.264583"
       x="-6499.999"
       y="13000"
       id="text1861"><tspan
         sodipodi:role="line"
         id="tspan1859"
         style="stroke-width:0.264583"
         x="-6499.999"
         y="13000">8</tspan></text><text
       xml:space="preserve"
       style="font-size:499.999px;fill:#445500;stroke-width:0.264583"
       x="-933.3894"
       y="12713.002"
       id="text1861-7"><tspan
         sodipodi:role="line"
         id="tspan1859-5"
         style="stroke-width:0.264583"
         x="-933.3894"
         y="12713.002">9</tspan></text><text
       xml:space="preserve"
       style="font-size:499.999px;fill:#445500;stroke-width:0.264583"
       x="2285.6914"
       y="12867.127"
       id="text1861-7-3"><tspan
         sodipodi:role="line"
         id="tspan1859-5-5"
         style="stroke-width:0.264583"
         x="2285.6914"
         y="12867.127">10</tspan></text><rect
       style="vector-effect:non-scaling-stroke;fill:#806600;fill-opacity:0.543543;stroke:#000000;stroke-width:0.139369;-inkscape-stroke:hairline"
       id="rect2231"
       width="1499.998"
       height="3809.9998"
       x="-2999.9985"
       y="12290" /><rect
       style="vector-effect:non-scaling-stroke;fill:#806600;fill-opacity:0.543543;stroke:#000000;stroke-width:0.140914;-inkscape-stroke:hairline"
       id="rect2233"
       width="880"
       height="2700"
       x="-419.9986"
       y="13410" /><rect
       style="vector-effect:non-scaling-stroke;fill:#806600;fill-opacity:0.543543;stroke:#000000;stroke-width:0.139369;-inkscape-stroke:hairline"
       id="rect2237"
       width="500"
       height="1900"
       x="-249.9986"
       y="13800" /><path
       style="fill:#445500;stroke-width:0.264583"
       id="path2294"
       sodipodi:type="arc"
       sodipodi:cx="0.0013999715"
       sodipodi:cy="-13400"
       sodipodi:rx="500"
       sodipodi:ry="500"
       sodipodi:start="0"
       sodipodi:end="3.1415927"
       sodipodi:open="true"
       sodipodi:arc-type="arc"
       d="m 500.0014,-13400 a 500,500 0 0 1 -250.00001,433.013 500,500 0 0 1 -500,0 A 500,500 0 0 1 -499.9986,-13400"
       transform="scale(1,-1)" /><text
       xml:space="preserve"
       style="font-size:100px;fill:#445500;stroke-width:0.264583"
       x="3200.0015"
       y="12800"
       id="text2512"><tspan
         sodipodi:role="line"
         style="font-size:100px;stroke-width:0.264583"
         x="3200.0015"
         y="12800"
         id="tspan2510">Dutch Gore-Tex Bivy Bag with Pole, DPM, surplus</tspan></text><text
       xml:space="preserve"
       style="font-size:100px;fill:#445500;stroke-width:0.264583"
       x="4303.3218"
       y="13374.219"
       id="text2512-5"><tspan
         sodipodi:role="line"
         style="font-size:100px;stroke-width:0.264583"
         x="4303.3218"
         y="13374.219"
         id="tspan2743">TOP</tspan></text><rect
       style="vector-effect:non-scaling-stroke;fill:#806600;fill-opacity:0.543543;stroke:#000000;stroke-width:0.139369;-inkscape-stroke:hairline"
       id="rect2620"
       width="1499.9982"
       height="2900"
       x="2000.0033"
       y="13200" /><path
       id="path2690"
       style="font-variation-settings:normal;opacity:1;vector-effect:non-scaling-stroke;fill:#806600;fill-opacity:0.543543;stroke:#000000;stroke-width:0.0616644;stroke-linecap:butt;stroke-linejoin:miter;stroke-miterlimit:4;stroke-dasharray:none;stroke-dashoffset:0;stroke-opacity:1;-inkscape-stroke:hairline;stop-color:#000000;stop-opacity:1"
       d="m 4930.0013,13920 h -859.9997 v 80 120 l 80.2701,1080 h 699.4596 l 80.27,-1080 v -120 z" /><rect
       style="vector-effect:non-scaling-stroke;fill:#806600;fill-opacity:0.543543;stroke:#000000;stroke-width:0.139369;-inkscape-stroke:hairline"
       id="rect2622"
       width="500"
       height="1900"
       x="4250.0015"
       y="13600" /><rect
       style="vector-effect:non-scaling-stroke;fill:#806600;fill-opacity:0.543543;stroke:#000000;stroke-width:0.018973;-inkscape-stroke:hairline"
       id="rect2624"
       width="99.999954"
       height="859.99994"
       x="-14020"
       y="4070.0015"
       transform="rotate(-90)" /><path
       style="font-variation-settings:normal;opacity:1;vector-effect:non-scaling-stroke;fill:#806600;fill-opacity:0.543543;stroke:#000000;stroke-width:0.0616643;stroke-linecap:butt;stroke-linejoin:miter;stroke-miterlimit:4;stroke-dasharray:none;stroke-dashoffset:0;stroke-opacity:1;-inkscape-stroke:hairline;stop-color:#000000;stop-opacity:1"
       d="m 4854.235,15185.427 -99.9998,-10 80,-1150 h 79.9999 z"
       id="path2684" /><path
       id="path2686"
       style="font-variation-settings:normal;opacity:1;vector-effect:non-scaling-stroke;fill:#806600;fill-opacity:0.543543;stroke:#000000;stroke-width:0.0616644;stroke-linecap:butt;stroke-linejoin:miter;stroke-miterlimit:4;stroke-dasharray:none;stroke-dashoffset:0;stroke-opacity:1;-inkscape-stroke:hairline;stop-color:#000000;stop-opacity:1"
       d="m 4849.7313,15200 h -699.4596 l 29.7299,400 89.9997,100 h 459.9998 l 90.0002,-100 z" /><path
       id="path2696"
       style="font-variation-settings:normal;opacity:1;vector-effect:non-scaling-stroke;fill:#806600;fill-opacity:0.543543;stroke:#000000;stroke-width:0.0616644;stroke-linecap:butt;stroke-linejoin:miter;stroke-miterlimit:4;stroke-dasharray:none;stroke-dashoffset:0;stroke-opacity:1;-inkscape-stroke:hairline;stop-color:#000000;stop-opacity:1"
       d="m 4200.0014,13500 -90.0001,30 -39.9997,70 v 300 20 h 859.9997 v -20 -300 l -40.0001,-70 -89.9997,-30 z" /><path
       id="path2699"
       style="font-variation-settings:normal;opacity:1;vector-effect:non-scaling-stroke;fill:#806600;fill-opacity:0.543543;stroke:#000000;stroke-width:0.0616644;stroke-linecap:butt;stroke-linejoin:miter;stroke-miterlimit:4;stroke-dasharray:none;stroke-dashoffset:0;stroke-opacity:1;-inkscape-stroke:hairline;stop-color:#000000;stop-opacity:1"
       d="m 5907.7046,14420 h -815.4055 l 87.7026,1180 90.0002,100 h 459.9999 l 90.0001,-100 z" /><path
       id="path2703"
       style="font-variation-settings:normal;opacity:1;vector-effect:non-scaling-stroke;fill:#806600;fill-opacity:0.543543;stroke:#000000;stroke-width:0.0616644;stroke-linecap:butt;stroke-linejoin:miter;stroke-miterlimit:4;stroke-dasharray:none;stroke-dashoffset:0;stroke-opacity:1;-inkscape-stroke:hairline;stop-color:#000000;stop-opacity:1"
       d="m 5200.0015,13500 -89.9996,30 -40.0002,70 v 300 100 120 l 22.2974,300 h 815.4055 l 22.2974,-300 v -120 -100 -300 l -40.0002,-70 -90.0002,-30 z" /><text
       xml:space="preserve"
       style="font-size:499.999px;font-variation-settings:normal;opacity:1;vector-effect:non-scaling-stroke;fill:#806600;fill-opacity:0.543543;stroke:#000000;stroke-width:0.0616643;stroke-linecap:butt;stroke-linejoin:miter;stroke-miterlimit:4;stroke-dasharray:none;stroke-dashoffset:0;stroke-opacity:1;-inkscape-stroke:hairline;stop-color:#000000;stop-opacity:1"
       x="5300.001"
       y="13200"
       id="text2708"><tspan
         sodipodi:role="line"
         id="tspan2706"
         style="stroke-width:0.0616644" /></text><text
       xml:space="preserve"
       style="font-size:100px;fill:#445500;stroke-width:0.264583"
       x="5303.3218"
       y="13374.219"
       id="text2749"><tspan
         sodipodi:role="line"
         style="font-size:100px;stroke-width:0.264583"
         x="5303.3218"
         y="13374.219"
         id="tspan2747">BOTTOM</tspan></text><use
       x="0"
       y="0"
       xlink:href="#path2699"
       id="use2751"
       transform="rotate(90,3863.8529,14056.148)" /><use
       x="0"
       y="0"
       xlink:href="#path2703"
       id="use2755"
       transform="rotate(90,4200.0014,12800)" /><use
       x="0"
       y="0"
       xlink:href="#path2690"
       id="use2757"
       transform="rotate(-90,3865.1365,15565.135)" /><use
       x="0"
       y="0"
       xlink:href="#path2696"
       id="use2759"
       transform="translate(-1429.9999,-250)" /><use
       x="0"
       y="0"
       xlink:href="#path2686"
       id="use2761"
       transform="rotate(-90,2453.6725,15603.672)" /><rect
       style="font-variation-settings:normal;opacity:1;vector-effect:non-scaling-stroke;fill:#806600;fill-opacity:0.543543;stroke:#000000;stroke-width:0.0596419;stroke-linecap:butt;stroke-linejoin:miter;stroke-miterlimit:4;stroke-dasharray:none;stroke-dashoffset:0;stroke-opacity:1;-inkscape-stroke:hairline;stop-color:#000000;stop-opacity:1"
       id="rect2817"
       width="579.99805"
       height="30.000002"
       x="2000.0033"
       y="13972.513" /><rect
       style="vector-effect:non-scaling-stroke;fill:#806600;fill-opacity:0.543543;stroke:#000000;stroke-width:0.139369;-inkscape-stroke:hairline"
       id="rect344"
       width="1499.9854"
       height="4500.0005"
       x="-8500"
       y="17000" /><path
       id="path350"
       style="vector-effect:non-scaling-stroke;fill:#806600;fill-opacity:0.543543;stroke:#000000;stroke-width:0.0755232;-inkscape-stroke:hairline"
       d="m -6199.9971,18999.998 -200.0002,100 -100.0001,200 v 200.001 h 1000 v -200.001 l -100.0001,-200 -199.9997,-100 z" /><path
       id="path352"
       style="vector-effect:non-scaling-stroke;fill:#806600;fill-opacity:0.543543;stroke:#000000;stroke-width:0.0616644;-inkscape-stroke:hairline"
       d="m -4699.9976,18999.999 -199.9997,100 -100.0001,200 v 700 l 60,500 90.0002,1000.001 h 700 l 89.9997,-1000.001 59.9999,-500 v -700 l -100,-200 -199.9997,-100 z"
       sodipodi:nodetypes="ccccccccccccc" /><use
       x="0"
       y="0"
       xlink:href="#path64971"
       id="use354"
       transform="rotate(180,1750.0024,12500.001)" /><rect
       style="vector-effect:non-scaling-stroke;fill:#806600;fill-opacity:0.543543;stroke:#000000;stroke-width:0.018973;-inkscape-stroke:hairline"
       id="rect356"
       width="119.99995"
       height="999.99994"
       x="-19539.848"
       y="-6499.9985"
       transform="rotate(-90)" /><rect
       style="vector-effect:non-scaling-stroke;fill:#806600;fill-opacity:0.543543;stroke:#000000;stroke-width:0.0154914;-inkscape-stroke:hairline"
       id="rect358"
       width="79.999947"
       height="999.99994"
       x="-19539.848"
       y="-6499.9985"
       transform="rotate(-90)" /><use
       x="0"
       y="0"
       xlink:href="#path1670"
       id="use362"
       transform="rotate(-90,-3549.9977,18549.999)" /><use
       x="0"
       y="0"
       xlink:href="#rect1652"
       id="use366"
       transform="rotate(90,-10079.999,15920)" /><use
       x="0"
       y="0"
       xlink:href="#rect1654"
       id="use368"
       transform="rotate(90,-10029.999,15970)" /><use
       x="0"
       y="0"
       xlink:href="#rect1652"
       id="use370"
       transform="rotate(90,-10139.999,15860)" /><use
       x="0"
       y="0"
       xlink:href="#rect1654"
       id="use372"
       transform="rotate(90,-9989.9988,16010)" /><text
       xml:space="preserve"
       style="font-size:499.999px;fill:#445500;stroke-width:0.264583"
       x="-6499.9971"
       y="18400"
       id="text376"><tspan
         sodipodi:role="line"
         id="tspan374"
         style="stroke-width:0.264583"
         x="-6499.9971"
         y="18400">11</tspan></text><use
       x="0"
       y="0"
       xlink:href="#path346"
       id="use427"
       transform="translate(-1499.9992,-2450.0005)" /><use
       x="0"
       y="0"
       xlink:href="#rect1654"
       id="use429"
       transform="rotate(90,-9429.9988,15470)" /><use
       x="0"
       y="0"
       xlink:href="#g466"
       id="use486"
       transform="rotate(-3.8464983,-29656.489,60270.461)" /><use
       x="0"
       y="0"
       xlink:href="#g466"
       id="use488"
       transform="rotate(-3.8464983,-29596.374,58483.668)" /><text
       xml:space="preserve"
       style="font-size:3.175px;fill:#897b39;fill-rule:evenodd;stroke:#000000;stroke-width:0.499999;-inkscape-stroke:none;stop-color:#000000"
       x="2249.3572"
       y="13200"
       id="text846"><tspan
         sodipodi:role="line"
         id="tspan844"
         style="stroke-width:0.5"></tspan></text></g></svg>
