<?xml version="1.0" encoding="UTF-8" standalone="no"?>
<!-- Created with Inkscape (http://www.inkscape.org/) -->

<svg
   width="397.76929mm"
   height="280.36057mm"
   viewBox="0 0 397.76929 280.36057"
   version="1.1"
   id="svg1900"
   inkscape:version="1.3 (1:1.3+202307231459+0e150ed6c4)"
   sodipodi:docname="buckles.svg"
   xmlns:inkscape="http://www.inkscape.org/namespaces/inkscape"
   xmlns:sodipodi="http://sodipodi.sourceforge.net/DTD/sodipodi-0.dtd"
   xmlns="http://www.w3.org/2000/svg"
   xmlns:svg="http://www.w3.org/2000/svg">
  <sodipodi:namedview
     id="namedview1902"
     pagecolor="#ffffff"
     bordercolor="#000000"
     borderopacity="0.25"
     inkscape:showpageshadow="2"
     inkscape:pageopacity="0.0"
     inkscape:pagecheckerboard="0"
     inkscape:deskcolor="#d1d1d1"
     inkscape:document-units="mm"
     showgrid="true"
     inkscape:zoom="0.45511404"
     inkscape:cx="599.84965"
     inkscape:cy="742.671"
     inkscape:window-width="1846"
     inkscape:window-height="1016"
     inkscape:window-x="0"
     inkscape:window-y="0"
     inkscape:window-maximized="1"
     inkscape:current-layer="layer1">
    <inkscape:grid
       type="xygrid"
       id="grid2231"
       units="cm"
       spacingx="1"
       spacingy="1"
       originx="178.57861"
       originy="-89.639427"
       visible="true" />
  </sodipodi:namedview>
  <defs
     id="defs1897">
    <inkscape:path-effect
       effect="mirror_symmetry"
       start_point="119,170"
       end_point="128,170"
       center_point="123.5,170"
       id="path-effect10960"
       is_visible="true"
       lpeversion="1.2"
       lpesatellites=""
       mode="free"
       discard_orig_path="false"
       fuse_paths="false"
       oposite_fuse="false"
       split_items="false"
       split_open="false"
       link_styles="false" />
    <inkscape:path-effect
       effect="mirror_symmetry"
       start_point="-30.00012,136"
       end_point="-9.00012,136"
       center_point="-19.50012,136"
       id="path-effect9729"
       is_visible="true"
       lpeversion="1.2"
       lpesatellites=""
       mode="free"
       discard_orig_path="false"
       fuse_paths="false"
       oposite_fuse="false"
       split_items="false"
       split_open="false"
       link_styles="false" />
    <inkscape:path-effect
       effect="mirror_symmetry"
       start_point="-30.00012,136"
       end_point="-9.00012,136"
       center_point="-19.50012,136"
       id="path-effect9723"
       is_visible="true"
       lpeversion="1.2"
       lpesatellites=""
       mode="free"
       discard_orig_path="false"
       fuse_paths="false"
       oposite_fuse="false"
       split_items="false"
       split_open="false"
       link_styles="false" />
    <inkscape:path-effect
       effect="mirror_symmetry"
       start_point="-30.00012,136"
       end_point="-9.00012,136"
       center_point="-19.50012,136"
       id="path-effect9717"
       is_visible="true"
       lpeversion="1.2"
       lpesatellites=""
       mode="free"
       discard_orig_path="false"
       fuse_paths="false"
       oposite_fuse="false"
       split_items="false"
       split_open="false"
       link_styles="false" />
    <inkscape:path-effect
       effect="mirror_symmetry"
       start_point="-36,128"
       end_point="-10,128"
       center_point="-23,128"
       id="path-effect9542"
       is_visible="true"
       lpeversion="1.2"
       lpesatellites=""
       mode="free"
       discard_orig_path="false"
       fuse_paths="false"
       oposite_fuse="false"
       split_items="false"
       split_open="false"
       link_styles="false" />
    <inkscape:path-effect
       effect="mirror_symmetry"
       start_point="-27.5,128"
       end_point="-18.5,128"
       center_point="-23,128"
       id="path-effect9505"
       is_visible="true"
       lpeversion="1.2"
       lpesatellites=""
       mode="free"
       discard_orig_path="false"
       fuse_paths="false"
       oposite_fuse="false"
       split_items="false"
       split_open="false"
       link_styles="false" />
    <inkscape:path-effect
       effect="mirror_symmetry"
       start_point="-27.5,128"
       end_point="-18.5,128"
       center_point="-23,128"
       id="path-effect9499"
       is_visible="true"
       lpeversion="1.2"
       lpesatellites=""
       mode="free"
       discard_orig_path="false"
       fuse_paths="false"
       oposite_fuse="false"
       split_items="false"
       split_open="false"
       link_styles="false" />
    <inkscape:path-effect
       effect="mirror_symmetry"
       start_point="-27.5,128"
       end_point="-18.5,128"
       center_point="-23,128"
       id="path-effect9439"
       is_visible="true"
       lpeversion="1.2"
       lpesatellites=""
       mode="free"
       discard_orig_path="false"
       fuse_paths="false"
       oposite_fuse="false"
       split_items="false"
       split_open="false"
       link_styles="false" />
    <inkscape:path-effect
       effect="mirror_symmetry"
       start_point="-11.564967,290.05207"
       end_point="32.392551,290.05182"
       center_point="10.413792,290.05195"
       id="path-effect3782"
       is_visible="true"
       lpeversion="1.2"
       lpesatellites=""
       mode="free"
       discard_orig_path="false"
       fuse_paths="false"
       oposite_fuse="false"
       split_items="false"
       split_open="false"
       link_styles="false" />
    <inkscape:path-effect
       effect="mirror_symmetry"
       start_point="-11.564967,290.05207"
       end_point="32.392551,290.05182"
       center_point="10.413792,290.05195"
       id="path-effect3744"
       is_visible="true"
       lpeversion="1.2"
       lpesatellites=""
       mode="free"
       discard_orig_path="false"
       fuse_paths="false"
       oposite_fuse="false"
       split_items="false"
       split_open="false"
       link_styles="false" />
    <inkscape:path-effect
       effect="mirror_symmetry"
       start_point="16.907403,290.05202"
       end_point="24.899647,290.05202"
       center_point="20.903525,290.05202"
       id="path-effect3736"
       is_visible="true"
       lpeversion="1.2"
       lpesatellites=""
       mode="free"
       discard_orig_path="false"
       fuse_paths="false"
       oposite_fuse="false"
       split_items="false"
       split_open="false"
       link_styles="false" />
    <inkscape:path-effect
       effect="mirror_symmetry"
       start_point="16.907403,290.05202"
       end_point="24.899647,290.05202"
       center_point="20.903525,290.05202"
       id="path-effect3730"
       is_visible="true"
       lpeversion="1.2"
       lpesatellites=""
       mode="free"
       discard_orig_path="false"
       fuse_paths="false"
       oposite_fuse="false"
       split_items="false"
       split_open="false"
       link_styles="false" />
    <inkscape:path-effect
       effect="mirror_symmetry"
       start_point="-17.999756,181.9999"
       end_point="32.000244,181.9999"
       center_point="7.000244,181.9999"
       id="path-effect3647"
       is_visible="true"
       lpeversion="1.2"
       lpesatellites=""
       mode="free"
       discard_orig_path="false"
       fuse_paths="false"
       oposite_fuse="false"
       split_items="false"
       split_open="false"
       link_styles="false" />
    <inkscape:path-effect
       effect="mirror_symmetry"
       start_point="-15.96152,182.03189"
       end_point="-0.96152,182.03189"
       center_point="-8.46152,182.03189"
       id="path-effect3635"
       is_visible="true"
       lpeversion="1.2"
       lpesatellites=""
       mode="free"
       discard_orig_path="false"
       fuse_paths="false"
       oposite_fuse="false"
       split_items="false"
       split_open="false"
       link_styles="false" />
    <inkscape:path-effect
       effect="mirror_symmetry"
       start_point="-15.96152,182.03189"
       end_point="-0.96152,182.03189"
       center_point="-8.46152,182.03189"
       id="path-effect3629"
       is_visible="true"
       lpeversion="1.2"
       lpesatellites=""
       mode="free"
       discard_orig_path="false"
       fuse_paths="false"
       oposite_fuse="false"
       split_items="false"
       split_open="false"
       link_styles="false" />
    <inkscape:path-effect
       effect="mirror_symmetry"
       start_point="16.907403,290.05202"
       end_point="24.899647,290.05202"
       center_point="20.903525,290.05202"
       id="path-effect3623"
       is_visible="true"
       lpeversion="1.2"
       lpesatellites=""
       mode="free"
       discard_orig_path="false"
       fuse_paths="false"
       oposite_fuse="false"
       split_items="false"
       split_open="false"
       link_styles="false" />
    <inkscape:path-effect
       effect="mirror_symmetry"
       start_point="-15.96152,182.03189"
       end_point="-0.96152,182.03189"
       center_point="-8.46152,182.03189"
       id="path-effect3617"
       is_visible="true"
       lpeversion="1.2"
       lpesatellites=""
       mode="free"
       discard_orig_path="false"
       fuse_paths="false"
       oposite_fuse="false"
       split_items="false"
       split_open="false"
       link_styles="false" />
    <inkscape:path-effect
       effect="mirror_symmetry"
       start_point="-38,125"
       end_point="-27.086256,125.00012"
       center_point="-32.543128,125.00006"
       id="path-effect3352"
       is_visible="true"
       lpeversion="1.2"
       lpesatellites=""
       mode="free"
       discard_orig_path="false"
       fuse_paths="false"
       oposite_fuse="false"
       split_items="false"
       split_open="false"
       link_styles="false" />
    <inkscape:path-effect
       effect="mirror_symmetry"
       start_point="-28,125"
       end_point="-19,125"
       center_point="-23.5,125"
       id="path-effect3289"
       is_visible="true"
       lpeversion="1.2"
       lpesatellites=""
       mode="free"
       discard_orig_path="false"
       fuse_paths="false"
       oposite_fuse="false"
       split_items="false"
       split_open="false"
       link_styles="false" />
    <inkscape:path-effect
       effect="mirror_symmetry"
       start_point="16.907403,290.05202"
       end_point="24.899647,290.05202"
       center_point="20.903525,290.05202"
       id="path-effect3243"
       is_visible="true"
       lpeversion="1.2"
       lpesatellites=""
       mode="free"
       discard_orig_path="false"
       fuse_paths="false"
       oposite_fuse="false"
       split_items="false"
       split_open="false"
       link_styles="false" />
    <inkscape:path-effect
       effect="mirror_symmetry"
       start_point="16.907403,290.05202"
       end_point="24.899647,290.05202"
       center_point="20.903525,290.05202"
       id="path-effect3237"
       is_visible="true"
       lpeversion="1.2"
       lpesatellites=""
       mode="free"
       discard_orig_path="false"
       fuse_paths="false"
       oposite_fuse="false"
       split_items="false"
       split_open="false"
       link_styles="false" />
    <inkscape:path-effect
       effect="mirror_symmetry"
       start_point="16.907403,290.05202"
       end_point="24.899647,290.05202"
       center_point="20.903525,290.05202"
       id="path-effect3228"
       is_visible="true"
       lpeversion="1.2"
       lpesatellites=""
       mode="free"
       discard_orig_path="false"
       fuse_paths="false"
       oposite_fuse="false"
       split_items="false"
       split_open="false"
       link_styles="false" />
    <inkscape:path-effect
       effect="mirror_symmetry"
       start_point="16.907403,290.05202"
       end_point="24.899647,290.05202"
       center_point="20.903525,290.05202"
       id="path-effect3222"
       is_visible="true"
       lpeversion="1.2"
       lpesatellites=""
       mode="free"
       discard_orig_path="false"
       fuse_paths="false"
       oposite_fuse="false"
       split_items="false"
       split_open="false"
       link_styles="false" />
    <inkscape:path-effect
       effect="mirror_symmetry"
       start_point="16.907403,290.05202"
       end_point="24.899647,290.05202"
       center_point="20.903525,290.05202"
       id="path-effect3216"
       is_visible="true"
       lpeversion="1.2"
       lpesatellites=""
       mode="free"
       discard_orig_path="false"
       fuse_paths="false"
       oposite_fuse="false"
       split_items="false"
       split_open="false"
       link_styles="false" />
    <inkscape:path-effect
       effect="mirror_symmetry"
       start_point="-28,125"
       end_point="-19,125"
       center_point="-23.5,125"
       id="path-effect3103"
       is_visible="true"
       lpeversion="1.2"
       lpesatellites=""
       mode="free"
       discard_orig_path="false"
       fuse_paths="false"
       oposite_fuse="false"
       split_items="false"
       split_open="false"
       link_styles="false" />
    <inkscape:path-effect
       effect="mirror_symmetry"
       start_point="-28,125"
       end_point="-19,125"
       center_point="-23.5,125"
       id="path-effect3097"
       is_visible="true"
       lpeversion="1.2"
       lpesatellites=""
       mode="free"
       discard_orig_path="false"
       fuse_paths="false"
       oposite_fuse="false"
       split_items="false"
       split_open="false"
       link_styles="false" />
    <inkscape:path-effect
       effect="mirror_symmetry"
       start_point="-6.500061,182.00911"
       end_point="26.499939,181.99069"
       center_point="9.999939,181.9999"
       id="path-effect2611"
       is_visible="true"
       lpeversion="1.2"
       lpesatellites=""
       mode="free"
       discard_orig_path="false"
       fuse_paths="false"
       oposite_fuse="false"
       split_items="false"
       split_open="false"
       link_styles="false" />
    <inkscape:path-effect
       effect="mirror_symmetry"
       start_point="4,182"
       end_point="12,182"
       center_point="8,182"
       id="path-effect2552"
       is_visible="true"
       lpeversion="1.2"
       lpesatellites=""
       mode="free"
       discard_orig_path="false"
       fuse_paths="false"
       oposite_fuse="false"
       split_items="false"
       split_open="false"
       link_styles="false" />
    <inkscape:path-effect
       effect="mirror_symmetry"
       start_point="4,182"
       end_point="12,182"
       center_point="8,182"
       id="path-effect2486"
       is_visible="true"
       lpeversion="1.2"
       lpesatellites=""
       mode="free"
       discard_orig_path="false"
       fuse_paths="false"
       oposite_fuse="false"
       split_items="false"
       split_open="false"
       link_styles="false" />
    <inkscape:path-effect
       effect="mirror_symmetry"
       start_point="0,245"
       end_point="14,245"
       center_point="7,245"
       id="path-effect2306"
       is_visible="true"
       lpeversion="1.2"
       lpesatellites=""
       mode="free"
       discard_orig_path="false"
       fuse_paths="false"
       oposite_fuse="false"
       split_items="false"
       split_open="false"
       link_styles="false" />
    <inkscape:path-effect
       effect="mirror_symmetry"
       start_point="-25.839383,244.97407"
       end_point="20,245"
       center_point="-2.9196915,244.98703"
       id="path-effect2304"
       is_visible="true"
       lpeversion="1.2"
       lpesatellites=""
       mode="free"
       discard_orig_path="false"
       fuse_paths="false"
       oposite_fuse="false"
       split_items="false"
       split_open="false"
       link_styles="false" />
    <inkscape:path-effect
       effect="mirror_symmetry"
       start_point="158,190"
       end_point="180,190"
       center_point="169,190"
       id="path-effect2235"
       is_visible="true"
       lpeversion="1.2"
       lpesatellites=""
       mode="free"
       discard_orig_path="false"
       fuse_paths="false"
       oposite_fuse="false"
       split_items="false"
       split_open="false"
       link_styles="false" />
    <inkscape:path-effect
       effect="mirror_symmetry"
       start_point="136.5,190"
       end_point="165.5,190"
       center_point="151,190"
       id="path-effect2233"
       is_visible="true"
       lpeversion="1.2"
       lpesatellites=""
       mode="free"
       discard_orig_path="false"
       fuse_paths="false"
       oposite_fuse="false"
       split_items="false"
       split_open="false"
       link_styles="false" />
    <inkscape:path-effect
       effect="mirror_symmetry"
       start_point="90,190"
       end_point="180,190"
       center_point="135,190"
       id="path-effect2229"
       is_visible="true"
       lpeversion="1.2"
       lpesatellites=""
       mode="free"
       discard_orig_path="false"
       fuse_paths="false"
       oposite_fuse="false"
       split_items="false"
       split_open="false"
       link_styles="false" />
  </defs>
  <g
     inkscape:label="Layer 1"
     inkscape:groupmode="layer"
     id="layer1"
     transform="translate(157.76965,-89.639428)">
    <text
       xml:space="preserve"
       style="font-size:7.05556px;vector-effect:non-scaling-stroke;fill:#1a1a1a;fill-opacity:1;stroke:none;stroke-width:0.264583;stroke-opacity:0.509002;-inkscape-stroke:hairline"
       x="-16.88999"
       y="97.074745"
       id="text2115"><tspan
         sodipodi:role="line"
         id="tspan2113"
         style="font-size:7.05556px;fill:#1a1a1a;fill-opacity:1;stroke:none;stroke-width:0.264583"
         x="-16.88999"
         y="97.074745">tri-glide, 20 mm</tspan><tspan
         sodipodi:role="line"
         style="font-size:7.05556px;fill:#1a1a1a;fill-opacity:1;stroke:none;stroke-width:0.264583"
         x="-16.88999"
         y="105.8942"
         id="tspan2167" /></text>
    <text
       xml:space="preserve"
       style="font-size:7.05556px;vector-effect:non-scaling-stroke;fill:#1a1a1a;fill-opacity:1;stroke:none;stroke-width:0.264583;stroke-opacity:0.509002;-inkscape-stroke:hairline"
       x="84.999992"
       y="95"
       id="text2396"><tspan
         sodipodi:role="line"
         style="fill:#1a1a1a;fill-opacity:1;stroke:none;stroke-width:0.264583"
         x="84.999992"
         y="95"
         id="tspan2398">1 inch</tspan></text>
    <path
       style="fill:none;fill-opacity:1;stroke:#000000;stroke-width:0.5;stroke-linecap:round;stroke-linejoin:bevel;stroke-dasharray:none;stroke-opacity:0.509002"
       d="m 8.5000005,317.5 2.9999985,1 -2.9999985,1 2.9999985,1 -2.9999985,1 2.9999985,1 -2.9999985,1 2.9999985,1 -2.9999985,1 2.9999985,1 -2.9999985,1 2.9999985,1 -2.9999985,1 2.9999985,1 -2.9999985,1 2.9999985,1 -2.9999985,1 2.9999985,1 -2.9999985,1 2.9999985,1"
       id="path2902"
       sodipodi:nodetypes="cccccccccccccccccccc" />
    <path
       id="path3095"
       style="vector-effect:non-scaling-stroke;fill:#1a1a1a;fill-opacity:1;stroke:none;stroke-width:0.259331;stroke-dasharray:none;stroke-dashoffset:0;stroke-opacity:0.509002;-inkscape-stroke:hairline"
       d="m -11,125 v -10 c 0,-2 -2,-4 -4,-4 h -16 c -2,0 -4,1 -4,3 v 11 m 4,0 0.0105,-9.9028 C -30.988337,114 -30,114 -28,114 c 2,0 3,4e-5 3,1 0,2 -1,5 -1,10 m 6,0 c 0,-5 -1,-8 -1,-10 0,-1.00499 1.262515,-1 3,-1 1.737486,0 3,-0.30383 3,1 v 10 m 4,0 v 10 c 0,2 -2,4 -4,4 h -16 c -2,0 -4,-1 -4,-3 v -11 m 4,0 0.0105,9.9028 C -30.988337,136 -30,136 -28,136 c 2,0 3,-4e-5 3,-1 0,-2 -1,-5 -1,-10 m 6,0 c 0,5 -1,8 -1,10 0,1.00499 1.262515,1 3,1 1.737486,0 3,0.30383 3,-1 v -10"
       sodipodi:nodetypes="cssssccsssccsssc"
       inkscape:path-effect="#path-effect3097"
       inkscape:original-d="m -11,125 v -10 c 0,-2 -2,-4 -4,-4 h -16 c -2,0 -4,1 -4,3 v 11 m 4,0 0.0105,-9.9028 C -30.988337,114 -30,114 -28,114 c 2,0 3,4e-5 3,1 0,2 -1,5 -1,10 m 6,0 c 0,-5 -1,-8 -1,-10 0,-1.00499 1.262515,-1 3,-1 1.737486,0 3,-0.30383 3,1 v 10"
       class="UnoptimicedTransforms"
       transform="translate(23)" />
    <path
       id="path3099"
       style="vector-effect:non-scaling-stroke;fill:#1a1a1a;fill-opacity:1;stroke:none;stroke-width:0.259331;stroke-dasharray:none;stroke-dashoffset:0;stroke-opacity:0.509002;-inkscape-stroke:hairline"
       d="m -31.000187,110.99994 c -1.999998,0 -3.999756,0.99982 -3.999756,2.99982 v 11.00036 10.99985 c 0,2 1.999758,2.99981 3.999756,2.99981 h 16.000057 c 1.999998,0 4.000272,-1.99975 4.000272,-3.99975 v -9.99991 -9.9999 c 0,-2 -2.000274,-4.00028 -4.000272,-4.00028 z m 14.465784,2.96933 c 0.937556,-0.002 1.534273,0.13456 1.534273,1.03095 v 9.9999 9.99991 c 0,1.30383 -1.262333,0.99994 -2.999817,0.99994 -1.737483,0 -2.999817,0.005 -2.999817,-0.99994 h -4.000273 c 0,0.99996 -0.999819,0.99994 -2.999817,0.99994 -1.999998,0 -2.988318,1.1e-4 -2.989481,-1.09709 l -0.01085,-9.90276 0.01085,-9.90275 c 0.0012,-1.0972 0.989483,-1.09761 2.989481,-1.09761 1.999998,0 2.999817,5e-4 2.999817,1.00046 h 4.000273 c 0,-1.00499 1.262334,-1.00046 2.999817,-1.00046 0.542964,0 1.039381,-0.0295 1.465544,-0.0305 z"
       transform="translate(51)" />
    <path
       id="path3285"
       style="vector-effect:non-scaling-stroke;fill:#1a1a1a;fill-opacity:1;stroke:none;stroke-width:0.259331;stroke-dasharray:none;stroke-dashoffset:0;stroke-opacity:0.509002;-inkscape-stroke:hairline"
       d="m -20,125 c 0,-4.99997 -1,-8 -0.999963,-9.99978 C -20.999944,113.99523 -20,114 -18,114 c 2,0 3,0 3.000187,1.00021 h 3.999756 c 0,-2 -1.999762,-4.00028 -3.999756,-4.00028 l -16.000057,10e-6 c -1.999994,0 -4.000272,0.99982 -4.000272,2.99982 v 1.00046 h 4.013708 c 0.05942,-1.00002 1.047269,-1.00046 2.986381,-1.00046 1.999994,0 2.999699,5e-4 2.999817,1.00046 C -25,117 -26,120 -26,125 m 6,4e-4 c -1.1e-4,4.99997 -1.000176,7.99997 -1.000183,9.99975 -3e-6,1.00499 0.999941,1.00025 2.999941,1.00029 2,4e-5 3,7e-5 3.000209,-1.00014 l 3.999756,8e-5 c -4.4e-5,2 -1.99985,4.00024 -3.999844,4.0002 l -16.000057,-3.7e-4 c -1.999994,-4e-5 -4.00025,-0.9999 -4.000206,-2.9999 l 2.2e-5,-1.00046 4.013708,8e-5 c 0.0594,1.00003 1.047247,1.00049 2.986359,1.00053 1.999994,4e-5 2.999699,-4.3e-4 2.999839,-1.00039 2.8e-4,-1.99978 -0.999654,-4.99981 -0.999544,-9.99981"
       transform="translate(-5)"
       inkscape:path-effect="#path-effect3352"
       inkscape:original-d="m -20,125 c 0,-4.99997 -1,-8 -0.999963,-9.99978 C -20.999944,113.99523 -20,114 -18,114 c 2,0 3,0 3.000187,1.00021 h 3.999756 c 0,-2 -1.999762,-4.00028 -3.999756,-4.00028 l -16.000057,10e-6 c -1.999994,0 -4.000272,0.99982 -4.000272,2.99982 v 1.00046 h 4.013708 c 0.05942,-1.00002 1.047269,-1.00046 2.986381,-1.00046 1.999994,0 2.999699,5e-4 2.999817,1.00046 C -25,117 -26,120 -26,125"
       class="UnoptimicedTransforms"
       sodipodi:nodetypes="cscccsssccssc" />
    <path
       id="path3613"
       style="vector-effect:non-scaling-stroke;fill:#1a1a1a;fill-opacity:1;stroke:none;stroke-width:0.264583;stroke-opacity:0.509002;-inkscape-stroke:hairline"
       d="M -3.96152,182.03189 -3.999756,170.9999 H 0.99993886 L 1.03848,182.03189 m 30,0 -0.02229,-13.98117 -8.977715,-0.0188 -3,5.99997 H 7.0384749 l -3.0227044,-6.01128 c -4.97729564,0.0113 -9.1846996,0.34273 -13.015743,0.97944 -0.9615475,5.03184 -1.9615475,8.03185 -1.9615475,13.03184 m 7,0 -0.038236,11.03199 H 0.99993886 L 1.03848,182.03189 m 30,0 -0.02229,13.98117 -8.977715,0.0188 -3,-5.99997 H 7.0384749 l -3.0227044,6.01128 c -4.97729564,-0.0113 -9.1846996,-0.34273 -13.015743,-0.97944 -0.9615475,-5.03184 -1.9615475,-8.03185 -1.9615475,-13.03184"
       sodipodi:nodetypes="cccccccccccc"
       inkscape:original-d="M -3.96152,182.03189 -3.999756,170.9999 H 0.99993886 L 1.03848,182.03189 m 30,0 -0.02229,-13.98117 -8.977715,-0.0188 -3,5.99997 H 7.0384749 l -3.0227044,-6.01128 c -4.97729564,0.0113 -9.1846996,0.34273 -13.015743,0.97944 -0.9615475,5.03184 -1.9615475,8.03185 -1.9615475,13.03184"
       inkscape:path-effect="#path-effect3617"
       class="UnoptimicedTransforms"
       transform="translate(-48.038475,-0.03189)" />
    <path
       id="path3625"
       style="vector-effect:non-scaling-stroke;fill:#1a1a1a;fill-opacity:1;stroke:none;stroke-width:0.264583;stroke-opacity:0.509002;-inkscape-stroke:hairline"
       d="M -3.96152,182.03189 -3.999756,170.9999 H 0.99993886 L 1.03848,182.03189 m 30,0 -0.02229,-13.98117 -8.977715,-0.0188 -3,5.99997 H 7.0384749 l -3.0227044,-6.01128 c -4.97729564,0.0113 -9.1846996,0.34273 -13.015743,0.97944 -0.9615475,5.03184 -1.9615475,8.03185 -1.9615475,13.03184 m 7,0 -0.038236,11.03199 H 0.99993886 L 1.03848,182.03189 m 30,0 -0.02229,13.98117 -8.977715,0.0188 -3,-5.99997 H 7.0384749 l -3.0227044,6.01128 c -4.97729564,-0.0113 -9.1846996,-0.34273 -13.015743,-0.97944 -0.9615475,-5.03184 -1.9615475,-8.03185 -1.9615475,-13.03184"
       sodipodi:nodetypes="cccccccccccc"
       inkscape:original-d="M -3.96152,182.03189 -3.999756,170.9999 H 0.99993886 L 1.03848,182.03189 m 30,0 -0.02229,-13.98117 -8.977715,-0.0188 -3,5.99997 H 7.0384749 l -3.0227044,-6.01128 c -4.97729564,0.0113 -9.1846996,0.34273 -13.015743,0.97944 -0.9615475,5.03184 -1.9615475,8.03185 -1.9615475,13.03184"
       inkscape:path-effect="#path-effect3629"
       class="UnoptimicedTransforms"
       transform="translate(2.9615251,-0.03189)" />
    <path
       id="path3631"
       style="vector-effect:non-scaling-stroke;fill:#1a1a1a;fill-opacity:1;stroke:none;stroke-width:0.264583;stroke-opacity:0.509002;-inkscape-stroke:hairline"
       d="m 4.0158364,168.0207 c -4.97728558,0.0113 -9.1847072,0.34256 -13.015743,0.97927 -0.2069725,1.08311 -0.4152869,2.06711 -0.6154663,2.99982 h 5.6192953 l -0.00362,-0.99994 H 0.99999986 L 1.0382404,181.9997 H 31.038476 l -0.02222,-13.94902 -8.977747,-0.0186 -2.999817,5.99964 H 7.038391 Z m 0,27.9584 c -4.97728558,-0.0113 -9.1847072,-0.34256 -13.015743,-0.97927 -0.2069725,-1.08311 -0.4152869,-2.06711 -0.6154663,-2.99982 h 5.6192953 l -0.00362,0.99994 H 0.99999986 L 1.0382404,182.0001 H 31.038476 l -0.02222,13.94902 -8.977747,0.0186 -2.999817,-5.99964 H 7.038391 Z"
       transform="translate(2.999756,33.0001)"
       inkscape:path-effect="#path-effect3647"
       inkscape:original-d="m 4.0158364,168.0207 c -4.97728558,0.0113 -9.1847072,0.34256 -13.015743,0.97927 -0.2069725,1.08311 -0.4152869,2.06711 -0.6154663,2.99982 h 5.6192953 l -0.00362,-0.99994 H 0.99999986 L 1.0382404,181.9997 H 31.038476 l -0.02222,-13.94902 -8.977747,-0.0186 -2.999817,5.99964 H 7.038391 Z"
       class="UnoptimicedTransforms" />
    <path
       id="path3732"
       style="vector-effect:non-scaling-stroke;fill:#1a1a1a;fill-opacity:1;stroke:none;stroke-width:0.137316;stroke-opacity:0.509002;-inkscape-stroke:hairline"
       d="m 15.408857,290.05207 v -9.99031 l 0.999031,-0.99903 2.997091,6e-5 v 0.99897 h 3.996122 v -0.99897 l 3.996123,9e-5 v 10.98919 l 4.99551,-3.4e-4 c 0,-4.99515 -0.999426,-7.99198 -1.998455,-12.98712 l -14.98506,-0.99897 v 1.99794 H 3.4205516 l 0.9989696,-1.99794 c -5.9941712,0 -8.2443625,-0.0387 -10.4894386,1.99794 v 0.99896 h 0.9989696 v 0.99897 l 2.4972552,2.5e-4 1.99836594,1.99769 4.99484786,3.7e-4 1.9980611,-1.99806 4.9950907,-9e-5 v 5.99434 l -0.998969,0.99897 H -1.574662 l -0.9990306,-0.99903 -6.9932138,1.99806 v 1.99806 m 24.9757634,-3e-4 1.14e-4,9.99031 0.999042,0.99902 2.997091,-9e-5 -1.1e-5,-0.99897 3.996122,-5e-5 1.1e-5,0.99897 3.996123,-1.3e-4 -1.25e-4,-10.98919 4.99551,2.8e-4 c 5.7e-5,4.99515 -0.999335,7.99199 -1.998307,12.98714 l -14.985049,0.99914 -2.3e-5,-1.99794 -11.988667,1.4e-4 0.9989923,1.99793 c -5.9941712,7e-5 -8.2443621,0.0388 -10.4894613,-1.99782 l -1.14e-5,-0.99896 0.9989696,-10e-6 -1.14e-5,-0.99897 2.4972552,-2.8e-4 1.99834325,-1.99772 4.99484785,-4.2e-4 1.9980838,1.99804 4.9950911,3e-5 -6.9e-5,-5.99434 -0.99898,-0.99896 -11.9883659,1.4e-4 -0.9990192,0.99904 -6.9932366,-1.99798 -2.27e-5,-1.99806"
       transform="matrix(1.0009704,0,0,1.0009704,-1.4238099,1.6664651)"
       inkscape:path-effect="#path-effect3744"
       inkscape:original-d="m 15.408857,290.05207 v -9.99031 l 0.999031,-0.99903 2.997091,6e-5 v 0.99897 h 3.996122 v -0.99897 l 3.996123,9e-5 v 10.98919 l 4.99551,-3.4e-4 c 0,-4.99515 -0.999426,-7.99198 -1.998455,-12.98712 l -14.98506,-0.99897 v 1.99794 H 3.4205516 l 0.9989696,-1.99794 c -5.9941712,0 -8.2443625,-0.0387 -10.4894386,1.99794 v 0.99896 h 0.9989696 v 0.99897 l 2.4972552,2.5e-4 1.99836594,1.99769 4.99484786,3.7e-4 1.9980611,-1.99806 4.9950907,-9e-5 v 5.99434 l -0.998969,0.99897 H -1.574662 l -0.9990306,-0.99903 -6.9932138,1.99806 v 1.99806"
       class="UnoptimicedTransforms"
       sodipodi:nodetypes="cccccccccccccccccccccccccccccc" />
    <path
       id="path3778"
       style="vector-effect:non-scaling-stroke;fill:#1a1a1a;fill-opacity:1;stroke:none;stroke-width:0.137316;stroke-opacity:0.509002;-inkscape-stroke:hairline"
       d="m 15.408857,290.05207 v -9.99031 l 0.999031,-0.99903 2.997091,6e-5 v 10.98928 m 3.996122,0 v -10.98928 l 3.996123,9e-5 v 10.98919 l 4.99551,-3.4e-4 c 0,-4.99515 -0.999426,-7.99198 -1.998455,-12.98712 l -14.98506,-0.99897 v 1.99794 H 3.4205516 l 0.9989696,-1.99794 c -5.9941712,0 -8.2443625,-0.0387 -10.4894386,1.99794 v 0.99896 h 0.9989696 v 0.99897 l 2.4972552,2.5e-4 1.99836594,1.99769 4.99484786,3.7e-4 1.9980611,-1.99806 4.9950907,-9e-5 v 5.99434 l -0.998969,0.99897 H -1.574662 l -0.9990306,-0.99903 -6.9932138,1.99806 v 1.99806 m 24.9757634,-3e-4 1.14e-4,9.99031 0.999042,0.99902 2.997091,-9e-5 -1.25e-4,-10.98928 m 3.996122,-5e-5 1.25e-4,10.98928 3.996123,-1.3e-4 -1.25e-4,-10.98919 4.99551,2.8e-4 c 5.7e-5,4.99515 -0.999335,7.99199 -1.998307,12.98714 l -14.985049,0.99914 -2.3e-5,-1.99794 -11.988667,1.4e-4 0.9989923,1.99793 c -5.9941712,7e-5 -8.2443621,0.0388 -10.4894613,-1.99782 l -1.14e-5,-0.99896 0.9989696,-10e-6 -1.14e-5,-0.99897 2.4972552,-2.8e-4 1.99834325,-1.99772 4.99484785,-4.2e-4 1.9980838,1.99804 4.9950911,3e-5 -6.9e-5,-5.99434 -0.99898,-0.99896 -11.9883659,1.4e-4 -0.9990192,0.99904 -6.9932366,-1.99798 -2.27e-5,-1.99806"
       transform="matrix(1.0009704,0,0,1.0009704,-1.4238099,-35.333532)"
       inkscape:path-effect="#path-effect3782"
       inkscape:original-d="m 15.408857,290.05207 v -9.99031 l 0.999031,-0.99903 2.997091,6e-5 v 10.98928 m 3.996122,0 v -10.98928 l 3.996123,9e-5 v 10.98919 l 4.99551,-3.4e-4 c 0,-4.99515 -0.999426,-7.99198 -1.998455,-12.98712 l -14.98506,-0.99897 v 1.99794 H 3.4205516 l 0.9989696,-1.99794 c -5.9941712,0 -8.2443625,-0.0387 -10.4894386,1.99794 v 0.99896 h 0.9989696 v 0.99897 l 2.4972552,2.5e-4 1.99836594,1.99769 4.99484786,3.7e-4 1.9980611,-1.99806 4.9950907,-9e-5 v 5.99434 l -0.998969,0.99897 H -1.574662 l -0.9990306,-0.99903 -6.9932138,1.99806 v 1.99806"
       class="UnoptimicedTransforms"
       sodipodi:nodetypes="cccccccccccccccccccccccccccccc" />
    <path
       id="path9435"
       style="vector-effect:non-scaling-stroke;fill:#1a1a1a;fill-opacity:1;stroke:none;stroke-width:0.259331;stroke-dasharray:none;stroke-dashoffset:0;stroke-opacity:0.509002;-inkscape-stroke:hairline"
       d="m -11,128 v -13 c 0,-2 -2,-4 -4,-4 h -16 c -2,0 -4,1 -4,3 v 14 m 4,0 0.0105,-12.9028 C -30.988607,114 -30,114 -28,114 c 2,0 3,4e-5 3,1 0,2 -1,8 -1,13 m 6,0 c 0,-5 -1,-11 -1,-13 0,-1.00499 1.262515,-1 3,-1 1.737486,0 3,-0.30383 3,1 v 13 m 4,0 v 13 c 0,2 -2,4 -4,4 h -16 c -2,0 -4,-1 -4,-3 v -14 m 4,0 0.0105,12.9028 C -30.988607,142 -30,142 -28,142 c 2,0 3,-4e-5 3,-1 0,-2 -1,-8 -1,-13 m 6,0 c 0,5 -1,11 -1,13 0,1.00499 1.262515,1 3,1 1.737486,0 3,0.30383 3,-1 v -13"
       sodipodi:nodetypes="cssssccsssccsssc"
       inkscape:path-effect="#path-effect9439"
       inkscape:original-d="m -11,128 v -13 c 0,-2 -2,-4 -4,-4 h -16 c -2,0 -4,1 -4,3 v 14 m 4,0 0.0105,-12.9028 C -30.988607,114 -30,114 -28,114 c 2,0 3,4e-5 3,1 0,2 -1,8 -1,13 m 6,0 c 0,-5 -1,-11 -1,-13 0,-1.00499 1.262515,-1 3,-1 1.737486,0 3,-0.30383 3,1 v 13"
       class="UnoptimicedTransforms"
       transform="translate(119.9895,-1.0972)" />
    <path
       id="path9501"
       style="vector-effect:non-scaling-stroke;fill:#1a1a1a;fill-opacity:1;stroke:none;stroke-width:0.259331;stroke-dasharray:none;stroke-dashoffset:0;stroke-opacity:0.509002;-inkscape-stroke:hairline"
       inkscape:transform-center-x="0.43295676"
       inkscape:transform-center-y="0.30390789"
       d="m -30.999845,111 c -1.999996,0 -4.000273,0.99982 -4.000273,2.99982 V 128 h 4.000273 l 0.01034,-12.90257 c 8.93e-4,-1.0972 0.989486,-1.09761 2.989482,-1.09761 1.999996,0 2.999816,-2e-5 2.999816,0.99994 0,0.091 -0.0023,0.19318 -0.0062,0.30024 h 4.013192 c -0.004,-0.10706 -0.0067,-0.20926 -0.0067,-0.30024 0,-1.00499 1.262336,-0.99994 2.999817,-0.99994 0.542963,0 1.039899,-0.0295 1.46606,-0.0305 0.937556,-0.002 1.534274,0.13405 1.534274,1.03043 V 128 h 3.999755 v -13.00024 c 0,-2 -1.999759,-3.99976 -3.999755,-3.99976 z m 0,34 c -1.999996,0 -4.000273,-0.99982 -4.000273,-2.99982 V 128 h 4.000273 l 0.01034,12.90257 c 8.93e-4,1.0972 0.989486,1.09761 2.989482,1.09761 1.999996,0 2.999816,2e-5 2.999816,-0.99994 0,-0.091 -0.0023,-0.19318 -0.0062,-0.30024 h 4.013192 c -0.004,0.10706 -0.0067,0.20926 -0.0067,0.30024 0,1.00499 1.262336,0.99994 2.999817,0.99994 0.542963,0 1.039899,0.0295 1.46606,0.0305 0.937556,0.002 1.534274,-0.13405 1.534274,-1.03043 V 128 h 3.999755 v 13.00024 c 0,2 -1.999759,3.99976 -3.999755,3.99976 z"
       transform="translate(147,-1)"
       inkscape:path-effect="#path-effect9542"
       inkscape:original-d="m -30.999845,111 c -1.999996,0 -4.000273,0.99982 -4.000273,2.99982 V 128 h 4.000273 l 0.01034,-12.90257 c 8.93e-4,-1.0972 0.989486,-1.09761 2.989482,-1.09761 1.999996,0 2.999816,-2e-5 2.999816,0.99994 0,0.091 -0.0023,0.19318 -0.0062,0.30024 h 4.013192 c -0.004,-0.10706 -0.0067,-0.20926 -0.0067,-0.30024 0,-1.00499 1.262336,-0.99994 2.999817,-0.99994 0.542963,0 1.039899,-0.0295 1.46606,-0.0305 0.937556,-0.002 1.534274,0.13405 1.534274,1.03043 V 128 h 3.999755 v -13.00024 c 0,-2 -1.999759,-3.99976 -3.999755,-3.99976 z"
       class="UnoptimicedTransforms" />
    <path
       id="path9713"
       style="vector-effect:non-scaling-stroke;fill:#1a1a1a;fill-opacity:1;stroke:none;stroke-width:0.259331;stroke-dasharray:none;stroke-dashoffset:0;stroke-opacity:0.509002;-inkscape-stroke:hairline"
       inkscape:transform-center-x="0.43295676"
       inkscape:transform-center-y="0.30390789"
       d="m -30.999845,111 c -5.000275,0 -5.000275,0 -5.000275,25 h 5.000164 l 0.01035,-19.90239 c 8.93e-4,-1.0972 0.989486,-1.09761 2.989482,-1.09761 1.999996,0 2.999816,-2e-5 2.999816,0.99994 L -25.00012,136 h 5 v -20 c 0,-1.00499 7.9e-5,-1 2,-1 h 1 c 2,0 2.000255,0 2.000255,0.99993 L -14.999875,136 h 4.999755 c 0,-25 0,-25 -4.999644,-25 z m 0,50 c -5.000275,0 -5.000275,0 -5.000275,-25 h 5.000164 l 0.01035,19.90239 c 8.93e-4,1.0972 0.989486,1.09761 2.989482,1.09761 1.999996,0 2.999816,2e-5 2.999816,-0.99994 L -25.00012,136 h 5 v 20 c 0,1.00499 7.9e-5,1 2,1 h 1 c 2,0 2.000255,0 2.000255,-0.99993 L -14.999875,136 h 4.999755 c 0,25 0,25 -4.999644,25 z"
       transform="translate(219.00008,-1)"
       inkscape:path-effect="#path-effect9717"
       inkscape:original-d="m -30.999845,111 c -5.000275,0 -5.000275,0 -5.000275,25 h 5.000164 l 0.01035,-19.90239 c 8.93e-4,-1.0972 0.989486,-1.09761 2.989482,-1.09761 1.999996,0 2.999816,-2e-5 2.999816,0.99994 0,0.091 1.88e-4,20.00006 1.88e-4,20.00006 h 5 v -20 c 0,-1.00499 7.9e-5,-1 2,-1 h 1 c 2,0 2.000255,0 2.000255,0.99993 L -14.999875,136 h 4.999755 c 0,-25 0,-25 -4.999644,-25 z"
       class="UnoptimicedTransforms"
       sodipodi:nodetypes="ccccssccsscscccc" />
    <path
       id="path9719"
       style="vector-effect:non-scaling-stroke;fill:#1a1a1a;fill-opacity:1;stroke:none;stroke-width:0.259331;stroke-dasharray:none;stroke-dashoffset:0;stroke-opacity:0.509002;-inkscape-stroke:hairline"
       inkscape:transform-center-x="0.43295676"
       inkscape:transform-center-y="0.30390789"
       d="m -30.999845,111 c -5.000275,0 -5.000275,0 -5.000275,25 h 5.000164 l 0.01035,-19.90239 c 8.93e-4,-1.0972 0.989486,-1.09761 2.989482,-1.09761 1.999996,0 2.999816,-2e-5 2.999816,0.99994 L -25.00012,136 h 5 v -20 c 0,-1.00499 7.9e-5,-1 2,-1 h 1 c 2,0 2.000255,0 2.000255,0.99993 L -14.999875,136 h 4.999755 c 0,-25 0,-25 -4.999644,-25 z m 0,50 c -5.000275,0 -5.000275,0 -5.000275,-25 h 5.000164 l 0.01035,19.90239 c 8.93e-4,1.0972 0.989486,1.09761 2.989482,1.09761 1.999996,0 2.999816,2e-5 2.999816,-0.99994 L -25.00012,136 h 5 v 20 c 0,1.00499 7.9e-5,1 2,1 h 1 c 2,0 2.000255,0 2.000255,-0.99993 L -14.999875,136 h 4.999755 c 0,25 0,25 -4.999644,25 z"
       transform="translate(219.00008,-1)"
       inkscape:path-effect="#path-effect9723"
       inkscape:original-d="m -30.999845,111 c -5.000275,0 -5.000275,0 -5.000275,25 h 5.000164 l 0.01035,-19.90239 c 8.93e-4,-1.0972 0.989486,-1.09761 2.989482,-1.09761 1.999996,0 2.999816,-2e-5 2.999816,0.99994 0,0.091 1.88e-4,20.00006 1.88e-4,20.00006 h 5 v -20 c 0,-1.00499 7.9e-5,-1 2,-1 h 1 c 2,0 2.000255,0 2.000255,0.99993 L -14.999875,136 h 4.999755 c 0,-25 0,-25 -4.999644,-25 z"
       class="UnoptimicedTransforms"
       sodipodi:nodetypes="ccccssccsscscccc" />
    <path
       id="path9725"
       style="vector-effect:non-scaling-stroke;fill:#1a1a1a;fill-opacity:1;stroke:none;stroke-width:0.259331;stroke-dasharray:none;stroke-dashoffset:0;stroke-opacity:0.509002;-inkscape-stroke:hairline"
       inkscape:transform-center-x="0.43295676"
       inkscape:transform-center-y="0.30390789"
       d="m -30.999845,111 c -5.000275,0 -5.000275,0 -5.000275,25 h 5.000164 l 0.01035,-19.90239 c 8.93e-4,-1.0972 0.989486,-1.09761 2.989482,-1.09761 1.999996,0 2.999816,-2e-5 2.999816,0.99994 l 1.88e-4,6e-5 h 5 v 0 c -0.582097,0.81925 7.9e-5,-1 2,-1 h 1 c 2,0 2.000255,0 2.000255,0.99993 L -14.999875,136 h 4.999755 c 0,-25 0,-25 -4.999644,-25 z m 0,50 c -5.000275,0 -5.000275,0 -5.000275,-25 h 5.000164 l 0.01035,19.90239 c 8.93e-4,1.0972 0.989486,1.09761 2.989482,1.09761 1.999996,0 2.999816,2e-5 2.999816,-0.99994 l 1.88e-4,-6e-5 h 5 v 0 c -0.582097,-0.81925 7.9e-5,1 2,1 h 1 c 2,0 2.000255,0 2.000255,-0.99993 L -14.999875,136 h 4.999755 c 0,25 0,25 -4.999644,25 z"
       transform="translate(249.99976,-1)"
       inkscape:path-effect="#path-effect9729"
       inkscape:original-d="m -30.999845,111 c -5.000275,0 -5.000275,0 -5.000275,25 h 5.000164 l 0.01035,-19.90239 c 8.93e-4,-1.0972 0.989486,-1.09761 2.989482,-1.09761 1.999996,0 2.999816,-2e-5 2.999816,0.99994 l 1.88e-4,6e-5 h 5 v 0 c -0.582097,0.81925 7.9e-5,-1 2,-1 h 1 c 2,0 2.000255,0 2.000255,0.99993 L -14.999875,136 h 4.999755 c 0,-25 0,-25 -4.999644,-25 z"
       class="UnoptimicedTransforms"
       sodipodi:nodetypes="ccccssccsscscccc" />
    <text
       xml:space="preserve"
       style="font-size:7.05556px;vector-effect:non-scaling-stroke;fill:#1a1a1a;fill-opacity:1;stroke:#000000;stroke-width:0.264583;stroke-opacity:0.509002;-inkscape-stroke:hairline"
       x="200.3181"
       y="95.099899"
       id="text10850"><tspan
         sodipodi:role="line"
         id="tspan10848"
         style="stroke-width:0.264583"
         x="200.3181"
         y="95.099899">40 mm</tspan><tspan
         sodipodi:role="line"
         style="stroke-width:0.264583"
         x="200.3181"
         y="103.91935"
         id="tspan10852" /></text>
    <path
       style="vector-effect:non-scaling-stroke;fill:#1a1a1a;fill-opacity:1;stroke:#000000;stroke-width:0.264583;stroke-opacity:0.509002;-inkscape-stroke:hairline"
       d="m 95,170 c 0,-7 3,-9 13,-16 h 17 l 10,2 v 14 h -5 v -13 h -4 v 13 h -4 v -13 h -5 v 13 h -4 v -13 h -3 v 13 z m 0,0 c 0,7 3,9 13,16 h 17 l 10,-2 v -14 h -5 v 13 h -4 v -13 h -4 v 13 h -5 v -13 h -4 v 13 h -3 v -13 z"
       id="path10958"
       sodipodi:nodetypes="cccccccccccccccccc"
       inkscape:path-effect="#path-effect10960"
       inkscape:original-d="m 95,170 c 0,-7 3,-9 13,-16 h 17 l 10,2 v 14 h -5 v -13 h -4 v 13 h -4 v -13 h -5 v 13 h -4 v -13 h -3 v 13 z"
       class="UnoptimicedTransforms" />
    <path
       style="fill:none;fill-opacity:1;stroke:#000000;stroke-width:0.5;stroke-linecap:butt;stroke-linejoin:miter;stroke-dasharray:none;stroke-opacity:1"
       d="m 110,200 3,1 -3,1 3,1 -3,1 3,1 -3,1 3,1 -3,1 3,1 -3,1 3,1 -3,1 3,1 -3,1 3,1 -3,1 3,1 -3,1 3,1 -3,1 3,1 -3,1 3,1 v 0"
       id="path36587"
       sodipodi:nodetypes="cccccccccccccccccccc" />
    <g
       id="g38816"
       transform="translate(1)">
      <g
         id="g38811"
         style="stroke:#000000;stroke-opacity:1">
        <path
           style="fill:none;fill-opacity:1;stroke:#000000;stroke-width:0.5;stroke-linecap:butt;stroke-linejoin:miter;stroke-dasharray:none;stroke-opacity:1"
           d="m 110,231 3,1 -3,1 3,1 -3,1 3,1 -3,1 3,1 -3,1 3,1 -3,1 3,1 -3,1 3,1 -3,1 3,1 -3,1 3,1 -3,1 3,1 -3,1 3,1 -3,1 3,1 v 0"
           id="path38805"
           sodipodi:nodetypes="ccccccccccccccccccccccccc" />
        <path
           style="fill:none;fill-opacity:1;stroke:#000000;stroke-width:0.5;stroke-linecap:butt;stroke-linejoin:miter;stroke-dasharray:none;stroke-opacity:1"
           d="m 120,231 3,1 -3,1 3,1 -3,1 3,1 -3,1 3,1 -3,1 3,1 -3,1 3,1 -3,1 3,1 -3,1 3,1 -3,1 3,1 -3,1 3,1 -3,1 3,1 -3,1 3,1 v 0"
           id="path38807"
           sodipodi:nodetypes="ccccccccccccccccccccccccc" />
      </g>
    </g>
    <g
       id="g40320"
       transform="rotate(90,129.25,255.25)">
      <g
         id="g40318"
         style="stroke:#000000;stroke-opacity:1">
        <path
           style="fill:none;fill-opacity:1;stroke:#000000;stroke-width:0.5;stroke-linecap:butt;stroke-linejoin:miter;stroke-dasharray:none;stroke-opacity:1"
           d="m 110,231 3,1 -3,1 3,1 -3,1 3,1 -3,1 3,1 -3,1 3,1 -3,1 3,1 -3,1 3,1 -3,1 3,1 -3,1 3,1 -3,1 3,1 -3,1 3,1 -3,1 3,1 v 0"
           id="path40314"
           sodipodi:nodetypes="ccccccccccccccccccccccccc" />
        <path
           style="fill:none;fill-opacity:1;stroke:#000000;stroke-width:0.5;stroke-linecap:butt;stroke-linejoin:miter;stroke-dasharray:none;stroke-opacity:1"
           d="m 120,231 3,1 -3,1 3,1 -3,1 3,1 -3,1 3,1 -3,1 3,1 -3,1 3,1 -3,1 3,1 -3,1 3,1 -3,1 3,1 -3,1 3,1 -3,1 3,1 -3,1 3,1 v 0"
           id="path40316"
           sodipodi:nodetypes="ccccccccccccccccccccccccc" />
      </g>
    </g>
    <path
       style="fill:#1a1a1a;fill-opacity:1;stroke:#000000;stroke-width:0.5;stroke-linecap:butt;stroke-linejoin:miter;stroke-dasharray:4, 1;stroke-dashoffset:0;stroke-opacity:1"
       d="m -157.76965,185.75 h 69.999997"
       id="path41922" />
    <path
       style="fill:none;fill-opacity:1;stroke:#000000;stroke-width:0.5;stroke-linecap:butt;stroke-linejoin:miter;stroke-dasharray:none;stroke-opacity:1"
       d="m 143,212 -1,3 -1,-3 -1,3 -1,-3 -1,3 -1,-3 -1,3 -1,-3 -1,3 -1,-3 -1,3 -1,-3 -1,3 -1,-3 -1,3 -1,-3 -1,3 -1,-3 -1,3 -1,-3 -1,3 -1,-3 -1,3 v 0"
       id="path48232"
       sodipodi:nodetypes="cccccccccccccccccccc" />
    <path
       style="fill:none;fill-opacity:1;stroke:#000000;stroke-width:0.5;stroke-linecap:butt;stroke-linejoin:miter;stroke-dasharray:none;stroke-opacity:1"
       d="m 211.99999,196 3,1 -3,1 3,1 -3,1 3,1 -3,1 3,1 -3,1 3,1 -3,1 3,1 -3,1 3,1 -3,1 3,1 -3,1 3,1 -3,1 3,1 -3,1 3,1 -3,1 3,1 v 0 l -3,1 3,1 -3,1 3,1 -3,1 3,1 -3,1 3,1 -3,1 3,1 -3,1 3,1 -3,1 3,1 -3,1"
       id="path48234"
       sodipodi:nodetypes="ccccccccccccccccccccccccc" />
    <rect
       style="vector-effect:non-scaling-stroke;fill:#786721;fill-opacity:1;stroke:#000000;stroke-width:0.267744;stroke-linecap:butt;stroke-linejoin:miter;stroke-dasharray:none;stroke-dashoffset:0;stroke-opacity:1;-inkscape-stroke:hairline"
       id="rect75799"
       width="25.4"
       height="25.4"
       x="104.99999"
       y="275" />
    <rect
       style="vector-effect:non-scaling-stroke;fill:#786721;fill-opacity:1;stroke:#000000;stroke-width:0.210822;stroke-linecap:butt;stroke-linejoin:miter;stroke-dasharray:none;stroke-dashoffset:0;stroke-opacity:1;-inkscape-stroke:hairline"
       id="rect75801"
       width="20"
       height="20"
       x="-2.7000008"
       y="350" />
    <rect
       style="vector-effect:non-scaling-stroke;fill:#786721;fill-opacity:1;stroke:#000000;stroke-width:0.421644;stroke-linecap:butt;stroke-linejoin:miter;stroke-dasharray:none;stroke-dashoffset:0;stroke-opacity:1;-inkscape-stroke:hairline"
       id="rect75803"
       width="40"
       height="40"
       x="193.99965"
       y="245.84483" />
  </g>
</svg>
