<?xml version="1.0" encoding="UTF-8" standalone="no"?>
<!-- Created with Inkscape (http://www.inkscape.org/) -->

<svg
   width="619.00885mm"
   height="904.4079mm"
   viewBox="0 0 619.00885 904.4079"
   version="1.1"
   id="svg5"
   inkscape:version="1.2.2 (732a01da63, 2022-12-09, custom)"
   sodipodi:docname="field note kit, small.svg"
   xmlns:inkscape="http://www.inkscape.org/namespaces/inkscape"
   xmlns:sodipodi="http://sodipodi.sourceforge.net/DTD/sodipodi-0.dtd"
   xmlns="http://www.w3.org/2000/svg"
   xmlns:svg="http://www.w3.org/2000/svg">
  <sodipodi:namedview
     id="namedview7"
     pagecolor="#ffffff"
     bordercolor="#666666"
     borderopacity="1.0"
     inkscape:pageshadow="2"
     inkscape:pageopacity="0.0"
     inkscape:pagecheckerboard="0"
     inkscape:document-units="mm"
     showgrid="false"
     inkscape:snap-bbox="true"
     inkscape:snap-bbox-edge-midpoints="true"
     inkscape:snap-object-midpoints="true"
     inkscape:object-paths="true"
     inkscape:snap-midpoints="true"
     inkscape:zoom="0.2445557"
     inkscape:cx="2024.0787"
     inkscape:cy="3064.7414"
     inkscape:window-width="1850"
     inkscape:window-height="1016"
     inkscape:window-x="0"
     inkscape:window-y="0"
     inkscape:window-maximized="1"
     inkscape:current-layer="layer1"
     inkscape:showpageshadow="2"
     inkscape:deskcolor="#d1d1d1" />
  <defs
     id="defs2">
    <marker
       style="overflow:visible"
       id="Stop"
       refX="0"
       refY="0"
       orient="auto"
       inkscape:stockid="Stop"
       markerWidth="1"
       markerHeight="8"
       viewBox="0 0 1 8"
       inkscape:isstock="true"
       inkscape:collect="always"
       preserveAspectRatio="xMidYMid">
      <path
         style="fill:none;stroke:context-stroke;stroke-width:1"
         d="M 0,4 V -4"
         id="path171" />
    </marker>
    <inkscape:path-effect
       effect="skeletal"
       id="path-effect48134"
       is_visible="true"
       lpeversion="1"
       pattern="m 32.506465,22.191049 v 4.27445 m 0.8338,-8.63365 -2.69712,0.0152"
       copytype="repeated"
       prop_scale="-1"
       scale_y_rel="false"
       spacing="0"
       normal_offset="-3"
       tang_offset="1.3"
       prop_units="false"
       vertical_pattern="false"
       hide_knot="false"
       fuse_tolerance="0" />
    <inkscape:path-effect
       effect="skeletal"
       id="path-effect48092"
       is_visible="true"
       lpeversion="1"
       pattern="m 32.506465,22.191049 v 4.27445 m 0.8338,-8.63365 -2.69712,0.0152"
       copytype="repeated"
       prop_scale="-1"
       scale_y_rel="false"
       spacing="0"
       normal_offset="-3"
       tang_offset="1.3"
       prop_units="false"
       vertical_pattern="false"
       hide_knot="false"
       fuse_tolerance="0" />
    <inkscape:path-effect
       effect="skeletal"
       id="path-effect46610"
       is_visible="true"
       lpeversion="1"
       pattern="m 32.506465,22.191049 v 4.27445 m 0.8338,-8.63365 -2.69712,0.0152"
       copytype="repeated"
       prop_scale="-1"
       scale_y_rel="false"
       spacing="0"
       normal_offset="-3"
       tang_offset="1.3"
       prop_units="false"
       vertical_pattern="false"
       hide_knot="false"
       fuse_tolerance="0" />
    <inkscape:path-effect
       effect="skeletal"
       id="path-effect45212"
       is_visible="true"
       lpeversion="1"
       pattern="m 31.476945,21.606282 v -4.27445 m -0.8338,8.63365 2.69712,-0.0152"
       copytype="repeated"
       prop_scale="-1"
       scale_y_rel="false"
       spacing="0"
       normal_offset="0"
       tang_offset="0"
       prop_units="false"
       vertical_pattern="false"
       hide_knot="false"
       fuse_tolerance="0" />
    <inkscape:path-effect
       effect="skeletal"
       id="path-effect44858"
       is_visible="true"
       lpeversion="1"
       pattern="m 32.506465,22.191049 v 4.27445 m 0.8338,-8.63365 -2.69712,0.0152"
       copytype="repeated"
       prop_scale="1"
       scale_y_rel="false"
       spacing="0"
       normal_offset="-3"
       tang_offset="0"
       prop_units="false"
       vertical_pattern="false"
       hide_knot="false"
       fuse_tolerance="0" />
    <inkscape:path-effect
       effect="skeletal"
       id="path-effect4476"
       is_visible="true"
       lpeversion="1"
       pattern="#path4468"
       copytype="repeated"
       prop_scale="1"
       scale_y_rel="false"
       spacing="1.4"
       normal_offset="0"
       tang_offset="0"
       prop_units="false"
       vertical_pattern="false"
       hide_knot="false"
       fuse_tolerance="0" />
    <marker
       style="overflow:visible"
       id="marker68234"
       refX="0"
       refY="0"
       orient="auto"
       inkscape:stockid="Arrow1Lend"
       inkscape:isstock="true">
      <path
         transform="matrix(-0.8,0,0,-0.8,-10,0)"
         style="fill:context-stroke;fill-rule:evenodd;stroke:context-stroke;stroke-width:1pt"
         d="M 0,0 5,-5 -12.5,0 5,5 Z"
         id="path68232" />
    </marker>
    <marker
       style="overflow:visible"
       id="Tail"
       refX="0"
       refY="0"
       orient="auto"
       inkscape:stockid="Tail"
       inkscape:isstock="true">
      <g
         transform="scale(-1.2)"
         id="g67881">
        <path
           style="fill:none;fill-rule:evenodd;stroke:context-stroke;stroke-width:0.8;stroke-linecap:round"
           d="M -3.8048674,-3.9585227 0.54352094,0"
           id="path67869" />
        <path
           style="fill:none;fill-rule:evenodd;stroke:context-stroke;stroke-width:0.8;stroke-linecap:round"
           d="M -1.2866832,-3.9585227 3.0617053,0"
           id="path67871" />
        <path
           style="fill:none;fill-rule:evenodd;stroke:context-stroke;stroke-width:0.8;stroke-linecap:round"
           d="M 1.3053582,-3.9585227 5.6537466,0"
           id="path67873" />
        <path
           style="fill:none;fill-rule:evenodd;stroke:context-stroke;stroke-width:0.8;stroke-linecap:round"
           d="M -3.8048674,4.1775838 0.54352094,0.21974226"
           id="path67875" />
        <path
           style="fill:none;fill-rule:evenodd;stroke:context-stroke;stroke-width:0.8;stroke-linecap:round"
           d="M -1.2866832,4.1775838 3.0617053,0.21974226"
           id="path67877" />
        <path
           style="fill:none;fill-rule:evenodd;stroke:context-stroke;stroke-width:0.8;stroke-linecap:round"
           d="M 1.3053582,4.1775838 5.6537466,0.21974226"
           id="path67879" />
      </g>
    </marker>
    <marker
       style="overflow:visible"
       id="Arrow1Lend"
       refX="0"
       refY="0"
       orient="auto"
       inkscape:stockid="Arrow1Lend"
       inkscape:isstock="true"
       viewBox="0 0 17.773854 10.156488"
       markerWidth="17.773853"
       markerHeight="10.156487"
       preserveAspectRatio="xMidYMid">
      <path
         transform="matrix(-0.8,0,0,-0.8,-10,0)"
         style="fill:context-stroke;fill-rule:evenodd;stroke:context-stroke;stroke-width:1pt"
         d="M 0,0 5,-5 -12.5,0 5,5 Z"
         id="path67836" />
    </marker>
    <rect
       x="1569.8079"
       y="948.73254"
       width="494.16385"
       height="690.37451"
       id="rect67511" />
  </defs>
  <g
     inkscape:label="Layer 1"
     inkscape:groupmode="layer"
     id="layer1"
     transform="translate(-30.640327,-17.331845)">
    <rect
       style="vector-effect:non-scaling-stroke;fill:#806600;fill-opacity:0.543543;stroke:#000000;stroke-width:0.0124556;-inkscape-stroke:hairline"
       id="rect846"
       width="240"
       height="170"
       x="30.640327"
       y="28.597748" />
    <text
       xml:space="preserve"
       style="font-size:4.93889px;line-height:1.25;font-family:monospace;-inkscape-font-specification:monospace;letter-spacing:0px;stroke-width:0.264583"
       x="126.22224"
       y="21.565727"
       id="text2044"><tspan
         sodipodi:role="line"
         id="tspan2042"
         style="font-size:4.93889px;stroke-width:0.264583"
         x="126.22224"
         y="21.565727">main panel 24 x 17</tspan></text>
    <rect
       style="vector-effect:non-scaling-stroke;fill:#806600;fill-opacity:0.543543;stroke:#000000;stroke-width:0.00843248;-inkscape-stroke:hairline"
       id="rect10664"
       width="110"
       height="170"
       x="410.07025"
       y="28.597733" />
    <rect
       style="vector-effect:non-scaling-stroke;fill:#806600;fill-opacity:0.543543;stroke:#000000;stroke-width:0.00843248;-inkscape-stroke:hairline"
       id="rect10666"
       width="110"
       height="170"
       x="539.64917"
       y="28.597733" />
    <text
       xml:space="preserve"
       style="font-size:4.9389px;line-height:1.25;font-family:monospace;-inkscape-font-specification:monospace;letter-spacing:0px;stroke-width:0.264583"
       x="421.46255"
       y="21.110779"
       id="text13200"><tspan
         sodipodi:role="line"
         id="tspan13198"
         style="stroke-width:0.264583"
         x="421.46255"
         y="21.110779">left pocket panel 11cm x 17cm</tspan></text>
    <text
       xml:space="preserve"
       style="font-size:4.9389px;line-height:1.25;font-family:monospace;-inkscape-font-specification:monospace;letter-spacing:0px;stroke-width:0.264583"
       x="546.88385"
       y="22.237198"
       id="text22246"><tspan
         sodipodi:role="line"
         id="tspan22244"
         style="stroke-width:0.264583"
         x="546.88385"
         y="22.237198">Right pocket panel 11cm x 17cm</tspan></text>
    <rect
       style="vector-effect:non-scaling-stroke;fill:#806600;fill-opacity:0.543543;stroke:#000000;stroke-width:0.00737399;-inkscape-stroke:hairline"
       id="rect25078"
       width="110"
       height="130"
       x="284.92804"
       y="68.597748" />
    <rect
       style="vector-effect:non-scaling-stroke;fill:#806600;fill-opacity:0.543543;stroke:#000000;stroke-width:0.00254249;-inkscape-stroke:hairline"
       id="rect25080"
       width="10"
       height="170"
       x="510.07025"
       y="28.597733" />
    <rect
       style="vector-effect:non-scaling-stroke;fill:#806600;fill-opacity:0.543543;stroke:#000000;stroke-width:0.00254249;-inkscape-stroke:hairline"
       id="rect25082"
       width="10"
       height="170"
       x="539.64917"
       y="28.597733" />
    <text
       xml:space="preserve"
       style="font-size:4.9389px;line-height:1.25;font-family:monospace;-inkscape-font-specification:monospace;letter-spacing:0px;stroke-width:0.264583"
       x="104.72876"
       y="-552.64142"
       id="text25900"
       transform="rotate(90)"><tspan
         sodipodi:role="line"
         id="tspan25898"
         style="stroke-width:0.264583"
         x="104.72876"
         y="-552.64142">Fold 1cm</tspan></text>
    <text
       xml:space="preserve"
       style="font-size:4.9389px;line-height:1.25;font-family:monospace;-inkscape-font-specification:monospace;letter-spacing:0px;stroke-width:0.264583"
       x="103.91245"
       y="-503.93008"
       id="text26038"
       transform="rotate(90)"><tspan
         sodipodi:role="line"
         id="tspan26036"
         style="stroke-width:0.264583"
         x="103.91245"
         y="-503.93008">Fold 1cm</tspan><tspan
         sodipodi:role="line"
         style="stroke-width:0.264583"
         x="103.91245"
         y="-497.75647"
         id="tspan31786" /></text>
    <rect
       style="vector-effect:non-scaling-stroke;fill:#806600;fill-opacity:0.543543;stroke:#000000;stroke-width:0.00204518;-inkscape-stroke:hairline"
       id="rect26040"
       width="110"
       height="10"
       x="284.92804"
       y="68.597748" />
    <text
       xml:space="preserve"
       style="font-size:4.9389px;line-height:1.25;font-family:monospace;-inkscape-font-specification:monospace;letter-spacing:0px;stroke-width:0.264583"
       x="312.55496"
       y="85.890503"
       id="text28178"><tspan
         sodipodi:role="line"
         id="tspan28176"
         style="stroke-width:0.264583"
         x="312.55496"
         y="85.890503">Fold 1cm</tspan></text>
    <rect
       style="vector-effect:non-scaling-stroke;fill:#806600;fill-opacity:0.543543;stroke:#000000;stroke-width:0.00254249;-inkscape-stroke:hairline"
       id="rect44542"
       width="10"
       height="170"
       x="470.43579"
       y="454.53745" />
    <rect
       style="vector-effect:non-scaling-stroke;fill:#806600;fill-opacity:0.543543;stroke:#000000;stroke-width:0.00804005;-inkscape-stroke:hairline"
       id="rect44524"
       width="100.00002"
       height="169.99998"
       x="380.43576"
       y="454.53745" />
    <rect
       style="vector-effect:non-scaling-stroke;fill:#806600;fill-opacity:0.543543;stroke:#000000;stroke-width:0.00204518;-inkscape-stroke:hairline"
       id="rect44624"
       width="109.99998"
       height="10"
       x="284.92804"
       y="239.28821" />
    <rect
       style="vector-effect:non-scaling-stroke;fill:#806600;fill-opacity:0.543543;stroke:#000000;stroke-width:0.0070847;-inkscape-stroke:hairline"
       id="rect44526"
       width="109.99998"
       height="120"
       x="284.92804"
       y="239.28821" />
    <text
       xml:space="preserve"
       style="font-size:4.9389px;line-height:1.25;font-family:monospace;-inkscape-font-specification:monospace;letter-spacing:0px;stroke-width:0.264583"
       x="288.60358"
       y="61.700043"
       id="text51192"><tspan
         sodipodi:role="line"
         id="tspan51190"
         style="stroke-width:0.264583"
         x="288.60358"
         y="61.700043">organizer panel 11cm x 13cm</tspan></text>
    <path
       style="fill:none;stroke:#000000;stroke-width:0.524404;stroke-linecap:butt;stroke-linejoin:miter;stroke-miterlimit:4;stroke-dasharray:3.14643, 3.14643;stroke-dashoffset:0;stroke-opacity:1"
       d="M 284.92804,244.28847 H 394.92802"
       id="path55237" />
    <text
       xml:space="preserve"
       style="font-size:4.9389px;line-height:1.25;font-family:monospace;-inkscape-font-specification:monospace;letter-spacing:0px;stroke-width:0.264583"
       x="286.38388"
       y="236.11047"
       id="text57521"><tspan
         sodipodi:role="line"
         id="tspan57519"
         style="stroke-width:0.264583"
         x="286.38388"
         y="236.11047">Sew a fold to the organizer top edge</tspan></text>
    <rect
       style="vector-effect:non-scaling-stroke;fill:#806600;fill-opacity:0.543543;stroke:#000000;stroke-width:0.00195;-inkscape-stroke:hairline"
       id="rect67595"
       width="99.999992"
       height="10"
       x="380.43576"
       y="504.53745" />
    <rect
       style="vector-effect:non-scaling-stroke;fill:#806600;fill-opacity:0.543543;stroke:#000000;stroke-width:0.006755;-inkscape-stroke:hairline"
       id="rect67597"
       width="99.999992"
       height="120"
       x="380.43576"
       y="504.53745" />
    <path
       style="fill:none;stroke:#000000;stroke-width:0.5;stroke-linecap:butt;stroke-linejoin:miter;stroke-miterlimit:4;stroke-dasharray:3, 3;stroke-dashoffset:0;stroke-opacity:1"
       d="m 380.43574,509.5373 h 100"
       id="path67599" />
    <path
       style="fill:none;stroke:#000000;stroke-width:0.5;stroke-linecap:butt;stroke-linejoin:miter;stroke-miterlimit:4;stroke-dasharray:3, 3;stroke-dashoffset:0;stroke-opacity:1"
       d="M 475.43577,454.53729 V 624.53727"
       id="path67634" />
    <path
       style="fill:#000000;stroke:#000000;stroke-width:1;stroke-linecap:butt;stroke-linejoin:miter;stroke-miterlimit:4;stroke-dasharray:none;stroke-opacity:1;marker-end:url(#Arrow1Lend)"
       d="m 339.47883,206.42355 v 20.31326"
       id="path67831" />
    <path
       style="fill:#000000;stroke:#000000;stroke-width:1;stroke-linecap:butt;stroke-linejoin:miter;stroke-miterlimit:4;stroke-dasharray:none;stroke-opacity:1;marker-end:url(#Arrow1Lend)"
       d="m 350.47465,359.28821 13.53086,29.78818"
       id="path68404"
       sodipodi:nodetypes="cc" />
    <path
       style="fill:#000000;stroke:#000000;stroke-width:1;stroke-linecap:butt;stroke-linejoin:miter;stroke-miterlimit:4;stroke-dasharray:none;stroke-opacity:1;marker-end:url(#Arrow1Lend)"
       d="m 468.02252,212.75778 -26.8861,162.39951"
       id="path68463"
       sodipodi:nodetypes="cc" />
    <text
       xml:space="preserve"
       style="font-size:4.9389px;line-height:1.25;font-family:monospace;-inkscape-font-specification:monospace;letter-spacing:0px;stroke-width:0.264583"
       x="480.50909"
       y="411.49957"
       id="text74026"><tspan
         sodipodi:role="line"
         id="tspan74024"
         style="stroke-width:0.264583"
         x="480.50909"
         y="411.49957" /></text>
    <text
       xml:space="preserve"
       style="font-size:4.9389px;line-height:1.25;font-family:monospace;-inkscape-font-specification:monospace;letter-spacing:0px;stroke-width:0.264583"
       x="361.24759"
       y="403.75391"
       id="text75086"><tspan
         sodipodi:role="line"
         id="tspan75084"
         style="stroke-width:0.264583"
         x="361.24759"
         y="403.75391">1. Match the edges of the left pocket panel and the organizer panel</tspan><tspan
         sodipodi:role="line"
         style="stroke-width:0.264583"
         x="361.24759"
         y="409.92752"
         id="tspan84028">2. Fold over the right edge of both panel together</tspan><tspan
         sodipodi:role="line"
         style="stroke-width:0.264583"
         x="361.24759"
         y="416.10117"
         id="tspan84086">3. Make a seam along the fold</tspan><tspan
         sodipodi:role="line"
         style="stroke-width:0.264583"
         x="361.24759"
         y="422.27478"
         id="tspan84030" /></text>
    <text
       xml:space="preserve"
       style="font-size:4.9389px;line-height:1.25;font-family:monospace;-inkscape-font-specification:monospace;letter-spacing:0px;stroke-width:0.264583"
       x="452.09595"
       y="435.54752"
       id="text86688"><tspan
         sodipodi:role="line"
         id="tspan86686"
         style="stroke-width:0.264583"
         x="452.09595"
         y="435.54752">Fold both panels and finish the edge</tspan></text>
    <path
       style="vector-effect:non-scaling-stroke;fill:none;stroke:#000000;stroke-width:0.00070004;stroke-linecap:butt;stroke-linejoin:miter;stroke-miterlimit:4;stroke-dasharray:none;stroke-opacity:1;-inkscape-stroke:hairline"
       d="m 475.43579,454.53744 16.57699,-17.77341"
       id="path90429" />
    <path
       style="fill:none;stroke:#000000;stroke-width:0.5;stroke-linecap:butt;stroke-linejoin:miter;stroke-miterlimit:4;stroke-dasharray:3, 3;stroke-dashoffset:0;stroke-opacity:1"
       d="M 430.43576,504.53745 V 624.53748"
       id="path263"
       sodipodi:nodetypes="cc" />
    <path
       id="path989"
       style="opacity:0.757861;vector-effect:non-scaling-stroke;fill:#806600;fill-opacity:0.543543;stroke:#000000;stroke-width:0.00804005;-inkscape-stroke:hairline"
       d="m 515.70547,702.00237 c 8.16058,0 14.73037,6.56979 14.73037,14.73037 v 140.53923 c 0,8.16058 -6.56979,14.73036 -14.73037,14.73036 H 430.43574 V 702.00237 Z" />
    <path
       id="rect981"
       style="opacity:0.757861;vector-effect:non-scaling-stroke;fill:#806600;fill-opacity:0.543543;stroke:#000000;stroke-width:0.0124556;-inkscape-stroke:hairline"
       d="m 305.16615,702.00237 h 210.53938 c 8.16059,0 14.73031,6.56971 14.73031,14.7303 v 140.53939 c 0,8.16059 -6.56972,14.73031 -14.73031,14.73031 H 305.16615 c -8.16059,0 -14.73031,-6.56972 -14.73031,-14.73031 V 716.73267 c 0,-8.16059 6.56972,-14.7303 14.73031,-14.7303 z" />
    <path
       id="rect243"
       style="opacity:0.757861;vector-effect:non-scaling-stroke;fill:#806600;fill-opacity:0.543543;stroke:#000000;stroke-width:0.00804005;-inkscape-stroke:hairline"
       d="m 290.43577,752.00244 v 105.26954 c 0,8.16058 6.56979,14.73037 14.73036,14.73037 h 85.26974 V 752.00244 Z" />
    <rect
       style="opacity:0.757861;vector-effect:non-scaling-stroke;fill:#806600;fill-opacity:0.543543;stroke:#000000;stroke-width:0.00254249;-inkscape-stroke:hairline"
       id="rect241"
       width="10"
       height="170"
       x="380.43588"
       y="702.00238" />
    <path
       id="rect981-3"
       style="opacity:0.757861;fill:none;fill-opacity:0.543543;stroke:#000000;stroke-width:0.492809;stroke-dasharray:2.95685, 2.95685;stroke-dashoffset:0"
       d="m 306.26371,703.6115 h 207.84422 c 8.05614,0 14.54176,6.46487 14.54176,14.49523 v 138.29639 c 0,8.03036 -6.48562,14.49523 -14.54176,14.49523 H 306.26371 c -8.05613,0 -14.54173,-6.46487 -14.54173,-14.49523 V 718.10673 c 0,-8.03035 6.4856,-14.49522 14.54173,-14.49523 z" />
    <rect
       style="opacity:0.757861;vector-effect:non-scaling-stroke;fill:#806600;fill-opacity:0.543543;stroke:#000000;stroke-width:0.00195;-inkscape-stroke:hairline"
       id="rect245"
       width="99.999992"
       height="10"
       x="290.43585"
       y="752.00238" />
    <path
       style="opacity:0.757861;fill:none;stroke:#000000;stroke-width:0.5;stroke-linecap:butt;stroke-linejoin:miter;stroke-miterlimit:4;stroke-dasharray:3, 3;stroke-dashoffset:0;stroke-opacity:1"
       d="M 290.43583,757.0022 H 390.43584"
       id="path249" />
    <path
       style="opacity:0.757861;fill:none;stroke:#000000;stroke-width:0.5;stroke-linecap:butt;stroke-linejoin:miter;stroke-miterlimit:4;stroke-dasharray:3, 3;stroke-dashoffset:0;stroke-opacity:1"
       d="M 385.43587,702.00219 V 872.00217"
       id="path251" />
    <rect
       style="opacity:0.757861;vector-effect:non-scaling-stroke;fill:#806600;fill-opacity:0.543543;stroke:#000000;stroke-width:0.00254249;-inkscape-stroke:hairline"
       id="rect255"
       width="10"
       height="170"
       x="430.43585"
       y="702.00238" />
    <path
       style="opacity:0.757861;fill:none;stroke:#000000;stroke-width:0.5;stroke-linecap:butt;stroke-linejoin:miter;stroke-miterlimit:4;stroke-dasharray:3, 3;stroke-dashoffset:0;stroke-opacity:1"
       d="M 435.43587,702.0024 V 872.00238"
       id="path261" />
    <path
       style="opacity:0.757861;fill:none;stroke:#000000;stroke-width:0.5;stroke-linecap:butt;stroke-linejoin:miter;stroke-miterlimit:4;stroke-dasharray:3, 3;stroke-dashoffset:0;stroke-opacity:1"
       d="M 340.43585,752.0024 V 872.00243"
       id="path435"
       sodipodi:nodetypes="cc" />
    <path
       id="path986"
       style="opacity:0.757861;vector-effect:non-scaling-stroke;fill:#806600;fill-opacity:0.543543;stroke:#000000;stroke-width:0.00804005;-inkscape-stroke:hairline"
       d="m 305.16614,702.00239 c -8.16058,0 -14.73037,6.56979 -14.73037,14.73037 v 140.53923 c 0,8.16058 6.56979,14.73036 14.73037,14.73036 h 85.26973 V 702.00239 Z" />
    <g
       id="g11333"
       transform="translate(-85.771404,-24.741091)">
      <g
         id="g4472"
         transform="rotate(-90,385.82291,696.81719)">
        <path
           id="path4468"
           style="opacity:0.757861;fill:none;fill-opacity:1;stroke:#000000;stroke-width:1;stroke-dasharray:none;stroke-dashoffset:0"
           d="m 384.35472,696.22542 h 3.87861 m -5.45231,1.40601 h 3.86481"
           sodipodi:nodetypes="cccc" />
      </g>
    </g>
    <g
       id="g44813"
       transform="translate(-99.559929,-41.996489)">
      <g
         id="g44811"
         transform="rotate(-90,385.82291,696.81719)">
        <path
           id="path44809"
           style="opacity:0.757861;fill:none;fill-opacity:1;stroke:#000000;stroke-width:1;stroke-dasharray:none;stroke-dashoffset:0"
           d="m 384.35472,696.22542 h 3.87861"
           class="UnoptimicedTransforms"
           sodipodi:nodetypes="cc"
           transform="translate(-16.582871,25.038943)" />
      </g>
    </g>
    <path
       id="path44853"
       style="opacity:0.757861;fill:none;fill-opacity:1;stroke:#000000;stroke-width:1;stroke-dasharray:none;stroke-dashoffset:0"
       d="m 262.67429,672.69883 v 4.27445 m 0.8338,-8.63365 -2.69712,0.0152" />
    <path
       style="opacity:0.757861;fill:none;fill-opacity:1;stroke:#000000;stroke-width:1;stroke-dasharray:none;stroke-dashoffset:0"
       d="m 412.65414,732.51035 2.16458,-3.68586 m -5.09258,7.02153 c 0.16852,0.0978 0.33706,0.1955 0.50562,0.29324 0.45434,0.26344 0.90914,0.52701 1.36444,0.79061 0,0 0,0 0,0 0.11702,0.0678 0.23425,0.13561 0.35169,0.20356 0.0298,0.0172 0.0596,0.0345 0.0896,0.0518 0.008,0.004 0.0152,0.009 0.0229,0.0132 m -1.73328,-6.05592 2.16737,-3.68421 m -5.09762,7.01786 c 0.77872,0.45245 1.55774,0.90473 2.33707,1.35679 m -1.73265,-6.05969 2.16965,-3.68287 m -5.10171,7.01488 c 0.007,0.004 0.0135,0.008 0.0202,0.0118 0.77144,0.44881 1.54314,0.8975 2.31512,1.34603 m -1.72808,-6.06019 2.17153,-3.68176 m -5.10525,7.0123 c 0.77793,0.45311 1.55599,0.90603 2.33417,1.35876 m -1.72452,-6.06083 2.17337,-3.68068 m -5.10873,7.00976 c 0.77769,0.45349 1.5555,0.90678 2.33343,1.3599 m -1.72143,-6.06165 2.17515,-3.67962 m -5.1121,7.0073 c 0.77744,0.45384 1.555,0.90751 2.33269,1.36099 m -1.71842,-6.06243 2.1769,-3.67859 m -5.1154,7.00489 c 0.7772,0.4542 1.55452,0.90822 2.33196,1.36206 m -1.71546,-6.06319 2.17861,-3.67758 m -5.11863,7.00253 c 0.77697,0.45454 1.55406,0.90891 2.33126,1.3631 m -1.71258,-6.06392 2.18027,-3.6766 m -5.12177,7.00024 c 0.77674,0.45487 1.5536,0.90957 2.33057,1.36411 m -1.70977,-6.06465 2.18188,-3.67564 m -5.12482,6.998 c 0.77652,0.4552 1.55315,0.91023 2.32989,1.3651 m -1.70702,-6.06534 2.18346,-3.6747 m -5.12778,6.99583 c 0.1214,0.0712 0.2428,0.14246 0.36421,0.21369 0.65492,0.38423 1.30992,0.76835 1.965,1.15235 m -1.70432,-6.06597 2.18493,-3.67383 m -5.13057,6.99379 c 0.77609,0.4558 1.55227,0.91143 2.32852,1.36691 m -1.70178,-6.06661 2.18643,-3.67295 m -5.13346,6.99169 c 0.77594,0.45614 1.55196,0.9121 2.32806,1.3679 m -1.69939,-6.06737 2.18798,-3.67203 m -5.13644,6.98951 c 0.77578,0.45648 1.55163,0.91279 2.32757,1.36893 m -1.69692,-6.06816 2.18959,-3.67107 m -5.13952,6.98725 c 0.7756,0.45684 1.55129,0.9135 2.32706,1.36999 m -1.69435,-6.06897 2.19123,-3.67008 m -5.14268,6.98491 c 0.77542,0.45722 1.55093,0.91425 2.32653,1.37109 m -1.69172,-6.06979 2.19294,-3.66907 m -5.14595,6.98251 c 0.77524,0.4576 1.55057,0.915 2.32599,1.37221 m -1.68899,-6.07064 2.19469,-3.66802 m -5.14931,6.98003 c 0.77505,0.45799 1.55019,0.91578 2.32542,1.37338 m -1.68618,-6.07152 2.19649,-3.66694 m -5.15276,6.97748 c 0.77485,0.45839 1.54979,0.91658 2.32484,1.37456 m -1.68329,-6.07241 2.19834,-3.66583 m -5.15631,6.97486 c 0.77464,0.45881 1.54939,0.9174 2.32423,1.37578 m -1.6803,-6.07332 2.20024,-3.66468 m -5.15995,6.97216 c 0.77443,0.45922 1.54896,0.91823 2.3236,1.37703 m -1.67724,-6.07426 2.20219,-3.66351 m -5.16369,6.96939 c 0.77421,0.45966 1.54854,0.9191 2.32296,1.37832 m -1.67409,-6.07521 2.20419,-3.66231 m -5.16752,6.96655 c 0.77399,0.4601 1.54809,0.91997 2.3223,1.37963 m -1.67087,-6.07619 2.20625,-3.66107 m -5.17145,6.96363 c 0.77376,0.46055 1.54763,0.92088 2.32161,1.38098 m -1.66754,-6.07719 2.20834,-3.6598 m -5.17547,6.96064 c 0.77352,0.46102 1.54716,0.9218 2.32091,1.38235 m -1.66415,-6.0782 2.2105,-3.6585 m -5.17958,6.95757 c 0.77327,0.4615 1.54666,0.92275 2.32018,1.38377 m -1.66066,-6.07925 2.2127,-3.65716 m -5.1838,6.95443 c 0.77302,0.46198 1.54617,0.92371 2.31944,1.3852 m -1.65709,-6.0803 2.21495,-3.6558 m -5.1881,6.95122 c 0.77276,0.46247 1.54565,0.9247 2.31867,1.38667 m -1.65343,-6.08138 2.21725,-3.65441 m -5.1925,6.94794 c 0.7725,0.46298 1.54513,0.9257 2.31789,1.38818 m -1.6497,-6.08249 2.2196,-3.65298 m -5.19699,6.94457 c 0.77222,0.4635 1.54459,0.92674 2.31708,1.38972 m -1.64587,-6.08361 2.222,-3.65152 m -5.20158,6.94114 c 0.77195,0.46403 1.54404,0.92779 2.31626,1.39128 m -1.64196,-6.08476 2.22445,-3.65002 m -5.20627,6.93763 c 0.77167,0.46457 1.54348,0.92886 2.31542,1.39288 m -1.63797,-6.08592 2.22695,-3.64851 m -5.21104,6.93405 c 0.77137,0.46512 1.54289,0.92996 2.31455,1.39452 m -1.63389,-6.08711 2.2295,-3.64695 m -5.21592,6.93039 c 0.77108,0.46568 1.54231,0.93107 2.31368,1.39618 m -1.62974,-6.08832 2.2321,-3.64536 m -5.22091,6.92664 c 0.41842,0.25311 0.83688,0.50613 1.25537,0.75905 0.35245,0.21301 0.70492,0.42596 1.05743,0.63885 m -1.62555,-6.08963 2.23486,-3.64368 m -5.22627,6.92263 c 0.77058,0.46695 1.54128,0.93355 2.3121,1.39982 m -1.62129,-6.09113 2.23783,-3.64185 m -5.23203,6.91828 c 0.77031,0.46768 1.54076,0.93497 2.31134,1.40192 m -1.6167,-6.09274 2.24103,-3.6399 m -5.23821,6.91363 c 0.77002,0.46843 1.54019,0.93648 2.3105,1.40415 m -1.61174,-6.09446 2.24442,-3.63779 m -5.24477,6.90864 c 0.76969,0.46925 1.53955,0.93808 2.30957,1.40652 m -1.60643,-6.09625 2.24805,-3.63556 m -5.25175,6.90334 c 0.76934,0.47011 1.53886,0.93977 2.30855,1.40902 m -1.60074,-6.09812 2.25187,-3.63318 m -5.25913,6.89771 c 0.76896,0.471 1.53811,0.94155 2.30745,1.41165 m -1.59469,-6.10008 2.25591,-3.63067 m -5.26691,6.89176 c 0.76855,0.47195 1.53731,0.94342 2.30626,1.41442 m -1.58828,-6.10213 2.26017,-3.62802 m -5.27509,6.8855 c 0.7681,0.47294 1.53643,0.94538 2.30497,1.41733 m -1.58149,-6.10428 2.26463,-3.62522 m -5.28368,6.87891 c 0.76764,0.47398 1.53551,0.94742 2.30361,1.42036 m -1.57435,-6.10649 2.26931,-3.6223 m -5.29267,6.872 c 0.76714,0.47506 1.53453,0.94957 2.30216,1.42354 m -1.56685,-6.10881 2.27421,-3.61922 m -5.30207,6.86477 c 0.76661,0.47618 1.53349,0.95179 2.30062,1.42685 m -1.55897,-6.11121 2.27932,-3.61602 m -5.3117,6.85735 c 0.0895,0.0558 0.17906,0.11155 0.26859,0.16731 0.67653,0.42141 1.35328,0.84235 2.03023,1.26285 m -1.55049,-6.11327 2.28412,-3.61306 m -5.32099,6.85031 c 0.76551,0.4784 1.53108,0.95603 2.29665,1.43301 m -1.54237,-6.11564 2.28971,-3.60957 m -5.33209,6.84179 c 0.0307,0.0193 2.2655,1.41829 2.29623,1.43757 m -1.5347,-6.11946 2.29627,-3.6054 m -5.34502,6.83171 c 0.0265,0.0167 2.26889,1.42607 2.29537,1.44275 m -1.5253,-6.12364 2.3038,-3.60057 m -5.3598,6.82009 c 0.76445,0.48389 1.52917,0.96671 2.2941,1.44856 m -1.5142,-6.1282 2.31232,-3.59506 m -5.37643,6.80693 c 0.76382,0.48614 1.52798,0.97109 2.29241,1.45498 m -1.50139,-6.13311 2.32181,-3.58888 m -5.39489,6.79222 c 0.76304,0.48858 1.52649,0.97589 2.29029,1.46201 m -1.48687,-6.13837 2.33228,-3.58204 m -5.4152,6.77596 c 0.76212,0.49125 1.52473,0.9811 2.28776,1.46968 m -1.47065,-6.144 2.34374,-3.57452 m -5.43737,6.75815 c 0.76108,0.49411 1.52271,0.98673 2.28482,1.47796 m -1.45271,-6.14999 2.35616,-3.56633 m -5.46136,6.7388 c 0.75988,0.49718 1.52038,0.99277 2.28144,1.48686 m -1.43306,-6.15635 2.36957,-3.55747 m -5.48722,6.71791 c 0.75855,0.50046 1.51779,0.99921 2.27766,1.49638 m -1.41176,-6.16309 2.38403,-3.5479 m -5.51583,6.69479 c 0.37822,0.25186 0.75636,0.50299 1.13439,0.75345 0.3798,0.25168 0.75979,0.50292 1.13996,0.75373 m -1.39023,-6.17241 2.40237,-3.53557 m -5.55314,6.66407 c 0.75841,0.51137 1.51693,1.01922 2.27514,1.52413 m -1.36667,-6.18691 2.42597,-3.51932 m -5.60029,6.62443 c 0.75776,0.51892 1.51604,1.03377 2.27442,1.54512 m -1.33455,-6.20376 2.45482,-3.49916 m -5.65729,6.57587 c 0.7563,0.52758 1.51352,1.05054 2.27126,1.56944 m -1.29251,-6.22182 2.4883,-3.47568 m -5.72136,6.5217 c 0.29108,0.20708 0.5813,0.41248 0.87052,0.61637 0.46377,0.32769 0.92799,0.6535 1.39255,0.97757 m -1.24523,-6.24456 2.53285,-3.44384 m -5.82025,6.43436 c 0.76349,0.56273 1.52384,1.11091 2.27845,1.64777 m -1.19894,-6.29801 2.60741,-3.38663 m -5.97479,6.28993 c 0.76702,0.59491 1.53354,1.17209 2.29695,1.73475 m -1.11419,-6.37182 2.71207,-3.30408 m -6.20124,6.07244 c 0.2724,0.2284 0.5402,0.44783 0.80258,0.65912 0.50411,0.40748 1.00876,0.80638 1.5132,1.19763 m -1.01417,-6.53279 2.9352,-3.10713 m -6.73958,5.49149 c 0.27238,0.28227 0.52259,0.52058 0.74662,0.71784 0.60373,0.56527 1.19492,1.08344 1.76596,1.56223 m -1.1217,-7.68464 3.9326,-1.71411 m -4.74605,-6.47787 c -0.38216,0.23402 -0.79553,0.50802 -1.23958,0.82245 -1.65774,1.60904 -2.53466,3.44549 -2.62263,5.47554 0.0918,1.99275 0.35767,3.24982 0.75412,3.76485 0.44188,0.8952 0.82026,1.51227 1.11242,1.85979 0.52048,0.67001 1.00203,1.22068 1.42913,1.66329 m 5.78812,-10.5615 0.38991,4.24524 m 0.33351,-8.6594 c -1.05161,0.0663 -2.14517,0.18445 -3.27734,0.36936 -0.56718,-0.0418 -1.45933,0.29812 -2.66005,1.0334 m 8.23726,2.90415 -0.0895,4.27897 m 1.19793,-8.61773 c -1.07886,-0.0365 -2.21631,-0.0281 -3.40751,0.047 m 5.18743,4.45131 -0.36253,4.27018 m 1.63714,-8.53044 c -0.95672,-0.10482 -1.97674,-0.1863 -3.05523,-0.22283 m 4.56208,4.77365 -0.50246,4.24385 m 1.91405,-8.46078 c -0.86948,-0.10692 -1.74683,-0.2031 -2.63214,-0.28633 -0.0953,-0.011 -0.19118,-0.0218 -0.28774,-0.0324 m 4.26801,4.90516 -0.62837,4.22764 m 2.15015,-8.40532 c -0.94767,-0.14252 -1.90491,-0.27474 -2.87185,-0.39365 m 4.0804,5.00997 -0.72573,4.21329 m 2.32896,-8.3592 c -0.92859,-0.16009 -1.86659,-0.3129 -2.81414,-0.4554 m 3.91303,5.09109 -0.79456,4.2008 m 2.45049,-8.32238 c -0.90987,-0.17167 -1.82899,-0.33905 -2.75749,-0.49914 m 3.78109,5.14432 -0.8412,4.19051 m 2.53868,-8.29399 c -0.78131,-0.15508 -1.56472,-0.30721 -2.35034,-0.45595 -0.12436,-0.0237 -0.24891,-0.0473 -0.37362,-0.0708 m 3.6956,5.17988 -0.88124,4.18206 m 2.6143,-8.27007 c -0.89984,-0.18686 -1.80237,-0.37051 -2.70774,-0.55021 m 3.63415,5.20995 -0.91439,4.17504 m 2.6763,-8.25042 c -0.89457,-0.19257 -1.79169,-0.38264 -2.69149,-0.5695 m 3.58032,5.23434 -0.94066,4.16949 m 2.72467,-8.23505 c -0.88959,-0.19682 -1.78159,-0.39188 -2.67613,-0.58444 m 3.53505,5.25286 -0.96004,4.16538 m 2.7594,-8.22396 c -0.88491,-0.19962 -1.77208,-0.3982 -2.66165,-0.59502 m 3.49832,5.2655 -0.97253,4.16274 m 2.78051,-8.21715 c -0.88053,-0.20097 -1.76318,-0.40164 -2.64808,-0.60126 m 3.47015,5.27228 -0.97813,4.16154 m 2.78799,-8.21461 c -0.87645,-0.20088 -1.75487,-0.40217 -2.6354,-0.60315 m 3.45052,5.27318 -0.97684,4.1618 m 2.78184,-8.21636 c -0.87266,-0.19933 -1.74715,-0.3998 -2.6236,-0.60068 m 3.43944,5.26822 -0.96866,4.1635 m 2.76206,-8.22239 c -0.86918,-0.19633 -1.74003,-0.39452 -2.61271,-0.59385 m 3.30624,5.22307 -0.76212,4.20236 m 1.87619,-8.45102 c -0.23004,-0.0177 -0.36893,-0.0297 -0.41329,-0.0514 -0.46545,-0.10416 -0.93136,-0.20897 -1.39775,-0.31432 m 3.01292,4.83221 -0.23141,4.26787 m 1.18069,-8.58843 c -0.48332,-0.0146 -0.94873,-0.0355 -1.39587,-0.0666 -0.31333,-0.031 -0.5663,-0.0495 -0.75699,-0.0641 m 3.78152,4.53101 -0.0612,4.27396 m 0.90628,-8.62388 c -0.30756,-4.9e-4 -0.61431,-0.002 -0.92023,-0.005 -0.53684,-0.006 -1.05499,-0.0146 -1.55407,-0.0297 m 4.26462,4.39434 0.0277,4.27413 m 0.73838,-8.64055 c -0.85834,0.0155 -1.71052,0.0238 -2.5565,0.0224 m 4.44095,4.30463 0.0946,4.27363 m 0.61485,-8.65156 c -0.87069,0.0278 -1.73527,0.0506 -2.59369,0.0661 m 4.54952,4.23767 0.1394,4.27246 m 0.5357,-8.65693 c -0.88293,0.0354 -1.75979,0.0681 -2.63054,0.0959 m 4.631,4.19237 0.16806,4.27106 m 0.47911,-8.65978 c -0.77523,0.0365 -1.55015,0.0707 -2.32477,0.10263 -0.10754,0.004 -0.21498,0.009 -0.32234,0.013 m 4.676,4.1593 0.19486,4.26986 m 0.42576,-8.66254 c -0.88336,0.047 -1.76632,0.0914 -2.64888,0.13292 m 4.70491,4.12967 0.21972,4.26868 m 0.37636,-8.66495 c -0.8842,0.0521 -1.76799,0.10183 -2.65138,0.14886 m 4.73256,4.10225 0.24263,4.26751 m 0.33089,-8.66702 c -0.88504,0.0568 -1.76967,0.11144 -2.65389,0.16358 m 4.75825,4.07691 0.26359,4.26637 m 0.28937,-8.66874 c -0.88589,0.0611 -1.77136,0.12022 -2.65643,0.17706 m 4.78198,4.05367 0.2826,4.26524 m 0.25178,-8.67011 c -0.88674,0.065 -1.77306,0.12818 -2.65897,0.18931 m 4.80374,4.03253 0.29966,4.26412 m 0.21814,-8.67113 c -0.8876,0.0685 -1.77478,0.13532 -2.66154,0.20033 m 4.82354,4.01349 0.31477,4.26303 m 0.18844,-8.67182 c -0.88847,0.0715 -1.77651,0.14165 -2.66413,0.21013 m 4.84138,3.99654 0.32793,4.26194 m 0.16268,-8.67214 c -0.88934,0.0742 -1.77825,0.14715 -2.66673,0.21869 m 4.85722,3.98158 0.33923,4.26105 m 0.13978,-8.67268 c -0.68006,0.0587 -1.36056,0.11664 -2.04148,0.17403 -0.20897,0.0176 -0.41792,0.0351 -0.62684,0.0525 m 4.86905,3.96788 0.35173,4.26013 m 0.11314,-8.67316 c -0.88736,0.0793 -1.77549,0.15712 -2.66438,0.2338 m 4.877,3.95361 0.3665,4.2589 m 0.0819,-8.67345 c -0.88576,0.0823 -1.77235,0.16302 -2.65972,0.24229 m 4.88641,3.93683 0.38353,4.25734 m 0.046,-8.67353 c -0.88411,0.0859 -1.76907,0.16987 -2.65486,0.25221 m 4.89778,3.9173 0.40282,4.25547 m 0.005,-8.67341 c -0.88237,0.0899 -1.76564,0.17768 -2.64977,0.26356 m 4.91109,3.89505 0.42437,4.25327 m -0.0397,-8.67308 c -0.88058,0.0944 -1.76209,0.18643 -2.64449,0.27633 m 4.92637,3.87005 0.44818,4.25076 m -0.0895,-8.67255 c -0.87871,0.0994 -1.75838,0.19613 -2.63899,0.29053 m 4.9436,3.84231 0.47426,4.24793 m -0.14396,-8.67182 c -0.87677,0.10482 -1.75455,0.20679 -2.63329,0.30616 m 4.9628,3.81184 0.50259,4.24478 m -0.19878,-8.67172 c -0.18902,0.024 -0.37873,0.0479 -0.56914,0.0719 -0.68686,0.0859 -1.37436,0.16988 -2.06247,0.25214 m 4.98043,3.77927 0.53866,4.24097 m -0.29735,-8.66802 c -0.84687,0.11647 -1.71,0.22757 -2.58832,0.33883 m 4.95932,3.7326 0.62555,4.2281 m -0.50351,-8.65555 c -0.81338,0.13275 -1.6441,0.25461 -2.49105,0.37109 m 4.93649,3.63457 0.76136,4.208 m -0.92515,-8.61459 c -0.24069,0.0498 -0.54797,0.1063 -0.91877,0.17977 -0.44787,0.0829 -0.90144,0.16125 -1.36052,0.23618"
       id="path44856"
       inkscape:path-effect="#path-effect44858"
       inkscape:original-d="m 415.75902,730.9029 c 0,0 -162.15786,-94.96983 -151.34488,-96.91764 8.32502,-1.49964 27.24273,3.45387 43.51031,7.18827 8.79632,2.01929 72.45149,-3.44607 72.82468,-5.24046"
       class="UnoptimicedTransforms"
       sodipodi:nodetypes="cssc"
       transform="translate(-265.83432,113.71637)" />
    <path
       style="opacity:0.757861;fill:none;fill-opacity:1;stroke:#000000;stroke-width:1;stroke-dasharray:none;stroke-dashoffset:0"
       d="m 667.08326,713.50038 h -4.27445 m 8.63365,-0.8338 -0.0152,2.69712 m -4.344,-4.56044 h -4.27445 m 8.63365,-0.8338 -0.0152,2.69712 m -4.344,-4.56044 h -4.27445 m 8.63365,-0.8338 -0.0152,2.69712 m -4.344,-4.56044 h -4.27445 m 8.63365,-0.8338 -0.0112,1.98734 -0.004,0.70978"
       id="path46606"
       inkscape:path-effect="#path-effect46610"
       inkscape:original-d="m 664.12564,716.6637 v -10.10114 -4.24672"
       class="UnoptimicedTransforms"
       sodipodi:nodetypes="ccc"
       transform="translate(-252.80883,5.0416237)" />
    <path
       style="opacity:0.757861;fill:none;fill-opacity:1;stroke:#000000;stroke-width:1;stroke-dasharray:none;stroke-dashoffset:0"
       d="m 667.08326,713.50038 h -4.27445 m 8.63365,-0.8338 -0.0152,2.69712 m -4.344,-4.56044 h -4.27445 m 8.63365,-0.8338 -0.0152,2.69712 m -4.344,-4.56044 h -4.27445 m 8.63365,-0.8338 -0.0152,2.69712 m -4.344,-4.56044 h -4.27445 m 8.63365,-0.8338 -0.0112,1.98734 -0.004,0.70978"
       id="path48088"
       inkscape:path-effect="#path-effect48092"
       inkscape:original-d="m 664.12564,716.6637 v -10.10114 -4.24672"
       class="UnoptimicedTransforms"
       sodipodi:nodetypes="ccc"
       transform="matrix(-1,0,0,1,1074.9458,6.3489822)" />
    <path
       style="opacity:0.757861;fill:#999999;fill-opacity:1;stroke:#000000;stroke-width:1;stroke-dasharray:none;stroke-dashoffset:0"
       d="m 667.08326,801.5663 h -4.27445 m 8.63365,-0.8338 -0.0152,2.69712 m -4.344,-4.56044 h -4.27445 m 8.63365,-0.8338 -0.0152,2.69712 m -4.344,-4.56044 h -4.27445 m 8.63365,-0.8338 -0.0152,2.69712 m -4.344,-4.56044 h -4.27445 m 8.63365,-0.8338 -0.0152,2.69712 m -4.344,-4.56044 h -4.27445 m 8.63365,-0.8338 -0.0152,2.69712 m -4.344,-4.56044 h -4.27445 m 8.63365,-0.8338 -0.0152,2.69712 m -4.344,-4.56044 h -4.27445 m 8.63365,-0.8338 -0.0152,2.69712 m -4.344,-4.56044 h -4.27445 m 8.63365,-0.8338 -0.0152,2.69712 m -4.344,-4.56044 h -4.27445 m 8.63365,-0.8338 -0.0152,2.69712 m -4.344,-4.56044 h -4.27445 m 8.63365,-0.8338 -0.0152,2.69712 m -4.344,-4.56044 h -4.27445 m 8.63365,-0.8338 -0.0152,2.69712 m -4.344,-4.56044 h -4.27445 m 8.63365,-0.8338 -0.0152,2.69712 m -4.344,-4.56044 h -4.27445 m 8.63365,-0.8338 -0.0152,2.69712 m -4.344,-4.56044 h -4.27445 m 8.63365,-0.8338 -0.0152,2.69712 m -4.344,-4.56044 h -4.27445 m 8.63365,-0.8338 -0.0152,2.69712 m -4.344,-4.56044 h -4.27445 m 8.63365,-0.8338 -0.0152,2.69712 m -4.344,-4.56044 h -4.27445 m 8.63365,-0.8338 -0.0152,2.69712 m -4.344,-4.56044 h -4.27445 m 8.63365,-0.8338 -0.0152,2.69712 m -4.344,-4.56044 h -4.27445 m 8.63365,-0.8338 -0.0152,2.69712 m -4.344,-4.56044 h -4.27445 m 8.63365,-0.8338 -0.0152,2.69712 m -4.344,-4.56044 h -4.27445 m 8.63365,-0.8338 -0.0152,2.69712 m -4.344,-4.56044 h -4.27445 m 8.63365,-0.8338 -0.0152,2.69712 m -4.344,-4.56044 h -4.27445 m 8.63365,-0.8338 -0.0152,2.69712 m -4.344,-4.56044 h -4.27445 m 8.63365,-0.8338 -0.0152,2.69712 m -4.344,-4.56044 h -4.27445 m 8.63365,-0.8338 -0.0152,2.69712 m -4.344,-4.56044 h -4.27445 m 8.63365,-0.8338 -0.0152,2.69712 m -4.344,-4.56044 h -4.27445 m 8.63365,-0.8338 -0.0152,2.69712 m -4.344,-4.56044 h -4.27445 m 8.63365,-0.8338 -0.0152,2.69712 m -4.344,-4.56044 h -4.27445 m 8.63365,-0.8338 -0.0152,2.69712 m -4.344,-4.56044 h -4.27445 m 8.63365,-0.8338 -0.0152,2.69712 m -4.344,-4.56044 h -4.27445 m 8.63365,-0.8338 -0.0152,2.69712 m -4.344,-4.56044 h -4.27445 m 8.63365,-0.8338 -0.0152,2.69712 m -4.344,-4.56044 h -4.27445 m 8.63365,-0.8338 -0.0152,2.69712 m -4.344,-4.56044 h -4.27445 m 8.63365,-0.8338 -0.0152,2.69712 m -4.344,-4.56044 h -4.27445 m 8.63365,-0.8338 -0.0152,2.69712 m -4.344,-4.56044 h -4.27445 m 8.63365,-0.8338 -0.001,0.22926 -0.0139,2.46786 m -4.344,-4.56044 h -4.27445 m 8.63365,-0.8338 -0.0152,2.69712"
       id="path48130"
       inkscape:path-effect="#path-effect48134"
       inkscape:original-d="m 664.12564,804.72962 v -98.16706 -4.24672"
       class="UnoptimicedTransforms"
       sodipodi:nodetypes="ccc"
       transform="rotate(-90,545.42226,828.52257)" />
    <path
       style="opacity:0.757861;fill:#999999;fill-opacity:1;stroke:#000000;stroke-width:1;stroke-dasharray:none;stroke-dashoffset:0;marker-mid:url(#Stop);marker-start:url(#Arrow1Lend)"
       d="m 99.273568,656.46616 99.973272,38.74625"
       id="path48226" />
  </g>
</svg>
