<?xml version="1.0" encoding="UTF-8" standalone="no"?>
<!-- Created with Inkscape (http://www.inkscape.org/) -->

<svg
   width="385.87509mm"
   height="354.57773mm"
   viewBox="0 0 385.87508 354.57773"
   version="1.1"
   id="svg969"
   inkscape:version="1.1.2 (0a00cf5339, 2022-02-04)"
   sodipodi:docname="PALS stiffener example assebly.svg"
   xmlns:inkscape="http://www.inkscape.org/namespaces/inkscape"
   xmlns:sodipodi="http://sodipodi.sourceforge.net/DTD/sodipodi-0.dtd"
   xmlns:xlink="http://www.w3.org/1999/xlink"
   xmlns="http://www.w3.org/2000/svg"
   xmlns:svg="http://www.w3.org/2000/svg">
  <style
     id="style44244">
.measure-arrow
{
}
.measure-label
{

}
.measure-line
{
}</style>
  <sodipodi:namedview
     id="namedview971"
     pagecolor="#ffffff"
     bordercolor="#666666"
     borderopacity="1.0"
     inkscape:pageshadow="2"
     inkscape:pageopacity="0.0"
     inkscape:pagecheckerboard="0"
     inkscape:document-units="mm"
     showgrid="false"
     inkscape:snap-center="true"
     inkscape:zoom="0.15765691"
     inkscape:cx="101.4862"
     inkscape:cy="542.31686"
     inkscape:window-width="1920"
     inkscape:window-height="1016"
     inkscape:window-x="0"
     inkscape:window-y="27"
     inkscape:window-maximized="1"
     inkscape:current-layer="layer1"
     inkscape:snap-bbox="true"
     inkscape:snap-bbox-edge-midpoints="true"
     inkscape:snap-object-midpoints="true"
     inkscape:bbox-paths="true"
     inkscape:object-paths="true"
     inkscape:snap-intersection-paths="true"
     fit-margin-top="10"
     fit-margin-left="10"
     fit-margin-right="10"
     fit-margin-bottom="10"
     inkscape:showpageshadow="2"
     inkscape:deskcolor="#d1d1d1"
     lock-margins="true" />
  <defs
     id="defs966">
    <inkscape:path-effect
       effect="measure_segments"
       id="path-effect44242"
       is_visible="true"
       lpeversion="1"
       unit="in"
       orientation="parallel"
       coloropacity="#000000ff"
       fontbutton="Monospace 28"
       precision="0"
       fix_overlaps="0"
       position="66"
       text_top_bottom="0"
       helpline_distance="0"
       helpline_overlap="2"
       line_width="0.02"
       scale="1"
       format="{measure}{unit}"
       blacklist="2"
       active_projection="false"
       whitelist="true"
       showindex="false"
       arrows_outside="false"
       flip_side="false"
       scale_sensitive="true"
       local_locale="true"
       rotate_anotation="true"
       hide_back="true"
       hide_arrows="false"
       smallx100="false"
       linked_items=""
       distance_projection="20"
       angle_projection="0"
       avoid_overlapping="true"
       onbbox="false"
       bboxonly="false"
       centers="false"
       maxmin="false"
       helpdata="&lt;b&gt;&lt;big&gt;General&lt;/big&gt;&lt;/b&gt;
Display and position dimension lines and labels

&lt;b&gt;&lt;big&gt;Projection&lt;/big&gt;&lt;/b&gt;
Show a line with measurements based on the selected items

&lt;b&gt;&lt;big&gt;Options&lt;/big&gt;&lt;/b&gt;
Options for color, precision, label formatting and display

&lt;b&gt;&lt;big&gt;Tips&lt;/big&gt;&lt;/b&gt;
&lt;b&gt;&lt;i&gt;Custom styling:&lt;/i&gt;&lt;/b&gt; To further customize the styles, use the XML editor to find out the class or ID, then use the Style dialog to apply a new style.
&lt;b&gt;&lt;i&gt;Blacklists:&lt;/i&gt;&lt;/b&gt; allow to hide some segments or projection steps.
&lt;b&gt;&lt;i&gt;Multiple Measure LPEs:&lt;/i&gt;&lt;/b&gt; In the same object, in conjunction with blacklists,this allows for labels and measurements with different orientations or additional projections.
&lt;b&gt;&lt;i&gt;Set Defaults:&lt;/i&gt;&lt;/b&gt; For every LPE, default values can be set at the bottom." />
    <rect
       x="2270.4744"
       y="781.24316"
       width="575.99982"
       height="294.49451"
       id="rect13297" />
    <marker
       id="ArrowDIN-start"
       class="rect35334 path-effect44242 measure-arrow-marker"
       inkscape:stockid="ArrowDIN-start"
       orient="auto"
       refX="0"
       refY="0"
       sodipodi:insensitive="true">
      <path
         d="M -8,0 8,-2.11 v 4.22 z"
         class="rect35334 path-effect44242 measure-arrow"
         id="ArrowDIN-start_path"
         style="fill:context-stroke;;fill-opacity:1;stroke:none" />
    </marker>
    <marker
       id="ArrowDIN-end"
       class="rect35334 path-effect44242 measure-arrow-marker"
       inkscape:stockid="ArrowDIN-end"
       orient="auto"
       refX="0"
       refY="0"
       sodipodi:insensitive="true">
      <path
         d="M 8,0 -8,2.11 v -4.22 z"
         class="rect35334 path-effect44242 measure-arrow"
         id="ArrowDIN-end_path"
         style="fill:context-stroke;;fill-opacity:1;stroke:none" />
    </marker>
  </defs>
  <g
     inkscape:label="Layer 1"
     inkscape:groupmode="layer"
     id="layer1"
     transform="translate(-147.72162,-249.92896)">
    <text
       xml:space="preserve"
       transform="matrix(0.26458333,0,0,0.26458333,-613.94867,-98.18306)"
       id="text13295"
       style="font-variation-settings:normal;white-space:pre;shape-inside:url(#rect13297);display:inline;opacity:1;vector-effect:none;fill:#9d8c41;fill-opacity:1;fill-rule:evenodd;stroke:#000000;stroke-width:1.88976;stroke-linecap:butt;stroke-linejoin:miter;stroke-miterlimit:4;stroke-dasharray:none;stroke-dashoffset:0;stroke-opacity:1;-inkscape-stroke:none;stop-color:#000000;stop-opacity:1" />
    <rect
       style="fill:#a0892c;fill-opacity:0.543543;stroke:#000000;stroke-width:0.5;stroke-miterlimit:4;stroke-dasharray:none"
       id="rect6317"
       width="270"
       height="179.99997"
       x="216.63789"
       y="285.86386" />
    <rect
       style="font-variation-settings:normal;vector-effect:none;fill:#918a6f;fill-opacity:1;stroke:#000000;stroke-width:0.5;stroke-linecap:butt;stroke-linejoin:miter;stroke-miterlimit:4;stroke-dasharray:none;stroke-dashoffset:0;stroke-opacity:1;-inkscape-stroke:none;stop-color:#000000"
       id="rect3011"
       width="249.74997"
       height="159.75"
       x="226.88794"
       y="296.11386" />
    <path
       style="font-variation-settings:normal;vector-effect:none;fill:#9d8c41;fill-opacity:1;stroke:#000000;stroke-width:0.5;stroke-linecap:butt;stroke-linejoin:miter;stroke-miterlimit:4;stroke-dasharray:none;stroke-dashoffset:0;stroke-opacity:1;-inkscape-stroke:none;stop-color:#000000"
       id="rect35334"
       width="304.79999"
       height="25.4"
       x="272.00186"
       y="-270.10492"
       transform="rotate(90)"
       inkscape:path-effect="#path-effect44242"
       sodipodi:type="rect"
       d="m 272.00186,-270.10492 h 304.79999 v 25.4 H 272.00186 Z" />
    <use
       x="0"
       y="0"
       xlink:href="#rect35334"
       id="use35336"
       transform="translate(190.64653)"
       width="100%"
       height="100%"
       style="font-variation-settings:normal;vector-effect:none;fill:#9d8c41;fill-opacity:1;stroke:#000000;stroke-width:0.5;stroke-linecap:butt;stroke-linejoin:miter;stroke-miterlimit:4;stroke-dasharray:none;stroke-dashoffset:0;stroke-opacity:1;-inkscape-stroke:none;stop-color:#000000" />
    <path
       id="rect35056"
       style="font-variation-settings:normal;vector-effect:none;fill:#9d8c41;fill-opacity:1;stroke:#000000;stroke-width:0.5;stroke-linecap:butt;stroke-linejoin:miter;stroke-miterlimit:4;stroke-dasharray:none;stroke-dashoffset:0;stroke-opacity:1;-inkscape-stroke:none;stop-color:#000000"
       d="m 211.63793,321.08596 v 25.4 h 279.99996 v -25.4 z" />
    <text
       xml:space="preserve"
       style="font-size:4.9389px;line-height:1.25;font-family:monospace;-inkscape-font-specification:monospace;letter-spacing:0px;stroke-width:0.264583"
       x="320.65948"
       y="426.2149"
       id="text45690-6-9-3"><tspan
         sodipodi:role="line"
         style="stroke-width:0.264583"
         x="320.65948"
         y="426.2149"
         id="tspan13402-0">Posterior panel</tspan></text>
    <use
       x="0"
       y="0"
       xlink:href="#rect35056"
       id="use35246"
       transform="translate(-1.0649984e-5,50.800003)"
       width="100%"
       height="100%"
       style="font-variation-settings:normal;vector-effect:none;fill:#9d8c41;fill-opacity:1;stroke:#000000;stroke-width:0.5;stroke-linecap:butt;stroke-linejoin:miter;stroke-miterlimit:4;stroke-dasharray:none;stroke-dashoffset:0;stroke-opacity:1;-inkscape-stroke:none;stop-color:#000000" />
    <text
       xml:space="preserve"
       style="font-size:4.9389px;line-height:1.25;font-family:monospace;-inkscape-font-specification:monospace;letter-spacing:0px;stroke-width:0.264583"
       x="315.0242"
       y="510.82477"
       id="text36422"><tspan
         sodipodi:role="line"
         id="tspan36420"
         style="stroke-width:0.264583"
         x="315.0242"
         y="510.82477">Fold at 3 inches</tspan><tspan
         sodipodi:role="line"
         style="stroke-width:0.264583"
         x="315.0242"
         y="516.99841"
         id="tspan36424" /></text>
    <path
       style="fill:none;fill-opacity:1;stroke:#000000;stroke-width:0.5;stroke-linecap:butt;stroke-linejoin:miter;stroke-dasharray:none;stroke-opacity:1"
       d="m 388.2379,322.28612 3,1 -3,1 3,1 -3,1 3,1 -3,1 3,1 -3,1 3,1 -3,1 3,1 -3,1 3,1 -3,1 3,1 -3,1 3,1 -3,1 3,1 -3,1 3,1 -3,1 3,1 v 0"
       id="path36587-3"
       sodipodi:nodetypes="cccccccccccccccccccc" />
    <path
       style="fill:none;fill-opacity:1;stroke:#000000;stroke-width:0.5;stroke-linecap:butt;stroke-linejoin:miter;stroke-dasharray:none;stroke-opacity:1"
       d="m 426.33785,322.28612 3,1 -3,1 3,1 -3,1 3,1 -3,1 3,1 -3,1 3,1 -3,1 3,1 -3,1 3,1 -3,1 3,1 -3,1 3,1 -3,1 3,1 -3,1 3,1 -3,1 3,1 v 0"
       id="path6-6"
       sodipodi:nodetypes="cccccccccccccccccccc" />
    <path
       style="fill:none;fill-opacity:1;stroke:#000000;stroke-width:0.5;stroke-linecap:butt;stroke-linejoin:miter;stroke-dasharray:none;stroke-opacity:1"
       d="m 464.43784,322.28612 3,1 -3,1 3,1 -3,1 3,1 -3,1 3,1 -3,1 3,1 -3,1 3,1 -3,1 3,1 -3,1 3,1 -3,1 3,1 -3,1 3,1 -3,1 3,1 -3,1 3,1 v 0"
       id="path7-7"
       sodipodi:nodetypes="cccccccccccccccccccc" />
    <path
       style="fill:none;fill-opacity:1;stroke:#000000;stroke-width:0.5;stroke-linecap:butt;stroke-linejoin:miter;stroke-dasharray:none;stroke-opacity:1"
       d="m 235.83794,322.16944 3.00001,1 -3.00001,1 3.00001,1 -3.00001,1 3.00001,1 -3.00001,1 3.00001,1 -3.00001,1 3.00001,1 -3.00001,1 3.00001,1 -3.00001,1 3.00001,1 -3.00001,1 3.00001,1 -3.00001,1 3.00001,1 -3.00001,1 3.00001,1 -3.00001,1 3.00001,1 -3.00001,1 3.00001,1 v 0"
       id="path36587"
       sodipodi:nodetypes="cccccccccccccccccccc" />
    <path
       style="fill:none;fill-opacity:1;stroke:#000000;stroke-width:0.5;stroke-linecap:butt;stroke-linejoin:miter;stroke-dasharray:none;stroke-opacity:1"
       d="m 273.9379,322.16944 3,1 -3,1 3,1 -3,1 3,1 -3,1 3,1 -3,1 3,1 -3,1 3,1 -3,1 3,1 -3,1 3,1 -3,1 3,1 -3,1 3,1 -3,1 3,1 -3,1 3,1 v 0"
       id="path6"
       sodipodi:nodetypes="cccccccccccccccccccc" />
    <path
       style="fill:none;fill-opacity:1;stroke:#000000;stroke-width:0.5;stroke-linecap:butt;stroke-linejoin:miter;stroke-dasharray:none;stroke-opacity:1"
       d="m 312.0379,322.16944 3,1 -3,1 3,1 -3,1 3,1 -3,1 3,1 -3,1 3,1 -3,1 3,1 -3,1 3,1 -3,1 3,1 -3,1 3,1 -3,1 3,1 -3,1 3,1 -3,1 3,1 v 0"
       id="path7"
       sodipodi:nodetypes="cccccccccccccccccccc" />
    <path
       style="fill:none;fill-opacity:1;stroke:#000000;stroke-width:0.5;stroke-linecap:butt;stroke-linejoin:miter;stroke-dasharray:none;stroke-opacity:1"
       d="m 350.1379,322.16944 3,1 -3,1 3,1 -3,1 3,1 -3,1 3,1 -3,1 3,1 -3,1 3,1 -3,1 3,1 -3,1 3,1 -3,1 3,1 -3,1 3,1 -3,1 3,1 -3,1 3,1 v 0"
       id="path8"
       sodipodi:nodetypes="cccccccccccccccccccc" />
    <path
       style="fill:none;fill-opacity:1;stroke:#000000;stroke-width:0.5;stroke-linecap:butt;stroke-linejoin:miter;stroke-dasharray:none;stroke-opacity:1"
       d="m 388.2379,373.04803 3,1 -3,1 3,1 -3,1 3,1 -3,1 3,1 -3,1 3,1 -3,1 3,1 -3,1 3,1 -3,1 3,1 -3,1 3,1 -3,1 3,1 -3,1 3,1 -3,1 3,1 v 0"
       id="path10808"
       sodipodi:nodetypes="cccccccccccccccccccc" />
    <path
       style="fill:none;fill-opacity:1;stroke:#000000;stroke-width:0.5;stroke-linecap:butt;stroke-linejoin:miter;stroke-dasharray:none;stroke-opacity:1"
       d="m 426.33785,373.04803 3,1 -3,1 3,1 -3,1 3,1 -3,1 3,1 -3,1 3,1 -3,1 3,1 -3,1 3,1 -3,1 3,1 -3,1 3,1 -3,1 3,1 -3,1 3,1 -3,1 3,1 v 0"
       id="path10810"
       sodipodi:nodetypes="cccccccccccccccccccc" />
    <path
       style="fill:none;fill-opacity:1;stroke:#000000;stroke-width:0.5;stroke-linecap:butt;stroke-linejoin:miter;stroke-dasharray:none;stroke-opacity:1"
       d="m 464.43784,373.04803 3,1 -3,1 3,1 -3,1 3,1 -3,1 3,1 -3,1 3,1 -3,1 3,1 -3,1 3,1 -3,1 3,1 -3,1 3,1 -3,1 3,1 -3,1 3,1 -3,1 3,1 v 0"
       id="path10812"
       sodipodi:nodetypes="cccccccccccccccccccc" />
    <path
       style="fill:none;fill-opacity:1;stroke:#000000;stroke-width:0.5;stroke-linecap:butt;stroke-linejoin:miter;stroke-dasharray:none;stroke-opacity:1"
       d="m 235.83794,372.93135 3.00001,1 -3.00001,1 3.00001,1 -3.00001,1 3.00001,1 -3.00001,1 3.00001,1 -3.00001,1 3.00001,1 -3.00001,1 3.00001,1 -3.00001,1 3.00001,1 -3.00001,1 3.00001,1 -3.00001,1 3.00001,1 -3.00001,1 3.00001,1 -3.00001,1 3.00001,1 -3.00001,1 3.00001,1 v 0"
       id="path10814"
       sodipodi:nodetypes="cccccccccccccccccccc" />
    <path
       style="fill:none;fill-opacity:1;stroke:#000000;stroke-width:0.5;stroke-linecap:butt;stroke-linejoin:miter;stroke-dasharray:none;stroke-opacity:1"
       d="m 273.9379,372.93135 3,1 -3,1 3,1 -3,1 3,1 -3,1 3,1 -3,1 3,1 -3,1 3,1 -3,1 3,1 -3,1 3,1 -3,1 3,1 -3,1 3,1 -3,1 3,1 -3,1 3,1 v 0"
       id="path10816"
       sodipodi:nodetypes="cccccccccccccccccccc" />
    <path
       style="fill:none;fill-opacity:1;stroke:#000000;stroke-width:0.5;stroke-linecap:butt;stroke-linejoin:miter;stroke-dasharray:none;stroke-opacity:1"
       d="m 312.0379,372.93135 3,1 -3,1 3,1 -3,1 3,1 -3,1 3,1 -3,1 3,1 -3,1 3,1 -3,1 3,1 -3,1 3,1 -3,1 3,1 -3,1 3,1 -3,1 3,1 -3,1 3,1 v 0"
       id="path10818"
       sodipodi:nodetypes="cccccccccccccccccccc" />
    <path
       style="fill:none;fill-opacity:1;stroke:#000000;stroke-width:0.5;stroke-linecap:butt;stroke-linejoin:miter;stroke-dasharray:none;stroke-opacity:1"
       d="m 350.1379,372.93135 3,1 -3,1 3,1 -3,1 3,1 -3,1 3,1 -3,1 3,1 -3,1 3,1 -3,1 3,1 -3,1 3,1 -3,1 3,1 -3,1 3,1 -3,1 3,1 -3,1 3,1 v 0"
       id="path10820"
       sodipodi:nodetypes="cccccccccccccccccccc" />
    <path
       style="fill:none;fill-opacity:1;stroke:#000000;stroke-width:0.5;stroke-linecap:butt;stroke-linejoin:miter;stroke-dasharray:none;stroke-opacity:1"
       d="m 268.9049,294.36386 -1,3 -1,-3 -1,3 -1,-3 -1,3 -1,-3 -1,3 -1,-3 -1,3 -1,-3 -1,3 -1,-3 -1,3 -1,-3 -1,3 -1,-3 -1,3 -1,-3 -1,3 -1,-3 -1,3 -1,-3 -1,3 v 0"
       id="path48232"
       sodipodi:nodetypes="cccccccccccccccccccc" />
    <path
       style="fill:none;fill-opacity:1;stroke:#000000;stroke-width:0.5;stroke-linecap:butt;stroke-linejoin:miter;stroke-dasharray:none;stroke-opacity:1"
       d="m 459.55142,294.36386 -1,3 -1,-3 -1,3 -1,-3 -1,3 -1,-3 -1,3 -1,-3 -1,3 -1,-3 -1,3 -1,-3 -1,3 -1,-3 -1,3 -1,-3 -1,3 -1,-3 -1,3 -1,-3 -1,3 -1,-3 -1,3 v 0"
       id="path48232-3"
       sodipodi:nodetypes="cccccccccccccccccccc" />
    <rect
       style="font-variation-settings:normal;fill:#333333;fill-opacity:1;stroke:#000000;stroke-width:0.5;stroke-linecap:butt;stroke-linejoin:miter;stroke-miterlimit:4;stroke-dasharray:none;stroke-dashoffset:0;stroke-opacity:1;stop-color:#000000"
       id="rect21133"
       width="20"
       height="63.5"
       x="-491.72784"
       y="-573.25977"
       rx="2"
       ry="2"
       transform="scale(-1)" />
    <rect
       style="font-variation-settings:normal;fill:#333333;fill-opacity:1;stroke:#000000;stroke-width:0.5;stroke-linecap:butt;stroke-linejoin:miter;stroke-miterlimit:4;stroke-dasharray:none;stroke-dashoffset:0;stroke-opacity:1;stop-color:#000000"
       id="rect21133-5"
       width="20"
       height="63.5"
       x="-301.91873"
       y="-573.25977"
       rx="2"
       ry="2"
       transform="scale(-1)"
       inkscape:transform-center-x="-117.76276"
       inkscape:transform-center-y="-8.6135927" />
    <rect
       style="fill:none;stroke:none;stroke-width:0.306729;-inkscape-stroke:none;stop-color:#000000"
       id="rect44356"
       width="365.87509"
       height="334.57773"
       x="157.72162"
       y="259.92896" />
  </g>
  <path
     id="infoline-on-start-0-path-effect44242"
     class="rect35334 path-effect44242 measure-helper-line measure-line"
     d="M 0,0 V 0"
     sodipodi:insensitive="true"
     inkscape:label="dinline"
     style="display:none;marker-start:url(#ArrowDIN-start);marker-end:url(#ArrowDIN-end);stroke-width:0.508;stroke:#000000;stroke-opacity:1" />
  <text
     xml:space="preserve"
     id="text-on-0-path-effect44242"
     class="rect35334 path-effect44242 measure-label"
     sodipodi:insensitive="true"
     x="0"
     y="0"
     style="font-family:Monospace;font-weight:normal;font-style:normal;font-stretch:normal;font-variant:normal;fill:#000000;fill-opacity:1;font-size:9.87778px;display:none"><tspan
       sodipodi:role="line"
       id="tspan44252"
       style="font-family:Monospace;font-weight:normal;font-style:normal;font-stretch:normal;font-variant:normal;fill:#000000;fill-opacity:1;font-size:9.87778px;display:none">0in</tspan></text>
  <path
     id="infoline-on-end-0-path-effect44242"
     class="rect35334 path-effect44242 measure-helper-line measure-line"
     d="M 0,0 V 0"
     sodipodi:insensitive="true"
     inkscape:label="dinline"
     style="display:none;marker-start:url(#ArrowDIN-start);marker-end:url(#ArrowDIN-end);stroke-width:0.508;stroke:#000000;stroke-opacity:1" />
  <path
     id="infoline-0-path-effect44242"
     class="rect35334 path-effect44242 measure-DIM-line measure-line"
     d="M 0,0 V 0"
     sodipodi:insensitive="true"
     inkscape:label="dinline"
     style="display:none;marker-start:url(#ArrowDIN-start);marker-end:url(#ArrowDIN-end);stroke-width:0.508;stroke:#000000;stroke-opacity:1" />
  <path
     id="infoline-on-start-1-path-effect44242"
     class="rect35334 path-effect44242 measure-helper-line measure-line"
     d="M 0,0 V 0"
     sodipodi:insensitive="true"
     inkscape:label="dinline"
     style="display:none;marker-start:url(#ArrowDIN-start);marker-end:url(#ArrowDIN-end);stroke-width:0.508;stroke:#000000;stroke-opacity:1" />
  <text
     xml:space="preserve"
     id="text-on-1-path-effect44242"
     class="rect35334 path-effect44242 measure-label"
     sodipodi:insensitive="true"
     x="0"
     y="0"
     style="font-family:Monospace;font-weight:normal;font-style:normal;font-stretch:normal;font-variant:normal;fill:#000000;fill-opacity:1;font-size:9.87778px;display:none"><tspan
       sodipodi:role="line"
       id="tspan44258"
       style="font-family:Monospace;font-weight:normal;font-style:normal;font-stretch:normal;font-variant:normal;fill:#000000;fill-opacity:1;font-size:9.87778px;display:none">0in</tspan></text>
  <path
     id="infoline-on-end-1-path-effect44242"
     class="rect35334 path-effect44242 measure-helper-line measure-line"
     d="M 0,0 V 0"
     sodipodi:insensitive="true"
     inkscape:label="dinline"
     style="display:none;marker-start:url(#ArrowDIN-start);marker-end:url(#ArrowDIN-end);stroke-width:0.508;stroke:#000000;stroke-opacity:1" />
  <path
     id="infoline-1-path-effect44242"
     class="rect35334 path-effect44242 measure-DIM-line measure-line"
     d="M 0,0 V 0"
     sodipodi:insensitive="true"
     inkscape:label="dinline"
     style="display:none;marker-start:url(#ArrowDIN-start);marker-end:url(#ArrowDIN-end);stroke-width:0.508;stroke:#000000;stroke-opacity:1" />
  <path
     id="infoline-on-start-2-path-effect44242"
     class="rect35334 path-effect44242 measure-helper-line measure-line"
     d="m 96.9833,326.87289 h -68"
     sodipodi:insensitive="true"
     inkscape:label="dinhelpline"
     style="stroke-width:0.508;stroke:#000000;stroke-opacity:1" />
  <text
     xml:space="preserve"
     id="text-on-2-path-effect44242"
     class="rect35334 path-effect44242 measure-label"
     sodipodi:insensitive="true"
     x="24.072712"
     y="174.4729"
     style="font-family:Monospace;font-weight:normal;font-style:normal;font-stretch:normal;font-variant:normal;fill:#000000;fill-opacity:1;font-size:9.87778px"
     transform="rotate(-90,34.934411,174.4729)"><tspan
       sodipodi:role="line"
       id="tspan44264">12in</tspan></text>
  <path
     id="infoline-on-end-2-path-effect44242"
     class="rect35334 path-effect44242 measure-helper-line measure-line"
     d="m 96.9833,22.072902 h -68"
     sodipodi:insensitive="true"
     inkscape:label="dinhelpline"
     style="stroke-width:0.508;stroke:#000000;stroke-opacity:1" />
  <path
     id="infoline-2-path-effect44242"
     class="rect35334 path-effect44242 measure-DIM-line measure-line"
     d="M 30.9833,322.80889 V 187.25136 m 0,-25.55693 V 26.136902"
     sodipodi:insensitive="true"
     inkscape:label="dinline"
     style="marker-start:url(#ArrowDIN-start);marker-end:url(#ArrowDIN-end);stroke-width:0.508;stroke:#000000;stroke-opacity:1" />
  <path
     id="infoline-on-start-3-path-effect44242"
     class="rect35334 path-effect44242 measure-helper-line measure-line"
     d="M 0,0 V 0"
     sodipodi:insensitive="true"
     inkscape:label="dinline"
     style="display:none;marker-start:url(#ArrowDIN-start);marker-end:url(#ArrowDIN-end);stroke-width:0.508;stroke:#000000;stroke-opacity:1" />
  <text
     xml:space="preserve"
     id="text-on-3-path-effect44242"
     class="rect35334 path-effect44242 measure-label"
     sodipodi:insensitive="true"
     x="0"
     y="0"
     style="font-family:Monospace;font-weight:normal;font-style:normal;font-stretch:normal;font-variant:normal;fill:#000000;fill-opacity:1;font-size:9.87778px;display:none"><tspan
       sodipodi:role="line"
       id="tspan44270"
       style="font-family:Monospace;font-weight:normal;font-style:normal;font-stretch:normal;font-variant:normal;fill:#000000;fill-opacity:1;font-size:9.87778px;display:none">0in</tspan></text>
  <path
     id="infoline-on-end-3-path-effect44242"
     class="rect35334 path-effect44242 measure-helper-line measure-line"
     d="M 0,0 V 0"
     sodipodi:insensitive="true"
     inkscape:label="dinline"
     style="display:none;marker-start:url(#ArrowDIN-start);marker-end:url(#ArrowDIN-end);stroke-width:0.508;stroke:#000000;stroke-opacity:1" />
  <path
     id="infoline-3-path-effect44242"
     class="rect35334 path-effect44242 measure-DIM-line measure-line"
     d="M 0,0 V 0"
     sodipodi:insensitive="true"
     inkscape:label="dinline"
     style="display:none;marker-start:url(#ArrowDIN-start);marker-end:url(#ArrowDIN-end);stroke-width:0.508;stroke:#000000;stroke-opacity:1" />
</svg>
