<?xml version="1.0" encoding="UTF-8" standalone="no"?>
<!-- Created with Inkscape (http://www.inkscape.org/) -->

<svg
   width="240.5mm"
   height="216.32948mm"
   viewBox="0 0 240.5 216.32948"
   version="1.1"
   id="svg5"
   inkscape:version="1.3.2 (1:1.3.2+202311252150+091e20ef0f)"
   sodipodi:docname="field-note-kit,-small,-zipper.svg"
   xmlns:inkscape="http://www.inkscape.org/namespaces/inkscape"
   xmlns:sodipodi="http://sodipodi.sourceforge.net/DTD/sodipodi-0.dtd"
   xmlns="http://www.w3.org/2000/svg"
   xmlns:svg="http://www.w3.org/2000/svg">
  <style
     id="style12">
.measure-arrow
{
}
.measure-label
{

}
.measure-line
{
}</style>
  <sodipodi:namedview
     id="namedview7"
     pagecolor="#ffffff"
     bordercolor="#666666"
     borderopacity="1.0"
     inkscape:pageshadow="2"
     inkscape:pageopacity="0.0"
     inkscape:pagecheckerboard="0"
     inkscape:document-units="mm"
     showgrid="true"
     inkscape:snap-bbox="true"
     inkscape:snap-bbox-edge-midpoints="true"
     inkscape:snap-object-midpoints="true"
     inkscape:object-paths="true"
     inkscape:snap-midpoints="true"
     inkscape:zoom="0.41555046"
     inkscape:cx="1335.5779"
     inkscape:cy="2728.9105"
     inkscape:window-width="1920"
     inkscape:window-height="1016"
     inkscape:window-x="0"
     inkscape:window-y="0"
     inkscape:window-maximized="1"
     inkscape:current-layer="layer3"
     inkscape:showpageshadow="2"
     inkscape:deskcolor="#d1d1d1">
    <inkscape:grid
       id="grid1"
       units="mm"
       originx="-209.74644"
       originy="-517.4092"
       spacingx="0.99999999"
       spacingy="0.99999999"
       empcolor="#0099e5"
       empopacity="0.30196078"
       color="#0099e5"
       opacity="0.14902"
       empspacing="5"
       dotted="false"
       gridanglex="30"
       gridanglez="30"
       visible="true" />
  </sodipodi:namedview>
  <defs
     id="defs2" />
  <g
     inkscape:groupmode="layer"
     id="layer4"
     inkscape:label="step-3-main-panel"
     transform="translate(-199.99645,-658.03133)">
    <rect
       style="fill:#c5b161;fill-opacity:1;stroke:#000000;stroke-width:0.5;stroke-dasharray:none"
       id="rect846-2"
       width="240"
       height="170"
       x="240.63678"
       y="552.22455"
       sodipodi:type="rect"
       transform="translate(-40.390326,123.29028)" />
    <rect
       style="fill:#806600;fill-opacity:0.543543;stroke:#000000;stroke-width:0.5;stroke-dasharray:none"
       id="rect462"
       width="10"
       height="170"
       x="-390.63675"
       y="551.16626"
       transform="matrix(-1,0,0,1,-40.390326,123.29028)" />
    <rect
       style="fill:#d1c17f;fill-opacity:1;stroke:#000000;stroke-width:0.5;stroke-dasharray:none"
       id="path462"
       width="100.00029"
       height="170"
       x="-480.63675"
       y="552.22455"
       transform="matrix(-1,0,0,1,-40.390326,123.29028)"
       sodipodi:type="rect" />
    <path
       style="fill:none;stroke:#000000;stroke-width:0.5;stroke-linecap:butt;stroke-linejoin:miter;stroke-miterlimit:4;stroke-dasharray:3, 3;stroke-dashoffset:0;stroke-opacity:1"
       d="M 384.04928,552.75374 V 722.75372"
       id="path463"
       transform="translate(-40.390326,123.29028)" />
    <path
       style="fill:none;stroke:#000000;stroke-width:0.5;stroke-linecap:butt;stroke-linejoin:miter;stroke-miterlimit:4;stroke-dasharray:3, 3;stroke-dashoffset:0;stroke-opacity:1"
       d="m 380.58469,557.23706 95,0.21022 10e-6,160.35287 -95.00001,-0.56309"
       id="path467"
       sodipodi:nodetypes="cccc"
       transform="translate(-40.390326,123.29028)" />
    <rect
       style="fill:#d1c17f;fill-opacity:1;stroke:#000000;stroke-width:0.5;stroke-dasharray:none"
       id="rect468"
       width="5.6395473"
       height="10"
       x="336.58469"
       y="601.93256"
       transform="translate(-40.390326,123.29028)" />
    <rect
       style="fill:#806600;fill-opacity:0.543543;stroke:#000000;stroke-width:0.5;stroke-dasharray:none"
       id="rect469"
       width="10"
       height="170"
       x="330.88675"
       y="550.91626"
       transform="translate(-40.390326,123.29028)" />
    <rect
       style="fill:#d1c17f;fill-opacity:1;stroke:#000000;stroke-width:0.5;stroke-dasharray:none"
       id="path469"
       width="100.24999"
       height="169.75"
       x="240.63678"
       y="552.22455"
       sodipodi:type="rect"
       transform="translate(-40.390326,123.29028)" />
    <path
       style="fill:none;stroke:#000000;stroke-width:0.5;stroke-linecap:butt;stroke-linejoin:miter;stroke-miterlimit:4;stroke-dasharray:3, 3;stroke-dashoffset:0;stroke-opacity:1"
       d="M 294.06603,604.0055 V 724.00553"
       id="path470"
       sodipodi:nodetypes="cc"
       transform="translate(-40.390326,123.29028)" />
    <rect
       style="fill:#d1c17f;fill-opacity:1;stroke:#000000;stroke-width:0.5;stroke-dasharray:none"
       id="rect470"
       width="101.11663"
       height="10"
       x="241.10762"
       y="603.52002"
       transform="translate(-40.390326,123.29028)" />
    <rect
       style="fill:#d1c17f;fill-opacity:1;stroke:#000000;stroke-width:0.5;stroke-dasharray:none"
       id="rect471"
       width="100.11663"
       height="120"
       x="242.10762"
       y="603.52002"
       transform="translate(-40.390326,123.29028)" />
    <path
       style="fill:none;stroke:#000000;stroke-width:0.5;stroke-linecap:butt;stroke-linejoin:miter;stroke-miterlimit:4;stroke-dasharray:3, 3;stroke-dashoffset:0;stroke-opacity:1"
       d="M 290.62637,603.21178 V 723.21181"
       id="path473"
       sodipodi:nodetypes="cc"
       transform="translate(-40.390326,123.29028)" />
    <path
       style="fill:none;stroke:#000000;stroke-width:0.524404;stroke-linecap:butt;stroke-linejoin:miter;stroke-miterlimit:4;stroke-dasharray:3.14643, 3.14643;stroke-dashoffset:0;stroke-opacity:1"
       d="m 243.1076,607.99119 h 99.64584"
       id="path474"
       sodipodi:nodetypes="cc"
       transform="translate(-40.390326,123.29028)" />
    <path
       style="fill:none;stroke:#000000;stroke-width:0.5;stroke-linecap:butt;stroke-linejoin:miter;stroke-miterlimit:4;stroke-dasharray:3, 3;stroke-dashoffset:0;stroke-opacity:1"
       d="M 337.47427,552.50373 V 722.50371"
       id="path475"
       transform="translate(-40.390326,123.29028)" />
    <path
       style="fill:none;stroke:#000000;stroke-width:0.5;stroke-linecap:butt;stroke-linejoin:miter;stroke-miterlimit:4;stroke-dasharray:3, 3;stroke-dashoffset:0;stroke-opacity:1"
       d="m 340.58469,557.02684 -95,0.21022 -1e-5,160.35287 95.00001,-0.56309"
       id="path479"
       sodipodi:nodetypes="cccc"
       transform="translate(-40.390326,123.29028)" />
    <path
       style="fill:#ff0000;fill-opacity:1;stroke:none;stroke-width:0.499999;stroke-dasharray:none;stroke-dashoffset:0;stroke-opacity:0.989386"
       id="path533"
       d="m 396.54054,544.15765 c 3.84538,-0.3151 7.65014,-0.98679 11.48506,-1.40367 1.51641,-0.16484 3.0366,-0.29295 4.55491,-0.43939 5.38657,-0.48356 10.79257,-0.74092 16.20099,-0.71827 0.0356,1.6e-4 -0.13795,0.0288 -0.10239,0.0303 0.66715,0.0296 1.33514,0.036 2.00271,0.054 2.54725,0.0596 5.12471,0.41531 7.66114,0.0382 0.29837,-0.0894 0.69191,-0.0823 0.93925,-0.30165 -0.049,-0.35502 0.19492,-0.95797 -0.14711,-1.06505 -2.28169,-0.71432 -5.0097,0.83735 -7.01299,1.72654 -2.25613,1.05203 -4.56594,2.01535 -6.69772,3.31049 -0.3602,0.28228 -1.09495,0.60788 -0.93305,1.20298 0.0516,0.18979 0.18097,0.34922 0.27146,0.52385 2.13672,0.33671 4.45241,0.32602 6.52597,-0.36759 0.46326,-0.15494 0.91028,-0.35475 1.36541,-0.53213 2.48135,-1.15197 4.69099,-2.78061 6.83266,-4.46291 0.87095,-0.70477 1.50778,-0.9421 0.93453,-2.13143 -1.50873,-1.80358 -3.32713,-3.31761 -5.0746,-4.88087 0,0 -2.92336,0.67386 -2.92336,0.67386 v 0 c 1.7072,1.53887 3.4712,3.01922 5.03958,4.70493 0.0585,0.0351 0.10752,0.10036 0.1756,0.10533 0.034,0.003 0.0645,-0.0574 0.051,-0.0887 -0.003,-0.005 -1.02878,0.82264 -1.11255,0.88702 -2.10963,1.62091 -4.2862,3.19764 -6.76055,4.2196 -1.15827,0.38597 -1.34245,0.50874 -2.50238,0.67778 -0.99777,0.14541 -2.51129,0.018 1.09175,0.0898 0.28046,0.006 -0.90821,0.003 -0.84082,0.0341 -0.20367,1.20787 -0.11218,0.62587 0.74184,0.17608 2.15098,-1.21589 4.42489,-2.19472 6.67004,-3.22001 0.86715,-0.37634 1.67092,-0.73959 2.55209,-1.07214 0.27557,-0.10398 0.5533,-0.20365 0.83627,-0.28546 0.16587,-0.0479 0.67995,-0.0927 0.5076,-0.10303 -2.84059,-0.17113 -2.55153,0.8786 -2.43914,-1.06421 -0.28321,-0.0241 -0.57372,0.0992 -0.86055,0.0905 -0.90483,0.0652 -2.82525,0.0715 1.16623,0.0587 0.27072,0 -0.5415,-0.008 -0.81196,-0.0199 -0.83423,-0.0373 -1.66592,-0.12287 -2.50139,-0.137 -7.87522,-0.2641 -15.76531,-0.053 -23.61147,0.68448 -1.52093,0.1528 -3.04366,0.28866 -4.5628,0.45836 -3.82759,0.42752 -7.62944,1.0866 -11.4722,1.3729 z"
       transform="translate(-40.390326,123.29028)" />
    <path
       style="fill:#ff0000;fill-opacity:1;stroke:none;stroke-width:0.499999;stroke-dasharray:none;stroke-dashoffset:0;stroke-opacity:0.989386"
       id="path538"
       d="m 331.22665,544.37855 c -5.42019,-0.0557 -10.84038,0.0481 -16.26034,0.0935 -4.8481,0.048 -9.69656,0.0685 -14.54451,0.13113 -1.16616,-0.0185 -2.31315,0.16045 -3.43686,0.45601 -0.17561,0.0769 -0.46781,0.0782 -0.57911,0.26263 -0.10777,0.34954 -0.14191,0.40978 0.12187,0.99967 0.0382,0.0855 0.18592,0.0267 0.27627,0.0514 1.20238,0.32878 2.38669,0.79669 3.56589,1.19404 2.60118,0.87426 5.22935,1.66415 7.85822,2.44994 0.10066,0.0305 0.28514,0.19526 0.30197,0.0914 0.37489,-2.31246 -1.71605,0.0833 1.94519,-1.1334 0.36084,-0.11993 -0.74549,-0.15147 -1.11445,-0.24341 -1.23897,-0.30877 -1.8937,-0.53256 -3.14148,-0.91909 -2.29406,-0.92353 -4.86041,-1.32334 -7.02119,-2.56818 0.10347,-0.49432 -0.19912,-0.0817 -0.14771,-0.0656 0.12511,0.0391 0.17116,-0.20346 0.22329,-0.32372 0.14927,-0.34443 0.48632,-1.23753 0.5892,-1.50556 0.84034,-2.29399 2.08595,-4.39279 3.38778,-6.44686 0,0 -2.96581,-0.45164 -2.96581,-0.45164 v 0 c -1.30629,2.10841 -2.55685,4.25878 -3.40711,6.60029 -0.11646,0.29927 -0.22998,0.59973 -0.34937,0.89784 -0.27418,0.68461 -0.73617,1.36692 -0.23129,2.05944 0.67026,0.55663 1.36421,0.83119 2.18697,1.13405 1.62243,0.5972 3.27338,1.11411 4.90846,1.67458 2.16155,0.69625 5.51867,1.97974 7.74983,1.41827 0.35723,-0.0899 0.25935,-0.71305 0.23217,-1.08043 -0.009,-0.11898 -0.21563,-0.1022 -0.32345,-0.15329 -2.62129,-0.79333 -5.25324,-1.5534 -7.8498,-2.42621 -1.53404,-0.51088 -1.55067,-0.50797 -2.933,-0.99562 -0.21574,-0.0761 -0.43058,-0.15479 -0.6454,-0.23345 -0.10007,-0.0366 -0.25712,-0.21034 -0.29927,-0.11247 -0.12615,0.29289 0.0468,0.64802 -0.046,0.95557 0.0851,0.10398 0.39116,-0.0764 0.51222,-0.0661 1.11059,-0.22172 2.2373,-0.30493 3.37016,-0.29451 4.84768,-0.0539 9.69561,-0.0846 14.54338,-0.12864 4.19129,-0.037 2.22375,-0.0175 6.16198,-0.0601 1.59454,-0.0172 3.18937,-0.013 4.78372,-0.0436 0.3785,-0.007 -0.75727,-0.0143 -1.13573,-0.005 -0.3244,0.008 0.64897,0.006 0.97346,0.009 z"
       transform="translate(-40.390326,123.29028)" />
    <path
       style="fill:#ff0000;fill-opacity:1;stroke:none;stroke-width:0.499999;stroke-dasharray:none;stroke-dashoffset:0;stroke-opacity:0.989386"
       id="path539"
       d="m 293.47185,735.81139 c 5.48964,0.42008 11.00001,0.55649 16.50059,0.79102 6.54681,0.27683 13.09338,0.56018 19.63233,0.98782 1.73358,0.11787 3.46614,0.25056 5.19673,0.40627 0.58354,0.0143 -0.95693,-0.72991 0.13628,-1.16885 0.0613,-0.0246 3.56679,0.0127 2.53712,0.003 -1.08905,-0.0335 -1.4323,-0.0466 -3.21304,0.28382 -0.0992,0.0185 -1.37293,1.03055 -1.38248,1.03817 -0.87437,0.69858 -1.74035,1.40758 -2.61311,2.10817 -1.93824,1.42089 -3.69914,3.09785 -5.69151,4.44577 1.08123,0.11456 2.16106,0.44413 3.24368,0.34364 0.34113,-0.0317 0.49399,-0.4748 0.7399,-0.71334 0.34133,-0.33108 0.68284,-0.66197 1.02182,-0.99545 1.16137,-1.14255 2.2814,-2.30991 3.37504,-3.51723 1.13766,-1.42878 2.41857,-3.04057 2.33138,-4.98724 -0.0553,-1.23494 -0.38459,-1.5725 -0.94333,-2.65883 -1.30568,-1.755 -3.07446,-3.01924 -4.90347,-4.16896 0,0 -2.88542,0.82119 -2.88542,0.82119 v 0 c 1.77084,1.02783 3.46244,2.1994 4.81694,3.75706 0.50453,0.83386 0.85713,1.1679 0.91669,2.15746 0.10606,1.76176 -1.27568,3.21316 -2.2731,4.48387 -1.09382,1.18806 -2.21321,2.3395 -3.36535,3.47123 -0.33964,0.33364 -0.68293,0.66352 -1.02226,0.99745 -0.25015,0.24617 -0.99964,0.50006 -0.74617,0.74282 0.67205,0.64357 1.73023,0.68535 2.59534,1.02804 1.93503,-1.4522 3.79651,-3.00091 5.70277,-4.49004 0.26518,-0.21283 2.23154,-1.79564 2.60619,-2.08063 0.25843,-0.19658 0.5194,-0.39092 0.79347,-0.56501 0.16856,-0.10711 0.72896,-0.24741 0.53141,-0.27665 -0.78352,-0.11605 -3.29343,-0.007 -2.37619,-0.006 0.95759,0.0279 2.73905,0.0806 2.93948,0.009 0.36981,-0.13155 0.28895,-0.85674 0.0606,-1.17599 -0.0329,-0.0459 -0.14291,0 -0.16422,-0.0419 -1.72958,-0.21217 -3.47423,-0.28472 -5.20924,-0.43577 -6.5409,-0.44296 -13.0902,-0.72956 -19.63999,-1.00549 -5.49377,-0.23519 -10.99332,-0.39849 -16.48088,-0.74494 z"
       transform="translate(-40.390326,123.29028)" />
    <path
       style="fill:#ff0000;fill-opacity:1;stroke:none;stroke-width:0.499999;stroke-dasharray:none;stroke-dashoffset:0;stroke-opacity:0.989386"
       id="path540"
       d="m 336.96052,723.10499 c -0.94825,4.22542 -1.23741,8.54083 -1.34673,12.85711 -0.0149,4.9735 0.29837,9.93971 0.58408,14.90273 0,0 2.99964,-0.0466 2.99964,-0.0466 v 0 c -0.28457,-4.94067 -0.59763,-9.88446 -0.58379,-14.83558 0.10872,-4.2663 0.3978,-8.53147 1.34192,-12.70659 z"
       transform="translate(-40.390326,123.29028)" />
    <path
       style="fill:#ff0000;fill-opacity:1;stroke:none;stroke-width:0.499999;stroke-dasharray:none;stroke-dashoffset:0;stroke-opacity:0.989386"
       id="path541"
       d="m 422.55122,739.94287 c -4.78816,-0.29641 -9.58899,0.0384 -14.37785,0.2046 -5.83198,0.21458 -11.66337,0.44508 -17.49459,0.67924 -0.14136,-0.0191 -2.34313,0.15721 -2.36205,0.0469 0.0602,-0.29261 -0.003,-0.64231 0.18065,-0.87781 0.0853,-0.10925 0.25811,0.10099 0.38816,0.14885 0.2549,0.0938 0.50884,0.19063 0.76664,0.2762 1.69069,0.5611 3.42195,0.99605 5.14082,1.45965 1.71666,0.49962 3.46795,0.88414 5.17417,1.42087 0.2873,0.0904 0.58716,0.15888 0.85045,0.30512 0.0988,0.0548 0.30252,0.23794 0.19626,0.27625 -1.06987,0.38592 -2.20378,0.56353 -3.30567,0.84532 -3.10469,-1.04381 -5.82611,-2.8737 -8.36694,-4.89779 -1.16556,-1.05724 -2.99121,-2.55415 -2.28934,-4.38954 0.4184,-1.09416 1.15476,-1.44473 2.04268,-2.13635 1.91012,-1.12967 3.997,-1.88984 6.05981,-2.68105 0,0 2.84147,0.96234 2.84147,0.96234 v 0 c -2.02914,0.75541 -4.06992,1.49559 -6.00085,2.48518 -0.5263,0.33031 -1.57413,0.85593 -1.94534,1.48537 -0.75251,1.27601 1.48658,2.88396 2.20204,3.54658 2.48253,1.90466 5.15674,3.73954 8.23672,4.49824 -0.83105,0.33972 -1.63527,1.22388 -2.50321,0.99422 -2.00768,-0.5312 -3.98188,-1.20973 -6.00788,-1.67928 -1.73174,-0.47498 -3.48435,-0.9125 -5.16936,-1.54083 -0.0971,-0.0362 -1.15792,-0.46104 -1.19533,-0.55563 -0.12793,-0.3235 -0.0596,-0.69326 -0.0894,-1.03986 0.2075,-0.23421 2.1511,-0.0243 2.40803,-0.1578 5.83179,-0.23503 11.66378,-0.46527 17.49625,-0.68302 6.6198,-0.23524 13.26481,-0.60359 19.88287,-0.17357 z"
       transform="translate(-40.390326,123.29028)" />
    <path
       style="fill:#ff0000;fill-opacity:1;stroke:none;stroke-width:0.499999;stroke-dasharray:none;stroke-dashoffset:0;stroke-opacity:0.989386"
       id="path542"
       d="m 388.53063,726.61366 c -0.0914,0.22548 -0.20822,0.44228 -0.27429,0.67646 -0.68506,2.42814 -0.58606,5.54241 -0.63593,8.06016 -0.0822,3.41988 -0.0821,6.84014 -0.0414,10.26044 -0.009,1.61726 0.10436,3.24085 -0.0213,4.85574 -0.0509,0.42696 -0.0237,0.22569 -0.0795,0.60407 0,0 -2.99751,-0.12234 -2.99751,-0.12234 v 0 c 0.0543,-0.34444 0.0278,-0.16222 0.0777,-0.5469 0.13304,-1.58914 0.004,-3.18921 0.0206,-4.78094 -0.0407,-3.42884 -0.0409,-6.85766 0.0414,-10.28607 0.0542,-2.74696 -0.0441,-5.65444 0.65024,-8.33718 0.0723,-0.27935 0.19411,-0.54346 0.29117,-0.81521 z"
       transform="translate(-40.390326,123.29028)" />
    <rect
       style="fill:#c5b161;fill-opacity:1;stroke:#000000;stroke-width:0.5;stroke-dasharray:none"
       id="rect542"
       width="240"
       height="170"
       x="240.63678"
       y="552.22455"
       sodipodi:type="rect"
       transform="translate(-40.390326,123.29028)" />
    <rect
       style="fill:#806600;fill-opacity:0.543543;stroke:#000000;stroke-width:0.5;stroke-dasharray:none"
       id="rect543"
       width="10"
       height="170"
       x="-390.63675"
       y="551.16626"
       transform="matrix(-1,0,0,1,-40.390326,123.29028)" />
    <rect
       style="fill:#d1c17f;fill-opacity:1;stroke:#000000;stroke-width:0.5;stroke-dasharray:none"
       id="path543"
       width="100.00029"
       height="170"
       x="-480.63675"
       y="552.22455"
       transform="matrix(-1,0,0,1,-40.390326,123.29028)"
       sodipodi:type="rect" />
    <path
       style="fill:none;stroke:#000000;stroke-width:0.5;stroke-linecap:butt;stroke-linejoin:miter;stroke-miterlimit:4;stroke-dasharray:3, 3;stroke-dashoffset:0;stroke-opacity:1"
       d="M 384.04928,552.75374 V 722.75372"
       id="path544"
       transform="translate(-40.390326,123.29028)" />
    <path
       style="fill:none;stroke:#000000;stroke-width:0.5;stroke-linecap:butt;stroke-linejoin:miter;stroke-miterlimit:4;stroke-dasharray:3, 3;stroke-dashoffset:0;stroke-opacity:1"
       d="m 380.58469,557.23706 95,0.21022 10e-6,160.35287 -95.00001,-0.56309"
       id="path545"
       sodipodi:nodetypes="cccc"
       transform="translate(-40.390326,123.29028)" />
    <rect
       style="fill:#d1c17f;fill-opacity:1;stroke:#000000;stroke-width:0.5;stroke-dasharray:none"
       id="rect545"
       width="5.6395473"
       height="10"
       x="336.58469"
       y="601.93256"
       transform="translate(-40.390326,123.29028)" />
    <rect
       style="fill:#806600;fill-opacity:0.543543;stroke:#000000;stroke-width:0.5;stroke-dasharray:none"
       id="rect546"
       width="10"
       height="170"
       x="330.88675"
       y="550.91626"
       transform="translate(-40.390326,123.29028)" />
    <rect
       style="fill:#d1c17f;fill-opacity:1;stroke:#000000;stroke-width:0.5;stroke-dasharray:none"
       id="path546"
       width="100.24999"
       height="169.75"
       x="240.63678"
       y="552.22455"
       sodipodi:type="rect"
       transform="translate(-40.390326,123.29028)" />
    <path
       style="fill:none;stroke:#000000;stroke-width:0.5;stroke-linecap:butt;stroke-linejoin:miter;stroke-miterlimit:4;stroke-dasharray:3, 3;stroke-dashoffset:0;stroke-opacity:1"
       d="M 294.06603,604.0055 V 724.00553"
       id="path547"
       sodipodi:nodetypes="cc"
       transform="translate(-40.390326,123.29028)" />
    <rect
       style="fill:#d1c17f;fill-opacity:1;stroke:#000000;stroke-width:0.5;stroke-dasharray:none"
       id="rect547"
       width="101.11663"
       height="10"
       x="241.10762"
       y="603.52002"
       transform="translate(-40.390326,123.29028)" />
    <rect
       style="fill:#d1c17f;fill-opacity:1;stroke:#000000;stroke-width:0.5;stroke-dasharray:none"
       id="rect548"
       width="100.11663"
       height="120"
       x="242.10762"
       y="603.52002"
       transform="translate(-40.390326,123.29028)" />
    <path
       style="fill:none;stroke:#000000;stroke-width:0.5;stroke-linecap:butt;stroke-linejoin:miter;stroke-miterlimit:4;stroke-dasharray:3, 3;stroke-dashoffset:0;stroke-opacity:1"
       d="M 290.62637,603.21178 V 723.21181"
       id="path548"
       sodipodi:nodetypes="cc"
       transform="translate(-40.390326,123.29028)" />
    <path
       style="fill:none;stroke:#000000;stroke-width:0.524404;stroke-linecap:butt;stroke-linejoin:miter;stroke-miterlimit:4;stroke-dasharray:3.14643, 3.14643;stroke-dashoffset:0;stroke-opacity:1"
       d="m 243.1076,607.99119 h 99.64584"
       id="path549"
       sodipodi:nodetypes="cc"
       transform="translate(-40.390326,123.29028)" />
    <path
       style="fill:none;stroke:#000000;stroke-width:0.5;stroke-linecap:butt;stroke-linejoin:miter;stroke-miterlimit:4;stroke-dasharray:3, 3;stroke-dashoffset:0;stroke-opacity:1"
       d="M 337.47427,552.50373 V 722.50371"
       id="path550"
       transform="translate(-40.390326,123.29028)" />
    <path
       style="fill:none;stroke:#000000;stroke-width:0.5;stroke-linecap:butt;stroke-linejoin:miter;stroke-miterlimit:4;stroke-dasharray:3, 3;stroke-dashoffset:0;stroke-opacity:1"
       d="m 340.58469,557.02684 -95,0.21022 -1e-5,160.35287 95.00001,-0.56309"
       id="path551"
       sodipodi:nodetypes="cccc"
       transform="translate(-40.390326,123.29028)" />
  </g>
</svg>
