<?xml version="1.0" encoding="UTF-8" standalone="no"?>
<!-- Created with Inkscape (http://www.inkscape.org/) -->

<svg
   width="240.03081mm"
   height="170.90146mm"
   viewBox="0 0 240.0308 170.90145"
   version="1.1"
   id="svg5"
   inkscape:version="1.3.2 (1:1.3.2+202311252150+091e20ef0f)"
   sodipodi:docname="field-note-kit,-small,-zipper.svg"
   xmlns:inkscape="http://www.inkscape.org/namespaces/inkscape"
   xmlns:sodipodi="http://sodipodi.sourceforge.net/DTD/sodipodi-0.dtd"
   xmlns:xlink="http://www.w3.org/1999/xlink"
   xmlns="http://www.w3.org/2000/svg"
   xmlns:svg="http://www.w3.org/2000/svg">
  <style
     id="style12">
.measure-arrow
{
}
.measure-label
{

}
.measure-line
{
}</style>
  <sodipodi:namedview
     id="namedview7"
     pagecolor="#ffffff"
     bordercolor="#666666"
     borderopacity="1.0"
     inkscape:pageshadow="2"
     inkscape:pageopacity="0.0"
     inkscape:pagecheckerboard="0"
     inkscape:document-units="mm"
     showgrid="true"
     inkscape:snap-bbox="true"
     inkscape:snap-bbox-edge-midpoints="true"
     inkscape:snap-object-midpoints="true"
     inkscape:object-paths="true"
     inkscape:snap-midpoints="true"
     inkscape:zoom="0.41555046"
     inkscape:cx="1335.5779"
     inkscape:cy="2728.9105"
     inkscape:window-width="1920"
     inkscape:window-height="1016"
     inkscape:window-x="0"
     inkscape:window-y="0"
     inkscape:window-maximized="1"
     inkscape:current-layer="layer3"
     inkscape:showpageshadow="2"
     inkscape:deskcolor="#d1d1d1">
    <inkscape:grid
       id="grid1"
       units="mm"
       originx="-215.21541"
       originy="-814.70867"
       spacingx="0.99999999"
       spacingy="0.99999999"
       empcolor="#0099e5"
       empopacity="0.30196078"
       color="#0099e5"
       opacity="0.14902"
       empspacing="5"
       dotted="false"
       gridanglex="30"
       gridanglez="30"
       visible="true" />
  </sodipodi:namedview>
  <defs
     id="defs2">
    <inkscape:path-effect
       effect="skeletal"
       id="path-effect3"
       is_visible="true"
       lpeversion="1"
       pattern="#path1"
       copytype="repeated"
       prop_scale="0.551"
       scale_y_rel="false"
       spacing="-0.9"
       normal_offset="-8.7"
       tang_offset="0"
       prop_units="false"
       vertical_pattern="false"
       hide_knot="false"
       fuse_tolerance="0" />
  </defs>
  <g
     inkscape:groupmode="layer"
     id="layer5"
     inkscape:label="step-4-final"
     transform="translate(-205.46543,-955.33083)">
    <use
       x="0"
       y="0"
       xlink:href="#rect542"
       id="use551"
       transform="translate(5.305648,280.55501)" />
    <use
       x="0"
       y="0"
       xlink:href="#path543"
       id="use553"
       transform="translate(5.305648,280.55501)" />
    <use
       x="0"
       y="0"
       xlink:href="#path544"
       id="use554"
       transform="translate(5.305648,280.55501)" />
    <use
       x="0"
       y="0"
       xlink:href="#path545"
       id="use555"
       transform="translate(5.305648,280.55501)" />
    <use
       x="0"
       y="0"
       xlink:href="#rect545"
       id="use556"
       transform="translate(5.305648,280.02584)" />
    <use
       x="0"
       y="0"
       xlink:href="#path546"
       id="use558"
       transform="translate(5.305648,280.55501)" />
    <use
       x="0"
       y="0"
       xlink:href="#path547"
       id="use559"
       transform="translate(5.305648,280.55501)" />
    <use
       x="0"
       y="0"
       xlink:href="#rect548"
       id="use561"
       transform="matrix(1.0133766,0,0,0.99997228,1.2664912,279.51848)" />
    <use
       x="0"
       y="0"
       xlink:href="#path548"
       id="use562"
       transform="translate(5.305648,280.55501)" />
    <use
       x="0"
       y="0"
       xlink:href="#path549"
       id="use563"
       transform="translate(5.305648,280.55501)" />
    <use
       x="0"
       y="0"
       xlink:href="#path550"
       id="use564"
       transform="translate(5.305648,280.55501)" />
    <use
       x="0"
       y="0"
       xlink:href="#path551"
       id="use565"
       transform="translate(5.305648,280.55501)" />
    <path
       id="rect981-3"
       style="opacity:0.757861;fill:none;fill-opacity:0.543543;stroke:#000000;stroke-width:0.492809;stroke-dasharray:2.95685, 2.95685;stroke-dashoffset:0"
       d="m 261.47924,833.84773 h 207.84423 c 8.05614,0 14.54176,6.46487 14.54176,14.49523 v 138.29639 c 0,8.03036 -6.48562,14.49525 -14.54176,14.49525 H 261.47924 c -8.05613,0 -14.54173,-6.46489 -14.54173,-14.49525 V 848.34296 c 0,-8.03035 6.4856,-14.49522 14.54173,-14.49523 z"
       transform="translate(-40.390326,123.29028)" />
    <path
       style="fill:#292929;fill-opacity:1;stroke:none;stroke-width:0.499999;stroke-dasharray:none;stroke-dashoffset:0;stroke-opacity:0.989386"
       d="m 416.45291,853.10133 -2.2014,0.0555 0.23017,9.28153 c 0.0575,0.48312 0.11461,0.95459 0.17663,1.41194 l 0.54865,-0.0569 c 0.19795,1.45516 0.43888,2.74127 0.90788,3.7731 0.19981,0.38228 0.30138,0.64795 0.3532,0.73165 l 0.87702,-0.66034 c 0.0339,0.0263 -0.0197,-0.15743 -0.20917,-0.48568 -0.42513,-0.8916 -0.64066,-2.07754 -0.83164,-3.47261 l 0.54864,-0.0569 c -0.0577,-0.42033 -0.11402,-0.8624 -0.17426,-1.32371 -0.0752,-3.06584 -0.15048,-6.13167 -0.22572,-9.19751 z m 1.36329,14.1789 -1.94603,1.04724 c 0.10815,0.22702 0.18157,0.36537 0.24545,0.38107 -0.0544,-0.1101 -0.22759,-0.1312 -0.65934,-0.22902 l 0,0 c 2.43876,0.0569 4.87996,0.0995 7.3235,0.13214 l 0.007,-0.55091 c 2.32221,0.0311 4.64683,0.0531 6.97378,0.07 l 0.008,-1.10191 c -2.32529,-0.0169 -4.64767,-0.0389 -6.96704,-0.0699 l 0.007,-0.55091 c -2.43757,-0.0326 -4.8715,-0.0751 -7.30168,-0.13176 l 0,0 c 1.10766,0.16595 1.78296,0.4018 2.16577,0.87329 0,0 0,0 0,0 0.11426,0.19102 0.17027,0.22326 0.14284,0.13068 z m 11.06033,-0.8091 -0.0174,2.20382 c 3.52193,0.0277 7.04854,0.0423 10.57954,0.0568 0.13531,5.6e-4 0.27062,0.001 0.40594,0.002 l 0.002,-0.55096 c 2.33065,0.009 4.66149,0.0163 6.99253,0.0215 l 0.002,-1.10193 c -2.33043,-0.005 -4.66063,-0.0122 -6.99058,-0.0215 l 0.002,-0.55096 c -0.13523,-5.4e-4 -0.27046,-0.001 -0.40569,-0.002 -3.53092,-0.0146 -7.05475,-0.0292 -10.5712,-0.0568 z m 17.06776,0.0778 -0.005,2.20385 c 3.66337,0.009 7.32715,0.0129 10.99135,0.0134 l 7e-5,-0.55097 c 2.33159,2.8e-4 4.66337,-8.9e-4 6.99534,-0.003 l -0.001,-1.10193 c -2.3316,0.002 -4.66298,0.004 -6.99411,0.003 l 7e-5,-0.55097 c -3.66275,-4.4e-4 -7.32485,-0.004 -10.98629,-0.0133 z m 17.08054,0.0109 0.002,2.20387 c 2.42905,-0.002 4.85828,-0.006 7.28769,-0.01 1.23623,-0.002 2.4724,-0.004 3.70851,-0.007 l -0.001,-0.55097 c 2.33303,-0.004 4.6658,-0.009 6.9983,-0.0143 l -0.003,-1.10194 c -2.33227,0.005 -4.66488,0.01 -6.99782,0.0143 l -0.001,-0.55097 c -1.23601,0.002 -2.47213,0.005 -3.70835,0.007 -2.42884,0.004 -4.85739,0.008 -7.28567,0.01 z m 17.09206,-0.0288 0.005,2.20387 c 3.66553,-0.008 7.33048,-0.0178 10.99484,-0.0309 l -0.002,-0.55097 c 2.33171,-0.008 4.66315,-0.018 6.9943,-0.0295 l -0.005,-1.10192 c -2.33059,0.0115 -4.66153,0.0212 -6.99281,0.0295 l -0.002,-0.55097 c -3.66301,0.0131 -7.32696,0.0228 -10.99184,0.0309 z m 17.08507,-0.056 0.0104,2.20385 c 3.66369,-0.0173 7.32677,-0.0389 10.98924,-0.0666 l -0.004,-0.55096 c 2.1088,-0.0159 4.21737,-0.0338 6.3257,-0.0541 0.17929,-0.006 0.35842,-0.0148 0.53718,-0.0253 l -0.0441,-1.10417 c -0.16746,0.0109 -0.33542,0.0201 -0.50366,0.0276 -2.10752,0.0202 -4.21534,0.0382 -6.32345,0.0541 l -0.004,-0.55095 c -3.66004,0.0276 -7.32106,0.0492 -10.98302,0.0666 z m 17.07128,-0.11837 0.021,2.20376 c 0.0781,-7.4e-4 0.15616,-0.001 0.23424,-0.002 2.9897,-0.0945 5.95532,-0.76008 8.01751,-2.32234 l -0.32325,-0.4428 c 0.17559,-0.1341 0.34364,-0.27518 0.5035,-0.42348 1.0263,-0.76491 1.79853,-1.90879 2.347,-3.25153 l -1.00753,-0.43806 c -0.48355,1.21451 -1.15791,2.22462 -2.05341,2.85023 -0.1371,0.13215 -0.28268,0.25781 -0.43606,0.37723 l -0.32325,-0.4428 c -1.57161,1.23805 -4.11328,1.75949 -6.74566,1.88979 -0.078,7.5e-4 -0.15604,0.001 -0.23406,0.002 z m 9.07477,-4.3947 1.95247,0.99179 c 0.83256,-1.71291 1.26772,-3.78789 1.36819,-5.85231 0.0261,-1.07913 0.0397,-2.16529 0.0471,-3.25838 l -0.55096,-0.004 c 0.0115,-1.70401 0.008,-3.4274 0.0122,-5.16973 0.001,-0.60291 0.003,-1.20587 0.004,-1.80888 l -1.10193,-0.002 c -0.001,0.60279 -0.002,1.20553 -0.004,1.8082 -0.005,1.74566 -7.7e-4,3.4674 -0.0122,5.16478 l -0.55096,-0.004 c -0.007,1.0846 -0.0207,2.15821 -0.0466,3.2207 -0.12384,1.76944 -0.47541,3.53142 -1.11743,4.91333 z m 1.17817,-14.20594 2.20386,0.005 c 0.008,-3.66207 0.008,-7.3256 0.007,-10.99058 l -0.55097,2.5e-4 c -6.2e-4,-1.38074 -0.002,-2.76171 -0.003,-4.14292 -7.5e-4,-0.95164 -0.002,-1.90329 -0.003,-2.85495 l -1.10192,0.001 c 9.2e-4,0.9516 0.002,1.90318 0.003,2.85475 0.001,1.38114 0.002,2.76199 0.003,4.14255 l -0.55097,2.4e-4 c 0.002,3.66399 8.5e-4,7.32568 -0.007,10.98505 z m 0.002,-17.08239 2.20386,-0.002 c -0.003,-3.66574 -0.008,-7.33162 -0.0136,-10.99762 l -0.55096,8.3e-4 c -0.004,-2.33291 -0.007,-4.66589 -0.0116,-6.99893 l -1.10192,0.002 c 0.004,2.33295 0.008,4.66583 0.0116,6.99863 l -0.55097,8.4e-4 c 0.006,3.66564 0.0102,7.33107 0.0136,10.9963 z m -0.0236,-17.09497 2.20386,-0.004 c -0.006,-3.66615 -0.0136,-7.33243 -0.021,-10.99884 l -0.55097,0.001 c -0.005,-2.33322 -0.01,-4.6665 -0.0144,-6.99983 l -1.10192,0.002 c 0.005,2.33333 0.01,4.66659 0.0144,6.99976 l -0.55096,0.001 c 0.007,3.66629 0.0145,7.33238 0.021,10.99825 z m -0.0335,-17.098 2.20385,-0.005 c -0.006,-2.89216 -0.0121,-5.7844 -0.018,-8.67672 -0.002,-0.77439 -0.003,-1.54879 -0.005,-2.32319 l -0.55097,0.001 c -0.005,-2.33333 -0.01,-4.66673 -0.0144,-7.00019 l -1.10192,0.002 c 0.005,2.33348 0.01,4.66689 0.0144,7.00022 l -0.55097,0.001 c 0.002,0.7744 0.003,1.54879 0.005,2.32317 0.006,2.8924 0.012,5.78466 0.018,8.67679 z m -0.0353,-17.10015 2.20386,-0.004 c -0.007,-3.66672 -0.0148,-7.33358 -0.0215,-11.00057 l -0.55097,0.001 c -0.004,-2.33364 -0.008,-4.66735 -0.0121,-7.00111 l -1.10193,0.002 c 0.004,2.33387 0.008,4.66766 0.0121,7.00137 l -0.55097,0.001 c 0.007,3.66722 0.014,7.33423 0.0215,11.00102 z m -0.0321,-17.10232 2.20385,-0.004 c -0.006,-3.66714 -0.0112,-7.33442 -0.0152,-11.00183 l -0.55096,6e-4 c -0.003,-2.33395 -0.005,-4.66796 -0.006,-7.00203 l -1.10192,7e-4 c 0.001,2.33425 0.004,4.66843 0.006,7.00253 l -0.55097,6e-4 c 0.004,3.66789 0.009,7.33556 0.0152,11.00302 z m -0.0206,-17.10543 2.20386,-0.002 c -6.2e-4,-0.88183 -0.001,-1.76366 -0.002,-2.6455 -0.001,-2.78555 -0.002,-5.57188 -6.6e-4,-8.35897 l -0.55096,-3.1e-4 c 0.001,-2.33536 0.004,-4.67135 0.01,-7.00796 l -1.10193,-0.003 c -0.006,2.33745 -0.009,4.67412 -0.01,7.01001 l -0.55097,-3.1e-4 c -0.002,2.78834 -7.5e-4,5.57544 6.6e-4,8.36131 4.4e-4,0.88199 9.7e-4,1.76396 0.002,2.64592 z m 0.006,-17.11656 2.20386,0.005 c 0.002,-0.7159 0.003,-1.43185 0.005,-2.14785 0.008,-2.93985 0.003,-5.91245 0.0615,-8.91644 l -0.55085,-0.0108 c 0.003,-0.1424 0.006,-0.28487 0.009,-0.42743 0.0354,-1.53747 -0.29531,-3.1238 -0.93127,-4.538 l -1.00023,0.45638 c 0.56515,1.2643 0.8621,2.69051 0.82983,4.05765 -0.003,0.14335 -0.006,0.2866 -0.009,0.42975 l -0.55086,-0.0108 c -0.0593,3.03567 -0.054,6.02061 -0.0619,8.9535 -0.002,0.71655 -0.004,1.43303 -0.005,2.14942 z m -0.49986,-14.85515 2.05441,-0.78862 c -0.58226,-1.53499 -1.49721,-2.92267 -2.68363,-3.94145 -0.81907,-0.73014 -1.76387,-1.34377 -2.77503,-1.81322 l -0.23198,0.50035 c -1.44338,-0.67031 -3.02817,-1.03325 -4.55429,-0.99565 -0.12869,0.002 -0.25738,0.004 -0.38606,0.006 l 0.0179,1.10179 c 0.12874,-0.002 0.25748,-0.004 0.38622,-0.006 1.34992,-0.038 2.77402,0.29128 4.07223,0.89458 l -0.23199,0.50035 c 0.81751,0.38005 1.58246,0.87461 2.23549,1.45605 0.91664,0.75404 1.63594,1.85653 2.0967,3.08583 z m -7.86755,-5.3885 0.0455,-2.20218 c -0.12608,-0.002 -0.25195,-0.002 -0.37751,0.001 -3.4995,0.0575 -6.99874,0.10801 -10.4977,0.15268 l 0.007,0.55093 c -2.33634,0.0298 -4.67253,0.057 -7.00856,0.0819 l 0.0118,1.10187 c 2.33675,-0.0249 4.67371,-0.0521 7.01087,-0.082 l 0.007,0.55092 c 3.50142,-0.0447 7.00334,-0.0953 10.50575,-0.15279 0.0981,-0.003 0.19679,-0.004 0.29583,-0.003 z m -16.91216,0.22765 -0.0241,-2.20373 c -3.67029,0.0401 -7.34025,0.0743 -11.00985,0.10397 l 0.004,0.55095 c -2.33555,0.0189 -4.67094,0.0359 -7.00614,0.0513 l 0.007,1.10191 c 2.3357,-0.0154 4.67162,-0.0325 7.00776,-0.0513 l 0.004,0.55095 c 3.67144,-0.0297 7.34348,-0.064 11.01609,-0.10404 z m -17.12366,0.14933 -0.0149,-2.20382 c -2.7094,0.0184 -5.41859,0.0346 -8.12756,0.0492 -0.95926,0.005 -1.91863,0.0103 -2.87812,0.0153 l 0.003,0.55097 c -2.33439,0.0121 -4.66954,0.0233 -7.00543,0.0325 l 0.004,1.10194 c 2.33654,-0.009 4.67215,-0.0204 7.0068,-0.0325 l 0.003,0.55096 c 0.95971,-0.005 1.91924,-0.0101 2.87858,-0.0153 2.70988,-0.0145 5.42011,-0.0308 8.13067,-0.0492 z m -17.11543,0.0933 -0.009,-2.20389 c -3.66983,0.0152 -7.34127,0.0257 -11.01424,0.0267 l 1.6e-4,0.55098 c -2.33801,6.6e-4 -4.67673,-0.002 -7.01615,-0.0107 l -0.004,1.10191 c 2.341,0.008 4.68112,0.0114 7.02033,0.0107 l 1.6e-4,0.55097 c 3.67674,-0.001 7.351,-0.0115 11.02271,-0.0267 z m -17.14192,0.0189 0.006,-2.20385 c -3.67465,-0.0108 -7.3508,-0.0337 -11.02835,-0.0733 l -0.006,0.55092 c -2.06814,-0.0223 -4.13681,-0.0498 -6.20598,-0.0835 -0.27771,-0.004 -0.55427,-0.008 -0.82967,-0.0127 l -0.0213,1.1023 c 0.27617,0.005 0.55383,0.009 0.83295,0.0121 2.07135,0.0337 4.14205,0.0613 6.21207,0.0836 l -0.006,0.55092 c 3.68425,0.0397 7.36615,0.0626 11.04561,0.0735 z m -17.17721,-0.1558 0.0358,-2.20357 c -0.0278,-4.5e-4 -0.0556,-9e-4 -0.0833,-0.001 -3.70164,-0.0505 -7.22654,-0.20852 -10.53315,0.0872 l 0.0477,0.54855 c -0.22079,0.0198 -0.44045,0.0417 -0.65897,0.0659 l 0,0 c -1.05177,0.13258 -1.92589,0.24898 -2.55108,0.50374 l 0,10e-6 c -0.38653,0.17208 -0.67852,0.29875 -0.76543,0.41428 l 0.75798,0.79733 c -0.0545,0.0104 0.11046,-0.0369 0.3844,-0.17616 0.49123,-0.21306 1.27816,-0.30932 2.28948,-0.44333 l 0,0 c 0.2116,-0.0237 0.42461,-0.0452 0.639,-0.0647 l 0.0477,0.54856 c 3.11776,-0.28421 6.56709,-0.12308 10.30646,-0.0778 0.0278,4.5e-4 0.0557,9e-4 0.0835,0.001 z m -13.42483,0.6563 -1.23447,-1.82137 c -0.11714,0.0727 -0.20642,0.14549 -0.2598,0.22082 -0.19726,0.14745 -0.37176,0.54438 -0.57935,1.05304 l 0,0 c -0.27438,0.73031 -0.40189,1.67529 -0.53341,2.76978 -0.11157,1.03126 -0.17971,2.08286 -0.22049,3.15365 l 0.55024,0.0216 c -0.0827,2.18342 -0.0505,4.45899 -0.0433,6.81647 l 1.10255,-0.005 c -0.006,-2.36341 -0.0392,-4.62287 0.0412,-6.76816 l 0.55023,0.0216 c 0.0385,-1.0337 0.10367,-2.03781 0.21148,-3.01116 0,0 0,0 0,0 0.13408,-1.02076 0.22505,-1.80148 0.4238,-2.27702 0.1471,-0.28026 0.15381,-0.40528 0.076,-0.23731 -0.0665,0.0355 -0.092,0.0574 -0.0847,0.0631 z"
       id="path3"
       inkscape:path-effect="#path-effect3"
       inkscape:original-d="m 410.56387,853.24981 c 0,0 -0.97188,18.78592 4.80647,18.92048 23.27671,0.54201 90.19395,0.1659 99.19354,0.0795 8.28589,-0.0795 15.5455,-4.62967 15.7955,-15.05988 0.25,-10.43021 -0.27745,-127.78492 0,-140.5393 0.2045,-9.40082 -7.67084,-14.84622 -14.73037,-14.7303 -20.06513,0.32948 -63.06128,0.68833 -85.06514,0.3295 -20.20449,-0.32948 -20,0 -20,19.99998"
       sodipodi:nodetypes="csszsssc"
       transform="translate(-85.098326,253.60856)" />
    <use
       x="0"
       y="0"
       xlink:href="#path3"
       id="use3"
       transform="matrix(-1,0,0,1,650.96168,-0.0309)" />
    <rect
       style="fill:#292929;fill-opacity:1;stroke:none;stroke-width:0.60532;stroke-dasharray:none;stroke-dashoffset:0;stroke-opacity:0.989386"
       id="rect3"
       width="24"
       height="14.999994"
       x="353.85583"
       y="982.56812"
       transform="translate(-40.390326,123.29028)" />
    <rect
       style="fill:#292929;fill-opacity:1;stroke:none;stroke-width:0.547721;stroke-dasharray:none;stroke-dashoffset:0;stroke-opacity:0.989386"
       id="rect4"
       width="24.000011"
       height="14.000005"
       x="353.85583"
       y="838.56812"
       ry="0"
       transform="translate(-40.390326,123.29028)" />
  </g>
</svg>
