<?xml version="1.0" encoding="UTF-8" standalone="no"?>
<!-- Created with Inkscape (http://www.inkscape.org/) -->

<svg
   width="210mm"
   height="297mm"
   viewBox="0 0 210 297"
   version="1.1"
   id="svg2842"
   inkscape:version="1.1.1 (3bf5ae0d25, 2021-09-20)"
   sodipodi:docname="bike-handlebar-bag.svg"
   xmlns:inkscape="http://www.inkscape.org/namespaces/inkscape"
   xmlns:sodipodi="http://sodipodi.sourceforge.net/DTD/sodipodi-0.dtd"
   xmlns="http://www.w3.org/2000/svg"
   xmlns:svg="http://www.w3.org/2000/svg">
  <sodipodi:namedview
     id="namedview2844"
     pagecolor="#ffffff"
     bordercolor="#666666"
     borderopacity="1.0"
     inkscape:pageshadow="2"
     inkscape:pageopacity="0.0"
     inkscape:pagecheckerboard="0"
     inkscape:document-units="mm"
     showgrid="false"
     inkscape:zoom="0.7198092"
     inkscape:cx="396.63288"
     inkscape:cy="560.56521"
     inkscape:window-width="1920"
     inkscape:window-height="1016"
     inkscape:window-x="0"
     inkscape:window-y="0"
     inkscape:window-maximized="1"
     inkscape:current-layer="layer1" />
  <defs
     id="defs2839" />
  <g
     inkscape:label="Layer 1"
     inkscape:groupmode="layer"
     id="layer1">
    <circle
       style="opacity:0.5;vector-effect:non-scaling-stroke;fill:#554400;stroke:#000000;stroke-width:1.85e-06;stroke-miterlimit:4;stroke-dasharray:none;-inkscape-stroke:hairline"
       id="path28235"
       cx="-35.27589"
       cy="50.174683"
       r="61.860607" />
    <circle
       style="opacity:0.5;vector-effect:non-scaling-stroke;fill:#554400;stroke:#000000;stroke-width:1.85e-06;stroke-miterlimit:4;stroke-dasharray:none;-inkscape-stroke:hairline"
       id="circle28350"
       cx="123.91209"
       cy="-56.145752"
       r="61.860607" />
    <path
       style="vector-effect:non-scaling-stroke;fill:none;stroke:#000000;stroke-width:0.00070004;stroke-linecap:butt;stroke-linejoin:miter;stroke-miterlimit:4;stroke-dasharray:none;stroke-opacity:1;-inkscape-stroke:hairline"
       d="M -69.4644,-2.52725 88.4791,-107.61855"
       id="path28385" />
    <path
       style="vector-effect:non-scaling-stroke;fill:none;stroke:#000000;stroke-width:0.00070004;stroke-linecap:butt;stroke-linejoin:miter;stroke-miterlimit:4;stroke-dasharray:none;stroke-opacity:1;-inkscape-stroke:hairline"
       d="M -0.3886,103.22617 163.5258,-6.98397"
       id="path28387" />
    <path
       style="vector-effect:non-scaling-stroke;fill:none;stroke:#000000;stroke-width:0.00070004;stroke-linecap:butt;stroke-linejoin:miter;stroke-miterlimit:4;stroke-dasharray:none;stroke-opacity:1;-inkscape-stroke:hairline"
       d="m 374.2019,-29.34107 c 13.8914,-4.59158 14.1428,-6.99773 14.1428,-6.99773"
       id="path28389" />
    <path
       style="vector-effect:non-scaling-stroke;fill:none;stroke:#000000;stroke-width:0.00070004;stroke-linecap:butt;stroke-linejoin:miter;stroke-miterlimit:4;stroke-dasharray:none;stroke-opacity:1;-inkscape-stroke:hairline"
       d="m 466.6312,-53.09589 c 1.9163,-0.5224 10.514,-3.40302 14.1578,-3.12338 18.4428,1.41533 32.7853,11.35755 42.6485,26.54104 3.2355,4.98128 4.4513,11.0145 6.6635,16.5272 3.2255,8.03809 6.15,14.37724 5.8666,23.28891 -0.1087,3.42564 0.4268,6.97804 -0.5331,10.26822 -1.9368,6.63821 -11.9433,16.35728 -16.5275,20.53337 -7.7724,7.0805 -16.6333,13.4674 -27.4574,11.7671"
       id="path28432" />
    <path
       style="vector-effect:non-scaling-stroke;fill:none;stroke:#000000;stroke-width:0.00070004;stroke-linecap:butt;stroke-linejoin:miter;stroke-miterlimit:4;stroke-dasharray:none;stroke-opacity:1;-inkscape-stroke:hairline"
       d="m 466.6312,-53.09589 c -143.0764,138.19656 40.8802,-40.53409 -89.7165,89.50814 -0.6028,0.60026 -14.8895,15.25302 -22.3603,20.03372"
       id="path28438" />
    <path
       style="vector-effect:non-scaling-stroke;fill:none;stroke:#000000;stroke-width:0.00070004;stroke-linecap:butt;stroke-linejoin:miter;stroke-miterlimit:4;stroke-dasharray:none;stroke-opacity:1;-inkscape-stroke:hairline"
       d="m 533.871,26.75094 c -63.4963,51.10403 -34.223,24.29943 -88.5732,80.19013 -9.0913,9.3491 -16.4293,17.6882 -26.6512,25.1188"
       id="path28440" />
    <path
       style="vector-effect:non-scaling-stroke;fill:none;stroke:#000000;stroke-width:0.00070004;stroke-linecap:butt;stroke-linejoin:miter;stroke-miterlimit:4;stroke-dasharray:none;stroke-opacity:1;-inkscape-stroke:hairline"
       d="m 354.5544,56.44597 c -5.774,6.9281 -6.7661,2.3808 -16.0184,8.6682 -6.6704,4.5329 -9.4726,15.21 -12.5304,22.0353 -3.0207,6.743 -12.4909,29.0999 -8.7968,36.8092 4.0751,8.5042 13.8843,10.5742 21.8606,13.2721 5.4314,1.8371 12.8913,6.5448 18.9241,6.2621 5.5391,-0.2596 10.7876,-1.9161 16.2605,-2.5042 16.048,-1.7246 26.1781,-1.3328 39.7182,-11.5188 5.6872,-4.2785 3.1427,-11.0289 0.5334,-16.5426 -2.9009,-6.1296 -8.75,-9.3553 -13.594,-13.7717 -5.1224,-4.6703 -9.72,-9.9452 -14.9273,-14.5226 -7.9573,-6.9948 -16.3362,-13.4268 -24.7907,-19.7824 -2.4167,-1.8167 -4.817,-3.3359 -7.4636,-4.7571 -0.7456,-0.4002 -2.9265,0.4938 -2.5257,-0.2513 0.7533,-1.4004 2.2333,-2.2641 3.3501,-3.3962"
       id="path28444" />
    <path
       style="vector-effect:non-scaling-stroke;fill:none;stroke:#000000;stroke-width:0.00070004;stroke-linecap:butt;stroke-linejoin:miter;stroke-miterlimit:4;stroke-dasharray:none;stroke-opacity:1;-inkscape-stroke:hairline"
       d="m 393.5707,26.70802 c 23.2368,1.42939 19.957,-2.90679 33.796,7.76401 1.3216,1.01891 15.3768,13.52004 16.5272,15.02524 2.8083,3.6743 5.0517,7.7928 6.9305,12.0185 3.183,7.1599 5.2237,16.8871 6.6635,24.7908 0.7131,3.9145 0.2662,8.512 1.6,12.2697 1.2049,3.3947 3.5644,6.5604 4.5334,10.0169 1.5689,5.5981 2.7064,25.7022 -1.0668,30.5502 -1.1589,1.4893 -2.5961,2.7449 -4,4.0062 -1.3097,1.1769 -2.9935,2.2529 -4.7969,2.2529"
       id="path28446" />
    <path
       style="vector-effect:non-scaling-stroke;fill:none;stroke:#000000;stroke-width:0.00070004;stroke-linecap:butt;stroke-linejoin:miter;stroke-miterlimit:4;stroke-dasharray:none;stroke-opacity:1;-inkscape-stroke:hairline"
       d="m 393.5707,26.70799 c 0.01,1.17396 -0.8075,2.69349 0.024,3.52187 15.4093,15.34491 38.4733,24.25341 47.4485,45.32421 2.2601,5.3062 -0.8659,15.8945 -2.0965,21.6736 -1.7653,8.2882 -2.6152,16.8381 -4.7972,25.0391"
       id="path28448" />
    <path
       style="vector-effect:non-scaling-stroke;fill:none;stroke:#000000;stroke-width:0.00070004;stroke-linecap:butt;stroke-linejoin:miter;stroke-miterlimit:4;stroke-dasharray:none;stroke-opacity:1;-inkscape-stroke:hairline"
       d="m 394.8426,68.55637 c 10.583,-8.8347 -0.067,-0.1322 25.079,-17.6859 3.0345,-2.1183 5.4732,-6.2528 9.1739,-6.2528"
       id="path28450" />
    <path
       style="vector-effect:non-scaling-stroke;fill:none;stroke:#000000;stroke-width:0.00070004;stroke-linecap:butt;stroke-linejoin:miter;stroke-miterlimit:4;stroke-dasharray:none;stroke-opacity:1;-inkscape-stroke:hairline"
       d="m 478.1286,5.83136 c 5.1782,-16.44523 19.5824,-22.06807 29.5725,-34.28968"
       id="path28452" />
    <path
       style="vector-effect:non-scaling-stroke;fill:none;stroke:#000000;stroke-width:0.00070004;stroke-linecap:butt;stroke-linejoin:miter;stroke-miterlimit:4;stroke-dasharray:none;stroke-opacity:1;-inkscape-stroke:hairline"
       d="m 445.0311,14.47506 c 11.8996,8.03061 17.4048,21.28414 22.6576,34.05671 4.2667,10.3748 6.4468,16.6195 1.3332,26.0414 -2.6469,4.8771 -2.4873,5.3372 -5.0083,7.7119"
       id="path28454" />
    <rect
       style="opacity:0.5;vector-effect:non-scaling-stroke;fill:#554400;stroke:#000000;stroke-width:1.85e-06;stroke-miterlimit:4;stroke-dasharray:none;-inkscape-stroke:hairline"
       id="rect28478"
       width="443.50397"
       height="208.96883"
       x="-52.612316"
       y="197.22174" />
    <rect
       style="opacity:0.5;vector-effect:non-scaling-stroke;fill:#554400;stroke:#000000;stroke-width:1.85e-06;stroke-miterlimit:4;stroke-dasharray:none;-inkscape-stroke:hairline"
       id="rect28480"
       width="162.41553"
       height="82.164078"
       x="-23.576305"
       y="239.53595" />
    <rect
       style="opacity:0.5;vector-effect:non-scaling-stroke;fill:#554400;stroke:#000000;stroke-width:1.85e-06;stroke-miterlimit:4;stroke-dasharray:none;-inkscape-stroke:hairline"
       id="rect28586"
       width="162.41553"
       height="82.164078"
       x="197.99327"
       y="241.96344" />
    <rect
       style="opacity:0.5;vector-effect:non-scaling-stroke;fill:#554400;stroke:#000000;stroke-width:1.85e-06;stroke-miterlimit:4;stroke-dasharray:none;-inkscape-stroke:hairline"
       id="rect28610"
       width="24.81542"
       height="214.17033"
       x="-52.612316"
       y="197.22174" />
    <rect
       style="opacity:0.5;vector-effect:non-scaling-stroke;fill:#554400;stroke:#000000;stroke-width:1.85e-06;stroke-miterlimit:4;stroke-dasharray:none;-inkscape-stroke:hairline"
       id="rect28612"
       width="30.093523"
       height="232.96579"
       x="87.26207"
       y="193.4975" />
    <rect
       style="opacity:0.5;vector-effect:non-scaling-stroke;fill:#554400;stroke:#000000;stroke-width:1.85e-06;stroke-miterlimit:4;stroke-dasharray:none;-inkscape-stroke:hairline"
       id="rect28614"
       width="25.606161"
       height="223.88072"
       x="200.8867"
       y="190.5274" />
    <rect
       style="opacity:0.5;vector-effect:non-scaling-stroke;fill:#554400;stroke:#000000;stroke-width:1.85e-06;stroke-miterlimit:4;stroke-dasharray:none;-inkscape-stroke:hairline"
       id="rect28616"
       width="30.703485"
       height="253.8118"
       x="351.79858"
       y="175.89752" />
  </g>
</svg>
