<?xml version="1.0" encoding="UTF-8" standalone="no"?>
<!-- Created with Inkscape (http://www.inkscape.org/) -->

<svg
   width="805.63947mm"
   height="339.96042mm"
   viewBox="0 0 805.63948 339.96041"
   version="1.1"
   id="svg5"
   xml:space="preserve"
   inkscape:version="1.3 (1:1.3+202307231459+0e150ed6c4)"
   sodipodi:docname="shoulder harness, yolk.svg"
   xmlns:inkscape="http://www.inkscape.org/namespaces/inkscape"
   xmlns:sodipodi="http://sodipodi.sourceforge.net/DTD/sodipodi-0.dtd"
   xmlns="http://www.w3.org/2000/svg"
   xmlns:svg="http://www.w3.org/2000/svg"
   xmlns:rdf="http://www.w3.org/1999/02/22-rdf-syntax-ns#"
   xmlns:cc="http://creativecommons.org/ns#"><style
     id="style11310">&#10;.measure-arrow&#10;{&#10;}&#10;.measure-label&#10;{&#10;&#10;}&#10;.measure-line&#10;{&#10;}</style><sodipodi:namedview
     id="namedview7"
     pagecolor="#ffffff"
     bordercolor="#000000"
     borderopacity="0.25"
     inkscape:showpageshadow="2"
     inkscape:pageopacity="1"
     inkscape:pagecheckerboard="0"
     inkscape:deskcolor="#d1d1d1"
     inkscape:document-units="mm"
     showgrid="true"
     inkscape:zoom="0.19185124"
     inkscape:cx="1933.79"
     inkscape:cy="8772.4219"
     inkscape:window-width="1846"
     inkscape:window-height="1016"
     inkscape:window-x="0"
     inkscape:window-y="0"
     inkscape:window-maximized="1"
     inkscape:current-layer="layer3"
     showguides="true"
     guidecolor="#e50800"
     guideopacity="0.6"><inkscape:grid
       type="xygrid"
       id="grid522"
       units="cm"
       spacingx="10"
       spacingy="10"
       empspacing="10"
       originx="-342.62018"
       originy="-8563.3192"
       color="#437cb3"
       opacity="0.0980392"
       empcolor="#000000"
       empopacity="0.21176471"
       visible="true"
       enabled="true" /></sodipodi:namedview><defs
     id="defs2"><inkscape:path-effect
       effect="mirror_symmetry"
       start_point="1864.9213,1877.4926"
       end_point="1864.9215,2023.379"
       center_point="1864.9214,1950.4358"
       id="path-effect79"
       is_visible="true"
       lpeversion="1.2"
       lpesatellites=""
       mode="free"
       discard_orig_path="false"
       fuse_paths="false"
       oposite_fuse="false"
       split_items="false"
       split_open="false"
       link_styles="false" /><inkscape:path-effect
       effect="mirror_symmetry"
       start_point="1864.9215,1920.1892"
       end_point="1864.9215,1954.5278"
       center_point="1864.9215,1937.3585"
       id="path-effect49"
       is_visible="true"
       lpeversion="1.2"
       lpesatellites=""
       mode="free"
       discard_orig_path="false"
       fuse_paths="false"
       oposite_fuse="false"
       split_items="false"
       split_open="false"
       link_styles="false" /><inkscape:path-effect
       effect="mirror_symmetry"
       start_point="1864.9215,1949.3827"
       end_point="1864.9215,2188.5663"
       center_point="1864.9215,2068.9745"
       id="path-effect47"
       is_visible="true"
       lpeversion="1.2"
       lpesatellites=""
       mode="free"
       discard_orig_path="false"
       fuse_paths="false"
       oposite_fuse="false"
       split_items="false"
       split_open="false"
       link_styles="false" /><inkscape:path-effect
       effect="mirror_symmetry"
       start_point="1864.9215,1894.1476"
       end_point="1864.9215,2203.8014"
       center_point="1864.9215,2048.9745"
       id="path-effect45"
       is_visible="true"
       lpeversion="1.2"
       lpesatellites=""
       mode="free"
       discard_orig_path="false"
       fuse_paths="false"
       oposite_fuse="false"
       split_items="false"
       split_open="false"
       link_styles="false" /><inkscape:path-effect
       effect="mirror_symmetry"
       start_point="119,170"
       end_point="128,170"
       center_point="123.5,170"
       id="path-effect43"
       is_visible="true"
       lpeversion="1.2"
       lpesatellites=""
       mode="free"
       discard_orig_path="false"
       fuse_paths="false"
       oposite_fuse="false"
       split_items="false"
       split_open="false"
       link_styles="false" /><inkscape:path-effect
       effect="mirror_symmetry"
       start_point="-36,128"
       end_point="-10,128"
       center_point="-23,128"
       id="path-effect41"
       is_visible="true"
       lpeversion="1.2"
       lpesatellites=""
       mode="free"
       discard_orig_path="false"
       fuse_paths="false"
       oposite_fuse="false"
       split_items="false"
       split_open="false"
       link_styles="false" /><inkscape:path-effect
       effect="mirror_symmetry"
       start_point="-36,128"
       end_point="-10,128"
       center_point="-23,128"
       id="path-effect39"
       is_visible="true"
       lpeversion="1.2"
       lpesatellites=""
       mode="free"
       discard_orig_path="false"
       fuse_paths="false"
       oposite_fuse="false"
       split_items="false"
       split_open="false"
       link_styles="false" /><inkscape:path-effect
       effect="mirror_symmetry"
       start_point="-30.00012,136"
       end_point="-9.00012,136"
       center_point="-19.50012,136"
       id="path-effect37"
       is_visible="true"
       lpeversion="1.2"
       lpesatellites=""
       mode="free"
       discard_orig_path="false"
       fuse_paths="false"
       oposite_fuse="false"
       split_items="false"
       split_open="false"
       link_styles="false" /><inkscape:path-effect
       effect="mirror_symmetry"
       start_point="1600.0001,1548.7758"
       end_point="1600.0001,1809.2406"
       center_point="1600.0001,1679.0082"
       id="path-effect35"
       is_visible="true"
       lpeversion="1.2"
       lpesatellites=""
       mode="free"
       discard_orig_path="false"
       fuse_paths="false"
       oposite_fuse="false"
       split_items="false"
       split_open="false"
       link_styles="false" /><inkscape:path-effect
       effect="mirror_symmetry"
       start_point="1599.974,1455.7523"
       end_point="1599.974,1564.9785"
       center_point="1599.974,1510.3654"
       id="path-effect33"
       is_visible="true"
       lpeversion="1.2"
       lpesatellites=""
       mode="free"
       discard_orig_path="false"
       fuse_paths="false"
       oposite_fuse="false"
       split_items="false"
       split_open="false"
       link_styles="false" /><inkscape:path-effect
       effect="mirror_symmetry"
       start_point="1599.9739,1500"
       end_point="1600.6483,1828.4863"
       center_point="1600.3111,1664.2432"
       id="path-effect31"
       is_visible="true"
       lpeversion="1.2"
       lpesatellites=""
       mode="free"
       discard_orig_path="false"
       fuse_paths="false"
       oposite_fuse="false"
       split_items="false"
       split_open="false"
       link_styles="false" /></defs><g
     inkscape:groupmode="layer"
     id="layer3"
     inkscape:label="bartack"
     transform="translate(-1452.073,-2265.7115)"
     style="display:inline"><g
       id="final"><path
         style="display:inline;vector-effect:non-scaling-stroke;fill:#918a6f;fill-opacity:1;stroke:#000000;stroke-width:0.264583;stroke-dasharray:none;stroke-opacity:1;-inkscape-stroke:hairline"
         d="m 1599.9739,1603.2292 c -119.9739,0 -127.9229,56.073 -188.4952,112.4957 -36.7965,34.2757 -97.4989,94.8826 -182.1392,95.6226 -15.1323,0.1323 -25,-15 -25.1323,-19.8677 -0.1323,-4.8677 1.4183,-20.401 10.9139,-26.028 129.1122,-76.5101 101.096,-78.9897 139.5872,-130.1601 C 1404.1792,1569.525 1460,1500 1599.9739,1500 m 0.4239,103.2283 c 119.9729,-0.4926 128.152,55.5473 188.9555,111.7208 36.9369,34.1243 97.8877,94.4815 182.5303,94.8739 15.1327,0.07 24.9382,-15.1025 25.0505,-19.9707 0.1123,-4.8682 -1.5021,-20.395 -11.0207,-25.983 C 1856.4882,1687.89 1884.4939,1685.2954 1845.793,1634.2835 1796.0524,1568.7205 1739.9466,1499.4253 1599.9739,1500"
         id="path2"
         sodipodi:nodetypes="csszssc"
         inkscape:path-effect="#path-effect31"
         inkscape:original-d="m 1599.9739,1603.2292 c -119.9739,0 -127.9229,56.073 -188.4952,112.4957 -36.7965,34.2757 -97.4989,94.8826 -182.1392,95.6226 -15.1323,0.1323 -25,-15 -25.1323,-19.8677 -0.1323,-4.8677 1.4183,-20.401 10.9139,-26.028 129.1122,-76.5101 101.096,-78.9897 139.5872,-130.1601 C 1404.1792,1569.525 1460,1500 1599.9739,1500"
         class="UnoptimicedTransforms"
         transform="translate(260.77307,791.51364)" /><path
         style="display:inline;vector-effect:non-scaling-stroke;fill:#9d8c41;fill-opacity:1;stroke:#000000;stroke-width:0.264583;stroke-dasharray:none;stroke-opacity:1;-inkscape-stroke:hairline"
         d="m 1511.074,1559.1121 v -50.8049 h 25.4 v 50.805 l -25.4,-10e-5 m 177.8,0 v -50.8049 h -25.4 v 50.805 l 25.4,-10e-5"
         id="path6"
         sodipodi:nodetypes="ccccc"
         inkscape:path-effect="#path-effect33"
         inkscape:original-d="m 1511.074,1559.1121 v -50.8049 h 25.4 v 50.805 l -25.4,-10e-5"
         class="UnoptimicedTransforms"
         transform="translate(261.42146,794.06112)" /><path
         style="display:inline;vector-effect:non-scaling-stroke;fill:#9d8c41;fill-opacity:1;stroke:#000000;stroke-width:0.264583;stroke-dasharray:none;stroke-opacity:1;-inkscape-stroke:hairline"
         d="m 1841.4215,2356.9772 v -63.5 h 40 v 63.5 h -40"
         id="path7"
         sodipodi:nodetypes="ccccc" /><g
         id="g9"
         style="display:inline;vector-effect:non-scaling-stroke;fill:#9d8c41;fill-opacity:1;stroke:#000000;stroke-width:0.264583;stroke-dasharray:none;stroke-opacity:1;-inkscape-stroke:hairline"
         transform="translate(261.42146,792.47362)"><path
           style="color:#000000;opacity:1;vector-effect:non-scaling-stroke;fill:#9d8c41;fill-opacity:1;stroke:#000000;stroke-width:0.264583;stroke-dasharray:none;stroke-opacity:1;-inkscape-stroke:hairline"
           d="m 1705.2148,1546.4688 -16.9882,18.746 c 41.6977,37.7855 62.5302,59.3048 112.3476,113.2891 49.9854,57.3445 82.5879,96.2091 181.8203,128.4297 l 7.8125,-24.0606 c -95.3835,-30.9708 -120.3694,-63.4112 -170.6718,-121.1171 l -0.1172,-0.1348 -0.1231,-0.1328 c -50.0394,-54.227 -71.8987,-76.7958 -114.0801,-115.0195 z m -210.4294,0 16.9882,18.746 c -41.6977,37.7855 -62.5302,59.3048 -112.3476,113.2891 -49.9854,57.3445 -82.5879,96.2091 -181.8203,128.4297 l -7.8125,-24.0606 c 95.3835,-30.9708 120.3694,-63.4112 170.6718,-121.1171 l 0.1172,-0.1348 0.1231,-0.1328 c 50.0394,-54.227 71.8987,-76.7958 114.0801,-115.0195 z"
           id="path8"
           inkscape:path-effect="#path-effect35"
           inkscape:original-d="m 1705.2148,1546.4688 -16.9882,18.746 c 41.6977,37.7855 62.5302,59.3048 112.3476,113.2891 49.9854,57.3445 82.5879,96.2091 181.8203,128.4297 l 7.8125,-24.0606 c -95.3835,-30.9708 -120.3694,-63.4112 -170.6718,-121.1171 l -0.1172,-0.1348 -0.1231,-0.1328 c -50.0394,-54.227 -71.8987,-76.7958 -114.0801,-115.0195 z"
           transform="matrix(-1,0,0,1,3200.0002,0)" /></g><path
         style="display:inline;vector-effect:non-scaling-stroke;fill:#9d8c41;fill-opacity:1;stroke:#000000;stroke-width:0.264583;stroke-dasharray:none;stroke-opacity:1;-inkscape-stroke:hairline"
         d="m 2056.1959,2367.0832 c -13.8431,-13.7133 -29.4162,-27.1848 -49.6858,-40 h -290.2294 c -24.4941,14.646 -38.6529,27.5263 -50.4319,40 z"
         id="path9"
         sodipodi:nodetypes="ccccc" /><path
         id="path10"
         style="display:inline;vector-effect:non-scaling-stroke;fill:#1a1a1a;fill-opacity:1;stroke:none;stroke-width:0.259331;stroke-dasharray:none;stroke-dashoffset:0;stroke-opacity:0.509002;-inkscape-stroke:hairline"
         inkscape:transform-center-x="-0.30392124"
         inkscape:transform-center-y="0.43296989"
         d="m -30.999845,111 c -5.000275,0 -5.000275,0 -5.000275,25 h 5.000164 l 0.01035,-19.90239 c 8.93e-4,-1.0972 0.989486,-1.09761 2.989482,-1.09761 1.999996,0 2.999816,-2e-5 2.999816,0.99994 l 1.88e-4,6e-5 h 5 v 0 c -0.582097,0.81925 7.9e-5,-1 2,-1 h 1 c 2,0 2.000255,0 2.000255,0.99993 L -14.999875,136 h 4.999755 c 0,-25 0,-25 -4.999644,-25 z m 0,50 c -5.000275,0 -5.000275,0 -5.000275,-25 h 5.000164 l 0.01035,19.90239 c 8.93e-4,1.0972 0.989486,1.09761 2.989482,1.09761 1.999996,0 2.999816,2e-5 2.999816,-0.99994 l 1.88e-4,-6e-5 h 5 v 0 c -0.582097,-0.81925 7.9e-5,1 2,1 h 1 c 2,0 2.000255,0 2.000255,-0.99993 L -14.999875,136 h 4.999755 c 0,25 0,25 -4.999644,25 z"
         transform="rotate(-90,2000.9184,275.49691)"
         inkscape:path-effect="#path-effect37"
         inkscape:original-d="m -30.999845,111 c -5.000275,0 -5.000275,0 -5.000275,25 h 5.000164 l 0.01035,-19.90239 c 8.93e-4,-1.0972 0.989486,-1.09761 2.989482,-1.09761 1.999996,0 2.999816,-2e-5 2.999816,0.99994 l 1.88e-4,6e-5 h 5 v 0 c -0.582097,0.81925 7.9e-5,-1 2,-1 h 1 c 2,0 2.000255,0 2.000255,0.99993 L -14.999875,136 h 4.999755 c 0,-25 0,-25 -4.999644,-25 z"
         class="UnoptimicedTransforms"
         sodipodi:nodetypes="ccccssccsscscccc" /><g
         id="g13"
         inkscape:path-effect="#path-effect45"
         transform="translate(-3.4999346,402.50737)"
         style="display:inline"><g
           id="g11"><path
             id="path11"
             style="display:inline;vector-effect:non-scaling-stroke;fill:#1a1a1a;fill-opacity:1;stroke:none;stroke-width:0.259331;stroke-dasharray:none;stroke-dashoffset:0;stroke-opacity:0.509002;-inkscape-stroke:hairline"
             inkscape:transform-center-x="0.30394954"
             inkscape:transform-center-y="-18.850145"
             d="m -30.999845,111 c -1.999996,0 -4.000273,0.99982 -4.000273,2.99982 V 128 h 4.000273 l 0.01034,-12.90257 c 8.93e-4,-1.0972 0.989486,-1.09761 2.989482,-1.09761 1.999996,0 2.999816,-2e-5 2.999816,0.99994 0,0.091 -0.0023,0.19318 -0.0062,0.30024 h 4.013192 c -0.004,-0.10706 -0.0067,-0.20926 -0.0067,-0.30024 0,-1.00499 1.262336,-0.99994 2.999817,-0.99994 0.542963,0 1.039899,-0.0295 1.46606,-0.0305 0.937556,-0.002 1.534274,0.13405 1.534274,1.03043 V 128 h 3.999755 v -13.00024 c 0,-2 -1.999759,-3.99976 -3.999755,-3.99976 z m 0,34 c -1.999996,0 -4.000273,-0.99982 -4.000273,-2.99982 V 128 h 4.000273 l 0.01034,12.90257 c 8.93e-4,1.0972 0.989486,1.09761 2.989482,1.09761 1.999996,0 2.999816,2e-5 2.999816,-0.99994 0,-0.091 -0.0023,-0.19318 -0.0062,-0.30024 h 4.013192 c -0.004,0.10706 -0.0067,0.20926 -0.0067,0.30024 0,1.00499 1.262336,0.99994 2.999817,0.99994 0.542963,0 1.039899,0.0295 1.46606,0.0305 0.937556,0.002 1.534274,-0.13405 1.534274,-1.03043 V 128 h 3.999755 v 13.00024 c 0,2 -1.999759,3.99976 -3.999755,3.99976 z m 0,-152.4527038 c -1.999996,0 -4.000273,-0.99982 -4.000273,-2.9998202 v -14.00018 h 4.000273 l 0.01034,12.90257 c 8.93e-4,1.0972 0.989486,1.09761 2.989482,1.09761 1.999996,0 2.999816,2e-5 2.999816,-0.99994 0,-0.091 -0.0023,-0.19318 -0.0062,-0.30024 h 4.013192 c -0.004,0.10706 -0.0067,0.20926 -0.0067,0.30024 0,1.00499 1.262336,0.99994 2.999817,0.99994 0.542963,0 1.039899,0.0295 1.46606,0.0305 0.937556,0.002 1.534274,-0.13405 1.534274,-1.03043 v -13.00025 h 3.999755 v 13.00024 c 0,2.0000002 -1.999759,3.9997602 -3.999755,3.9997602 z m 0,-34.0000002 c -1.999996,0 -4.000273,0.99982 -4.000273,2.99982 v 14.00018 h 4.000273 l 0.01034,-12.90257 c 8.93e-4,-1.0972 0.989486,-1.09761 2.989482,-1.09761 1.999996,0 2.999816,-2e-5 2.999816,0.99994 0,0.091 -0.0023,0.19318 -0.0062,0.30024 h 4.013192 c -0.004,-0.10706 -0.0067,-0.20926 -0.0067,-0.30024 0,-1.00499 1.262336,-0.99994 2.999817,-0.99994 0.542963,0 1.039899,-0.0295 1.46606,-0.0305 0.937556,-0.002 1.534274,0.13405 1.534274,1.03043 v 13.00025 h 3.999755 v -13.00024 c 0,-2 -1.999759,-3.99976 -3.999755,-3.99976 z"
             transform="rotate(90,-5.9078519,1922.603)"
             inkscape:path-effect="#path-effect39"
             inkscape:original-d="m -30.999845,111 c -1.999996,0 -4.000273,0.99982 -4.000273,2.99982 V 128 h 4.000273 l 0.01034,-12.90257 c 8.93e-4,-1.0972 0.989486,-1.09761 2.989482,-1.09761 1.999996,0 2.999816,-2e-5 2.999816,0.99994 0,0.091 -0.0023,0.19318 -0.0062,0.30024 h 4.013192 c -0.004,-0.10706 -0.0067,-0.20926 -0.0067,-0.30024 0,-1.00499 1.262336,-0.99994 2.999817,-0.99994 0.542963,0 1.039899,-0.0295 1.46606,-0.0305 0.937556,-0.002 1.534274,0.13405 1.534274,1.03043 V 128 h 3.999755 v -13.00024 c 0,-2 -1.999759,-3.99976 -3.999755,-3.99976 z"
             class="UnoptimicedTransforms" /></g><path
           id="path12"
           style="display:inline;vector-effect:non-scaling-stroke;fill:#1a1a1a;fill-opacity:1;stroke:none;stroke-width:0.259331;stroke-dasharray:none;stroke-dashoffset:0;stroke-opacity:0.509002;-inkscape-stroke:hairline"
           inkscape:transform-center-x="-0.72093491"
           inkscape:transform-center-y="0.32153905"
           d="m -30.999845,111 c -1.999996,0 -4.000273,0.99982 -4.000273,2.99982 l 0,14.00018 4.000273,0 0.01034,-12.90257 c 8.93e-4,-1.0972 0.989486,-1.09761 2.989482,-1.09761 1.999996,0 2.999816,-2e-5 2.999816,0.99994 0,0.091 -0.0023,0.19318 -0.0062,0.30024 l 4.013192,0 c -0.004,-0.10706 -0.0067,-0.20926 -0.0067,-0.30024 0,-1.00499 1.262336,-0.99994 2.999817,-0.99994 0.542963,0 1.039899,-0.0295 1.46606,-0.0305 0.937556,-0.002 1.534274,0.13405 1.534274,1.03043 l 0,13.00025 3.999755,0 v -13.00024 c 0,-2 -1.999759,-3.99976 -3.999755,-3.99976 z m 0,34 c -1.999996,0 -4.000273,-0.99982 -4.000273,-2.99982 l 0,-14.00018 4.000273,0 0.01034,12.90257 c 8.93e-4,1.0972 0.989486,1.09761 2.989482,1.09761 1.999996,0 2.999816,2e-5 2.999816,-0.99994 0,-0.091 -0.0023,-0.19318 -0.0062,-0.30024 h 4.013192 c -0.004,0.10706 -0.0067,0.20926 -0.0067,0.30024 0,1.00499 1.262336,0.99994 2.999817,0.99994 0.542963,0 1.039899,0.0295 1.46606,0.0305 0.937556,0.002 1.534274,-0.13405 1.534274,-1.03043 V 128 l 3.999755,0 v 13.00024 c 0,2 -1.999759,3.99976 -3.999755,3.99976 z M 199.50458,-135.80211 c -0.13642,-1.99533 0.72463,-4.05915 2.71998,-4.19557 l 13.96757,-0.95496 0.27286,3.99095 -12.87181,0.89041 c -1.09459,0.0757 -1.02756,1.06205 -0.89114,3.05739 0.13642,1.99534 0.2046,2.99283 1.20223,2.92462 0.0908,-0.006 0.19257,-0.0155 0.29912,-0.0267 l 0.27374,4.00384 c -0.10709,0.003 -0.20923,0.008 -0.3,0.0138 -1.00265,0.0686 -0.91151,1.3276 -0.79299,3.06103 0.037,0.5417 0.0415,1.03949 0.0696,1.46473 0.062,0.93551 0.23839,1.52156 1.13268,1.46041 l 12.96998,-0.88675 0.27282,3.99044 -12.96996,0.88675 c -1.99534,0.13642 -4.12685,-1.72227 -4.26327,-3.71761 z m 33.92082,-2.31916 c -0.13642,-1.99534 -1.27036,-3.92276 -3.2657,-3.78633 l -13.96757,0.95496 0.27286,3.99095 12.87322,-0.86977 c 1.09471,-0.0739 1.16255,0.91231 1.29897,2.90765 0.13642,1.99533 0.20464,2.99282 -0.79299,3.06103 -0.0908,0.006 -0.19289,0.0109 -0.29996,0.0143 l 0.27374,4.00384 c 0.10654,-0.0113 0.20832,-0.021 0.29908,-0.0272 1.00265,-0.0686 1.08372,1.19119 1.20223,2.92462 0.037,0.5417 0.10037,1.03547 0.13043,1.46057 0.0659,0.93523 -0.0291,1.53984 -0.92337,1.60098 l -12.96997,0.88676 0.27282,3.99044 12.96996,-0.88676 c 1.99535,-0.13642 3.85404,-2.26792 3.71762,-4.26326 z"
           transform="matrix(0.68256477,-0.7308251,-0.7308251,-0.68256477,1798.3508,2093.7257)"
           inkscape:path-effect="#path-effect41"
           inkscape:original-d="m -30.999845,111 c -1.999996,0 -4.000273,0.99982 -4.000273,2.99982 V 128 h 4.000273 l 0.01034,-12.90257 c 8.93e-4,-1.0972 0.989486,-1.09761 2.989482,-1.09761 1.999996,0 2.999816,-2e-5 2.999816,0.99994 0,0.091 -0.0023,0.19318 -0.0062,0.30024 h 4.013192 c -0.004,-0.10706 -0.0067,-0.20926 -0.0067,-0.30024 0,-1.00499 1.262336,-0.99994 2.999817,-0.99994 0.542963,0 1.039899,-0.0295 1.46606,-0.0305 0.937556,-0.002 1.534274,0.13405 1.534274,1.03043 V 128 h 3.999755 v -13.00024 c 0,-2 -1.999759,-3.99976 -3.999755,-3.99976 z"
           class="UnoptimicedTransforms" /><path
           style="display:inline;vector-effect:non-scaling-stroke;fill:#1a1a1a;fill-opacity:1;stroke:#000000;stroke-width:0.264583;stroke-opacity:0.509002;-inkscape-stroke:hairline"
           d="m 95.5,170 c 0,-7 3,-9 13,-16 l 21,0 6,2 0,14 -5,0 v -14 h -4 l 0,1.30043 -4,0 0,-1.30043 -5,0 0,14 -4,0 0,-14 -3,0 0,14 z m 0,0 c 0,7 3,9 13,16 h 21 l 6,-2 v -14 l -5,0 v 14 h -4 v -1.30043 l -4,0 0,1.30043 -5,0 v -14 l -4,0 0,14 -3,0 V 170 Z M 873.77844,-79.064497 c -4.06407,-5.699418 -7.66784,-5.586082 -19.87393,-5.479693 l -17.09826,12.192196 -3.72405,5.11189 8.12813,11.398837 4.07101,-2.902904 -8.12813,-11.398837 3.25681,-2.322323 0.75501,1.058814 3.25681,-2.322323 -0.75501,-1.058814 4.07102,-2.902904 8.12813,11.398838 3.25681,-2.322323 -8.12813,-11.398838 2.44261,-1.741742 8.12813,11.398837 z m 0,0 c 4.06406,5.699419 2.78261,9.069567 -1.29535,20.574793 l -17.09825,12.192195 -6.04638,1.85508 -8.12813,-11.398838 4.07101,-2.902904 8.12813,11.398838 3.25681,-2.322323 -0.755,-1.058814 3.25681,-2.322323 0.755,1.058814 4.07102,-2.902904 -8.12813,-11.398837 3.25681,-2.322323 8.12813,11.398837 2.44261,-1.741742 -8.12813,-11.398838 z"
           id="path13"
           sodipodi:nodetypes="cccccccccccccccccc"
           inkscape:path-effect="#path-effect43"
           inkscape:original-d="m 95.5,170 c 0,-7 3,-9 13,-16 h 21 l 6,2 v 14 h -5 v -14 h -4 v 1.30043 h -4 V 156 h -5 v 14 h -4 v -14 h -3 v 14 z"
           class="UnoptimicedTransforms"
           transform="matrix(0.95241868,-0.30479282,-0.30479282,-0.95241868,1417.2003,2382.9071)"
           inkscape:transform-center-x="1.3084461"
           inkscape:transform-center-y="-2.1110001" /></g><g
         id="g17"
         transform="rotate(90,-22.407249,2202.7121)"
         style="display:inline"><g
           id="g16"
           style="stroke:#000000;stroke-opacity:1"><path
             style="fill:none;fill-opacity:1;stroke:#000000;stroke-width:0.5;stroke-linecap:butt;stroke-linejoin:miter;stroke-dasharray:none;stroke-opacity:1"
             d="m 110,231 3,1 -3,1 3,1 -3,1 3,1 -3,1 3,1 -3,1 3,1 -3,1 3,1 -3,1 3,1 -3,1 3,1 -3,1 3,1 -3,1 3,1 -3,1 3,1 -3,1 3,1 v 0"
             id="path14"
             sodipodi:nodetypes="ccccccccccccccccccccccccc" /><path
             style="fill:none;fill-opacity:1;stroke:#000000;stroke-width:0.5;stroke-linecap:butt;stroke-linejoin:miter;stroke-dasharray:none;stroke-opacity:1"
             d="m 120,231 3,1 -3,1 3,1 -3,1 3,1 -3,1 3,1 -3,1 3,1 -3,1 3,1 -3,1 3,1 -3,1 3,1 -3,1 3,1 -3,1 3,1 -3,1 3,1 -3,1 3,1 v 0"
             id="path15"
             sodipodi:nodetypes="ccccccccccccccccccccccccc" /><path
             style="fill:none;fill-opacity:1;stroke:#000000;stroke-width:0.5;stroke-linecap:butt;stroke-linejoin:miter;stroke-dasharray:none;stroke-opacity:1"
             d="m 110,231 3,1 -3,1 3,1 -3,1 3,1 -3,1 3,1 -3,1 3,1 -3,1 3,1 -3,1 3,1 -3,1 3,1 -3,1 3,1 -3,1 3,1 -3,1 3,1 -3,1 3,1 v 0"
             id="path16"
             sodipodi:nodetypes="ccccccccccccccccccccccccc" /></g></g><g
         id="g19"
         transform="rotate(90,-98.528169,2126.0953)"
         style="display:inline"><g
           id="g18"
           style="stroke:#000000;stroke-opacity:1"><path
             style="fill:none;fill-opacity:1;stroke:#000000;stroke-width:0.5;stroke-linecap:butt;stroke-linejoin:miter;stroke-dasharray:none;stroke-opacity:1"
             d="m 110,231 3,1 -3,1 3,1 -3,1 3,1 -3,1 3,1 -3,1 3,1 -3,1 3,1 -3,1 3,1 -3,1 3,1 -3,1 3,1 -3,1 3,1 -3,1 3,1 -3,1 3,1 v 0"
             id="path17"
             sodipodi:nodetypes="ccccccccccccccccccccccccc" /><path
             style="fill:none;fill-opacity:1;stroke:#000000;stroke-width:0.5;stroke-linecap:butt;stroke-linejoin:miter;stroke-dasharray:none;stroke-opacity:1"
             d="m 120,231 3,1 -3,1 3,1 -3,1 3,1 -3,1 3,1 -3,1 3,1 -3,1 3,1 -3,1 3,1 -3,1 3,1 -3,1 3,1 -3,1 3,1 -3,1 3,1 -3,1 3,1 v 0"
             id="path18"
             sodipodi:nodetypes="ccccccccccccccccccccccccc" /></g></g><path
         style="display:inline;fill:none;fill-opacity:1;stroke:#000000;stroke-width:0.5;stroke-linecap:butt;stroke-linejoin:miter;stroke-dasharray:none;stroke-opacity:1"
         d="m 1880.3011,2347.1816 -1,3 -1,-3 -1,3 -1,-3 -1,3 -1,-3 -1,3 -1,-3 -1,3 -1,-3 -1,3 -1,-3 -1,3 -1,-3 -1,3 -1,-3 -1,3 -1,-3 -1,3 -1,-3 -1,3 -1,-3 -1,3 v 0 l -1,-3 -1,3 -1,-3 -1,3 -1,-3 -1,3 -1,-3 -1,3 -1,-3 -1,3 -1,-3 -1,3 -1,-3 -1,3 -1,-3"
         id="path19"
         sodipodi:nodetypes="ccccccccccccccccccccccccc" /><path
         style="display:inline;fill:none;fill-opacity:1;stroke:#000000;stroke-width:0.5;stroke-linecap:butt;stroke-linejoin:miter;stroke-dasharray:none;stroke-opacity:1"
         d="m 1880.3011,2331.4152 -1,3 -1,-3 -1,3 -1,-3 -1,3 -1,-3 -1,3 -1,-3 -1,3 -1,-3 -1,3 -1,-3 -1,3 -1,-3 -1,3 -1,-3 -1,3 -1,-3 -1,3 -1,-3 -1,3 -1,-3 -1,3 v 0 l -1,-3 -1,3 -1,-3 -1,3 -1,-3 -1,3 -1,-3 -1,3 -1,-3 -1,3 -1,-3 -1,3 -1,-3 -1,3 -1,-3"
         id="path20"
         sodipodi:nodetypes="ccccccccccccccccccccccccc" /><g
         id="g29"
         inkscape:path-effect="#path-effect47"
         transform="matrix(-1,0,0,1,3726.3431,402.50737)"><path
           d="m 2069.8156,2071.4677 -1.3328,-2.8676 2.7869,1.4943 -1.333,-2.8678 2.7869,1.4946 -1.3328,-2.8676 2.7869,1.4942 -1.3329,-2.8675 2.7869,1.4944 -1.3329,-2.8678 2.7869,1.4944 -1.3329,-2.8675 2.7869,1.4944 -1.3329,-2.8677 2.7869,1.4944 -1.3328,-2.8677 2.7868,1.4944 -1.3328,-2.8676 2.787,1.4943 -1.333,-2.8676 2.7869,1.4945 -1.3329,-2.8677 2.7869,1.4943 -1.3329,-2.8675 v 0 m -424.4495,17.9734 1.3328,-2.8676 -2.7869,1.4943 1.333,-2.8678 -2.7869,1.4946 1.3328,-2.8676 -2.7869,1.4942 1.3329,-2.8675 -2.7869,1.4944 1.3329,-2.8678 -2.7869,1.4944 1.3329,-2.8675 -2.7869,1.4944 1.3329,-2.8677 -2.7869,1.4944 1.3328,-2.8677 -2.7868,1.4944 1.3328,-2.8676 -2.787,1.4943 1.333,-2.8676 -2.7869,1.4945 1.3329,-2.8677 -2.7869,1.4943 1.3329,-2.8675 v 0"
           style="display:inline;fill:none;fill-opacity:1;stroke:#000000;stroke-width:0.5;stroke-linecap:butt;stroke-linejoin:miter;stroke-dasharray:none;stroke-opacity:1"
           id="path21"
           inkscape:transform-center-x="160.51143"
           inkscape:transform-center-y="32.065789"
           inkscape:original-d="m 2069.8156,2071.4677 -1.3328,-2.8676 2.7869,1.4943 -1.333,-2.8678 2.7869,1.4946 -1.3328,-2.8676 2.7869,1.4942 -1.3329,-2.8675 2.7869,1.4944 -1.3329,-2.8678 2.7869,1.4944 -1.3329,-2.8675 2.7869,1.4944 -1.3329,-2.8677 2.7869,1.4944 -1.3328,-2.8677 2.7868,1.4944 -1.3328,-2.8676 2.787,1.4943 -1.333,-2.8676 2.7869,1.4945 -1.3329,-2.8677 2.7869,1.4943 -1.3329,-2.8675 v 0" /><path
           d="m 2094.6164,2100.1561 -1.3328,-2.8676 2.7869,1.4943 -1.333,-2.8678 2.7869,1.4946 -1.3328,-2.8676 2.7869,1.4942 -1.3329,-2.8675 2.7869,1.4944 -1.3329,-2.8678 2.7869,1.4944 -1.3329,-2.8675 2.7869,1.4944 -1.3329,-2.8677 2.7869,1.4944 -1.3328,-2.8677 2.7868,1.4944 -1.3328,-2.8676 2.787,1.4943 -1.333,-2.8676 2.7869,1.4945 -1.3329,-2.8677 2.7869,1.4943 -1.3329,-2.8675 v 0 m -474.0511,17.9734 1.3328,-2.8676 -2.7869,1.4943 1.333,-2.8678 -2.7869,1.4946 1.3328,-2.8676 -2.7869,1.4942 1.3329,-2.8675 -2.7869,1.4944 1.3329,-2.8678 -2.7869,1.4944 1.3329,-2.8675 -2.7869,1.4944 1.3329,-2.8677 -2.7869,1.4944 1.3328,-2.8677 -2.7868,1.4944 1.3328,-2.8676 -2.787,1.4943 1.333,-2.8676 -2.7869,1.4945 1.3329,-2.8677 -2.7869,1.4943 1.3329,-2.8675 v 0"
           style="display:inline;fill:none;fill-opacity:1;stroke:#000000;stroke-width:0.5;stroke-linecap:butt;stroke-linejoin:miter;stroke-dasharray:none;stroke-opacity:1"
           id="path22"
           inkscape:transform-center-x="160.51143"
           inkscape:transform-center-y="32.065789"
           inkscape:original-d="m 2094.6164,2100.1561 -1.3328,-2.8676 2.7869,1.4943 -1.333,-2.8678 2.7869,1.4946 -1.3328,-2.8676 2.7869,1.4942 -1.3329,-2.8675 2.7869,1.4944 -1.3329,-2.8678 2.7869,1.4944 -1.3329,-2.8675 2.7869,1.4944 -1.3329,-2.8677 2.7869,1.4944 -1.3328,-2.8677 2.7868,1.4944 -1.3328,-2.8676 2.787,1.4943 -1.333,-2.8676 2.7869,1.4945 -1.3329,-2.8677 2.7869,1.4943 -1.3329,-2.8675 v 0" /><path
           d="m 2121.9401,2128.2322 -1.5261,-2.7695 2.8827,1.2998 -1.5265,-2.7698 2.8828,1.3001 -1.5261,-2.7694 2.8827,1.2997 -1.5263,-2.7694 2.8828,1.2999 -1.5263,-2.7698 2.8828,1.2999 -1.5263,-2.7694 2.8827,1.2999 -1.5263,-2.7696 2.8828,1.2999 -1.5261,-2.7696 2.8826,1.2999 -1.5262,-2.7696 2.8828,1.2998 -1.5263,-2.7695 2.8828,1.3 -1.5264,-2.7695 2.8828,1.2998 -1.5263,-2.7695 v 0 m -527.4323,18.9359 1.5261,-2.7695 -2.8827,1.2998 1.5265,-2.7698 -2.8828,1.3001 1.5261,-2.7694 -2.8827,1.2997 1.5263,-2.7694 -2.8828,1.2999 1.5263,-2.7698 -2.8828,1.2999 1.5263,-2.7694 -2.8827,1.2999 1.5263,-2.7696 -2.8828,1.2999 1.5261,-2.7696 -2.8826,1.2999 1.5262,-2.7696 -2.8828,1.2998 1.5263,-2.7695 -2.8828,1.3 1.5264,-2.7695 -2.8828,1.2998 1.5263,-2.7695 v 0"
           style="display:inline;fill:none;fill-opacity:1;stroke:#000000;stroke-width:0.5;stroke-linecap:butt;stroke-linejoin:miter;stroke-dasharray:none;stroke-opacity:1"
           id="path23"
           inkscape:transform-center-x="253.7553"
           inkscape:transform-center-y="-2.472455"
           inkscape:original-d="m 2121.9401,2128.2322 -1.5261,-2.7695 2.8827,1.2998 -1.5265,-2.7698 2.8828,1.3001 -1.5261,-2.7694 2.8827,1.2997 -1.5263,-2.7694 2.8828,1.2999 -1.5263,-2.7698 2.8828,1.2999 -1.5263,-2.7694 2.8827,1.2999 -1.5263,-2.7696 2.8828,1.2999 -1.5261,-2.7696 2.8826,1.2999 -1.5262,-2.7696 2.8828,1.2998 -1.5263,-2.7695 2.8828,1.3 -1.5264,-2.7695 2.8828,1.2998 -1.5263,-2.7695 v 0" /><path
           d="m 2153.245,2152.8173 -1.8769,-2.5447 3.0285,0.9094 -1.8774,-2.545 3.0287,0.9097 -1.877,-2.5446 3.0286,0.9093 -1.8773,-2.5446 3.0287,0.9095 -1.8771,-2.5451 3.0286,0.9097 -1.8772,-2.5448 3.0286,0.9097 -1.8772,-2.545 3.0287,0.9096 -1.8771,-2.5449 3.0285,0.9096 -1.877,-2.5448 3.0287,0.9094 -1.8773,-2.5447 3.0287,0.9096 -1.8773,-2.5447 3.0287,0.9094 -1.8771,-2.5447 v 0 m -587.4361,20.5327 1.8769,-2.5447 -3.0285,0.9094 1.8774,-2.545 -3.0287,0.9097 1.877,-2.5446 -3.0286,0.9093 1.8773,-2.5446 -3.0287,0.9095 1.8771,-2.5451 -3.0286,0.9097 1.8772,-2.5448 -3.0286,0.9097 1.8772,-2.545 -3.0287,0.9096 1.8771,-2.5449 -3.0285,0.9096 1.877,-2.5448 -3.0287,0.9094 1.8773,-2.5447 -3.0287,0.9096 1.8773,-2.5447 -3.0287,0.9094 1.8771,-2.5447 v 0"
           style="display:inline;fill:none;fill-opacity:1;stroke:#000000;stroke-width:0.5;stroke-linecap:butt;stroke-linejoin:miter;stroke-dasharray:none;stroke-opacity:1"
           id="path24"
           inkscape:transform-center-x="253.7553"
           inkscape:transform-center-y="-7.724555"
           inkscape:original-d="m 2153.245,2152.8173 -1.8769,-2.5447 3.0285,0.9094 -1.8774,-2.545 3.0287,0.9097 -1.877,-2.5446 3.0286,0.9093 -1.8773,-2.5446 3.0287,0.9095 -1.8771,-2.5451 3.0286,0.9097 -1.8772,-2.5448 3.0286,0.9097 -1.8772,-2.545 3.0287,0.9096 -1.8771,-2.5449 3.0285,0.9096 -1.877,-2.5448 3.0287,0.9094 -1.8773,-2.5447 3.0287,0.9096 -1.8773,-2.5447 3.0287,0.9094 -1.8771,-2.5447 v 0" /><path
           d="m 2187.8691,2172.7223 -2.2256,-2.2461 3.1282,0.4613 -2.2261,-2.2463 3.1285,0.4615 -2.2257,-2.2459 3.1284,0.4611 -2.226,-2.2459 3.1285,0.4613 -2.2259,-2.2464 3.1284,0.4615 -2.2259,-2.2461 3.1284,0.4615 -2.2259,-2.2463 3.1285,0.4614 -2.2259,-2.2462 3.1283,0.4614 -2.2257,-2.2462 3.1285,0.4613 -2.226,-2.246 3.1285,0.4614 -2.226,-2.246 3.1285,0.4612 -2.2258,-2.2461 v 0 m -653.5974,21.8786 2.2256,-2.2461 -3.1282,0.4613 2.2261,-2.2463 -3.1285,0.4615 2.2257,-2.2459 -3.1284,0.4611 2.226,-2.2459 -3.1285,0.4613 2.2259,-2.2464 -3.1284,0.4615 2.2259,-2.2461 -3.1284,0.4615 2.2259,-2.2463 -3.1285,0.4614 2.2259,-2.2462 -3.1283,0.4614 2.2257,-2.2462 -3.1285,0.4613 2.226,-2.246 -3.1285,0.4614 2.226,-2.246 -3.1285,0.4612 2.2258,-2.2461 v 0"
           style="display:inline;fill:none;fill-opacity:1;stroke:#000000;stroke-width:0.5;stroke-linecap:butt;stroke-linejoin:miter;stroke-dasharray:none;stroke-opacity:1"
           id="path25"
           inkscape:transform-center-x="326.62724"
           inkscape:transform-center-y="2.6945747"
           inkscape:original-d="m 2187.8691,2172.7223 -2.2256,-2.2461 3.1282,0.4613 -2.2261,-2.2463 3.1285,0.4615 -2.2257,-2.2459 3.1284,0.4611 -2.226,-2.2459 3.1285,0.4613 -2.2259,-2.2464 3.1284,0.4615 -2.2259,-2.2461 3.1284,0.4615 -2.2259,-2.2463 3.1285,0.4614 -2.2259,-2.2462 3.1283,0.4614 -2.2257,-2.2462 3.1285,0.4613 -2.226,-2.246 3.1285,0.4614 -2.226,-2.246 3.1285,0.4612 -2.2258,-2.2461 v 0" /><path
           d="m 2223.4757,2187.5896 -2.4856,-1.9544 3.1612,0.072 -2.4862,-1.9545 3.1615,0.072 -2.4857,-1.9542 3.1614,0.072 -2.486,-1.9542 3.1615,0.072 -2.486,-1.9547 3.1614,0.072 -2.486,-1.9543 3.1614,0.072 -2.4859,-1.9545 3.1615,0.072 -2.486,-1.9545 3.1613,0.072 -2.4858,-1.9545 3.1615,0.072 -2.4859,-1.9542 3.1615,0.072 -2.4861,-1.9542 3.1615,0.072 -2.4859,-1.9544 v 0 m -722.053,22.6606 2.4856,-1.9544 -3.1612,0.072 2.4862,-1.9545 -3.1615,0.072 2.4857,-1.9542 -3.1614,0.072 2.486,-1.9542 -3.1615,0.072 2.486,-1.9547 -3.1614,0.072 2.486,-1.9543 -3.1614,0.072 2.4859,-1.9545 -3.1615,0.072 2.486,-1.9545 -3.1613,0.072 2.4858,-1.9545 -3.1615,0.072 2.4859,-1.9542 -3.1615,0.072 2.4861,-1.9542 -3.1615,0.072 2.4859,-1.9544 v 0"
           style="display:inline;fill:none;fill-opacity:1;stroke:#000000;stroke-width:0.5;stroke-linecap:butt;stroke-linejoin:miter;stroke-dasharray:none;stroke-opacity:1"
           id="path26"
           inkscape:transform-center-x="360.45121"
           inkscape:transform-center-y="1.4221647"
           inkscape:original-d="m 2223.4757,2187.5896 -2.4856,-1.9544 3.1612,0.072 -2.4862,-1.9545 3.1615,0.072 -2.4857,-1.9542 3.1614,0.072 -2.486,-1.9542 3.1615,0.072 -2.486,-1.9547 3.1614,0.072 -2.486,-1.9543 3.1614,0.072 -2.4859,-1.9545 3.1615,0.072 -2.486,-1.9545 3.1613,0.072 -2.4858,-1.9545 3.1615,0.072 -2.4859,-1.9542 3.1615,0.072 -2.4861,-1.9542 3.1615,0.072 -2.4859,-1.9544 v 0" /><path
           d="m 2229.8124,2189.7784 -2.4856,-1.9544 3.1612,0.072 -2.4862,-1.9545 3.1615,0.072 -2.4857,-1.9542 3.1614,0.072 -2.486,-1.9542 3.1615,0.072 -2.486,-1.9547 3.1614,0.072 -2.486,-1.9543 3.1614,0.072 -2.4859,-1.9545 3.1615,0.072 -2.486,-1.9545 3.1613,0.072 -2.4858,-1.9545 3.1615,0.072 -2.4859,-1.9542 3.1615,0.072 -2.4861,-1.9542 3.1615,0.072 -2.4859,-1.9544 v 0 m -734.7264,22.6606 2.4856,-1.9544 -3.1612,0.072 2.4862,-1.9545 -3.1615,0.072 2.4857,-1.9542 -3.1614,0.072 2.486,-1.9542 -3.1615,0.072 2.486,-1.9547 -3.1614,0.072 2.486,-1.9543 -3.1614,0.072 2.4859,-1.9545 -3.1615,0.072 2.486,-1.9545 -3.1613,0.072 2.4858,-1.9545 -3.1615,0.072 2.4859,-1.9542 -3.1615,0.072 2.4861,-1.9542 -3.1615,0.072 2.4859,-1.9544 v 0"
           style="display:inline;fill:none;fill-opacity:1;stroke:#000000;stroke-width:0.5;stroke-linecap:butt;stroke-linejoin:miter;stroke-dasharray:none;stroke-opacity:1"
           id="path27"
           inkscape:transform-center-x="360.45121"
           inkscape:transform-center-y="1.4221647"
           inkscape:original-d="m 2229.8124,2189.7784 -2.4856,-1.9544 3.1612,0.072 -2.4862,-1.9545 3.1615,0.072 -2.4857,-1.9542 3.1614,0.072 -2.486,-1.9542 3.1615,0.072 -2.486,-1.9547 3.1614,0.072 -2.486,-1.9543 3.1614,0.072 -2.4859,-1.9545 3.1615,0.072 -2.486,-1.9545 3.1613,0.072 -2.4858,-1.9545 3.1615,0.072 -2.4859,-1.9542 3.1615,0.072 -2.4861,-1.9542 3.1615,0.072 -2.4859,-1.9544 v 0" /><path
           style="display:inline;fill:none;fill-opacity:1;stroke:#000000;stroke-width:0.5;stroke-linecap:butt;stroke-linejoin:miter;stroke-dasharray:none;stroke-opacity:1"
           d="m 1994.0127,1957.4745 -1,3 -1,-3 -1,3 -1,-3 -1,3 -1,-3 -1,3 -1,-3 -1,3 -1,-3 -1,3 -1,-3 -1,3 -1,-3 -1,3 -1,-3 -1,3 -1,-3 -1,3 -1,-3 -1,3 -1,-3 -1,3 v 0 l -1,-3 -1,3 -1,-3 -1,3 -1,-3 -1,3 -1,-3 -1,3 -1,-3 -1,3 -1,-3 -1,3 -1,-3 -1,3 -1,-3 m -220.1824,0 1,3 1,-3 1,3 1,-3 1,3 1,-3 1,3 1,-3 1,3 1,-3 1,3 1,-3 1,3 1,-3 1,3 1,-3 1,3 1,-3 1,3 1,-3 1,3 1,-3 1,3 v 0 l 1,-3 1,3 1,-3 1,3 1,-3 1,3 1,-3 1,3 1,-3 1,3 1,-3 1,3 1,-3 1,3 1,-3"
           id="path28"
           sodipodi:nodetypes="ccccccccccccccccccccccccc"
           inkscape:original-d="m 1994.0127,1957.4745 -1,3 -1,-3 -1,3 -1,-3 -1,3 -1,-3 -1,3 -1,-3 -1,3 -1,-3 -1,3 -1,-3 -1,3 -1,-3 -1,3 -1,-3 -1,3 -1,-3 -1,3 -1,-3 -1,3 -1,-3 -1,3 v 0 l -1,-3 -1,3 -1,-3 -1,3 -1,-3 -1,3 -1,-3 -1,3 -1,-3 -1,3 -1,-3 -1,3 -1,-3 -1,3 -1,-3" /><path
           style="display:inline;fill:none;fill-opacity:1;stroke:#000000;stroke-width:0.5;stroke-linecap:butt;stroke-linejoin:miter;stroke-dasharray:none;stroke-opacity:1"
           d="m 1994.0127,1950.5949 -1,3 -1,-3 -1,3 -1,-3 -1,3 -1,-3 -1,3 -1,-3 -1,3 -1,-3 -1,3 -1,-3 -1,3 -1,-3 -1,3 -1,-3 -1,3 -1,-3 -1,3 -1,-3 -1,3 -1,-3 -1,3 v 0 l -1,-3 -1,3 -1,-3 -1,3 -1,-3 -1,3 -1,-3 -1,3 -1,-3 -1,3 -1,-3 -1,3 -1,-3 -1,3 -1,-3 m -220.1824,0 1,3 1,-3 1,3 1,-3 1,3 1,-3 1,3 1,-3 1,3 1,-3 1,3 1,-3 1,3 1,-3 1,3 1,-3 1,3 1,-3 1,3 1,-3 1,3 1,-3 1,3 v 0 l 1,-3 1,3 1,-3 1,3 1,-3 1,3 1,-3 1,3 1,-3 1,3 1,-3 1,3 1,-3 1,3 1,-3"
           id="path29"
           sodipodi:nodetypes="ccccccccccccccccccccccccc"
           inkscape:original-d="m 1994.0127,1950.5949 -1,3 -1,-3 -1,3 -1,-3 -1,3 -1,-3 -1,3 -1,-3 -1,3 -1,-3 -1,3 -1,-3 -1,3 -1,-3 -1,3 -1,-3 -1,3 -1,-3 -1,3 -1,-3 -1,3 -1,-3 -1,3 v 0 l -1,-3 -1,3 -1,-3 -1,3 -1,-3 -1,3 -1,-3 -1,3 -1,-3 -1,3 -1,-3 -1,3 -1,-3 -1,3 -1,-3" /></g><path
         style="display:inline;fill:none;fill-opacity:1;stroke:#000000;stroke-width:0.5;stroke-linecap:butt;stroke-linejoin:miter;stroke-dasharray:4, 1;stroke-dashoffset:0;stroke-opacity:1"
         d="m 1864.9214,1927.609 h -144.6513 c -16.8355,11.0344 -30.1913,20.5079 -44.1783,33.8094 l 188.8297,-0.046 m 10e-5,-33.7634 h 144.6513 c 16.8355,11.0344 30.1913,20.5079 44.1783,33.8094 l -188.8297,-0.046"
         id="path30"
         sodipodi:nodetypes="cccc"
         inkscape:path-effect="#path-effect49"
         inkscape:original-d="m 1864.9214,1927.609 h -144.6513 c -16.8355,11.0344 -30.1913,20.5079 -44.1783,33.8094 l 188.8297,-0.046"
         transform="translate(-3.4999269,402.50737)" /><path
         style="display:inline;fill:none;fill-opacity:1;stroke:#000000;stroke-width:0.5;stroke-linecap:butt;stroke-linejoin:miter;stroke-dasharray:4, 1;stroke-dashoffset:0;stroke-opacity:1"
         d="m 1864.9214,1891.499 c -73.4788,1.1467 -116.6556,19.1506 -144.6513,36.11 -17.7149,10.7314 -30.458,21.394 -44.1783,33.8094 0,0 -37.3082,40.3846 -57.1624,68.6696 -16.0026,22.7978 -14.8778,24.9985 -25.3119,41.0546 -16.0505,24.6987 -44.8139,44.2052 -70.2132,59.5687 -13.4359,8.1271 -31.384,17.7758 -43.5169,27.3252 -6.9479,5.4685 -8.4447,14.956 -6.0183,23.4584 2.2592,7.9167 8.1246,13.0455 16.2645,14.2786 21.2444,3.2183 41.7794,-1.2169 62.718,-9.1599 34.1771,-12.965 67.3126,-36.0836 90.6388,-56.5216 21.3476,-18.7044 39.4194,-37.6216 59.0858,-59.7808 15.2641,-17.1988 43.1404,-46.7094 58.2109,-56.9091 27.8458,-18.846 63.4697,-24.8512 104.1342,-24.8512 m -10e-5,-97.0519 c 73.4788,1.1465 116.6557,19.1503 144.6514,36.1096 17.715,10.7314 30.4581,21.3939 44.1784,33.8093 0,0 37.3083,40.3845 57.1626,68.6694 16.0027,22.7978 14.8779,24.9985 25.312,41.0546 16.0506,24.6986 44.8141,44.205 70.2134,59.5685 13.4359,8.127 31.384,17.7757 43.517,27.325 6.9479,5.4685 8.4447,14.956 6.0183,23.4584 -2.2591,7.9167 -8.1245,13.0456 -16.2644,14.2787 -21.2444,3.2183 -41.7794,-1.2168 -62.7181,-9.1598 -34.1771,-12.9649 -67.3127,-36.0834 -90.6389,-56.5213 -21.3477,-18.7043 -39.4195,-37.6215 -59.086,-59.7806 -15.2641,-17.1988 -43.1405,-46.7093 -58.211,-56.909 -27.8459,-18.8459 -63.4698,-24.851 -104.1343,-24.8509"
         id="path78"
         sodipodi:nodetypes="cssssssssssssc"
         inkscape:path-effect="#path-effect79"
         inkscape:original-d="m 1864.9214,1891.499 c -73.4788,1.1467 -116.6556,19.1506 -144.6513,36.11 -17.7149,10.7314 -30.458,21.394 -44.1783,33.8094 0,0 -37.3082,40.3846 -57.1624,68.6696 -16.0026,22.7978 -14.8778,24.9985 -25.3119,41.0546 -16.0505,24.6987 -44.8139,44.2052 -70.2132,59.5687 -13.4359,8.1271 -31.384,17.7758 -43.5169,27.3252 -6.9479,5.4685 -8.4447,14.956 -6.0183,23.4584 2.2592,7.9167 8.1246,13.0455 16.2645,14.2786 21.2444,3.2183 41.7794,-1.2169 62.718,-9.1599 34.1771,-12.965 67.3126,-36.0836 90.6388,-56.5216 21.3476,-18.7044 39.4194,-37.6216 59.0858,-59.7808 15.2641,-17.1988 43.1404,-46.7094 58.2109,-56.9091 27.8458,-18.846 63.4697,-24.8512 104.1342,-24.8512"
         transform="translate(-3.4999269,402.50737)" /><path
         style="vector-effect:non-scaling-stroke;fill:#ff0000;fill-opacity:1;stroke:none;stroke-width:0.264583;stroke-dasharray:none;stroke-opacity:1;-inkscape-stroke:hairline"
         id="path79"
         d="m 1764.3636,2294.2339 c 5.3065,-2.1483 10.8359,-3.6937 16.3377,-5.2494 12.1542,-3.22 24.4528,-5.996 36.8921,-7.873 3.1017,-0.468 6.2186,-0.8285 9.328,-1.2427 19.5999,-2.0932 39.3281,-2.207 59.0117,-1.7997 12.8212,0.2859 25.5644,1.6908 38.1745,3.9634 6.2358,1.2133 12.4011,2.7652 18.6381,3.9693 2.3432,0.3133 4.653,0.7615 6.8793,1.5603 0,0 -3.1139,-2.4251 -3.1139,-2.4251 v 0 c -2.2158,-0.7402 -4.5143,-1.1125 -6.8224,-1.4459 -6.1783,-1.1759 -12.292,-2.6694 -18.4723,-3.8378 -12.53,-2.1947 -25.1894,-3.4843 -37.9182,-3.706 -19.692,-0.3175 -39.4254,-0.265 -59.033,1.8446 -3.1213,0.4105 -6.25,0.7681 -9.364,1.2314 -12.5271,1.8637 -24.9206,4.6211 -37.1964,7.7068 -5.5835,1.5488 -11.1884,3.0697 -16.6245,5.0894 z" /><text
         xml:space="preserve"
         style="font-style:normal;font-variant:normal;font-weight:normal;font-stretch:normal;font-size:5.64444px;font-family:monospace;-inkscape-font-specification:monospace;vector-effect:non-scaling-stroke;fill:#000000;fill-opacity:1;stroke:none;stroke-width:0.264583;stroke-dasharray:none;stroke-opacity:1;-inkscape-stroke:hairline"
         x="1791.4214"
         y="2270"
         id="text79"><tspan
           sodipodi:role="line"
           id="tspan79"
           style="fill:#000000;stroke-width:0.264583"
           x="1791.4214"
           y="2270">Leave the seam open here to insert padding</tspan></text></g></g><metadata
     id="metadata2"><rdf:RDF><cc:Work
         rdf:about=""><cc:license
           rdf:resource="http://creativecommons.org/licenses/by-sa/4.0/" /></cc:Work><cc:License
         rdf:about="http://creativecommons.org/licenses/by-sa/4.0/"><cc:permits
           rdf:resource="http://creativecommons.org/ns#Reproduction" /><cc:permits
           rdf:resource="http://creativecommons.org/ns#Distribution" /><cc:requires
           rdf:resource="http://creativecommons.org/ns#Notice" /><cc:requires
           rdf:resource="http://creativecommons.org/ns#Attribution" /><cc:permits
           rdf:resource="http://creativecommons.org/ns#DerivativeWorks" /><cc:requires
           rdf:resource="http://creativecommons.org/ns#ShareAlike" /></cc:License></rdf:RDF></metadata></svg>
