<?xml version="1.0" encoding="UTF-8" standalone="no"?>
<!-- Created with Inkscape (http://www.inkscape.org/) -->

<svg
   width="525.5mm"
   height="28.00065mm"
   viewBox="0 0 525.5 28.000651"
   version="1.1"
   id="svg1575"
   xmlns="http://www.w3.org/2000/svg"
   xmlns:svg="http://www.w3.org/2000/svg">
  <defs
     id="defs1572" />
  <g
     id="layer2"
     style="display:inline"
     transform="translate(0.249993,-309.99993)">
    <g
       id="g50458">
      <rect
         style="fill:#9d8c41;fill-opacity:1;stroke:#1a1a1a;stroke-width:0.5;stroke-miterlimit:4;stroke-dasharray:none;stroke-opacity:1"
         id="rect3205"
         width="525"
         height="20"
         x="7.0000001e-06"
         y="314" />
      <path
         id="path3239"
         style="vector-effect:non-scaling-stroke;fill:#333333;fill-opacity:1;stroke:none;stroke-width:0.137316;stroke-opacity:0.509002;-inkscape-stroke:hairline"
         d="m 5.4185517,276.06554 c -5.99418315,0 -8.7442555,-0.0386 -10.989336,1.99806 v 0.99903 h 0.9990306 v 0.99903 h 2.9970916 l 1.99806111,0.99903 H 4.4195211 l 1.9980611,-0.99903 h 5.9941828 v 5.99419 l -0.99903,0.99903 H -2.5736927 l -0.9990305,-0.99903 -5.9941837,1.99806 v 1.99806 l 24.9757639,1e-4 v -9.99031 l 0.999031,-0.99903 h 2.997091 v 0.99894 h 3.996122 v -0.99894 h 2.997092 v 10.98934 h 5.994183 c 0,-3.99622 0,-7.99234 -0.99903,-12.9875 l -15.984489,-0.99903 v 1.99806 H 4.4195211 Z m 0,27.97296 c -5.99418315,0 -8.7442555,0.0386 -10.989336,-1.99806 v -0.99903 h 0.9990306 v -0.99903 h 2.9970916 l 1.99806111,-0.99903 H 4.4195211 l 1.9980611,0.99903 h 5.9941828 v -5.99419 l -0.99903,-0.99903 H -2.5736927 l -0.9990305,0.99903 -5.9941837,-1.99806 v -1.99806 l 24.9757639,-1e-4 v 9.99031 l 0.999031,0.99903 h 2.997091 v -0.99894 h 3.996122 v 0.99894 h 2.997092 v -10.98934 h 5.994183 c 0,3.99622 0,7.99234 -0.99903,12.9875 l -15.984489,0.99903 v -1.99806 H 4.4195211 Z"
         class="UnoptimicedTransforms"
         transform="matrix(1.0009704,0,0,1.0009704,453.57621,33.666565)" />
      <path
         id="rect3207"
         style="fill:#9d8c41;stroke:#1a1a1a;stroke-width:0.5"
         transform="translate(50.000003,-15.999997)"
         d="m 450,327.88333 c 7.33065,1.05627 24.93625,0.68183 25,2.11667 v 20 c -0.26565,-1.70051 -19.69159,-0.76876 -25,-2.11667 z" />
      <path
         style="fill:none;fill-opacity:1;stroke:#000000;stroke-width:0.444262;stroke-linecap:butt;stroke-linejoin:miter;stroke-dasharray:none;stroke-opacity:1"
         d="m 518.94167,331.39982 3,-0.78947 -3,-0.78948 3,-0.78947 -3,-0.78947 3,-0.78948 -3,-0.78947 3,-0.78948 -3,-0.78947 3,-0.78947 -3,-0.78948 3,-0.78947 -3,-0.78947 3,-0.78948 -3,-0.78947 3,-0.78947 -3,-0.78948 3,-0.78947 -3,-0.78948 3,-0.78947 v 0"
         id="path34602" />
      <path
         id="path3285"
         style="vector-effect:non-scaling-stroke;fill:#333333;fill-opacity:1;stroke:none;stroke-width:0.259331;stroke-dasharray:none;stroke-dashoffset:0;stroke-opacity:0.509002;-inkscape-stroke:hairline"
         d="m -20,125 c 0,-4.99997 -1,-8 -0.999963,-9.99978 C -20.999944,113.99523 -20,114 -18,114 c 2,0 3,0 3.000187,1.00021 h 3.999756 c 0,-2 -1.999762,-4.00028 -3.999756,-4.00028 l -16.000057,10e-6 c -1.999994,0 -4.000272,0.99982 -4.000272,2.99982 v 1.00046 h 4.013708 c 0.05942,-1.00002 1.047269,-1.00046 2.986381,-1.00046 1.999994,0 2.999699,5e-4 2.999817,1.00046 C -25,117 -26,120 -26,125 m 6,4e-4 c -1.1e-4,4.99997 -1.000176,7.99997 -1.000183,9.99975 -3e-6,1.00499 0.999941,1.00025 2.999941,1.00029 2,4e-5 3,7e-5 3.000209,-1.00014 l 3.999756,8e-5 c -4.4e-5,2 -1.99985,4.00024 -3.999844,4.0002 l -16.000057,-3.7e-4 c -1.999994,-4e-5 -4.00025,-0.9999 -4.000206,-2.9999 l 2.2e-5,-1.00046 4.013708,8e-5 c 0.0594,1.00003 1.047247,1.00049 2.986359,1.00053 1.999994,4e-5 2.999699,-4.3e-4 2.999839,-1.00039 2.8e-4,-1.99978 -0.999654,-4.99981 -0.999544,-9.99981"
         transform="translate(226.00001,199)"
         class="UnoptimicedTransforms" />
    </g>
  </g>
</svg>
