<?xml version="1.0" encoding="UTF-8" standalone="no"?>
<!-- Created with Inkscape (http://www.inkscape.org/) -->

<svg
   width="550.51459mm"
   height="155.63068mm"
   viewBox="0 0 550.51459 155.63068"
   version="1.1"
   id="svg1575"
   xmlns="http://www.w3.org/2000/svg"
   xmlns:svg="http://www.w3.org/2000/svg">
  <defs
     id="defs1572" />
  <g
     id="layer5"
     style="display:inline"
     transform="translate(0.51458415,-8.3693324)">
    <g
       id="g50441">
      <rect
         style="vector-effect:non-scaling-stroke;fill:#9d8c41;fill-opacity:1;stroke:#1a1a1a;stroke-width:0.264583;stroke-opacity:0.509002;-inkscape-stroke:hairline"
         id="rect1775"
         width="550"
         height="20"
         x="7.0000001e-06"
         y="44" />
      <path
         id="path2223-6"
         style="vector-effect:non-scaling-stroke;fill:#333333;fill-opacity:1;stroke:none;stroke-width:0.137316;stroke-opacity:0.509002;-inkscape-stroke:hairline"
         d="m 79.153343,53.515148 c 5.45053,0.0129 8.1078,-1.36741 10.28984,-2.61651 v -0.51895 h -0.51896 v -1.03792 h -2.59505 l -1.55688,-1.55714 h -6.22802 l -1.55688,1.55714 h -6.74698 v -5.18984 l 1.55714,-1.55714 h 14.01266 l 1.03791,1.55714 6.22803,-1.55714 v -2.59479 -2.59505 l -6.22803,-1.55688 -1.03791,1.55688 h -14.01266 l -1.55714,-1.55688 v -5.19011 h 6.74698 l 1.55688,1.55714 h 6.22802 l 1.55688,-1.55714 h 2.59505 v -1.03791 h 0.51896 v -0.51896 c -2.32752,-1.33237 -5.19568,-2.81412 -11.41787,-2.59505 l 0.51896,1.55714 h -10.37969 v -1.55714 l -16.08875,0.51922 c -1.30089,4.4615 -2.094,8.80914 -2.07583,12.97474 -0.0182,4.16561 0.77494,8.51325 2.07583,12.97474 l 16.08875,0.51896 v -1.55714 h 10.37969 l -0.51896,1.55714 c 0.38888,0.0137 0.76466,0.0206 1.12803,0.0214 z m -13.58381,-1.57859 h -2.59479 v -11.93656 -11.93682 h 2.59479 l 1.55714,1.55687 v 10.37995 10.37969 z m -6.74672,0 h -2.59505 v -11.93656 -11.93682 h 2.59505 v 11.93682 z"
         transform="translate(50.000003,-15.999997)" />
      <rect
         style="font-variation-settings:normal;opacity:1;fill:#9d8c41;fill-opacity:1;stroke:#000000;stroke-width:0.5;stroke-linecap:butt;stroke-linejoin:miter;stroke-miterlimit:4;stroke-dasharray:none;stroke-dashoffset:0;stroke-opacity:0.913676;stop-color:#000000;stop-opacity:1"
         id="rect2669"
         width="350.52917"
         height="20.030237"
         x="-0.26458415"
         y="123.98489" />
      <path
         id="path2300"
         style="vector-effect:non-scaling-stroke;fill:#333333;fill-opacity:1;stroke:none;stroke-width:0.264583;stroke-opacity:0.509002;-inkscape-stroke:hairline"
         d="m -4,182 2.441e-4,-11.0001 h 4.99969486 v 10.99984 m 30.00023604,0 0.01602,-13.94902 -9.000485,-0.01 -2.005562,4.99762 -13.9433348,-0.0129 -2.0510376,-5.00486 c -0.9999974,-0.001 -1.8597795,-0.003 -2.6101766,-0.002 v 6.2e-4 c -5.2527799,0.007 -5.1545899,0.11205 -10.4055664,0.98082 C -9.9999664,174.00002 -11,177.00001 -11,182 m 7,0 2.441e-4,11.0001 h 4.99969486 v -10.99984 m 30.00023604,0 0.01602,13.94902 -9.000485,0.01 -2.005562,-4.99762 -13.9433348,0.0129 -2.0510376,5.00486 c -0.9999974,0.001 -1.8597795,0.003 -2.6101766,0.002 v -6.2e-4 c -5.2527799,-0.007 -5.1545899,-0.11205 -10.4055664,-0.98082 C -9.9999664,189.99998 -11,186.99999 -11,182"
         transform="translate(111.00001,-78)"
         class="UnoptimicedTransforms" />
      <path
         style="fill:#786721;fill-opacity:0.75;stroke:#1a1a1a;stroke-width:0.5;stroke-dasharray:none;stroke-opacity:0.976318"
         d="m 269.99998,120 v 60"
         id="path2707"
         transform="translate(50.000003,-15.999997)" />
      <text
         xml:space="preserve"
         style="font-style:normal;font-variant:normal;font-weight:normal;font-stretch:normal;font-size:7.05556px;font-family:Monospace;-inkscape-font-specification:Monospace;vector-effect:non-scaling-stroke;fill:#1a1a1a;fill-opacity:1;stroke:none;stroke-width:0.264583;stroke-opacity:0.509002;-inkscape-stroke:hairline"
         x="248.55315"
         y="109.90009"
         id="text2711"
         transform="translate(50.000003,-15.999997)"><tspan
           id="tspan2709"
           style="font-style:normal;font-variant:normal;font-weight:normal;font-stretch:normal;font-size:7.05556px;font-family:Monospace;-inkscape-font-specification:Monospace;fill:#1a1a1a;fill-opacity:1;stroke:none;stroke-width:0.264583"
           x="248.55315"
           y="109.90009">Fold 30mm</tspan></text>
      <path
         style="fill:#786721;fill-opacity:0.75;stroke:#1a1a1a;stroke-width:0.5;stroke-dasharray:none;stroke-opacity:0.976318"
         d="M 474.99982,39.999997 V 99.999995"
         id="path2763"
         transform="translate(50.000003,-15.999997)" />
      <text
         xml:space="preserve"
         style="font-style:normal;font-variant:normal;font-weight:normal;font-stretch:normal;font-size:7.05556px;font-family:Monospace;-inkscape-font-specification:Monospace;vector-effect:non-scaling-stroke;fill:#1a1a1a;fill-opacity:1;stroke:none;stroke-width:0.264583;stroke-opacity:0.509002;-inkscape-stroke:hairline"
         x="459.43982"
         y="29.767797"
         id="text2767"
         transform="translate(50.000003,-15.999997)"><tspan
           style="font-style:normal;font-variant:normal;font-weight:normal;font-stretch:normal;font-size:7.05556px;font-family:Monospace;-inkscape-font-specification:Monospace;fill:#1a1a1a;fill-opacity:1;stroke:none;stroke-width:0.264583"
           x="459.43982"
           y="29.767797"
           id="tspan2769">Fold 25mm</tspan></text>
      <path
         id="path3095"
         style="vector-effect:non-scaling-stroke;fill:#333333;fill-opacity:1;stroke:none;stroke-width:0.259331;stroke-dasharray:none;stroke-dashoffset:0;stroke-opacity:0.509002;-inkscape-stroke:hairline"
         d="m -11,125 v -10 c 0,-2 -2,-4 -4,-4 h -16 c -2,0 -4,1 -4,3 v 11 m 4,0 0.0105,-9.9028 C -30.988337,114 -30,114 -28,114 c 2,0 3,4e-5 3,1 0,2 -1,5 -1,10 m 6,0 c 0,-5 -1,-8 -1,-10 0,-1.00499 1.262515,-1 3,-1 1.737486,0 3,-0.30383 3,1 v 10 m 4,0 v 10 c 0,2 -2,4 -4,4 h -16 c -2,0 -4,-1 -4,-3 v -11 m 4,0 0.0105,9.9028 C -30.988337,136 -30,136 -28,136 c 2,0 3,-4e-5 3,-1 0,-2 -1,-5 -1,-10 m 6,0 c 0,5 -1,8 -1,10 0,1.00499 1.262515,1 3,1 1.737486,0 3,0.30383 3,-1 v -10"
         class="UnoptimicedTransforms"
         transform="translate(81.000007,-20.999999)" />
      <path
         id="path3199"
         style="vector-effect:non-scaling-stroke;fill:#333333;fill-opacity:1;stroke:none;stroke-width:0.259331;stroke-dasharray:none;stroke-dashoffset:0;stroke-opacity:0.509002;-inkscape-stroke:hairline"
         d="m -11,125 v -10 c 0,-2 -2,-4 -4,-4 h -16 c -2,0 -4,1 -4,3 v 11 m 4,0 0.0105,-9.9028 C -30.988337,114 -30,114 -28,114 c 2,0 3,4e-5 3,1 0,2 -1,5 -1,10 m 6,0 c 0,-5 -1,-8 -1,-10 0,-1.00499 1.262515,-1 3,-1 1.737486,0 3,-0.30383 3,1 v 10 m 4,0 v 10 c 0,2 -2,4 -4,4 h -16 c -2,0 -4,-1 -4,-3 v -11 m 4,0 0.0105,9.9028 C -30.988337,136 -30,136 -28,136 c 2,0 3,-4e-5 3,-1 0,-2 -1,-5 -1,-10 m 6,0 c 0,5 -1,8 -1,10 0,1.00499 1.262515,1 3,1 1.737486,0 3,0.30383 3,-1 v -10"
         class="UnoptimicedTransforms"
         transform="translate(81.000007,-101)" />
    </g>
  </g>
</svg>
