<?xml version="1.0" encoding="UTF-8" standalone="no"?>
<!-- Created with Inkscape (http://www.inkscape.org/) -->

<svg
   width="361.7471mm"
   height="28.105711mm"
   viewBox="0 0 361.7471 28.105712"
   version="1.1"
   id="svg1575"
   xmlns="http://www.w3.org/2000/svg"
   xmlns:svg="http://www.w3.org/2000/svg">
  <defs
     id="defs1572" />
  <g
     id="layer4"
     style="display:inline"
     transform="translate(0.250001,-229.99993)">
    <g
       id="g50451">
      <path
         id="rect2777"
         style="opacity:1;fill:#9d8c41;stroke:#000000;stroke-width:0.5;stroke-opacity:0.913676;stop-color:#000000;stop-opacity:1"
         transform="translate(50.000003,-15.999997)"
         d="m -50.000004,250 c 84.527966,0 235.356624,-0.27907 300.045614,-0.0203 19.49366,0.078 29.96453,-0.31217 29.95439,0.0203 v 20 H -50.000004 Z" />
      <path
         id="path2548"
         style="vector-effect:non-scaling-stroke;fill:#333333;fill-opacity:1;stroke:none;stroke-width:0.264583;stroke-opacity:0.509002;-inkscape-stroke:hairline"
         d="m 30.999939,181.9999 0.0162,-13.94922 -9.000485,-0.01 -2.005562,4.99763 -13.9433349,-0.0129 -2.0510376,-5.00487 c -0.9999964,-0.001 -1.8597802,-0.003 -2.6101766,-0.002 v 5.1e-4 c -5.2527746,0.007 -5.1545951,0.11205 -10.4055664,0.98082 -0.2159816,1.07991 -0.4952936,7.76227 -0.4952936,7.76227 h 5.5180094 l -0.022504,-5.76239 h 4.99969482 v 10.99985 m 6.104e-5,2.99969 -6.604e-5,-2.99959 m 30.00004788,-0.0232 0.03177,13.94919 -9.000468,0.02 -2.01114,-4.99539 -13.9433117,0.0285 -2.045449,5.00715 c -0.9999947,0.002 -1.8597757,0.005 -2.6101728,0.005 l -5e-7,-5.1e-4 c -5.2527792,-0.001 -5.154717,-0.1063 -10.4066549,-0.96921 -0.217187,-1.07967 -0.5039588,-7.76171 -0.5039588,-7.76171 l 5.518006,-0.006 -0.016071,5.76241 4.9996917,-0.006 -0.0122798,-10.99984 m -0.003288,-2.99969 0.003283,2.99959"
         transform="rotate(0.27073997,-12962.701,70137.575)"
         class="UnoptimicedTransforms" />
      <path
         id="rect2779"
         style="opacity:1;fill:#9d8c41;stroke:#000000;stroke-width:0.5;stroke-opacity:0.913676;stop-color:#000000;stop-opacity:1"
         transform="translate(50.000003,-15.999997)"
         d="m 250,250 c 10,0 29.68799,4.86882 30,0 v 20 c -1.69596,2.69161 -20,0 -30,0 z" />
      <g
         id="g38816"
         transform="translate(192.11666,-0.23749901)">
        <g
           id="g38811"
           style="stroke:#000000;stroke-opacity:1">
          <path
             style="fill:none;fill-opacity:1;stroke:#000000;stroke-width:0.5;stroke-linecap:butt;stroke-linejoin:miter;stroke-dasharray:none;stroke-opacity:1"
             d="m 110,235 3,1 -3,1 3,1 -3,1 3,1 -3,1 3,1 -3,1 3,1 -3,1 3,1 -3,1 3,1 -3,1 3,1 -3,1 3,1 -3,1 3,1 v 0"
             id="path38805" />
          <path
             style="fill:none;fill-opacity:1;stroke:#000000;stroke-width:0.5;stroke-linecap:butt;stroke-linejoin:miter;stroke-dasharray:none;stroke-opacity:1"
             d="m 120,235 3,1 -3,1 3,1 -3,1 3,1 -3,1 3,1 -3,1 3,1 -3,1 3,1 -3,1 3,1 -3,1 3,1 -3,1 3,1 -3,1 3,1 v 0"
             id="path38807" />
        </g>
      </g>
      <path
         id="path7545"
         style="vector-effect:non-scaling-stroke;fill:#333333;fill-opacity:1;stroke:none;stroke-width:0.259331;stroke-dasharray:none;stroke-dashoffset:0;stroke-opacity:0.509002;-inkscape-stroke:hairline"
         d="m -20,125 c 0,-4.99997 -1,-8 -0.999963,-9.99978 C -20.999944,113.99523 -20,114 -18,114 c 2,0 3,0 3.000187,1.00021 h 3.999756 c 0,-2 -1.999762,-4.00028 -3.999756,-4.00028 l -16.000057,10e-6 c -1.999994,0 -4.000272,0.99982 -4.000272,2.99982 v 1.00046 h 4.013708 c 0.05942,-1.00002 1.047269,-1.00046 2.986381,-1.00046 1.999994,0 2.999699,5e-4 2.999817,1.00046 C -25,117 -26,120 -26,125 m 6,4e-4 c -1.1e-4,4.99997 -1.000176,7.99997 -1.000183,9.99975 -3e-6,1.00499 0.999941,1.00025 2.999941,1.00029 2,4e-5 3,7e-5 3.000209,-1.00014 l 3.999756,8e-5 c -4.4e-5,2 -1.99985,4.00024 -3.999844,4.0002 l -16.000057,-3.7e-4 c -1.999994,-4e-5 -4.00025,-0.9999 -4.000206,-2.9999 l 2.2e-5,-1.00046 4.013708,8e-5 c 0.0594,1.00003 1.047247,1.00049 2.986359,1.00053 1.999994,4e-5 2.999699,-4.3e-4 2.999839,-1.00039 2.8e-4,-1.99978 -0.999654,-4.99981 -0.999544,-9.99981"
         transform="translate(226,119)"
         class="UnoptimicedTransforms" />
    </g>
  </g>
</svg>
