<?xml version="1.0" encoding="UTF-8" standalone="no"?>
<!-- Created with Inkscape (http://www.inkscape.org/) -->

<svg
   width="525mm"
   height="28.00065mm"
   viewBox="0 0 525 28.000651"
   version="1.1"
   id="svg1575"
   inkscape:version="1.3 (1:1.3+202307231459+0e150ed6c4)"
   sodipodi:docname="sternum strap, 20mm, modular.svg"
   inkscape:export-filename="../944055a6/material.svg"
   inkscape:export-xdpi="96"
   inkscape:export-ydpi="96"
   xmlns:inkscape="http://www.inkscape.org/namespaces/inkscape"
   xmlns:sodipodi="http://sodipodi.sourceforge.net/DTD/sodipodi-0.dtd"
   xmlns="http://www.w3.org/2000/svg"
   xmlns:svg="http://www.w3.org/2000/svg">
  <sodipodi:namedview
     id="namedview1577"
     pagecolor="#ffffff"
     bordercolor="#000000"
     borderopacity="0.25"
     inkscape:showpageshadow="2"
     inkscape:pageopacity="0.0"
     inkscape:pagecheckerboard="0"
     inkscape:deskcolor="#d1d1d1"
     inkscape:document-units="mm"
     showgrid="true"
     inkscape:zoom="0.36713725"
     inkscape:cx="746.3149"
     inkscape:cy="822.58066"
     inkscape:window-width="1846"
     inkscape:window-height="1016"
     inkscape:window-x="0"
     inkscape:window-y="0"
     inkscape:window-maximized="1"
     inkscape:current-layer="layer5">
    <inkscape:grid
       type="xygrid"
       id="grid2671"
       units="cm"
       spacingx="10"
       spacingy="10"
       originx="49.999982"
       originy="-1187.6533"
       visible="true" />
  </sodipodi:namedview>
  <defs
     id="defs1572">
    <inkscape:path-effect
       effect="mirror_symmetry"
       start_point="16.907403,290.05202"
       end_point="24.899647,290.05202"
       center_point="20.903525,290.05202"
       id="path-effect3243"
       is_visible="true"
       lpeversion="1.2"
       lpesatellites=""
       mode="free"
       discard_orig_path="false"
       fuse_paths="false"
       oposite_fuse="false"
       split_items="false"
       split_open="false"
       link_styles="false" />
    <inkscape:path-effect
       effect="mirror_symmetry"
       start_point="-38,125"
       end_point="-27.086256,125.00012"
       center_point="-32.543128,125.00006"
       id="path-effect3352-3"
       is_visible="true"
       lpeversion="1.2"
       lpesatellites=""
       mode="free"
       discard_orig_path="false"
       fuse_paths="false"
       oposite_fuse="false"
       split_items="false"
       split_open="false"
       link_styles="false" />
  </defs>
  <g
     inkscape:groupmode="layer"
     id="layer4"
     inkscape:label="right"
     transform="translate(-6.8146973e-6,-309.99993)">
    <rect
       style="vector-effect:non-scaling-stroke;fill:#786721;fill-opacity:0.75;stroke:#1a1a1a;stroke-width:0.2585;stroke-opacity:0.509002;-inkscape-stroke:hairline"
       id="rect3205"
       width="525"
       height="20"
       x="-49.999996"
       y="330"
       inkscape:export-filename="../3a4762da/right.svg"
       inkscape:export-xdpi="96"
       inkscape:export-ydpi="96"
       transform="translate(50.000003,-15.999997)" />
    <path
       id="path3239"
       style="vector-effect:non-scaling-stroke;fill:#333333;fill-opacity:1;stroke:none;stroke-width:0.137316;stroke-opacity:0.509002;-inkscape-stroke:hairline"
       d="m 5.4185517,276.06554 c -5.99418315,0 -8.7442555,-0.0386 -10.989336,1.99806 v 0.99903 h 0.9990306 v 0.99903 h 2.9970916 l 1.99806111,0.99903 H 4.4195211 l 1.9980611,-0.99903 h 5.9941828 v 5.99419 l -0.99903,0.99903 H -2.5736927 l -0.9990305,-0.99903 -5.9941837,1.99806 v 1.99806 l 24.9757639,1e-4 v -9.99031 l 0.999031,-0.99903 h 2.997091 v 0.99894 h 3.996122 v -0.99894 h 2.997092 v 10.98934 h 5.994183 c 0,-3.99622 0,-7.99234 -0.99903,-12.9875 l -15.984489,-0.99903 v 1.99806 H 4.4195211 Z m 0,27.97296 c -5.99418315,0 -8.7442555,0.0386 -10.989336,-1.99806 v -0.99903 h 0.9990306 v -0.99903 h 2.9970916 l 1.99806111,-0.99903 H 4.4195211 l 1.9980611,0.99903 h 5.9941828 v -5.99419 l -0.99903,-0.99903 H -2.5736927 l -0.9990305,0.99903 -5.9941837,-1.99806 v -1.99806 l 24.9757639,-1e-4 v 9.99031 l 0.999031,0.99903 h 2.997091 v -0.99894 h 3.996122 v 0.99894 h 2.997092 v -10.98934 h 5.994183 c 0,3.99622 0,7.99234 -0.99903,12.9875 l -15.984489,0.99903 v -1.99806 H 4.4195211 Z"
       inkscape:path-effect="#path-effect3243"
       inkscape:original-d="m 5.4185517,276.06554 c -5.99418315,0 -8.7442555,-0.0386 -10.989336,1.99806 v 0.99903 h 0.9990306 v 0.99903 h 2.9970916 l 1.99806111,0.99903 H 4.4195211 l 1.9980611,-0.99903 h 5.9941828 v 5.99419 l -0.99903,0.99903 H -2.5736927 l -0.9990305,-0.99903 -5.9941837,1.99806 v 1.99806 l 24.9757639,1e-4 v -9.99031 l 0.999031,-0.99903 h 2.997091 v 0.99894 h 3.996122 v -0.99894 h 2.997092 v 10.98934 h 5.994183 c 0,-3.99622 0,-7.99234 -0.99903,-12.9875 l -15.984489,-0.99903 v 1.99806 H 4.4195211 Z"
       class="UnoptimicedTransforms"
       transform="matrix(1.0009704,0,0,1.0009704,453.57621,33.666565)"
       sodipodi:nodetypes="ccccccccccccccccccccccccccccccc" />
    <rect
       style="vector-effect:non-scaling-stroke;fill:#786721;fill-opacity:0.75;stroke:#1a1a1a;stroke-width:0.0564093;stroke-opacity:0.509002;-inkscape-stroke:hairline"
       id="rect3207"
       width="25"
       height="20"
       x="450"
       y="330"
       transform="translate(50.000003,-15.999997)" />
    <path
       style="vector-effect:non-scaling-stroke;fill:none;fill-opacity:0.75;stroke:#1a1a1a;stroke-width:0.264583;stroke-opacity:0.509002;-inkscape-stroke:hairline"
       d="m 470.7042,330.47083 3,1 -3,1 3,1 -3,1 3,1 -3,1 3,1 -3,1 3,1 -3,1 3,1 -3,1 3,1 -3,1 3,1 -3,1 3,1 -3,1 3,1"
       id="path3209"
       sodipodi:nodetypes="cccccccccccccccccccc"
       transform="translate(50.000003,-15.999997)" />
    <path
       id="path3285"
       style="vector-effect:non-scaling-stroke;fill:#333333;fill-opacity:1;stroke:none;stroke-width:0.259331;stroke-dasharray:none;stroke-dashoffset:0;stroke-opacity:0.509002;-inkscape-stroke:hairline"
       d="m -20,125 c 0,-4.99997 -1,-8 -0.999963,-9.99978 C -20.999944,113.99523 -20,114 -18,114 c 2,0 3,0 3.000187,1.00021 h 3.999756 c 0,-2 -1.999762,-4.00028 -3.999756,-4.00028 l -16.000057,10e-6 c -1.999994,0 -4.000272,0.99982 -4.000272,2.99982 v 1.00046 h 4.013708 c 0.05942,-1.00002 1.047269,-1.00046 2.986381,-1.00046 1.999994,0 2.999699,5e-4 2.999817,1.00046 C -25,117 -26,120 -26,125 m 6,4e-4 c -1.1e-4,4.99997 -1.000176,7.99997 -1.000183,9.99975 -3e-6,1.00499 0.999941,1.00025 2.999941,1.00029 2,4e-5 3,7e-5 3.000209,-1.00014 l 3.999756,8e-5 c -4.4e-5,2 -1.99985,4.00024 -3.999844,4.0002 l -16.000057,-3.7e-4 c -1.999994,-4e-5 -4.00025,-0.9999 -4.000206,-2.9999 l 2.2e-5,-1.00046 4.013708,8e-5 c 0.0594,1.00003 1.047247,1.00049 2.986359,1.00053 1.999994,4e-5 2.999699,-4.3e-4 2.999839,-1.00039 2.8e-4,-1.99978 -0.999654,-4.99981 -0.999544,-9.99981"
       transform="translate(226.00001,199)"
       inkscape:path-effect="#path-effect3352-3"
       inkscape:original-d="m -20,125 c 0,-4.99997 -1,-8 -0.999963,-9.99978 C -20.999944,113.99523 -20,114 -18,114 c 2,0 3,0 3.000187,1.00021 h 3.999756 c 0,-2 -1.999762,-4.00028 -3.999756,-4.00028 l -16.000057,10e-6 c -1.999994,0 -4.000272,0.99982 -4.000272,2.99982 v 1.00046 h 4.013708 c 0.05942,-1.00002 1.047269,-1.00046 2.986381,-1.00046 1.999994,0 2.999699,5e-4 2.999817,1.00046 C -25,117 -26,120 -26,125"
       class="UnoptimicedTransforms"
       sodipodi:nodetypes="cscccsssccssc" />
  </g>
</svg>
