<?xml version="1.0" encoding="UTF-8" standalone="no"?>
<!-- Created with Inkscape (http://www.inkscape.org/) -->

<svg
   width="1197.0482mm"
   height="504.31451mm"
   viewBox="0 0 1197.0482 504.31452"
   version="1.1"
   id="svg969"
   inkscape:version="1.2.2 (732a01da63, 2022-12-09, custom)"
   sodipodi:docname="pouch, horizontal, 25x16x9 cm.svg"
   xmlns:inkscape="http://www.inkscape.org/namespaces/inkscape"
   xmlns:sodipodi="http://sodipodi.sourceforge.net/DTD/sodipodi-0.dtd"
   xmlns:xlink="http://www.w3.org/1999/xlink"
   xmlns="http://www.w3.org/2000/svg"
   xmlns:svg="http://www.w3.org/2000/svg">
  <sodipodi:namedview
     id="namedview971"
     pagecolor="#ffffff"
     bordercolor="#666666"
     borderopacity="1.0"
     inkscape:pageshadow="2"
     inkscape:pageopacity="0.0"
     inkscape:pagecheckerboard="0"
     inkscape:document-units="mm"
     showgrid="false"
     inkscape:snap-center="true"
     inkscape:zoom="0.25611645"
     inkscape:cx="2272.4039"
     inkscape:cy="864.84099"
     inkscape:window-width="1850"
     inkscape:window-height="1016"
     inkscape:window-x="0"
     inkscape:window-y="0"
     inkscape:window-maximized="1"
     inkscape:current-layer="layer1"
     inkscape:snap-bbox="true"
     inkscape:snap-bbox-edge-midpoints="true"
     inkscape:snap-object-midpoints="true"
     inkscape:bbox-paths="true"
     inkscape:object-paths="true"
     inkscape:snap-intersection-paths="true"
     fit-margin-top="50"
     fit-margin-left="50"
     fit-margin-right="50"
     fit-margin-bottom="50"
     inkscape:showpageshadow="2"
     inkscape:deskcolor="#d1d1d1" />
  <defs
     id="defs966">
    <rect
       x="2270.4744"
       y="781.24316"
       width="575.99982"
       height="294.49451"
       id="rect13297" />
  </defs>
  <g
     inkscape:label="Layer 1"
     inkscape:groupmode="layer"
     id="layer1"
     transform="translate(598.54978,-72.737329)">
    <rect
       style="fill:#a0892c;fill-opacity:0.543543;stroke:#000000;stroke-width:0.5;stroke-miterlimit:4;stroke-dasharray:none"
       id="rect6317"
       width="270"
       height="179.99997"
       x="216.63789"
       y="285.86386" />
    <rect
       style="font-variation-settings:normal;opacity:1;vector-effect:none;fill:#918a6f;fill-opacity:1;stroke:#000000;stroke-width:0.5;stroke-linecap:butt;stroke-linejoin:miter;stroke-miterlimit:4;stroke-dasharray:none;stroke-dashoffset:0;stroke-opacity:1;-inkscape-stroke:none;stop-color:#000000;stop-opacity:1"
       id="rect3011"
       width="249.74997"
       height="159.75"
       x="226.88794"
       y="296.11386" />
    <rect
       style="font-variation-settings:normal;opacity:1;vector-effect:none;fill:#9d8c41;fill-opacity:1;stroke:#000000;stroke-width:0.5;stroke-linecap:butt;stroke-linejoin:miter;stroke-miterlimit:4;stroke-dasharray:none;stroke-dashoffset:0;stroke-opacity:1;-inkscape-stroke:none;stop-color:#000000;stop-opacity:1"
       id="rect35334"
       width="304.79999"
       height="25.4"
       x="272.00186"
       y="-270.10492"
       transform="rotate(90)" />
    <use
       x="0"
       y="0"
       xlink:href="#rect35334"
       id="use35336"
       transform="translate(190.64653)"
       width="100%"
       height="100%"
       style="font-variation-settings:normal;opacity:1;vector-effect:none;fill:#9d8c41;fill-opacity:1;stroke:#000000;stroke-width:0.5;stroke-linecap:butt;stroke-linejoin:miter;stroke-miterlimit:4;stroke-dasharray:none;stroke-dashoffset:0;stroke-opacity:1;-inkscape-stroke:none;stop-color:#000000;stop-opacity:1" />
    <path
       id="rect35056"
       style="font-variation-settings:normal;opacity:1;vector-effect:none;fill:#9d8c41;fill-opacity:1;stroke:#000000;stroke-width:0.5;stroke-linecap:butt;stroke-linejoin:miter;stroke-miterlimit:4;stroke-dasharray:none;stroke-dashoffset:0;stroke-opacity:1;-inkscape-stroke:none;stop-color:#000000;stop-opacity:1"
       d="m 211.63793,321.08596 v 25.4 h 279.99996 v -25.4 z" />
    <rect
       style="fill:#a0892c;fill-opacity:0.543543;stroke:#000000;stroke-width:0.5;stroke-miterlimit:4;stroke-dasharray:none"
       id="rect1153"
       width="430"
       height="110"
       x="-461.90067"
       y="98.753082" />
    <rect
       style="font-variation-settings:normal;opacity:1;vector-effect:none;fill:#918a6f;fill-opacity:1;stroke:#000000;stroke-width:0.5;stroke-linecap:butt;stroke-linejoin:miter;stroke-miterlimit:4;stroke-dasharray:none;stroke-dashoffset:0;stroke-opacity:1;-inkscape-stroke:none;stop-color:#000000;stop-opacity:1"
       id="rect1157"
       width="410"
       height="90"
       x="-452.07327"
       y="108.77087" />
    <use
       x="0"
       y="0"
       xlink:href="#rect1153"
       id="use13291"
       transform="translate(630.14905)" />
    <use
       x="0"
       y="0"
       xlink:href="#rect1157"
       id="use13293"
       transform="translate(630.14905)" />
    <text
       xml:space="preserve"
       style="font-size:5.64444px;line-height:1.25;font-family:monospace;-inkscape-font-specification:monospace;letter-spacing:0px;stroke-width:0.264583"
       x="304.16174"
       y="160.84532"
       id="text4351"><tspan
         sodipodi:role="line"
         style="font-size:5.64444px;stroke-width:0.264583"
         x="304.16174"
         y="160.84532"
         id="tspan13408">Intermediate panel</tspan><tspan
         sodipodi:role="line"
         style="font-size:5.64444px;stroke-width:0.264583"
         x="304.16174"
         y="167.90088"
         id="tspan13412">inferior section</tspan></text>
    <rect
       style="fill:#a0892c;fill-opacity:0.543543;stroke:#000000;stroke-width:0.5;stroke-miterlimit:4;stroke-dasharray:none"
       id="rect6268"
       width="270"
       height="179.99997"
       x="-381.90067"
       y="285.86386" />
    <rect
       style="font-variation-settings:normal;opacity:1;vector-effect:none;fill:#918a6f;fill-opacity:1;stroke:#000000;stroke-width:0.5;stroke-linecap:butt;stroke-linejoin:miter;stroke-miterlimit:4;stroke-dasharray:none;stroke-dashoffset:0;stroke-opacity:1;-inkscape-stroke:none;stop-color:#000000;stop-opacity:1"
       id="rect1052"
       width="250"
       height="160"
       x="-371.90067"
       y="295.86386" />
    <text
       xml:space="preserve"
       style="font-size:5.64444px;line-height:1.25;font-family:monospace;-inkscape-font-specification:monospace;letter-spacing:0px;stroke-width:0.264583"
       x="-347.08273"
       y="341.92871"
       id="text13418-7"><tspan
         sodipodi:role="line"
         style="font-size:5.64444px;stroke-width:0.264583"
         x="-347.08273"
         y="341.92871"
         id="tspan13416-9">Anterior panel</tspan><tspan
         sodipodi:role="line"
         style="font-size:5.64444px;stroke-width:0.264583"
         x="-347.08273"
         y="348.98425"
         id="tspan13552" /></text>
    <text
       xml:space="preserve"
       style="font-size:4.9389px;line-height:1.25;font-family:monospace;-inkscape-font-specification:monospace;letter-spacing:0px;stroke-width:0.264583"
       x="-330.7731"
       y="292.78314"
       id="text45690"><tspan
         sodipodi:role="line"
         id="tspan45688"
         style="stroke-width:0.264583"
         x="-330.7731"
         y="292.78314">10 mm allowance</tspan></text>
    <text
       xml:space="preserve"
       style="font-size:4.9389px;line-height:1.25;font-family:monospace;-inkscape-font-specification:monospace;letter-spacing:0px;stroke-width:0.264583"
       x="22.556065"
       y="122.49447"
       id="text45690-6"><tspan
         sodipodi:role="line"
         id="tspan45688-2"
         style="stroke-width:0.264583"
         x="22.556065"
         y="122.49447">zipper pull tabs</tspan><tspan
         sodipodi:role="line"
         style="stroke-width:0.264583"
         x="22.556065"
         y="128.66809"
         id="tspan13301">at both end of the zipper</tspan></text>
    <text
       xml:space="preserve"
       style="font-size:4.9389px;line-height:1.25;font-family:monospace;-inkscape-font-specification:monospace;letter-spacing:0px;stroke-width:0.264583"
       x="-1.128691"
       y="84.456017"
       id="text45690-6-9"><tspan
         sodipodi:role="line"
         style="stroke-width:0.264583"
         x="-1.128691"
         y="84.456017"
         id="tspan13301-2">Insert the zipper along the center line of the</tspan><tspan
         sodipodi:role="line"
         style="stroke-width:0.264583"
         x="-1.128691"
         y="90.629639"
         id="tspan13402">superior section of the intermediate panel</tspan></text>
    <text
       xml:space="preserve"
       style="font-size:4.9389px;line-height:1.25;font-family:monospace;-inkscape-font-specification:monospace;letter-spacing:0px;stroke-width:0.264583"
       x="320.65948"
       y="426.2149"
       id="text45690-6-9-3"><tspan
         sodipodi:role="line"
         style="stroke-width:0.264583"
         x="320.65948"
         y="426.2149"
         id="tspan13402-0">Posterior panel</tspan></text>
    <path
       style="fill:none;stroke:#000000;stroke-width:0.264583px;stroke-linecap:butt;stroke-linejoin:miter;stroke-opacity:1"
       d="M -246.90066,153.85102 V 78.302587 258.64207"
       id="path45725" />
    <path
       style="fill:none;stroke:#000000;stroke-width:0.264583px;stroke-linecap:butt;stroke-linejoin:miter;stroke-opacity:1"
       d="M -246.90066,334.1905 V 258.64207 489.04023"
       id="path45813"
       sodipodi:nodetypes="ccc" />
    <path
       style="fill:none;stroke:#000000;stroke-width:0.264583px;stroke-linecap:butt;stroke-linejoin:miter;stroke-opacity:1"
       d="M -371.90066,72.737329 V 300.14108"
       id="path45990"
       sodipodi:nodetypes="cc" />
    <path
       style="fill:none;stroke:#000000;stroke-width:0.264583px;stroke-linecap:butt;stroke-linejoin:miter;stroke-opacity:1"
       d="M -121.90066,93.851021 V 300.14108"
       id="path46110"
       sodipodi:nodetypes="cc" />
    <text
       xml:space="preserve"
       style="font-size:4.9389px;line-height:1.25;font-family:monospace;-inkscape-font-specification:monospace;letter-spacing:0px;white-space:pre;inline-size:167.76;display:inline;stroke-width:0.264583"
       x="-541.45184"
       y="260.04544"
       id="text46235"
       transform="translate(-33.590325,-10.580763)"><tspan
         x="-541.45184"
         y="260.04544"
         id="tspan15951">Cut from the edge to the seam allowance where the  </tspan><tspan
         x="-541.45184"
         y="266.21907"
         id="tspan15953">superior and inferior panels match with the posterior </tspan><tspan
         x="-541.45184"
         y="272.39269"
         id="tspan15955">and anterior panel corners. 
</tspan><tspan
         x="-541.45184"
         y="278.5663"
         id="tspan15957">NOTE: use the corners of the seam, not the cut fabric. </tspan><tspan
         x="-541.45184"
         y="284.73992"
         id="tspan15959">That is, using the size of the fabric if it had no seam </tspan><tspan
         x="-541.45184"
         y="290.91353"
         id="tspan15961">allowance</tspan></text>
    <path
       style="fill:none;stroke:#000000;stroke-width:0.264583px;stroke-linecap:butt;stroke-linejoin:miter;stroke-opacity:1"
       d="m -422.81395,238.93943 50.91329,-33.15333"
       id="path57433"
       sodipodi:nodetypes="cc" />
    <path
       style="fill:none;stroke:#000000;stroke-width:0.264583px;stroke-linecap:butt;stroke-linejoin:miter;stroke-opacity:1"
       d="m -422.81395,238.93943 50.91329,-138.45074"
       id="path57435"
       sodipodi:nodetypes="cc" />
    <path
       style="fill:none;stroke:#000000;stroke-width:0.264583px;stroke-linecap:butt;stroke-linejoin:miter;stroke-opacity:1"
       d="m -121.90066,100.99 -300.91329,137.94943 300.91329,-30.8905"
       id="path57437"
       sodipodi:nodetypes="ccc" />
    <path
       style="fill:none;stroke:#000000;stroke-width:2;stroke-linecap:butt;stroke-linejoin:miter;stroke-miterlimit:4;stroke-dasharray:none;stroke-opacity:1"
       d="m -371.90066,198.85102 v 15 0"
       id="path1366" />
    <path
       style="fill:none;stroke:#000000;stroke-width:2;stroke-linecap:butt;stroke-linejoin:miter;stroke-miterlimit:4;stroke-dasharray:none;stroke-opacity:1"
       d="m -371.90066,93.85102 v 15"
       id="path1481" />
    <path
       style="fill:none;stroke:#000000;stroke-width:2;stroke-linecap:butt;stroke-linejoin:miter;stroke-miterlimit:4;stroke-dasharray:none;stroke-opacity:1"
       d="m -121.90066,93.85102 v 15"
       id="path1483" />
    <path
       style="fill:none;stroke:#000000;stroke-width:2;stroke-linecap:butt;stroke-linejoin:miter;stroke-miterlimit:4;stroke-dasharray:none;stroke-opacity:1"
       d="m -121.90066,198.85102 v 15"
       id="path1598" />
    <path
       style="fill:none;stroke:#000000;stroke-width:0.264583px;stroke-linecap:butt;stroke-linejoin:miter;stroke-opacity:1"
       d="m -452.44098,139.14956 v -64.221 152.48555"
       id="path1680"
       sodipodi:nodetypes="ccc" />
    <use
       x="0"
       y="0"
       xlink:href="#rect35056"
       id="use35246"
       transform="translate(-1.0649984e-5,50.800003)"
       width="100%"
       height="100%"
       style="font-variation-settings:normal;opacity:1;vector-effect:none;fill:#9d8c41;fill-opacity:1;stroke:#000000;stroke-width:0.5;stroke-linecap:butt;stroke-linejoin:miter;stroke-miterlimit:4;stroke-dasharray:none;stroke-dashoffset:0;stroke-opacity:1;-inkscape-stroke:none;stop-color:#000000;stop-opacity:1" />
    <use
       x="0"
       y="0"
       xlink:href="#rect35056"
       id="use35248"
       transform="matrix(0.36285714,0,0,1,-675.2534,-182.61461)"
       width="100%"
       height="100%"
       style="stroke-width:0.830046;stroke-dasharray:none" />
    <use
       x="0"
       y="0"
       xlink:href="#use35248"
       id="use35332"
       transform="translate(617.75898,-0.25000949)"
       width="100%"
       height="100%"
       style="stroke-width:0.5;stroke-dasharray:none" />
    <text
       xml:space="preserve"
       style="font-size:4.9389px;line-height:1.25;font-family:monospace;-inkscape-font-specification:monospace;letter-spacing:0px;stroke-width:0.264583"
       x="171.14195"
       y="435.5119"
       id="text36422"><tspan
         sodipodi:role="line"
         id="tspan36420"
         style="stroke-width:0.264583"
         x="171.14195"
         y="435.5119">Fold at 3 inches</tspan><tspan
         sodipodi:role="line"
         style="stroke-width:0.264583"
         x="171.14195"
         y="441.68552"
         id="tspan36424" /></text>
    <path
       style="fill:none;fill-opacity:1;stroke:#000000;stroke-width:0.5;stroke-linecap:butt;stroke-linejoin:miter;stroke-dasharray:none;stroke-opacity:1"
       d="m 388.2379,322.28612 3,1 -3,1 3,1 -3,1 3,1 -3,1 3,1 -3,1 3,1 -3,1 3,1 -3,1 3,1 -3,1 3,1 -3,1 3,1 -3,1 3,1 -3,1 3,1 -3,1 3,1 v 0"
       id="path36587-3"
       sodipodi:nodetypes="cccccccccccccccccccc" />
    <path
       style="fill:none;fill-opacity:1;stroke:#000000;stroke-width:0.5;stroke-linecap:butt;stroke-linejoin:miter;stroke-dasharray:none;stroke-opacity:1"
       d="m 426.33785,322.28612 3,1 -3,1 3,1 -3,1 3,1 -3,1 3,1 -3,1 3,1 -3,1 3,1 -3,1 3,1 -3,1 3,1 -3,1 3,1 -3,1 3,1 -3,1 3,1 -3,1 3,1 v 0"
       id="path6-6"
       sodipodi:nodetypes="cccccccccccccccccccc" />
    <path
       style="fill:none;fill-opacity:1;stroke:#000000;stroke-width:0.5;stroke-linecap:butt;stroke-linejoin:miter;stroke-dasharray:none;stroke-opacity:1"
       d="m 464.43784,322.28612 3,1 -3,1 3,1 -3,1 3,1 -3,1 3,1 -3,1 3,1 -3,1 3,1 -3,1 3,1 -3,1 3,1 -3,1 3,1 -3,1 3,1 -3,1 3,1 -3,1 3,1 v 0"
       id="path7-7"
       sodipodi:nodetypes="cccccccccccccccccccc" />
    <path
       style="fill:none;fill-opacity:1;stroke:#000000;stroke-width:0.5;stroke-linecap:butt;stroke-linejoin:miter;stroke-dasharray:none;stroke-opacity:1"
       d="m 235.83794,322.16944 3.00001,1 -3.00001,1 3.00001,1 -3.00001,1 3.00001,1 -3.00001,1 3.00001,1 -3.00001,1 3.00001,1 -3.00001,1 3.00001,1 -3.00001,1 3.00001,1 -3.00001,1 3.00001,1 -3.00001,1 3.00001,1 -3.00001,1 3.00001,1 -3.00001,1 3.00001,1 -3.00001,1 3.00001,1 v 0"
       id="path36587"
       sodipodi:nodetypes="cccccccccccccccccccc" />
    <path
       style="fill:none;fill-opacity:1;stroke:#000000;stroke-width:0.5;stroke-linecap:butt;stroke-linejoin:miter;stroke-dasharray:none;stroke-opacity:1"
       d="m 273.9379,322.16944 3,1 -3,1 3,1 -3,1 3,1 -3,1 3,1 -3,1 3,1 -3,1 3,1 -3,1 3,1 -3,1 3,1 -3,1 3,1 -3,1 3,1 -3,1 3,1 -3,1 3,1 v 0"
       id="path6"
       sodipodi:nodetypes="cccccccccccccccccccc" />
    <path
       style="fill:none;fill-opacity:1;stroke:#000000;stroke-width:0.5;stroke-linecap:butt;stroke-linejoin:miter;stroke-dasharray:none;stroke-opacity:1"
       d="m 312.0379,322.16944 3,1 -3,1 3,1 -3,1 3,1 -3,1 3,1 -3,1 3,1 -3,1 3,1 -3,1 3,1 -3,1 3,1 -3,1 3,1 -3,1 3,1 -3,1 3,1 -3,1 3,1 v 0"
       id="path7"
       sodipodi:nodetypes="cccccccccccccccccccc" />
    <path
       style="fill:none;fill-opacity:1;stroke:#000000;stroke-width:0.5;stroke-linecap:butt;stroke-linejoin:miter;stroke-dasharray:none;stroke-opacity:1"
       d="m 350.1379,322.16944 3,1 -3,1 3,1 -3,1 3,1 -3,1 3,1 -3,1 3,1 -3,1 3,1 -3,1 3,1 -3,1 3,1 -3,1 3,1 -3,1 3,1 -3,1 3,1 -3,1 3,1 v 0"
       id="path8"
       sodipodi:nodetypes="cccccccccccccccccccc" />
    <path
       style="fill:none;fill-opacity:1;stroke:#000000;stroke-width:0.5;stroke-linecap:butt;stroke-linejoin:miter;stroke-dasharray:none;stroke-opacity:1"
       d="m 388.2379,373.04803 3,1 -3,1 3,1 -3,1 3,1 -3,1 3,1 -3,1 3,1 -3,1 3,1 -3,1 3,1 -3,1 3,1 -3,1 3,1 -3,1 3,1 -3,1 3,1 -3,1 3,1 v 0"
       id="path10808"
       sodipodi:nodetypes="cccccccccccccccccccc" />
    <path
       style="fill:none;fill-opacity:1;stroke:#000000;stroke-width:0.5;stroke-linecap:butt;stroke-linejoin:miter;stroke-dasharray:none;stroke-opacity:1"
       d="m 426.33785,373.04803 3,1 -3,1 3,1 -3,1 3,1 -3,1 3,1 -3,1 3,1 -3,1 3,1 -3,1 3,1 -3,1 3,1 -3,1 3,1 -3,1 3,1 -3,1 3,1 -3,1 3,1 v 0"
       id="path10810"
       sodipodi:nodetypes="cccccccccccccccccccc" />
    <path
       style="fill:none;fill-opacity:1;stroke:#000000;stroke-width:0.5;stroke-linecap:butt;stroke-linejoin:miter;stroke-dasharray:none;stroke-opacity:1"
       d="m 464.43784,373.04803 3,1 -3,1 3,1 -3,1 3,1 -3,1 3,1 -3,1 3,1 -3,1 3,1 -3,1 3,1 -3,1 3,1 -3,1 3,1 -3,1 3,1 -3,1 3,1 -3,1 3,1 v 0"
       id="path10812"
       sodipodi:nodetypes="cccccccccccccccccccc" />
    <path
       style="fill:none;fill-opacity:1;stroke:#000000;stroke-width:0.5;stroke-linecap:butt;stroke-linejoin:miter;stroke-dasharray:none;stroke-opacity:1"
       d="m 235.83794,372.93135 3.00001,1 -3.00001,1 3.00001,1 -3.00001,1 3.00001,1 -3.00001,1 3.00001,1 -3.00001,1 3.00001,1 -3.00001,1 3.00001,1 -3.00001,1 3.00001,1 -3.00001,1 3.00001,1 -3.00001,1 3.00001,1 -3.00001,1 3.00001,1 -3.00001,1 3.00001,1 -3.00001,1 3.00001,1 v 0"
       id="path10814"
       sodipodi:nodetypes="cccccccccccccccccccc" />
    <path
       style="fill:none;fill-opacity:1;stroke:#000000;stroke-width:0.5;stroke-linecap:butt;stroke-linejoin:miter;stroke-dasharray:none;stroke-opacity:1"
       d="m 273.9379,372.93135 3,1 -3,1 3,1 -3,1 3,1 -3,1 3,1 -3,1 3,1 -3,1 3,1 -3,1 3,1 -3,1 3,1 -3,1 3,1 -3,1 3,1 -3,1 3,1 -3,1 3,1 v 0"
       id="path10816"
       sodipodi:nodetypes="cccccccccccccccccccc" />
    <path
       style="fill:none;fill-opacity:1;stroke:#000000;stroke-width:0.5;stroke-linecap:butt;stroke-linejoin:miter;stroke-dasharray:none;stroke-opacity:1"
       d="m 312.0379,372.93135 3,1 -3,1 3,1 -3,1 3,1 -3,1 3,1 -3,1 3,1 -3,1 3,1 -3,1 3,1 -3,1 3,1 -3,1 3,1 -3,1 3,1 -3,1 3,1 -3,1 3,1 v 0"
       id="path10818"
       sodipodi:nodetypes="cccccccccccccccccccc" />
    <path
       style="fill:none;fill-opacity:1;stroke:#000000;stroke-width:0.5;stroke-linecap:butt;stroke-linejoin:miter;stroke-dasharray:none;stroke-opacity:1"
       d="m 350.1379,372.93135 3,1 -3,1 3,1 -3,1 3,1 -3,1 3,1 -3,1 3,1 -3,1 3,1 -3,1 3,1 -3,1 3,1 -3,1 3,1 -3,1 3,1 -3,1 3,1 -3,1 3,1 v 0"
       id="path10820"
       sodipodi:nodetypes="cccccccccccccccccccc" />
    <path
       style="fill:none;fill-opacity:1;stroke:#000000;stroke-width:0.5;stroke-linecap:butt;stroke-linejoin:miter;stroke-dasharray:none;stroke-opacity:1"
       d="m 268.9049,294.36386 -1,3 -1,-3 -1,3 -1,-3 -1,3 -1,-3 -1,3 -1,-3 -1,3 -1,-3 -1,3 -1,-3 -1,3 -1,-3 -1,3 -1,-3 -1,3 -1,-3 -1,3 -1,-3 -1,3 -1,-3 -1,3 v 0"
       id="path48232"
       sodipodi:nodetypes="cccccccccccccccccccc" />
    <path
       style="fill:none;fill-opacity:1;stroke:#000000;stroke-width:0.5;stroke-linecap:butt;stroke-linejoin:miter;stroke-dasharray:none;stroke-opacity:1"
       d="m 459.55142,294.36386 -1,3 -1,-3 -1,3 -1,-3 -1,3 -1,-3 -1,3 -1,-3 -1,3 -1,-3 -1,3 -1,-3 -1,3 -1,-3 -1,3 -1,-3 -1,3 -1,-3 -1,3 -1,-3 -1,3 -1,-3 -1,3 v 0"
       id="path48232-3"
       sodipodi:nodetypes="cccccccccccccccccccc" />
    <rect
       style="font-variation-settings:normal;fill:#333333;fill-opacity:1;stroke:#000000;stroke-width:0.5;stroke-linecap:butt;stroke-linejoin:miter;stroke-miterlimit:4;stroke-dasharray:none;stroke-dashoffset:0;stroke-opacity:1;stop-color:#000000"
       id="rect21133"
       width="20"
       height="63.5"
       x="-491.72784"
       y="-573.25977"
       rx="2"
       ry="2"
       transform="scale(-1)" />
    <rect
       style="font-variation-settings:normal;fill:#333333;fill-opacity:1;stroke:#000000;stroke-width:0.5;stroke-linecap:butt;stroke-linejoin:miter;stroke-miterlimit:4;stroke-dasharray:none;stroke-dashoffset:0;stroke-opacity:1;stop-color:#000000"
       id="rect21133-5"
       width="20"
       height="63.5"
       x="-301.91873"
       y="-573.25977"
       rx="2"
       ry="2"
       transform="scale(-1)"
       inkscape:transform-center-x="-117.76276"
       inkscape:transform-center-y="-8.6135927" />
    <text
       xml:space="preserve"
       transform="matrix(0.26458333,0,0,0.26458333,-613.94867,-98.18306)"
       id="text13295"
       style="font-variation-settings:normal;white-space:pre;shape-inside:url(#rect13297);display:inline;opacity:1;vector-effect:none;fill:#9d8c41;fill-opacity:1;fill-rule:evenodd;stroke:#000000;stroke-width:1.88976;stroke-linecap:butt;stroke-linejoin:miter;stroke-miterlimit:4;stroke-dasharray:none;stroke-dashoffset:0;stroke-opacity:1;-inkscape-stroke:none;stop-color:#000000;stop-opacity:1" />
    <path
       style="font-variation-settings:normal;opacity:1;vector-effect:none;fill:#9d8c41;fill-opacity:1;fill-rule:evenodd;stroke:#000000;stroke-width:0.499999;stroke-linecap:butt;stroke-linejoin:miter;stroke-miterlimit:4;stroke-dasharray:none;stroke-dashoffset:0;stroke-opacity:1;-inkscape-stroke:none;stop-color:#000000;stop-opacity:1"
       d="M -480.46651,151.17133 H -0.60977127"
       id="path13357" />
    <path
       style="font-variation-settings:normal;opacity:1;vector-effect:none;fill:#9d8c41;fill-opacity:1;fill-rule:evenodd;stroke:#000000;stroke-width:0.499999;stroke-linecap:butt;stroke-linejoin:miter;stroke-miterlimit:4;stroke-dasharray:none;stroke-dashoffset:0;stroke-opacity:1;-inkscape-stroke:none;stop-color:#000000;stop-opacity:1"
       d="M -0.60977127,151.17133 29.462056,98.503081"
       id="path13398" />
    <text
       xml:space="preserve"
       style="font-size:5.64444px;line-height:1.25;font-family:monospace;-inkscape-font-specification:monospace;letter-spacing:0px;stroke-width:0.264583"
       x="-325.9873"
       y="128.28706"
       id="text13418"><tspan
         sodipodi:role="line"
         style="font-size:5.64444px;stroke-width:0.264583"
         x="-325.9873"
         y="128.28706"
         id="tspan13414">Intermediate panel</tspan><tspan
         sodipodi:role="line"
         style="font-size:5.64444px;stroke-width:0.264583"
         x="-325.9873"
         y="135.34262"
         id="tspan13416">superior section</tspan></text>
  </g>
</svg>
