<?xml version="1.0" encoding="UTF-8" standalone="no"?>
<!-- Created with Inkscape (http://www.inkscape.org/) -->

<svg
   width="550.74451mm"
   height="438.00058mm"
   viewBox="0 0 550.74451 438.00059"
   version="1.1"
   id="svg1575"
   inkscape:version="1.2.2 (732a01da63, 2022-12-09, custom)"
   sodipodi:docname="sternum strap, 20mm, modular.svg"
   xmlns:inkscape="http://www.inkscape.org/namespaces/inkscape"
   xmlns:sodipodi="http://sodipodi.sourceforge.net/DTD/sodipodi-0.dtd"
   xmlns="http://www.w3.org/2000/svg"
   xmlns:svg="http://www.w3.org/2000/svg">
  <sodipodi:namedview
     id="namedview1577"
     pagecolor="#ffffff"
     bordercolor="#000000"
     borderopacity="0.25"
     inkscape:showpageshadow="2"
     inkscape:pageopacity="0.0"
     inkscape:pagecheckerboard="0"
     inkscape:deskcolor="#d1d1d1"
     inkscape:document-units="mm"
     showgrid="true"
     inkscape:zoom="0.58923598"
     inkscape:cx="871.46749"
     inkscape:cy="1516.3704"
     inkscape:window-width="1846"
     inkscape:window-height="1016"
     inkscape:window-x="0"
     inkscape:window-y="0"
     inkscape:window-maximized="1"
     inkscape:current-layer="layer1">
    <inkscape:grid
       type="xygrid"
       id="grid2671"
       units="cm"
       spacingx="10"
       spacingy="10"
       originx="50.000007"
       originy="-15.999999" />
  </sodipodi:namedview>
  <defs
     id="defs1572">
    <inkscape:path-effect
       effect="mirror_symmetry"
       start_point="-38,125"
       end_point="-27.086256,125.00012"
       center_point="-32.543128,125.00006"
       id="path-effect7549"
       is_visible="true"
       lpeversion="1.2"
       lpesatellites=""
       mode="free"
       discard_orig_path="false"
       fuse_paths="false"
       oposite_fuse="false"
       split_items="false"
       split_open="false"
       link_styles="false" />
    <inkscape:path-effect
       effect="mirror_symmetry"
       start_point="-38,125"
       end_point="-27.086256,125.00012"
       center_point="-32.543128,125.00006"
       id="path-effect3603"
       is_visible="true"
       lpeversion="1.2"
       lpesatellites=""
       mode="free"
       discard_orig_path="false"
       fuse_paths="false"
       oposite_fuse="false"
       split_items="false"
       split_open="false"
       link_styles="false" />
    <inkscape:path-effect
       effect="mirror_symmetry"
       start_point="16.907403,290.05202"
       end_point="24.899647,290.05202"
       center_point="20.903525,290.05202"
       id="path-effect3599"
       is_visible="true"
       lpeversion="1.2"
       lpesatellites=""
       mode="free"
       discard_orig_path="false"
       fuse_paths="false"
       oposite_fuse="false"
       split_items="false"
       split_open="false"
       link_styles="false" />
    <inkscape:path-effect
       effect="mirror_symmetry"
       start_point="-6.500061,182.00911"
       end_point="26.499939,181.99069"
       center_point="9.999939,181.9999"
       id="path-effect3595"
       is_visible="true"
       lpeversion="1.2"
       lpesatellites=""
       mode="free"
       discard_orig_path="false"
       fuse_paths="false"
       oposite_fuse="false"
       split_items="false"
       split_open="false"
       link_styles="false" />
    <inkscape:path-effect
       effect="mirror_symmetry"
       start_point="-28,125"
       end_point="-19,125"
       center_point="-23.5,125"
       id="path-effect3203"
       is_visible="true"
       lpeversion="1.2"
       lpesatellites=""
       mode="free"
       discard_orig_path="false"
       fuse_paths="false"
       oposite_fuse="false"
       split_items="false"
       split_open="false"
       link_styles="false" />
    <inkscape:path-effect
       effect="mirror_symmetry"
       start_point="4,182"
       end_point="12,182"
       center_point="8,182"
       id="path-effect2486"
       is_visible="true"
       lpeversion="1.2"
       lpesatellites=""
       mode="free"
       discard_orig_path="false"
       fuse_paths="false"
       oposite_fuse="false"
       split_items="false"
       split_open="false"
       link_styles="false" />
    <inkscape:path-effect
       effect="mirror_symmetry"
       start_point="-6.500061,182.00911"
       end_point="26.499939,181.99069"
       center_point="9.999939,181.9999"
       id="path-effect2611"
       is_visible="true"
       lpeversion="1.2"
       lpesatellites=""
       mode="free"
       discard_orig_path="false"
       fuse_paths="false"
       oposite_fuse="false"
       split_items="false"
       split_open="false"
       link_styles="false" />
    <inkscape:path-effect
       effect="mirror_symmetry"
       start_point="4,182"
       end_point="12,182"
       center_point="8,182"
       id="path-effect2486-5"
       is_visible="true"
       lpeversion="1.2"
       lpesatellites=""
       mode="free"
       discard_orig_path="false"
       fuse_paths="false"
       oposite_fuse="false"
       split_items="false"
       split_open="false"
       link_styles="false" />
    <inkscape:path-effect
       effect="mirror_symmetry"
       start_point="-28,125"
       end_point="-19,125"
       center_point="-23.5,125"
       id="path-effect3097"
       is_visible="true"
       lpeversion="1.2"
       lpesatellites=""
       mode="free"
       discard_orig_path="false"
       fuse_paths="false"
       oposite_fuse="false"
       split_items="false"
       split_open="false"
       link_styles="false" />
    <inkscape:path-effect
       effect="mirror_symmetry"
       start_point="16.907403,290.05202"
       end_point="24.899647,290.05202"
       center_point="20.903525,290.05202"
       id="path-effect3243"
       is_visible="true"
       lpeversion="1.2"
       lpesatellites=""
       mode="free"
       discard_orig_path="false"
       fuse_paths="false"
       oposite_fuse="false"
       split_items="false"
       split_open="false"
       link_styles="false" />
    <inkscape:path-effect
       effect="mirror_symmetry"
       start_point="-38,125"
       end_point="-11.000057,125.00012"
       center_point="-24.500028,125.00006"
       id="path-effect3352"
       is_visible="true"
       lpeversion="1.2"
       lpesatellites=""
       mode="free"
       discard_orig_path="false"
       fuse_paths="false"
       oposite_fuse="false"
       split_items="false"
       split_open="false"
       link_styles="false" />
    <inkscape:path-effect
       effect="mirror_symmetry"
       start_point="-38,125"
       end_point="-27.086256,125.00012"
       center_point="-32.543128,125.00006"
       id="path-effect3352-3"
       is_visible="true"
       lpeversion="1.2"
       lpesatellites=""
       mode="free"
       discard_orig_path="false"
       fuse_paths="false"
       oposite_fuse="false"
       split_items="false"
       split_open="false"
       link_styles="false" />
    <inkscape:path-effect
       effect="mirror_symmetry"
       start_point="-17.999756,181.9999"
       end_point="32.000244,181.9999"
       center_point="7.000244,181.9999"
       id="path-effect3647"
       is_visible="true"
       lpeversion="1.2"
       lpesatellites=""
       mode="free"
       discard_orig_path="false"
       fuse_paths="false"
       oposite_fuse="false"
       split_items="false"
       split_open="false"
       link_styles="false" />
    <inkscape:path-effect
       effect="mirror_symmetry"
       start_point="-11.564967,290.05207"
       end_point="32.392551,290.05182"
       center_point="10.413792,290.05195"
       id="path-effect3744"
       is_visible="true"
       lpeversion="1.2"
       lpesatellites=""
       mode="free"
       discard_orig_path="false"
       fuse_paths="false"
       oposite_fuse="false"
       split_items="false"
       split_open="false"
       link_styles="false" />
    <inkscape:path-effect
       effect="mirror_symmetry"
       start_point="-11.564967,290.05207"
       end_point="32.392551,290.05182"
       center_point="10.413792,290.05195"
       id="path-effect3744-5"
       is_visible="true"
       lpeversion="1.2"
       lpesatellites=""
       mode="free"
       discard_orig_path="false"
       fuse_paths="false"
       oposite_fuse="false"
       split_items="false"
       split_open="false"
       link_styles="false" />
  </defs>
  <g
     inkscape:label="Layer 1"
     inkscape:groupmode="layer"
     id="layer1"
     transform="translate(50.000004,-15.999997)">
    <rect
       style="vector-effect:non-scaling-stroke;fill:#786721;fill-opacity:0.75;stroke:#1a1a1a;stroke-width:0.264583;stroke-opacity:0.509002;-inkscape-stroke:hairline"
       id="rect1775"
       width="550"
       height="20"
       x="-50.000004"
       y="59.999996" />
    <path
       id="path2223-6"
       style="vector-effect:non-scaling-stroke;fill:#333333;fill-opacity:1;stroke:none;stroke-width:0.137316;stroke-opacity:0.509002;-inkscape-stroke:hairline"
       d="m 54.764233,43.515148 c 5.45053,0.0129 8.1078,-1.36741 10.28984,-2.61651 v -0.51895 h -0.51896 v -1.03792 h -2.59505 l -1.55688,-1.55714 h -6.22802 l -1.55688,1.55714 h -6.74698 v -5.18984 l 1.55714,-1.55714 h 14.01266 l 1.03791,1.55714 6.22803,-1.55714 v -2.59479 -2.59505 l -6.22803,-1.55688 -1.03791,1.55688 h -14.01266 l -1.55714,-1.55688 v -5.19011 h 6.74698 l 1.55688,1.55714 h 6.22802 l 1.55688,-1.55714 h 2.59505 v -1.03791 h 0.51896 v -0.51896 c -2.32752,-1.33237 -5.19568,-2.81412 -11.41787,-2.59505 l 0.51896,1.55714 h -10.37969 v -1.55714 l -16.08875,0.51922 c -1.30089,4.4615 -2.094,8.80914 -2.07583,12.97474 -0.0182,4.16561 0.77494,8.51325 2.07583,12.97474 l 16.08875,0.51896 v -1.55714 h 10.37969 l -0.51896,1.55714 c 0.38888,0.0137 0.76466,0.0206 1.12803,0.0214 z m -13.58381,-1.57859 h -2.59479 v -11.93656 -11.93682 h 2.59479 l 1.55714,1.55687 v 10.37995 10.37969 z m -6.74672,0 h -2.59505 v -11.93656 -11.93682 h 2.59505 v 11.93682 z" />
    <path
       id="path2548"
       style="vector-effect:non-scaling-stroke;fill:#333333;fill-opacity:1;stroke:none;stroke-width:0.264583;stroke-opacity:0.509002;-inkscape-stroke:hairline"
       d="m 30.999939,181.9999 0.0162,-13.94922 -9.000485,-0.01 -2.005562,4.99763 -13.9433349,-0.0129 -2.0510376,-5.00487 c -0.9999964,-0.001 -1.8597802,-0.003 -2.6101766,-0.002 v 5.1e-4 c -5.2527746,0.007 -5.1545951,0.11205 -10.4055664,0.98082 -0.2159816,1.07991 -0.5177978,2.99982 -0.5177978,2.99982 h 5.5180094 v -0.99994 h 4.99969482 v 10.99985 m 6.104e-5,2.99969 -6.604e-5,-2.99959 m 30.00004808,-0.0232 0.03177,13.94919 -9.000468,0.02 -2.01114,-4.99539 -13.9433117,0.0285 -2.045449,5.00715 c -0.9999947,0.002 -1.8597757,0.005 -2.6101728,0.005 l -5e-7,-5.1e-4 c -5.2527792,-0.001 -5.154717,-0.1063 -10.4066549,-0.96921 -0.217187,-1.07967 -0.5211464,-2.99924 -0.5211464,-2.99924 l 5.518006,-0.006 0.00112,0.99994 4.9996917,-0.006 -0.0122798,-10.99984 m -0.003288,-2.99969 0.003283,2.99959"
       transform="rotate(0.27074,-16373.432,59564.314)"
       sodipodi:nodetypes="cccccccccccccccc"
       inkscape:original-d="m 30.999939,181.9999 0.0162,-13.94922 -9.000485,-0.01 -2.005562,4.99763 -13.9433349,-0.0129 -2.0510376,-5.00487 c -0.9999964,-0.001 -1.8597802,-0.003 -2.6101766,-0.002 v 5.1e-4 c -5.2527746,0.007 -5.1545951,0.11205 -10.4055664,0.98082 -0.2159816,1.07991 -0.5177978,2.99982 -0.5177978,2.99982 h 5.5180094 v -0.99994 h 4.99969482 v 10.99985 m 6.104e-5,2.99969 -6.604e-5,-2.99959"
       inkscape:path-effect="#path-effect2611"
       class="UnoptimicedTransforms" />
    <rect
       style="vector-effect:non-scaling-stroke;fill:#786721;fill-opacity:0.75;stroke:#1a1a1a;stroke-width:0.211064;stroke-opacity:0.509002;-inkscape-stroke:hairline"
       id="rect2669"
       width="350"
       height="20"
       x="-50.000004"
       y="140" />
    <path
       id="path2300"
       style="vector-effect:non-scaling-stroke;fill:#333333;fill-opacity:1;stroke:none;stroke-width:0.264583;stroke-opacity:0.509002;-inkscape-stroke:hairline"
       d="m -4,182 2.441e-4,-11.0001 h 4.99969486 v 10.99984 m 30.00023604,0 0.01602,-13.94902 -9.000485,-0.01 -2.005562,4.99762 -13.9433348,-0.0129 -2.0510376,-5.00486 c -0.9999974,-0.001 -1.8597795,-0.003 -2.6101766,-0.002 v 6.2e-4 c -5.2527799,0.007 -5.1545899,0.11205 -10.4055664,0.98082 C -9.9999664,174.00002 -11,177.00001 -11,182 m 7,0 2.441e-4,11.0001 h 4.99969486 v -10.99984 m 30.00023604,0 0.01602,13.94902 -9.000485,0.01 -2.005562,-4.99762 -13.9433348,0.0129 -2.0510376,5.00486 c -0.9999974,0.001 -1.8597795,0.003 -2.6101766,0.002 v -6.2e-4 c -5.2527799,-0.007 -5.1545899,-0.11205 -10.4055664,-0.98082 C -9.9999664,189.99998 -11,186.99999 -11,182"
       sodipodi:nodetypes="ccccccccccsccc"
       transform="translate(38.933188,-63.025442)"
       inkscape:original-d="m -4,182 2.441e-4,-11.0001 h 4.99969486 v 10.99984 m 30.00023604,0 0.01602,-13.94902 -9.000485,-0.01 -2.005562,4.99762 -13.9433348,-0.0129 -2.0510376,-5.00486 c -0.9999974,-0.001 -1.8597795,-0.003 -2.6101766,-0.002 v 6.2e-4 c -5.2527799,0.007 -5.1545899,0.11205 -10.4055664,0.98082 C -9.9999664,174.00002 -11,177.00001 -11,182"
       inkscape:path-effect="#path-effect2486-5"
       class="UnoptimicedTransforms" />
    <path
       style="vector-effect:non-scaling-stroke;fill:#786721;fill-opacity:0.75;stroke:#1a1a1a;stroke-width:0.264583;stroke-opacity:0.509002;-inkscape-stroke:hairline"
       d="m 269.99998,120 v 60"
       id="path2707" />
    <text
       xml:space="preserve"
       style="font-size:7.05556px;vector-effect:non-scaling-stroke;fill:#786721;fill-opacity:0.75;stroke:#1a1a1a;stroke-width:0.264583;stroke-opacity:0.509002;-inkscape-stroke:hairline"
       x="249.43982"
       y="109.7678"
       id="text2711"><tspan
         sodipodi:role="line"
         id="tspan2709"
         style="font-size:7.05556px;fill:#786721;stroke:#1a1a1a;stroke-width:0.264583"
         x="249.43982"
         y="109.7678">Fold 3cm</tspan></text>
    <path
       style="vector-effect:non-scaling-stroke;fill:#786721;fill-opacity:0.75;stroke:#1a1a1a;stroke-width:0.264583;stroke-opacity:0.509002;-inkscape-stroke:hairline"
       d="M 474.99982,39.999997 V 99.999995"
       id="path2763" />
    <text
       xml:space="preserve"
       style="font-size:7.05556px;vector-effect:non-scaling-stroke;fill:#786721;fill-opacity:0.75;stroke:#1a1a1a;stroke-width:0.264583;stroke-opacity:0.509002;-inkscape-stroke:hairline"
       x="459.43982"
       y="29.767797"
       id="text2767"><tspan
         sodipodi:role="line"
         style="fill:#786721;stroke:#1a1a1a;stroke-width:0.264583"
         x="459.43982"
         y="29.767797"
         id="tspan2769">Fold 25 mm</tspan></text>
    <text
       xml:space="preserve"
       style="font-size:7.05556px;vector-effect:non-scaling-stroke;fill:#786721;fill-opacity:0.75;stroke:#1a1a1a;stroke-width:0.264583;stroke-opacity:0.509002;-inkscape-stroke:hairline"
       x="-20"
       y="200"
       id="text2775"><tspan
         sodipodi:role="line"
         id="tspan2773"
         style="fill:#786721;stroke:#1a1a1a;stroke-width:0.264583"
         x="-20"
         y="200">Comleted assembly</tspan></text>
    <rect
       style="vector-effect:non-scaling-stroke;fill:#786721;fill-opacity:0.75;stroke:#1a1a1a;stroke-width:0.204945;stroke-opacity:0.509002;-inkscape-stroke:hairline"
       id="rect2777"
       width="330"
       height="20"
       x="-50.000004"
       y="250" />
    <rect
       style="vector-effect:non-scaling-stroke;fill:#786721;fill-opacity:0.75;stroke:#1a1a1a;stroke-width:0.0617932;stroke-opacity:0.509002;-inkscape-stroke:hairline"
       id="rect2779"
       width="30"
       height="20"
       x="250"
       y="250" />
    <path
       style="vector-effect:non-scaling-stroke;fill:#786721;fill-opacity:0.75;stroke:#1a1a1a;stroke-width:0.264583;stroke-opacity:0.509002;-inkscape-stroke:hairline"
       d="m 253.82498,250.47083 3,1 -3,1 3,1 -3,1 3,1 -3,1 3,1 -3,1 3,1 -3,1 3,1 -3,1 3,1 -3,1 3,1 -3,1 3,1 -3,1 3,1"
       id="path2902"
       sodipodi:nodetypes="cccccccccccccccccccc" />
    <path
       style="vector-effect:non-scaling-stroke;fill:#786721;fill-opacity:0.75;stroke:#1a1a1a;stroke-width:0.264583;stroke-opacity:0.509002;-inkscape-stroke:hairline"
       d="m 261.67502,250.47083 3,1 -3,1 3,1 -3,1 3,1 -3,1 3,1 -3,1 3,1 -3,1 3,1 -3,1 3,1 -3,1 3,1 -3,1 3,1 -3,1 3,1"
       id="path3039"
       sodipodi:nodetypes="cccccccccccccccccccc" />
    <path
       id="path3095"
       style="vector-effect:non-scaling-stroke;fill:#333333;fill-opacity:1;stroke:none;stroke-width:0.259331;stroke-dasharray:none;stroke-dashoffset:0;stroke-opacity:0.509002;-inkscape-stroke:hairline"
       d="m -11,125 v -10 c 0,-2 -2,-4 -4,-4 h -16 c -2,0 -4,1 -4,3 v 11 m 4,0 0.0105,-9.9028 C -30.988337,114 -30,114 -28,114 c 2,0 3,4e-5 3,1 0,2 -1,5 -1,10 m 6,0 c 0,-5 -1,-8 -1,-10 0,-1.00499 1.262515,-1 3,-1 1.737486,0 3,-0.30383 3,1 v 10 m 4,0 v 10 c 0,2 -2,4 -4,4 h -16 c -2,0 -4,-1 -4,-3 v -11 m 4,0 0.0105,9.9028 C -30.988337,136 -30,136 -28,136 c 2,0 3,-4e-5 3,-1 0,-2 -1,-5 -1,-10 m 6,0 c 0,5 -1,8 -1,10 0,1.00499 1.262515,1 3,1 1.737486,0 3,0.30383 3,-1 v -10"
       sodipodi:nodetypes="cssssccsssccsssc"
       inkscape:path-effect="#path-effect3097"
       inkscape:original-d="m -11,125 v -10 c 0,-2 -2,-4 -4,-4 h -16 c -2,0 -4,1 -4,3 v 11 m 4,0 0.0105,-9.9028 C -30.988337,114 -30,114 -28,114 c 2,0 3,4e-5 3,1 0,2 -1,5 -1,10 m 6,0 c 0,-5 -1,-8 -1,-10 0,-1.00499 1.262515,-1 3,-1 1.737486,0 3,-0.30383 3,1 v 10"
       class="UnoptimicedTransforms"
       transform="translate(20.999999,-5.000003)" />
    <path
       id="path3199"
       style="vector-effect:non-scaling-stroke;fill:#333333;fill-opacity:1;stroke:none;stroke-width:0.259331;stroke-dasharray:none;stroke-dashoffset:0;stroke-opacity:0.509002;-inkscape-stroke:hairline"
       d="m -11,125 v -10 c 0,-2 -2,-4 -4,-4 h -16 c -2,0 -4,1 -4,3 v 11 m 4,0 0.0105,-9.9028 C -30.988337,114 -30,114 -28,114 c 2,0 3,4e-5 3,1 0,2 -1,5 -1,10 m 6,0 c 0,-5 -1,-8 -1,-10 0,-1.00499 1.262515,-1 3,-1 1.737486,0 3,-0.30383 3,1 v 10 m 4,0 v 10 c 0,2 -2,4 -4,4 h -16 c -2,0 -4,-1 -4,-3 v -11 m 4,0 0.0105,9.9028 C -30.988337,136 -30,136 -28,136 c 2,0 3,-4e-5 3,-1 0,-2 -1,-5 -1,-10 m 6,0 c 0,5 -1,8 -1,10 0,1.00499 1.262515,1 3,1 1.737486,0 3,0.30383 3,-1 v -10"
       sodipodi:nodetypes="cssssccsssccsssc"
       inkscape:path-effect="#path-effect3203"
       inkscape:original-d="m -11,125 v -10 c 0,-2 -2,-4 -4,-4 h -16 c -2,0 -4,1 -4,3 v 11 m 4,0 0.0105,-9.9028 C -30.988337,114 -30,114 -28,114 c 2,0 3,4e-5 3,1 0,2 -1,5 -1,10 m 6,0 c 0,-5 -1,-8 -1,-10 0,-1.00499 1.262515,-1 3,-1 1.737486,0 3,-0.30383 3,1 v 10"
       class="UnoptimicedTransforms"
       transform="translate(9.999999,-95.000003)" />
    <rect
       style="vector-effect:non-scaling-stroke;fill:#786721;fill-opacity:0.75;stroke:#1a1a1a;stroke-width:0.2585;stroke-opacity:0.509002;-inkscape-stroke:hairline"
       id="rect3205"
       width="525"
       height="20"
       x="-50.000004"
       y="300" />
    <path
       id="path3239"
       style="vector-effect:non-scaling-stroke;fill:#333333;fill-opacity:1;stroke:none;stroke-width:0.137316;stroke-opacity:0.509002;-inkscape-stroke:hairline"
       d="m 5.4185517,276.06554 c -5.99418315,0 -8.7442555,-0.0386 -10.989336,1.99806 v 0.99903 h 0.9990306 v 0.99903 h 2.9970916 l 1.99806111,0.99903 H 4.4195211 l 1.9980611,-0.99903 h 5.9941828 v 5.99419 l -0.99903,0.99903 H -2.5736927 l -0.9990305,-0.99903 -5.9941837,1.99806 v 1.99806 l 24.9757639,1e-4 v -9.99031 l 0.999031,-0.99903 h 2.997091 v 0.99894 h 3.996122 v -0.99894 h 2.997092 v 10.98934 h 5.994183 c 0,-3.99622 0,-7.99234 -0.99903,-12.9875 l -15.984489,-0.99903 v 1.99806 H 4.4195211 Z m 0,27.97296 c -5.99418315,0 -8.7442555,0.0386 -10.989336,-1.99806 v -0.99903 h 0.9990306 v -0.99903 h 2.9970916 l 1.99806111,-0.99903 H 4.4195211 l 1.9980611,0.99903 h 5.9941828 v -5.99419 l -0.99903,-0.99903 H -2.5736927 l -0.9990305,0.99903 -5.9941837,-1.99806 v -1.99806 l 24.9757639,-1e-4 v 9.99031 l 0.999031,0.99903 h 2.997091 v -0.99894 h 3.996122 v 0.99894 h 2.997092 v -10.98934 h 5.994183 c 0,3.99622 0,7.99234 -0.99903,12.9875 l -15.984489,0.99903 v -1.99806 H 4.4195211 Z"
       inkscape:path-effect="#path-effect3243"
       inkscape:original-d="m 5.4185517,276.06554 c -5.99418315,0 -8.7442555,-0.0386 -10.989336,1.99806 v 0.99903 h 0.9990306 v 0.99903 h 2.9970916 l 1.99806111,0.99903 H 4.4195211 l 1.9980611,-0.99903 h 5.9941828 v 5.99419 l -0.99903,0.99903 H -2.5736927 l -0.9990305,-0.99903 -5.9941837,1.99806 v 1.99806 l 24.9757639,1e-4 v -9.99031 l 0.999031,-0.99903 h 2.997091 v 0.99894 h 3.996122 v -0.99894 h 2.997092 v 10.98934 h 5.994183 c 0,-3.99622 0,-7.99234 -0.99903,-12.9875 l -15.984489,-0.99903 v 1.99806 H 4.4195211 Z"
       class="UnoptimicedTransforms"
       transform="matrix(1.0009704,0,0,1.0009704,403.57619,19.666565)"
       sodipodi:nodetypes="ccccccccccccccccccccccccccccccc" />
    <rect
       style="vector-effect:non-scaling-stroke;fill:#786721;fill-opacity:0.75;stroke:#1a1a1a;stroke-width:0.0564093;stroke-opacity:0.509002;-inkscape-stroke:hairline"
       id="rect3207"
       width="25"
       height="20"
       x="450"
       y="300" />
    <path
       style="vector-effect:non-scaling-stroke;fill:none;fill-opacity:0.75;stroke:#1a1a1a;stroke-width:0.264583;stroke-opacity:0.509002;-inkscape-stroke:hairline"
       d="m 470.70419,300.47083 3,1 -3,1 3,1 -3,1 3,1 -3,1 3,1 -3,1 3,1 -3,1 3,1 -3,1 3,1 -3,1 3,1 -3,1 3,1 -3,1 3,1"
       id="path3209"
       sodipodi:nodetypes="cccccccccccccccccccc" />
    <path
       id="path3285"
       style="vector-effect:non-scaling-stroke;fill:#333333;fill-opacity:1;stroke:none;stroke-width:0.259331;stroke-dasharray:none;stroke-dashoffset:0;stroke-opacity:0.509002;-inkscape-stroke:hairline"
       d="m -20,125 c 0,-4.99997 -1,-8 -0.999963,-9.99978 C -20.999944,113.99523 -20,114 -18,114 c 2,0 3,0 3.000187,1.00021 h 3.999756 c 0,-2 -1.999762,-4.00028 -3.999756,-4.00028 l -16.000057,10e-6 c -1.999994,0 -4.000272,0.99982 -4.000272,2.99982 v 1.00046 h 4.013708 c 0.05942,-1.00002 1.047269,-1.00046 2.986381,-1.00046 1.999994,0 2.999699,5e-4 2.999817,1.00046 C -25,117 -26,120 -26,125 m 6,4e-4 c -1.1e-4,4.99997 -1.000176,7.99997 -1.000183,9.99975 -3e-6,1.00499 0.999941,1.00025 2.999941,1.00029 2,4e-5 3,7e-5 3.000209,-1.00014 l 3.999756,8e-5 c -4.4e-5,2 -1.99985,4.00024 -3.999844,4.0002 l -16.000057,-3.7e-4 c -1.999994,-4e-5 -4.00025,-0.9999 -4.000206,-2.9999 l 2.2e-5,-1.00046 4.013708,8e-5 c 0.0594,1.00003 1.047247,1.00049 2.986359,1.00053 1.999994,4e-5 2.999699,-4.3e-4 2.999839,-1.00039 2.8e-4,-1.99978 -0.999654,-4.99981 -0.999544,-9.99981"
       transform="translate(176,185)"
       inkscape:path-effect="#path-effect3352-3"
       inkscape:original-d="m -20,125 c 0,-4.99997 -1,-8 -0.999963,-9.99978 C -20.999944,113.99523 -20,114 -18,114 c 2,0 3,0 3.000187,1.00021 h 3.999756 c 0,-2 -1.999762,-4.00028 -3.999756,-4.00028 l -16.000057,10e-6 c -1.999994,0 -4.000272,0.99982 -4.000272,2.99982 v 1.00046 h 4.013708 c 0.05942,-1.00002 1.047269,-1.00046 2.986381,-1.00046 1.999994,0 2.999699,5e-4 2.999817,1.00046 C -25,117 -26,120 -26,125"
       class="UnoptimicedTransforms"
       sodipodi:nodetypes="cscccsssccssc" />
    <rect
       style="vector-effect:non-scaling-stroke;fill:#786721;fill-opacity:0.75;stroke:#1a1a1a;stroke-width:0.204945;stroke-opacity:0.509002;-inkscape-stroke:hairline"
       id="rect3573"
       width="180"
       height="20"
       x="-49.999996"
       y="390" />
    <rect
       style="vector-effect:non-scaling-stroke;fill:#786721;fill-opacity:0.75;stroke:#1a1a1a;stroke-width:0.0617932;stroke-opacity:0.509002;-inkscape-stroke:hairline"
       id="rect3575"
       width="30"
       height="20"
       x="99.999992"
       y="390" />
    <path
       style="vector-effect:non-scaling-stroke;fill:#786721;fill-opacity:0.75;stroke:#1a1a1a;stroke-width:0.264583;stroke-opacity:0.509002;-inkscape-stroke:hairline"
       d="m 103.82498,390.47082 3,1 -3,1 3,1 -3,1 3,1 -3,1 3,1 -3,1 3,1 -3,1 3,1 -3,1 3,1 -3,1 3,1 -3,1 3,1 -3,1 3,1"
       id="path3577"
       sodipodi:nodetypes="cccccccccccccccccccc" />
    <path
       style="vector-effect:non-scaling-stroke;fill:#786721;fill-opacity:0.75;stroke:#1a1a1a;stroke-width:0.264583;stroke-opacity:0.509002;-inkscape-stroke:hairline"
       d="m 111.67502,390.47082 3,1 -3,1 3,1 -3,1 3,1 -3,1 3,1 -3,1 3,1 -3,1 3,1 -3,1 3,1 -3,1 3,1 -3,1 3,1 -3,1 3,1"
       id="path3579"
       sodipodi:nodetypes="cccccccccccccccccccc" />
    <rect
       style="vector-effect:non-scaling-stroke;fill:#786721;fill-opacity:0.75;stroke:#1a1a1a;stroke-width:0.187089;stroke-opacity:0.509002;-inkscape-stroke:hairline"
       id="rect3583"
       width="275"
       height="20"
       x="165"
       y="390" />
    <rect
       style="vector-effect:non-scaling-stroke;fill:#786721;fill-opacity:0.75;stroke:#1a1a1a;stroke-width:0.112819;stroke-opacity:0.509002;-inkscape-stroke:hairline"
       id="rect3913"
       width="100"
       height="20"
       x="165.16306"
       y="390" />
    <rect
       style="vector-effect:non-scaling-stroke;fill:#504416;fill-opacity:0.75;stroke:#1a1a1a;stroke-width:0.0564093;stroke-opacity:0.509002;-inkscape-stroke:hairline"
       id="rect3587"
       width="25"
       height="20"
       x="240.16306"
       y="390" />
    <path
       style="vector-effect:non-scaling-stroke;fill:none;fill-opacity:0.75;stroke:#1a1a1a;stroke-width:0.264583;stroke-opacity:0.509002;-inkscape-stroke:hairline"
       d="m 259.80896,390.47082 3,1 -3,1 3,1 -3,1 3,1 -3,1 3,1 -3,1 3,1 -3,1 3,1 -3,1 3,1 -3,1 3,1 -3,1 3,1 -3,1 3,1"
       id="path3589"
       sodipodi:nodetypes="cccccccccccccccccccc" />
    <rect
       style="vector-effect:non-scaling-stroke;fill:#786721;fill-opacity:0.75;stroke:#1a1a1a;stroke-width:0.204945;stroke-opacity:0.509002;-inkscape-stroke:hairline"
       id="rect3609"
       width="100.00003"
       height="20.000002"
       x="-49.999996"
       y="390" />
    <rect
       style="vector-effect:non-scaling-stroke;fill:#504416;fill-opacity:0.75;stroke:#1a1a1a;stroke-width:0.144918;stroke-opacity:0.509002;-inkscape-stroke:hairline"
       id="rect3611"
       width="50"
       height="20.000002"
       x="1.0926514e-06"
       y="390" />
    <path
       id="path3581"
       style="vector-effect:non-scaling-stroke;fill:#333333;fill-opacity:1;stroke:none;stroke-width:0.259331;stroke-dasharray:none;stroke-dashoffset:0;stroke-opacity:0.509002;-inkscape-stroke:hairline"
       d="m 15.704162,385.99982 c -2,0 -3.99975,0.99982 -3.99975,2.99982 V 400 410.99985 c 0,2 1.99975,2.99981 3.99975,2.99981 h 16.00006 c 2,0 4.00027,-1.99975 4.00027,-3.99975 V 400 390.0001 c 0,-2 -2.00027,-4.00028 -4.00027,-4.00028 z m 14.46579,2.96933 c 0.93755,-0.002 1.53427,0.13456 1.53427,1.03095 V 400 v 9.99991 c 0,1.30383 -1.26233,0.99994 -2.99982,0.99994 -1.73748,0 -2.99981,0.005 -2.99981,-0.99994 h -4.00028 c 0,0.99996 -0.99982,0.99994 -2.99981,0.99994 -2,0 -2.98832,1.1e-4 -2.98949,-1.09709 L 15.704112,400 l 0.0109,-9.90275 c 10e-4,-1.0972 0.98949,-1.09761 2.98949,-1.09761 1.99999,0 2.99981,5e-4 2.99981,1.00046 h 4.00028 c 0,-1.00499 1.26233,-1.00046 2.99981,-1.00046 0.54297,0 1.03938,-0.0295 1.46555,-0.0305 z" />
    <path
       id="path3631"
       style="vector-effect:non-scaling-stroke;fill:#333333;fill-opacity:1;stroke:none;stroke-width:0.264583;stroke-opacity:0.509002;-inkscape-stroke:hairline"
       d="m 4.0158364,168.0207 c -4.97728558,0.0113 -9.1847072,0.34256 -13.015743,0.97927 -0.2069725,1.08311 -0.4152869,2.06711 -0.6154663,2.99982 h 5.6192953 l -0.00362,-0.99994 H 0.99999986 L 1.0382404,181.9997 H 31.038476 l -0.02222,-13.94902 -8.977747,-0.0186 -2.999817,5.99964 H 7.038391 Z m 0,27.9584 c -4.97728558,-0.0113 -9.1847072,-0.34256 -13.015743,-0.97927 -0.2069725,-1.08311 -0.4152869,-2.06711 -0.6154663,-2.99982 h 5.6192953 l -0.00362,0.99994 H 0.99999986 L 1.0382404,182.0001 H 31.038476 l -0.02222,13.94902 -8.977747,0.0186 -2.999817,-5.99964 H 7.038391 Z"
       transform="translate(130.78662,218.0003)"
       inkscape:path-effect="#path-effect3647"
       inkscape:original-d="m 4.0158364,168.0207 c -4.97728558,0.0113 -9.1847072,0.34256 -13.015743,0.97927 -0.2069725,1.08311 -0.4152869,2.06711 -0.6154663,2.99982 h 5.6192953 l -0.00362,-0.99994 H 0.99999986 L 1.0382404,181.9997 H 31.038476 l -0.02222,-13.94902 -8.977747,-0.0186 -2.999817,5.99964 H 7.038391 Z"
       class="UnoptimicedTransforms" />
    <path
       id="path3732"
       style="vector-effect:non-scaling-stroke;fill:#333333;fill-opacity:1;stroke:none;stroke-width:0.137316;stroke-opacity:0.509002;-inkscape-stroke:hairline"
       d="m 15.408857,290.05207 v -9.99031 l 0.999031,-0.99903 2.997091,6e-5 v 0.99897 h 3.996122 v -0.99897 l 3.996123,9e-5 v 10.98919 l 4.99551,-3.4e-4 c 0,-4.99515 -0.999426,-7.99198 -1.998455,-12.98712 l -14.98506,-0.99897 v 1.99794 H 3.4205516 l 0.9989696,-1.99794 c -5.9941712,0 -8.2443625,-0.0387 -10.4894386,1.99794 v 0.99896 h 0.9989696 v 0.99897 l 2.4972552,2.5e-4 1.99836594,1.99769 4.99484786,3.7e-4 1.9980611,-1.99806 4.9950907,-9e-5 v 5.99434 l -0.998969,0.99897 H -1.574662 l -0.9990306,-0.99903 -6.9932138,1.99806 v 1.99806 m 24.9757634,-3.1e-4 1.14e-4,9.99031 0.999042,0.99902 2.997091,-9e-5 -1.1e-5,-0.99897 3.996122,-5e-5 1.1e-5,0.99897 3.996123,-1.3e-4 -1.25e-4,-10.98919 4.99551,2.8e-4 c 5.7e-5,4.99515 -0.999335,7.99199 -1.998307,12.98714 l -14.985049,0.99914 -2.3e-5,-1.99794 -11.988667,1.4e-4 0.9989923,1.99793 c -5.9941712,7e-5 -8.2443621,0.0388 -10.4894613,-1.99782 l -1.14e-5,-0.99896 0.9989696,-10e-6 -1.14e-5,-0.99897 2.4972552,-2.8e-4 1.99834325,-1.99772 4.99484785,-4.2e-4 1.9980838,1.99804 4.9950911,3e-5 -6.9e-5,-5.99434 -0.99898,-0.99896 -11.9883659,1.4e-4 -0.9990192,0.99904 -6.9932366,-1.99798 -2.27e-5,-1.99806"
       transform="matrix(1.0009704,0,0,1.0009704,147.45951,109.66648)"
       inkscape:path-effect="#path-effect3744-5"
       inkscape:original-d="m 15.408857,290.05207 v -9.99031 l 0.999031,-0.99903 2.997091,6e-5 v 0.99897 h 3.996122 v -0.99897 l 3.996123,9e-5 v 10.98919 l 4.99551,-3.4e-4 c 0,-4.99515 -0.999426,-7.99198 -1.998455,-12.98712 l -14.98506,-0.99897 v 1.99794 H 3.4205516 l 0.9989696,-1.99794 c -5.9941712,0 -8.2443625,-0.0387 -10.4894386,1.99794 v 0.99896 h 0.9989696 v 0.99897 l 2.4972552,2.5e-4 1.99836594,1.99769 4.99484786,3.7e-4 1.9980611,-1.99806 4.9950907,-9e-5 v 5.99434 l -0.998969,0.99897 H -1.574662 l -0.9990306,-0.99903 -6.9932138,1.99806 v 1.99806"
       class="UnoptimicedTransforms"
       sodipodi:nodetypes="cccccccccccccccccccccccccccccc" />
    <path
       id="path7545"
       style="vector-effect:non-scaling-stroke;fill:#333333;fill-opacity:1;stroke:none;stroke-width:0.259331;stroke-dasharray:none;stroke-dashoffset:0;stroke-opacity:0.509002;-inkscape-stroke:hairline"
       d="m -20,125 c 0,-4.99997 -1,-8 -0.999963,-9.99978 C -20.999944,113.99523 -20,114 -18,114 c 2,0 3,0 3.000187,1.00021 h 3.999756 c 0,-2 -1.999762,-4.00028 -3.999756,-4.00028 l -16.000057,10e-6 c -1.999994,0 -4.000272,0.99982 -4.000272,2.99982 v 1.00046 h 4.013708 c 0.05942,-1.00002 1.047269,-1.00046 2.986381,-1.00046 1.999994,0 2.999699,5e-4 2.999817,1.00046 C -25,117 -26,120 -26,125 m 6,4e-4 c -1.1e-4,4.99997 -1.000176,7.99997 -1.000183,9.99975 -3e-6,1.00499 0.999941,1.00025 2.999941,1.00029 2,4e-5 3,7e-5 3.000209,-1.00014 l 3.999756,8e-5 c -4.4e-5,2 -1.99985,4.00024 -3.999844,4.0002 l -16.000057,-3.7e-4 c -1.999994,-4e-5 -4.00025,-0.9999 -4.000206,-2.9999 l 2.2e-5,-1.00046 4.013708,8e-5 c 0.0594,1.00003 1.047247,1.00049 2.986359,1.00053 1.999994,4e-5 2.999699,-4.3e-4 2.999839,-1.00039 2.8e-4,-1.99978 -0.999654,-4.99981 -0.999544,-9.99981"
       transform="translate(176,135)"
       inkscape:path-effect="#path-effect7549"
       inkscape:original-d="m -20,125 c 0,-4.99997 -1,-8 -0.999963,-9.99978 C -20.999944,113.99523 -20,114 -18,114 c 2,0 3,0 3.000187,1.00021 h 3.999756 c 0,-2 -1.999762,-4.00028 -3.999756,-4.00028 l -16.000057,10e-6 c -1.999994,0 -4.000272,0.99982 -4.000272,2.99982 v 1.00046 h 4.013708 c 0.05942,-1.00002 1.047269,-1.00046 2.986381,-1.00046 1.999994,0 2.999699,5e-4 2.999817,1.00046 C -25,117 -26,120 -26,125"
       class="UnoptimicedTransforms"
       sodipodi:nodetypes="cscccsssccssc" />
    <rect
       style="vector-effect:non-scaling-stroke;fill:#786721;fill-opacity:0.75;stroke:#1a1a1a;stroke-width:0.204945;stroke-opacity:0.509002;-inkscape-stroke:hairline"
       id="rect3609-6"
       width="100.00003"
       height="20.000002"
       x="339.99997"
       y="390" />
    <rect
       style="vector-effect:non-scaling-stroke;fill:#504416;fill-opacity:0.75;stroke:#1a1a1a;stroke-width:0.144918;stroke-opacity:0.509002;-inkscape-stroke:hairline"
       id="rect3611-2"
       width="50"
       height="20.000002"
       x="340"
       y="390" />
    <path
       id="path3581-9"
       style="vector-effect:non-scaling-stroke;fill:#333333;fill-opacity:1;stroke:none;stroke-width:0.259331;stroke-dasharray:none;stroke-dashoffset:0;stroke-opacity:0.509002;-inkscape-stroke:hairline"
       d="m 355.70416,385.99982 c -2,0 -3.99975,0.99982 -3.99975,2.99982 V 400 410.99985 c 0,2 1.99975,2.99981 3.99975,2.99981 h 16.00006 c 2,0 4.00027,-1.99975 4.00027,-3.99975 V 400 390.0001 c 0,-2 -2.00027,-4.00028 -4.00027,-4.00028 z m 14.46579,2.96933 c 0.93755,-0.002 1.53427,0.13456 1.53427,1.03095 V 400 v 9.99991 c 0,1.30383 -1.26233,0.99994 -2.99982,0.99994 -1.73748,0 -2.99981,0.005 -2.99981,-0.99994 h -4.00028 c 0,0.99996 -0.99982,0.99994 -2.99981,0.99994 -2,0 -2.98832,1.1e-4 -2.98949,-1.09709 L 355.70411,400 l 0.0109,-9.90275 c 10e-4,-1.0972 0.98949,-1.09761 2.98949,-1.09761 1.99999,0 2.99981,5e-4 2.99981,1.00046 h 4.00028 c 0,-1.00499 1.26233,-1.00046 2.99981,-1.00046 0.54297,0 1.03938,-0.0295 1.46555,-0.0305 z" />
  </g>
</svg>
