<?xml version="1.0" encoding="UTF-8" standalone="no"?>
<!-- Created with Inkscape (http://www.inkscape.org/) -->

<svg
   width="782.5329mm"
   height="596.2041mm"
   viewBox="0 0 782.5329 596.2041"
   version="1.1"
   id="svg1"
   xmlns:xlink="http://www.w3.org/1999/xlink"
   xmlns="http://www.w3.org/2000/svg"
   xmlns:svg="http://www.w3.org/2000/svg">
  <defs
     id="defs1" />
  <g
     id="layer1"
     transform="translate(284.21543,-1398.4549)">
    <g
       id="g538">
      <use
         x="0"
         y="0"
         xlink:href="#path-1-18"
         id="use280"
         transform="matrix(1.3019437,0,0,0.95709939,-53.667488,-745.11712)"
         style="fill:#000000" />
      <path
         d="m 483.92294,1398.5821 c 9.36877,96.6885 14.07697,193.9494 12.89737,291.2305 -0.37399,30.8422 -3.10406,61.6532 -2.64864,92.5226 0.2387,16.1797 4.42837,82.9409 -0.80603,97.7274 -0.60437,1.7073 -3.53728,-0.4824 -5.29716,-0.7808"
         id="use281"
         style="fill:none;fill-rule:nonzero;stroke:#000000;stroke-width:2.6373" />
      <use
         x="0"
         y="0"
         xlink:href="#path-1-22"
         id="use282"
         transform="matrix(1.4052882,0,0,0.92662588,-83.56113,-679.25152)"
         style="fill:#000000" />
      <path
         d="m -83.790296,1891.3838 c -12.322218,-87.6951 -10.887747,-176.3561 -14.624652,-264.6841 -2.235112,-52.8306 -5.560662,-106.5288 -4.260762,-159.4091 0.43194,-17.5717 1.06193,-36.274 2.994044,-53.7436 0.310951,-2.8114 2.418247,-4.4802 2.418247,-7.5475"
         id="use283"
         style="fill:none;fill-rule:nonzero;stroke:#000000;stroke-width:2.69941" />
      <path
         style="fill:#000000;stroke:#000000;stroke-width:0.264583"
         id="path345"
         d="m -258.00203,1551.585 c -4.24179,-0.5756 -8.45011,-1.3674 -12.62693,-2.2996 -3.43647,-0.972 -6.21332,-1.3158 -6.33928,4.8143 -0.003,5.0603 -0.61222,10.0826 -1.56978,15.0435 -0.23917,1.8547 -0.98431,3.5963 -1.39192,5.4063 -0.0996,1.1128 2.69083,-0.23 3.00244,-0.3225 3.1076,-0.7398 6.86926,-1.0788 9.50861,1.1524 0.56123,0.4744 0.95332,1.1188 1.43003,1.6782 1.41003,3.719 0.70327,7.7046 -1.13631,11.1716 -0.47399,0.8933 -1.14205,1.6699 -1.67969,2.5265 -0.3342,0.5325 0.71278,-1.0359 1.06917,-1.5538 -3.79047,1.9853 -10.19902,3.4242 -14.32462,1.6342 -0.70488,-0.3058 -1.23196,-0.9186 -1.84789,-1.3779 l -0.13936,0.1434 v 0 c 0.34025,0.5329 2.30645,3.6813 2.74094,4.0705 3.00872,2.6948 7.59031,0.7876 10.73381,-0.4765 1.87308,-1.8256 3.87344,-3.5291 5.61915,-5.4768 2.56867,-2.866 3.9442,-7.9419 3.31935,-11.7098 -0.14586,-0.8796 -0.56263,-1.6922 -0.84394,-2.5383 -0.51859,-0.5928 -0.95386,-1.2704 -1.55577,-1.7786 -2.70482,-2.284 -6.53679,-2.1791 -9.77947,-1.4625 -0.33346,0.086 -2.26974,0.3652 -2.54681,0.7885 -0.0978,0.1494 0.06,0.497 0.23777,0.4803 0.0549,-0.01 0.0379,-0.1041 0.0559,-0.1561 0.69889,-1.7037 0.77119,-3.63 1.26604,-5.3885 0.91027,-5.0249 1.47828,-10.0888 1.65626,-15.1952 0.0419,-0.3561 0.4284,-1.2618 0.12652,-1.0683 -1.28791,0.8258 -2.2185,2.1076 -3.35122,3.1359 -0.0786,0.071 0.0814,-0.2321 0.18362,-0.2604 0.73717,-0.2034 1.68392,0.5033 2.41104,0.3871 4.2193,0.7759 8.43795,1.5545 12.66527,2.2863 z" />
      <path
         style="fill:#000000;stroke:#000000;stroke-width:0.264583"
         id="path346"
         d="m -227.48056,1560.4327 c -7.48323,1.0809 -12.94816,7.3856 -17.41024,12.944 -1.03126,1.2846 -1.74848,2.7924 -2.62267,4.1886 -2.18965,5.0936 -4.78131,12.4103 -1.39968,17.6811 1.9148,2.9847 3.78468,3.194 6.8566,4.4715 1.47806,0.1227 2.95719,0.5036 4.43407,0.3681 7.83686,-0.7191 14.70277,-8.6102 17.15037,-15.5746 0.57435,-1.6343 0.80954,-3.3687 1.21426,-5.053 0.0978,-1.6415 0.3602,-3.2815 0.29355,-4.9246 -0.17954,-4.4153 -1.68541,-10.3658 -6.05786,-12.4496 -0.71558,-0.341 -1.52918,-0.418 -2.29373,-0.627 -0.74,0.082 -1.47991,0.1638 -2.21982,0.2457 l -0.12957,0.1524 v 0 c 0.4148,0.2702 0.8297,0.5405 1.2445,0.8108 3.64369,3.8243 5.7962,9.6605 5.96311,14.9229 0.0514,1.6158 -0.21528,3.226 -0.32297,4.8391 -2.22275,8.5609 -0.0347,1.5602 -3.61405,9.6274 -0.0641,0.1438 0.17645,0.3698 0.0544,0.4687 -3.82541,3.0962 -7.60624,4.4995 -12.53021,3.6176 -2.95263,-1.1941 -4.7207,-1.3448 -6.52533,-4.2268 -3.27055,-5.2229 -0.54571,-12.3825 1.67529,-17.3443 0.88736,-1.3775 1.86028,-2.7034 2.6619,-4.1325 0.0492,-0.088 -0.35374,-0.038 -0.28226,-0.1098 2.93113,-2.9265 6.48108,-5.474 10.67584,-6.0119 z" />
      <path
         style="fill:#000000;stroke:#000000;stroke-width:0.264583"
         id="path347"
         d="m -184.93134,1574.0261 c -4.01888,0.2509 -8.41578,1.2975 -11.23591,4.4227 -1.60536,1.7791 -3.03588,3.7085 -4.55381,5.5628 -0.18202,0.8442 -0.49912,1.6703 -0.54605,2.5326 -0.19997,3.6806 2.07604,6.7762 5.20135,8.4765 0.71868,0.391 1.51947,0.607 2.27931,0.9105 4.92239,1.0628 8.08271,-1.6418 11.71798,-4.5388 l 0.11869,-0.1609 v 0 c -2.82307,0.2793 -5.5504,1.577 -8.44229,0.8734 -0.73271,-0.2727 -1.50658,-0.4531 -2.19793,-0.818 -2.93606,-1.55 -5.08471,-4.5392 -4.87423,-7.965 0.0482,-0.791 0.35692,-1.5443 0.53527,-2.3164 -0.63583,0.4036 -1.97399,1.961 -1.90761,1.2108 0.0782,-0.8864 1.25069,-1.2754 1.96078,-1.8116 2.6583,-2.0074 5.8872,-2.878 9.17101,-3.0153 z" />
      <path
         style="fill:#000000;stroke:#000000;stroke-width:0.264583"
         id="path348"
         d="m -173.25059,1577.4389 c -0.45294,5.3058 -2.70464,10.4768 -2.55484,15.829 0.32717,-0.1446 0.65424,-0.2891 0.98131,-0.4336 l 0.14998,-0.1324 v 0 l 0.99559,-1.2429 c 2.01367,-5.5644 3.0723,-11.4103 4.14356,-17.2154 z" />
      <path
         style="fill:#000000;stroke:#000000;stroke-width:0.264583"
         id="path349"
         d="m -171.58692,1577.9247 c 1.80855,-1.2084 5.71575,-4.1908 8.01129,-2.8548 0.40369,0.2349 0.64537,0.6753 0.968,1.013 1.47468,4.599 -0.0564,9.5666 -0.94221,14.1629 -0.22634,0.8534 -0.43755,1.8775 -0.82961,2.7015 -0.0797,0.1673 -0.44128,0.5943 -0.31823,0.4557 3.82643,-4.3074 2.62881,-2.2458 3.32347,-5.5126 1.31512,-3.8838 3.29816,-7.5134 5.21591,-11.1271 -1.23481,0.9943 2.47692,-3.3868 1.77383,-2.6059 -0.7707,0.8557 -1.69101,1.618 -2.23952,2.6307 -0.17294,0.3193 0.66518,-0.307 1.02077,-0.3806 0.94278,-0.1953 1.14799,-0.017 2.03055,0.2462 0.28649,0.2115 0.62005,0.3709 0.85938,0.6345 2.11062,2.3246 2.08926,8.9075 2.29594,11.8377 0.42575,1.2902 -0.27384,6.5214 0.60751,7.5628 0.22702,0.2683 0.70251,0.023 1.05371,0.035 l 0.15141,-0.1306 v 0 c 0.44626,-0.7151 1.0267,-1.3622 1.33887,-2.1452 1.05516,-2.6468 0.11086,-5.6858 0.28508,-8.4055 -0.18749,-3.2055 -0.10025,-9.7403 -2.42194,-12.2855 -0.27694,-0.3037 -0.65489,-0.4968 -0.98233,-0.7452 -4.62034,-1.4876 -7.21164,2.9837 -9.28266,6.5707 -1.88391,3.6603 -3.93032,7.3025 -5.14544,11.2499 -0.21495,1.5411 -0.36286,2.2858 -0.0328,2.154 3.03898,-1.2137 3.64608,-1.659 4.27527,-3.9407 0.15357,-0.5568 0.2814,-1.1203 0.4221,-1.6805 0.98844,-3.8647 2.36238,-8.925 1.55353,-12.9057 -0.1296,-0.6376 -0.44728,-1.2219 -0.67087,-1.8329 -0.39065,-0.3924 -0.69355,-0.8983 -1.17193,-1.1772 -2.79635,-1.6307 -6.45953,1.525 -8.62022,2.9193 z" />
      <path
         style="fill:#000000;stroke:#000000;stroke-width:0.264583"
         id="path350"
         d="m 151.86123,1947.6132 c -4.6083,2.3839 -8.39439,5.9437 -11.60837,9.9793 -6.64128,8.3389 -5.04977,6.0107 -8.97237,13.0149 -2.76504,6.7528 -3.49096,14.6135 2.24162,20.0698 0.79121,0.753 1.7504,1.3069 2.6256,1.9604 3.60794,1.8774 7.72555,2.8626 11.42006,0.5166 3.13538,-1.9909 6.84323,-7.4356 8.50117,-9.4823 1.29577,-2.3147 3.00993,-5.1425 1.90666,-7.9288 -0.92454,-2.3351 -3.32364,-3.2274 -5.42617,-4.0714 -3.83406,-1.0851 -7.03568,0.4789 -10.13925,2.5894 l -0.11016,0.1669 v 0 c 2.35178,0.4413 4.8047,0.3288 7.04757,1.3343 1.81745,0.9139 4.03665,1.8689 4.72061,4.0257 0.86194,2.7177 -0.91129,5.4012 -2.18265,7.5982 0.44377,-0.4573 1.82085,-1.7796 1.3312,-1.3719 -0.88452,0.7364 -1.57749,1.6998 -2.51933,2.3612 -3.47184,2.438 -7.39718,1.6248 -10.89095,-0.2116 -0.84594,-0.6182 -1.7742,-1.1373 -2.53783,-1.8547 -5.56418,-5.2277 -4.6556,-12.8873 -2.01066,-19.3385 0.85419,-1.5182 1.81463,-2.9814 2.56266,-4.5546 0.056,-0.1188 -0.33038,-0.1964 -0.25307,-0.3028 2.97219,-4.093 6.8778,-7.5192 11.30687,-9.9385 z" />
      <path
         style="fill:#000000;stroke:#000000;stroke-width:0.264583"
         id="path351"
         d="m 179.64616,1967.7972 c 1.61337,-1.1883 4.08922,-1.6887 5.43066,-3.2591 1.2057,-1.4115 2.3051,-2.9105 3.45774,-4.3657 -1.49635,-1.7396 -5.73471,-0.5715 -7.37732,0.3269 -0.95444,0.5221 -1.77651,1.2561 -2.66485,1.8842 -5.64854,5.9778 -11.63467,13.4727 -11.13499,22.26 0.0588,1.0351 0.41862,2.0309 0.62798,3.0464 0.50571,0.7644 0.86244,1.6518 1.51703,2.2932 5.02996,4.9292 12.88482,-1.4464 16.84053,-4.5558 5.80577,-5.6687 11.34206,-12.0969 14.22575,-19.801 0.44975,-1.2013 0.90031,-2.4281 1.05109,-3.702 0.12067,-1.0192 -0.16659,-2.0458 -0.24939,-3.0688 -1.07442,-2.3044 -2.95272,-4.6226 -5.60542,-5.2293 -0.92024,-0.2104 -1.88798,-0.01 -2.83187,-0.019 -0.77365,-0.01 -1.54711,-0.026 -2.32066,-0.039 l -0.12212,0.1584 v 0 c 1.89252,1.816 0.99036,0.7749 2.63742,3.1821 0.56043,0.5753 1.33611,0.8992 1.94055,1.428 2.02908,1.7752 1.67212,1.6673 2.81277,4.0951 0.0373,0.988 0.25326,1.9852 0.11309,2.9638 -0.63467,4.4295 -3.40216,8.1129 -5.53726,11.8736 -0.05,0.088 0.0867,0.2264 0.0185,0.3017 -1.1098,1.2437 -2.32459,2.3896 -3.48683,3.5844 -3.55499,2.8603 -11.34426,9.4578 -16.03935,4.9017 -0.60925,-0.5912 -0.93157,-1.4195 -1.39735,-2.1293 -0.19316,-0.9654 -0.53208,-1.9127 -0.57949,-2.8961 -0.11878,-2.4648 0.53178,-5.2932 1.33633,-7.5765 0.49435,-1.403 1.42652,-2.646 1.78667,-4.0893 0.067,-0.2684 -0.95925,0.4108 -0.81069,0.1774 0.68858,-1.0818 1.69203,-1.9275 2.53794,-2.8913 0.83832,-0.6356 1.60703,-1.3751 2.51486,-1.9067 1.38939,-0.8136 4.78084,-1.945 6.38468,-1.0625 5.17123,-5.8779 3.44698,-3.7146 2.03956,-2.4857 -1.72111,1.5027 -3.5173,2.9444 -5.49419,4.0987 z" />
      <path
         style="fill:#000000;stroke:#000000;stroke-width:0.264583"
         id="path352"
         d="m 222.61534,1969.5733 c -5.6914,2.1189 -9.83037,6.8731 -13.08935,11.8539 -0.42848,0.6549 -0.42138,1.5074 -0.63206,2.2611 0.068,0.7186 0.01,1.459 0.19415,2.1565 0.7468,2.8013 3.47254,5.0502 6.27934,5.5234 0.81243,0.1369 1.64726,0.043 2.47094,0.064 3.74187,-0.9843 1.85754,-0.1987 5.55184,-2.586 l 0.11219,-0.1656 v 0 c -1.47805,-1.1974 -0.58789,-0.7348 -2.76904,-1.1787 -4.23989,-1.1054 -7.63763,-2.9248 -7.65538,-7.818 0.83613,-2.7082 1.19296,-2.8192 -1.43499,0.1687 -0.61865,0.7033 1.24904,-1.4005 1.93976,-2.0334 1.73755,-1.5921 3.72686,-2.9399 5.96293,-3.7109 z" />
      <path
         style="fill:#000000;stroke:#000000;stroke-width:0.264583"
         id="path353"
         d="m 236.77938,1969.9665 c -1.47899,3.9918 -3.14653,7.9474 -4.06158,12.1198 -0.38025,1.7339 -0.73742,1.453 0.25702,1.7278 l 0.14518,-0.1376 v 0 c 3.49522,-5.2143 4.90539,-11.5039 7.39847,-17.2092 z" />
      <path
         style="fill:#000000;stroke:#000000;stroke-width:0.264583"
         id="path354"
         d="m 237.78235,1971.2469 c 2.31414,-1.4816 5.55274,-3.9004 8.44782,-2.4079 0.46539,0.2399 0.80611,0.6685 1.20922,1.0028 2.0443,3.7743 0.51762,8.1387 -0.6995,11.9564 1.12292,-1.1071 -1.34574,2.6294 -0.847,2.0737 1.2646,-1.4091 2.54412,-2.8198 3.61564,-4.3808 0.32757,-0.4772 0.32636,-1.1116 0.52719,-1.6544 0.75972,-2.0533 0.99651,-2.3637 2.02214,-4.3744 0.47672,-0.733 1.12505,-1.3797 1.43025,-2.1992 0.2271,-0.6101 -1.83839,1.589 -1.18848,1.55 0.78605,-0.047 1.13441,-1.0963 1.7528,-1.5838 1.42326,-1.1222 2.86948,-1.7949 4.5991,-2.2435 0.33192,0.063 0.7004,0.025 0.99578,0.1894 1.71275,0.9517 1.41131,6.7321 1.51985,8.4088 0.48136,2.161 -0.11382,1.4159 1.49764,2.4373 l 0.13984,-0.143 v 0 c 1.23401,-3.6225 0.76419,-1.8151 1.44334,-5.4131 0.13427,-2.1718 0.7526,-7.8707 -1.74245,-9.124 -0.36829,-0.185 -0.81003,-0.153 -1.21505,-0.2295 -5.84052,1.3386 -9.5993,6.5542 -12.57734,11.4362 -1.0104,2.0273 -1.27731,2.4132 -2.03491,4.4868 -0.21386,0.5855 -1.18181,1.8707 -0.56465,1.7828 2.93318,-0.4178 3.32786,-2.2612 4.05871,-4.2906 1.23911,-3.9971 2.63178,-8.5081 0.30113,-12.3553 -0.45842,-0.3754 -0.84601,-0.8597 -1.37528,-1.1261 -3.12437,-1.5727 -6.59844,1.2447 -9.14746,2.7164 z" />
    </g>
  </g>
</svg>
